<svg width="72" height="72" viewBox="0 0 72 72" fill="none" xmlns="http://www.w3.org/2000/svg">
<rect x="0.435625" y="0.435625" width="71.1288" height="71.1288" rx="7.56437" fill="white" stroke="url(#paint0_linear_1276_2464)" stroke-width="0.87125"/>
<path d="M8 17.2683C8 14.3587 10.4005 12 13.3617 12H22H29H34.6074C35.9575 12 37.2579 12.5005 38.2489 13.4014L43.7913 18.4405C44.2042 18.8159 44.746 19.0244 45.3085 19.0244V19.0244H47.0585H48.8085H45.4574H48.9574H50H61.617C62.9331 19.0244 64 20.0727 64 21.3659V54.7317C64 57.6413 61.5995 60 58.6383 60H13.3617C10.4005 60 8 57.6413 8 54.7317V17.2683Z" fill="#5671FF"/>
<path fill-rule="evenodd" clip-rule="evenodd" d="M63.7021 54.7317V21.3659C63.7021 20.2343 62.7686 19.3171 61.617 19.3171H45.3085C44.671 19.3171 44.0569 19.0807 43.589 18.6553L38.0466 13.6162C37.1107 12.7653 35.8825 12.2927 34.6074 12.2927H13.3617C10.565 12.2927 8.29787 14.5203 8.29787 17.2683V54.7317C8.29787 57.4797 10.565 59.7073 13.3617 59.7073H58.6383C61.435 59.7073 63.7021 57.4797 63.7021 54.7317ZM61.617 19.0244C62.9331 19.0244 64 20.0727 64 21.3659V54.7317C64 57.6413 61.5995 60 58.6383 60H13.3617C10.4005 60 8 57.6413 8 54.7317V17.2683C8 14.3587 10.4005 12 13.3617 12H34.6074C35.9575 12 37.2579 12.5005 38.2489 13.4014L43.7913 18.4405C44.2042 18.8159 44.746 19.0244 45.3085 19.0244H61.617Z" fill="url(#paint1_linear_1276_2464)"/>
<path d="M10.6807 22.536C10.6807 21.8894 11.2141 21.3652 11.8722 21.3652H60.1275C60.7855 21.3652 61.319 21.8894 61.319 22.536V43.6091C61.319 44.2557 60.7855 44.7799 60.1275 44.7799H11.8722C11.2141 44.7799 10.6807 44.2557 10.6807 43.6091V22.536Z" fill="#DCE1FF"/>
<path d="M12.7659 24.2918C12.7659 23.6452 13.2993 23.1211 13.9574 23.1211H58.0425C58.7005 23.1211 59.2339 23.6452 59.2339 24.2918V43.6089C59.2339 44.2555 58.7005 44.7796 58.0425 44.7796H13.9574C13.2993 44.7796 12.7659 44.2555 12.7659 43.6089V24.2918Z" fill="white"/>
<path d="M64 27.8044C64 26.5112 62.9331 25.4629 61.617 25.4629H50H43H37.3926C36.0425 25.4629 34.7421 25.9634 33.7511 26.8643L28.2087 31.9034C27.7958 32.2788 27.254 32.4873 26.6915 32.4873V32.4873H24.9415H23.1915H26.5426H23.0426H22H9.19149C8.53345 32.4873 8 33.0114 8 33.658V54.7312C8 57.6408 10.4005 59.9995 13.3617 59.9995H58.6383C61.5995 59.9995 64 57.6408 64 54.7312V27.8044Z" fill="url(#paint2_linear_1276_2464)"/>
<path fill-rule="evenodd" clip-rule="evenodd" d="M8.29787 54.7312V33.658C8.29787 33.1731 8.69796 32.78 9.19149 32.78H26.6915C27.329 32.78 27.9431 32.5436 28.411 32.1182L33.9534 27.0791C34.8893 26.2282 36.1175 25.7556 37.3926 25.7556H61.617C62.7686 25.7556 63.7021 26.6728 63.7021 27.8044V54.7312C63.7021 57.4791 61.435 59.7068 58.6383 59.7068H13.3617C10.565 59.7068 8.29787 57.4791 8.29787 54.7312ZM9.19149 32.4873C8.53345 32.4873 8 33.0114 8 33.658V54.7312C8 57.6408 10.4005 59.9995 13.3617 59.9995H58.6383C61.5995 59.9995 64 57.6408 64 54.7312V27.8044C64 26.5112 62.9331 25.4629 61.617 25.4629H37.3926C36.0425 25.4629 34.7421 25.9634 33.7511 26.8643L28.2087 31.9034C27.7958 32.2788 27.254 32.4873 26.6915 32.4873H9.19149Z" fill="url(#paint3_linear_1276_2464)"/>
<defs>
<linearGradient id="paint0_linear_1276_2464" x1="77.6757" y1="64.5405" x2="35.9839" y2="53.5747" gradientUnits="userSpaceOnUse">
<stop stop-color="#CBEFFF" stop-opacity="0.16"/>
<stop offset="1" stop-color="white" stop-opacity="0"/>
</linearGradient>
<linearGradient id="paint1_linear_1276_2464" x1="36" y1="12" x2="36" y2="60" gradientUnits="userSpaceOnUse">
<stop stop-color="#3152FF"/>
<stop offset="1" stop-color="#8FA1FF"/>
</linearGradient>
<linearGradient id="paint2_linear_1276_2464" x1="36" y1="25.4629" x2="36" y2="61.7556" gradientUnits="userSpaceOnUse">
<stop stop-color="#A0AFFF"/>
<stop offset="1" stop-color="#5670FF"/>
</linearGradient>
<linearGradient id="paint3_linear_1276_2464" x1="36" y1="25.4629" x2="36" y2="61.7556" gradientUnits="userSpaceOnUse">
<stop stop-color="#BCC6FF"/>
<stop offset="1" stop-color="#4965FF"/>
</linearGradient>
</defs>
</svg>
