<!--
  - * @LastEditors: zhanghengxin ezreal.zhang@icewhale.org
  - * @LastEditTime: 2022/12/2 上午11:09
  - * @FilePath: /CasaOS-UI/public/img/icon/safari-pinned-tab.svg
  - * @Description:
  - *
  - * Copyright (c) 2022 by IceWhale, All Rights Reserved.
  -->

<svg width="267" height="267" viewBox="0 0 267 267" fill="none" xmlns="http://www.w3.org/2000/svg">
	<path opacity="0.95"
		  d="M67.25 220.914C103.839 220.914 133.5 191.253 133.5 154.664C133.5 118.075 103.839 88.4138 67.25 88.4138C30.6611 88.4138 1 118.075 1 154.664C1 191.253 30.6611 220.914 67.25 220.914Z"
		  fill="#4CE7FF"/>
	<path opacity="0.95"
		  d="M133.5 221.198C183.536 221.198 224.099 180.636 224.099 130.599C224.099 80.5626 183.536 40 133.5 40C83.4635 40 42.9009 80.5626 42.9009 130.599C42.9009 180.636 83.4635 221.198 133.5 221.198Z"
		  fill="#0067C2"/>
	<path opacity="0.95"
		  d="M199.75 220.914C236.339 220.914 266 191.253 266 154.664C266 118.075 236.339 88.4138 199.75 88.4138C163.161 88.4138 133.5 118.075 133.5 154.664C133.5 191.253 163.161 220.914 199.75 220.914Z"
		  fill="#4CE7FF"/>
</svg>
