<?xml version="1.0" encoding="utf-8"?>
<!-- Generator: Adobe Illustrator 25.2.3, SVG Export Plug-In . SVG Version: 6.00 Build 0)  -->
<svg version="1.1" id="图层_1" xmlns="http://www.w3.org/2000/svg" xmlns:xlink="http://www.w3.org/1999/xlink" x="0px"
	 y="0px"
	 viewBox="0 0 128 128" style="enable-background:new 0 0 128 128;" xml:space="preserve">
<style type="text/css">
	.st0{fill:#A6C8F4;}
	.st1{filter:url(#Adobe_OpacityMaskFilter);}
	.st2{mask:url(#SVGID_1_);}
	.st3{clip-path:url(#SVGID_3_);fill:#FFFFFF;}
	.st4{clip-path:url(#SVGID_3_);fill:#A6C8F4;}
	.st5{clip-path:url(#SVGID_3_);fill-rule:evenodd;clip-rule:evenodd;fill:#000E26;}
	.st6{clip-path:url(#SVGID_3_);fill:#F4F4F4;}
	.st7{clip-path:url(#SVGID_3_);fill:#000E26;}
</style>
	<circle class="st0" cx="64" cy="64" r="64"/>
	<defs>
	<filter id="Adobe_OpacityMaskFilter" filterUnits="userSpaceOnUse" x="0" y="0" width="128" height="138.5">
		<feColorMatrix type="matrix" values="1 0 0 0 0  0 1 0 0 0  0 0 1 0 0  0 0 0 1 0"/>
	</filter>
</defs>
	<mask maskUnits="userSpaceOnUse" x="0" y="0" width="128" height="138.5" id="SVGID_1_">
	<g class="st1">
		<circle class="st0" cx="64" cy="64" r="64"/>
	</g>
</mask>
	<g class="st2">
	<g>
		<defs>
			<rect id="SVGID_2_" width="128" height="128"/>
		</defs>
		<clipPath id="SVGID_3_">
			<use xlink:href="#SVGID_2_" style="overflow:visible;"/>
		</clipPath>
		<path class="st3" d="M106.5,138.5c0,0,0-9.7,0-24.3c0-16.7-20.4-24.2-20.4-24.2H41.9c0,0-20.4,7.5-20.4,24.2c0,14.6,0,24.3,0,24.3
			"/>
		<path class="st4" d="M86.1,90l-8.5,2c0,0,20.4,5.2,20.4,24.2c0,10.2,0,19.3,0,22.3h8.5c0,0,0-9.7,0-24.3
			C106.5,97.5,86.1,90,86.1,90z"/>
		<path class="st5" d="M41.6,89.1c0,0,0,0,0.3,0.9s0.3,0.9,0.3,0.9l0,0l0,0l0,0c0,0-0.1,0-0.2,0.1c-0.1,0.1-0.4,0.1-0.6,0.3
			c-0.5,0.2-1.3,0.6-2.3,1c-1.9,0.9-4.4,2.4-6.9,4.3c-5,3.9-9.8,9.7-9.8,17.6v24.3c0,0,0,0-1,0s-1,0-1,0v-24.3
			c0-8.8,5.4-15.1,10.6-19.1c2.6-2,5.2-3.5,7.2-4.5c1-0.5,1.8-0.9,2.4-1.1c0.3-0.1,0.5-0.2,0.7-0.3C41.4,89.1,41.5,89.1,41.6,89.1
			C41.5,89.1,41.5,89.1,41.6,89.1L41.6,89.1L41.6,89.1L41.6,89.1z"/>
		<path class="st5" d="M85.7,90.9c0,0,0,0,0.3-0.9c0.3-0.9,0.3-0.9,0.3-0.9l0,0l0,0l0,0c0,0,0,0,0,0c0,0,0.1,0,0.2,0.1
			c0.2,0.1,0.4,0.2,0.7,0.3c0.6,0.2,1.4,0.6,2.4,1.1c2,1,4.6,2.5,7.2,4.5c5.2,4,10.6,10.3,10.6,19.1v24.3c0,0,0,0-1,0s-1,0-1,0
			v-24.3c0-7.9-4.8-13.7-9.8-17.6c-2.5-1.9-5-3.4-6.9-4.3c-0.9-0.5-1.7-0.8-2.3-1c-0.3-0.1-0.5-0.2-0.6-0.3
			C85.9,91,85.8,91,85.7,90.9L85.7,90.9L85.7,90.9L85.7,90.9z"/>
		<circle class="st6" cx="64" cy="118" r="10"/>
		<path class="st4" d="M64,108c-0.5,0-1,0.1-1.5,0.1c4.8,0.7,8.5,4.9,8.5,9.9s-3.7,9.2-8.5,9.9c0.5,0.1,1,0.1,1.5,0.1
			c5.5,0,10-4.5,10-10S69.5,108,64,108z"/>
		<path class="st5" d="M53,118c0-6.1,4.9-11,11-11c6.1,0,11,4.9,11,11s-4.9,11-11,11C57.9,129,53,124.1,53,118z M64,109
			c-5,0-9,4-9,9s4,9,9,9c5,0,9-4,9-9S69,109,64,109z"/>
		<path class="st6" d="M98.8,45.7l1.6-0.1c4.1-0.2,7.8,5.2,8.1,12.1c0.4,6.9-2.7,12.7-6.8,12.9l-1.6,0.1"/>
		<path class="st4" d="M108.6,57.7c-0.4-6.9-4-12.3-8.1-12.1l-1.4,0.1c3.7,0.7,6.7,5.7,7.1,12c0.3,6.4-2.3,11.8-6,12.7l0,0.2
			l1.6-0.1C105.9,70.4,109,64.6,108.6,57.7z"/>
		<path class="st5" d="M105.1,49.6c-1.4-2-3-3-4.6-2.9l-1.6,0.1l-0.1-2l1.6-0.1c0,0,0,0,0,0c2.6-0.1,4.8,1.5,6.4,3.8
			c1.6,2.4,2.6,5.6,2.8,9.2c0.2,3.6-0.5,6.9-1.8,9.5c-1.3,2.5-3.4,4.3-5.9,4.5l-1.6,0.1l-0.1-2l1.6-0.1c1.6-0.1,3.1-1.2,4.3-3.4
			c1.1-2.1,1.8-5.1,1.6-8.4C107.5,54.5,106.5,51.6,105.1,49.6z"/>
		<path class="st6" d="M29.2,45.7l-1.6-0.1c-4.1-0.2-7.8,5.2-8.1,12.1c-0.4,6.9,2.7,12.7,6.8,12.9l1.6,0.1"/>
		<path class="st5" d="M27.6,44.7C27.6,44.7,27.6,44.7,27.6,44.7l1.6,0.1l-0.1,2l-1.6-0.1c-1.6-0.1-3.2,0.9-4.6,2.9
			c-1.4,2-2.3,4.9-2.5,8.2c-0.2,3.3,0.5,6.3,1.6,8.4c1.1,2.2,2.7,3.3,4.3,3.4l1.6,0.1l-0.1,2l-1.6-0.1c-2.6-0.1-4.6-2-5.9-4.5
			c-1.3-2.5-2-5.9-1.8-9.5c0.2-3.6,1.2-6.9,2.8-9.2C22.8,46.1,25,44.5,27.6,44.7z"/>
		<circle class="st3" cx="64" cy="60.5" r="37.5"/>
		<path class="st4" d="M64,23c-5,0-9.7,1-14.1,2.7c1.3-0.2,2.7-0.2,4.1-0.2c19.3,0,35,15.7,35,35s-15.7,35-35,35
			c-1.4,0-2.7-0.1-4.1-0.2C54.3,97,59,98,64,98c20.7,0,37.5-16.8,37.5-37.5S84.7,23,64,23z"/>
		<path class="st5" d="M25.5,60.5C25.5,39.2,42.7,22,64,22s38.5,17.2,38.5,38.5S85.3,99,64,99S25.5,81.8,25.5,60.5z M64,24
			c-20.2,0-36.5,16.3-36.5,36.5S43.8,97,64,97s36.5-16.3,36.5-36.5S84.2,24,64,24z"/>
		<circle class="st7" cx="64" cy="64" r="30"/>
		<path class="st6" d="M38,65.5c0-13.2,8.6-24.5,20.5-28.4c-12.5,2.6-22,13.7-22,26.9c0,6.2,2.1,12,5.6,16.6
			C39.5,76.2,38,71,38,65.5z"/>
		<path class="st5" d="M31.5,64c0-17.9,14.6-32.5,32.5-32.5S96.5,46.1,96.5,64S81.9,96.5,64,96.5S31.5,81.9,31.5,64z M64,32.5
			c-17.4,0-31.5,14.1-31.5,31.5S46.6,95.5,64,95.5S95.5,81.4,95.5,64S81.4,32.5,64,32.5z"/>
	</g>
</g>
</svg>
