<svg width="24" height="24" viewBox="0 0 24 24" fill="none" xmlns="http://www.w3.org/2000/svg">
	<path fill-rule="evenodd" clip-rule="evenodd"
		  d="M8 12C8 11.4477 8.44772 11 9 11H11.5C12.0523 11 12.5 11.4477 12.5 12C12.5 12.5523 12.0523 13 11.5 13H9C8.44772 13 8 12.5523 8 12Z"
		  fill="#5A6C7C"/>
	<path fill-rule="evenodd" clip-rule="evenodd"
		  d="M9 15C8.44772 15 8 15.4477 8 16C8 16.5523 8.44772 17 9 17H15C15.5523 17 16 16.5523 16 16C16 15.4477 15.5523 15 15 15H9Z"
		  fill="#5A6C7C"/>
	<path fill-rule="evenodd" clip-rule="evenodd"
		  d="M7 3C5.89543 3 5 3.89543 5 5V19C5 20.1046 5.89543 21 7 21H17C18.1046 21 19 20.1046 19 19V8.41421C19 7.88378 18.7893 7.37507 18.4142 7L15 3.58579C14.6249 3.21071 14.1162 3 13.5858 3H7ZM12 5H7V19H17V10H14C12.8954 10 12 9.10457 12 8V5ZM16.5858 8H14V5.41421L16.5858 8Z"
		  fill="#5A6C7C"/>
</svg>
