<svg width="20" height="20" viewBox="0 0 20 20" fill="none" xmlns="http://www.w3.org/2000/svg">
	<circle cx="10" cy="10" r="10" fill="#E8AB02"/>
	<path fill-rule="evenodd" clip-rule="evenodd"
		  d="M9.99988 4.66699C9.27578 4.66699 8.70034 5.27529 8.74051 5.99827L9.06169 11.7795C9.08935 12.2774 9.50118 12.667 9.99988 12.667C10.4986 12.667 10.9104 12.2774 10.9381 11.7795L11.2593 5.99827C11.2994 5.27529 10.724 4.66699 9.99988 4.66699Z"
		  fill="white"/>
	<path fill-rule="evenodd" clip-rule="evenodd"
		  d="M9.99988 15.3337C10.5522 15.3337 10.9999 14.8859 10.9999 14.3337C10.9999 13.7814 10.5522 13.3337 9.99988 13.3337C9.4476 13.3337 8.99988 13.7814 8.99988 14.3337C8.99988 14.8859 9.4476 15.3337 9.99988 15.3337Z"
		  fill="white"/>
</svg>
