<svg width="68" height="74" viewBox="0 0 68 74" fill="none" xmlns="http://www.w3.org/2000/svg">
<path fill-rule="evenodd" clip-rule="evenodd" d="M36.3022 6.62014C34.9213 5.64819 33.0787 5.64819 31.6977 6.62014L8.27771 23.1038C7.47939 23.6657 7.00439 24.5809 7.00439 25.5571V26.9998C7.00439 28.1043 7.89983 28.9998 9.0044 28.9998H12V52C12 54.2091 13.7909 56 16 56H52C54.2091 56 56 54.2091 56 52V28.9998H58.9955C60.1001 28.9998 60.9955 28.1043 60.9955 26.9998V25.5571C60.9955 24.5809 60.5205 23.6657 59.7222 23.1038L36.3022 6.62014Z" fill="url(#paint0_linear_108_2412)"/>
<g filter="url(#filter0_d_108_2412)">
<g filter="url(#filter1_f_108_2412)">
<path fill-rule="evenodd" clip-rule="evenodd" d="M39.7001 54.9986C40.1064 50.9355 42.8817 47.5639 45.2966 44.2712C46.9963 41.9538 48 39.0941 48 36C48 28.268 41.732 22 34 22C26.268 22 20 28.268 20 36C20 39.0941 21.0037 41.9538 22.7034 44.2712C25.1183 47.5639 27.8936 50.9355 28.2999 54.9986L28.5025 57.0248C28.7849 59.8492 31.1616 62 34 62C36.8384 62 39.2151 59.8492 39.4975 57.0248L39.7001 54.9986Z" fill="#12293F" fill-opacity="0.1"/>
</g>
<g filter="url(#filter2_i_108_2412)">
<path fill-rule="evenodd" clip-rule="evenodd" d="M39.7001 54.9986C40.1064 50.9355 42.8817 47.5639 45.2966 44.2712C46.9963 41.9538 48 39.0941 48 36C48 28.268 41.732 22 34 22C26.268 22 20 28.268 20 36C20 39.0941 21.0037 41.9538 22.7034 44.2712C25.1183 47.5639 27.8936 50.9355 28.2999 54.9986L28.5025 57.0248C28.7849 59.8492 31.1616 62 34 62C36.8384 62 39.2151 59.8492 39.4975 57.0248L39.7001 54.9986Z" fill="url(#paint1_radial_108_2412)"/>
</g>
<mask id="mask0_108_2412" style="mask-type:alpha" maskUnits="userSpaceOnUse" x="20" y="22" width="28" height="40">
<path fill-rule="evenodd" clip-rule="evenodd" d="M39.7001 54.9986C40.1064 50.9355 42.8817 47.5639 45.2966 44.2712C46.9963 41.9538 48 39.0941 48 36C48 28.268 41.732 22 34 22C26.268 22 20 28.268 20 36C20 39.0941 21.0037 41.9538 22.7034 44.2712C25.1183 47.5639 27.8936 50.9355 28.2999 54.9986L28.5025 57.0248C28.7849 59.8492 31.1616 62 34 62C36.8384 62 39.2151 59.8492 39.4975 57.0248L39.7001 54.9986Z" fill="white"/>
</mask>
<g mask="url(#mask0_108_2412)">
<rect x="25" y="54" width="18" height="8" fill="url(#paint2_linear_108_2412)"/>
</g>
<g filter="url(#filter3_f_108_2412)">
<circle cx="34" cy="34" r="6" fill="white" fill-opacity="0.4"/>
</g>
</g>
<defs>
<filter id="filter0_d_108_2412" x="16" y="21" width="36" height="48" filterUnits="userSpaceOnUse" color-interpolation-filters="sRGB">
<feFlood flood-opacity="0" result="BackgroundImageFix"/>
<feColorMatrix in="SourceAlpha" type="matrix" values="0 0 0 0 0 0 0 0 0 0 0 0 0 0 0 0 0 0 127 0" result="hardAlpha"/>
<feOffset dy="3"/>
<feGaussianBlur stdDeviation="2"/>
<feComposite in2="hardAlpha" operator="out"/>
<feColorMatrix type="matrix" values="0 0 0 0 0.0705882 0 0 0 0 0.160784 0 0 0 0 0.247059 0 0 0 0.2 0"/>
<feBlend mode="normal" in2="BackgroundImageFix" result="effect1_dropShadow_108_2412"/>
<feBlend mode="normal" in="SourceGraphic" in2="effect1_dropShadow_108_2412" result="shape"/>
</filter>
<filter id="filter1_f_108_2412" x="8" y="10" width="52" height="64" filterUnits="userSpaceOnUse" color-interpolation-filters="sRGB">
<feFlood flood-opacity="0" result="BackgroundImageFix"/>
<feBlend mode="normal" in="SourceGraphic" in2="BackgroundImageFix" result="shape"/>
<feGaussianBlur stdDeviation="6" result="effect1_foregroundBlur_108_2412"/>
</filter>
<filter id="filter2_i_108_2412" x="20" y="22" width="28" height="40" filterUnits="userSpaceOnUse" color-interpolation-filters="sRGB">
<feFlood flood-opacity="0" result="BackgroundImageFix"/>
<feBlend mode="normal" in="SourceGraphic" in2="BackgroundImageFix" result="shape"/>
<feColorMatrix in="SourceAlpha" type="matrix" values="0 0 0 0 0 0 0 0 0 0 0 0 0 0 0 0 0 0 127 0" result="hardAlpha"/>
<feOffset/>
<feGaussianBlur stdDeviation="0.5"/>
<feComposite in2="hardAlpha" operator="arithmetic" k2="-1" k3="1"/>
<feColorMatrix type="matrix" values="0 0 0 0 1 0 0 0 0 1 0 0 0 0 1 0 0 0 0.05 0"/>
<feBlend mode="normal" in2="shape" result="effect1_innerShadow_108_2412"/>
</filter>
<filter id="filter3_f_108_2412" x="16" y="16" width="36" height="36" filterUnits="userSpaceOnUse" color-interpolation-filters="sRGB">
<feFlood flood-opacity="0" result="BackgroundImageFix"/>
<feBlend mode="normal" in="SourceGraphic" in2="BackgroundImageFix" result="shape"/>
<feGaussianBlur stdDeviation="6" result="effect1_foregroundBlur_108_2412"/>
</filter>
<linearGradient id="paint0_linear_108_2412" x1="27.3103" y1="7.75075" x2="38.779" y2="58.3139" gradientUnits="userSpaceOnUse">
<stop stop-color="#40DFFF"/>
<stop offset="1" stop-color="#4053FE"/>
</linearGradient>
<radialGradient id="paint1_radial_108_2412" cx="0" cy="0" r="1" gradientUnits="userSpaceOnUse" gradientTransform="translate(34 37.5) rotate(90) scale(21 14.7)">
<stop stop-color="white"/>
<stop offset="0.187496" stop-color="white"/>
<stop offset="0.501445" stop-color="#EFF2F5"/>
<stop offset="0.76307" stop-color="#D5DBE0"/>
</radialGradient>
<linearGradient id="paint2_linear_108_2412" x1="32" y1="54" x2="35.5" y2="62" gradientUnits="userSpaceOnUse">
<stop stop-color="#8FA1B3"/>
<stop offset="1" stop-color="#575E66"/>
</linearGradient>
</defs>
</svg>
