<svg width="32" height="32" viewBox="0 0 32 32" fill="none" xmlns="http://www.w3.org/2000/svg">
	<path d="M0 16C0 7.16344 7.16344 0 16 0V0C24.8366 0 32 7.16344 32 16V16C32 24.8366 24.8366 32 16 32V32C7.16344 32 0 24.8366 0 16V16Z"
		  fill="#737880" fill-opacity="0.35"/>
	<path fill-rule="evenodd" clip-rule="evenodd"
		  d="M18.3081 16.1414C18.3862 16.0633 18.3862 15.9367 18.3081 15.8586L13.1995 10.75C13.1214 10.6719 13.1214 10.5453 13.1995 10.4672L13.8006 9.86615C13.8787 9.78805 14.0053 9.78805 14.0834 9.86615L20.0758 15.8586C20.1539 15.9367 20.1539 16.0633 20.0758 16.1414L14.0834 22.1339C14.0053 22.212 13.8787 22.212 13.8006 22.1339L13.1995 21.5328C13.1214 21.4547 13.1214 21.3281 13.1995 21.25L18.3081 16.1414Z"
		  fill="white"/>
</svg>
