<svg width="32" height="32" viewBox="0 0 32 32" fill="none" xmlns="http://www.w3.org/2000/svg">
	<path d="M0 16C0 7.16344 7.16344 0 16 0V0C24.8366 0 32 7.16344 32 16V16C32 24.8366 24.8366 32 16 32V32C7.16344 32 0 24.8366 0 16V16Z"
		  fill="#737880" fill-opacity="0.35"/>
	<path fill-rule="evenodd" clip-rule="evenodd"
		  d="M13.6919 16.1414C13.6138 16.0633 13.6138 15.9367 13.6919 15.8586L18.8005 10.75C18.8786 10.6719 18.8786 10.5453 18.8005 10.4672L18.1994 9.86615C18.1213 9.78805 17.9947 9.78805 17.9166 9.86615L11.9242 15.8586C11.8461 15.9367 11.8461 16.0633 11.9242 16.1414L17.9166 22.1339C17.9947 22.212 18.1213 22.212 18.1994 22.1339L18.8005 21.5328C18.8786 21.4547 18.8786 21.3281 18.8005 21.25L13.6919 16.1414Z"
		  fill="white"/>
</svg>
