<svg width="64" height="64" viewBox="0 0 64 64" fill="none" xmlns="http://www.w3.org/2000/svg">
	<g filter="url(#filter0_f_1502_4182)">
		<path d="M10.661 8.62779C10.8531 6.57181 12.5787 5 14.6436 5H49.3564C51.4213 5 53.1469 6.57181 53.339 8.62779L57.4892 53.0347C57.7633 55.9671 55.4561 58.5 52.5109 58.5H11.4891C8.54389 58.5 6.23672 55.9671 6.51077 53.0347L10.661 8.62779Z"
			  fill="#3E4D67" fill-opacity="0.25"/>
	</g>
	<g filter="url(#filter1_f_1502_4182)">
		<path d="M8.65033 56.2483C8.85364 55.2317 9.74622 54.5 10.7829 54.5H53.2171C54.2538 54.5 55.1463 55.2317 55.3497 56.2483C55.6861 57.9305 54.3994 59.5 52.6839 59.5H11.3161C9.60055 59.5 8.31389 57.9305 8.65033 56.2483Z"
			  fill="url(#paint0_linear_1502_4182)" fill-opacity="0.25"/>
	</g>
	<g filter="url(#filter2_d_1502_4182)">
		<path d="M10.6245 7.72636C10.7683 5.62835 12.5122 4 14.6151 4H49.3849C51.4878 4 53.2317 5.62835 53.3755 7.72636L56 46H8L10.6245 7.72636Z"
			  fill="url(#paint1_linear_1502_4182)"/>
		<mask id="mask0_1502_4182" style="mask-type:alpha" maskUnits="userSpaceOnUse" x="8" y="4" width="48"
			  height="42">
			<path d="M10.6245 7.72636C10.7683 5.62835 12.5122 4 14.6151 4H49.3849C51.4878 4 53.2317 5.62835 53.3755 7.72636L56 46H8L10.6245 7.72636Z"
				  fill="url(#paint2_linear_1502_4182)"/>
		</mask>
		<g mask="url(#mask0_1502_4182)">
			<g filter="url(#filter3_f_1502_4182)">
				<path d="M7.99999 3H13.76L10.88 46H5.12L7.99999 3Z" fill="url(#paint3_linear_1502_4182)"/>
			</g>
			<g filter="url(#filter4_f_1502_4182)">
				<path d="M56 3H50.24L53.12 46H58.88L56 3Z" fill="url(#paint4_linear_1502_4182)"/>
			</g>
		</g>
		<mask id="mask1_1502_4182" style="mask-type:alpha" maskUnits="userSpaceOnUse" x="18" y="4" width="28"
			  height="42">
			<path d="M19.8667 4H44.1333L46 46H18L19.8667 4Z" fill="url(#paint5_linear_1502_4182)"/>
		</mask>
		<g mask="url(#mask1_1502_4182)">
			<g filter="url(#filter5_f_1502_4182)">
				<path d="M19.8667 -1H44.1333L46 46H18L19.8667 -1Z" fill="url(#paint6_linear_1502_4182)"
					  fill-opacity="0.5"/>
			</g>
		</g>
		<path d="M44 4H44.5L46.5 46H46L44 4Z" fill="url(#paint7_linear_1502_4182)"/>
		<path d="M20 4H19.5L17.5 46H18L20 4Z" fill="url(#paint8_linear_1502_4182)"/>
		<path d="M8 46C8 43.7909 9.79086 42 12 42H52C54.2091 42 56 43.7909 56 46V54C56 56.2091 54.2091 58 52 58H12C9.79086 58 8 56.2091 8 54V46Z"
			  fill="white"/>
		<path d="M9 46C9 44.3431 10.3431 43 12 43H52C53.6569 43 55 44.3431 55 46V54C55 55.6569 53.6569 57 52 57H12C10.3431 57 9 55.6569 9 54V46Z"
			  fill="url(#paint9_linear_1502_4182)"/>
		<g filter="url(#filter6_d_1502_4182)">
			<path d="M12.5 47.5C12.7761 47.5 13 47.2761 13 47C13 46.7239 12.7761 46.5 12.5 46.5C12.2239 46.5 12 46.7239 12 47C12 47.2761 12.2239 47.5 12.5 47.5Z"
				  fill="#54FFC1"/>
			<path d="M12.5 47.4498C12.7485 47.4498 12.95 47.2483 12.95 46.9998C12.95 46.7513 12.7485 46.5498 12.5 46.5498C12.2515 46.5498 12.05 46.7513 12.05 46.9998C12.05 47.2483 12.2515 47.4498 12.5 47.4498Z"
				  stroke="url(#paint10_linear_1502_4182)" stroke-width="0.1"/>
		</g>
		<g filter="url(#filter7_d_1502_4182)">
			<path d="M12.5 50.5C12.7761 50.5 13 50.2761 13 50C13 49.7239 12.7761 49.5 12.5 49.5C12.2239 49.5 12 49.7239 12 50C12 50.2761 12.2239 50.5 12.5 50.5Z"
				  fill="#54FFC1"/>
			<path d="M12.5 50.4498C12.7485 50.4498 12.95 50.2483 12.95 49.9998C12.95 49.7513 12.7485 49.5498 12.5 49.5498C12.2515 49.5498 12.05 49.7513 12.05 49.9998C12.05 50.2483 12.2515 50.4498 12.5 50.4498Z"
				  stroke="url(#paint11_linear_1502_4182)" stroke-width="0.1"/>
		</g>
		<g filter="url(#filter8_d_1502_4182)">
			<path d="M12.5 53.5C12.7761 53.5 13 53.2761 13 53C13 52.7239 12.7761 52.5 12.5 52.5C12.2239 52.5 12 52.7239 12 53C12 53.2761 12.2239 53.5 12.5 53.5Z"
				  fill="#54FFC1"/>
			<path d="M12.5 53.4498C12.7485 53.4498 12.95 53.2483 12.95 52.9998C12.95 52.7513 12.7485 52.5498 12.5 52.5498C12.2515 52.5498 12.05 52.7513 12.05 52.9998C12.05 53.2483 12.2515 53.4498 12.5 53.4498Z"
				  stroke="url(#paint12_linear_1502_4182)" stroke-width="0.1"/>
		</g>
		<g filter="url(#filter9_f_1502_4182)">
			<path d="M12.5 48C13.0523 48 13.5 47.5523 13.5 47C13.5 46.4477 13.0523 46 12.5 46C11.9477 46 11.5 46.4477 11.5 47C11.5 47.5523 11.9477 48 12.5 48Z"
				  fill="#54FFC1"/>
		</g>
		<g filter="url(#filter10_f_1502_4182)">
			<path d="M12.5 51C13.0523 51 13.5 50.5523 13.5 50C13.5 49.4477 13.0523 49 12.5 49C11.9477 49 11.5 49.4477 11.5 50C11.5 50.5523 11.9477 51 12.5 51Z"
				  fill="#54FFC1"/>
		</g>
		<g filter="url(#filter11_f_1502_4182)">
			<path d="M12.5 54C13.0523 54 13.5 53.5523 13.5 53C13.5 52.4477 13.0523 52 12.5 52C11.9477 52 11.5 52.4477 11.5 53C11.5 53.5523 11.9477 54 12.5 54Z"
				  fill="#54FFC1"/>
		</g>
		<path d="M39 45.5V54.5C39 54.7761 39.2239 55 39.5 55C39.7761 55 40 54.7761 40 54.5V45.5C40 45.2239 39.7761 45 39.5 45C39.2239 45 39 45.2239 39 45.5Z"
			  fill="black"/>
		<g filter="url(#filter12_f_1502_4182)">
			<path d="M39.6 45H39.4V55H39.6V45Z" fill="white" fill-opacity="0.4"/>
		</g>
		<path d="M42 45.5V54.5C42 54.7761 42.2239 55 42.5 55C42.7761 55 43 54.7761 43 54.5V45.5C43 45.2239 42.7761 45 42.5 45C42.2239 45 42 45.2239 42 45.5Z"
			  fill="black"/>
		<g filter="url(#filter13_f_1502_4182)">
			<path d="M42.6 45H42.4V55H42.6V45Z" fill="white" fill-opacity="0.4"/>
		</g>
		<path d="M45 45.5V54.5C45 54.7761 45.2239 55 45.5 55C45.7761 55 46 54.7761 46 54.5V45.5C46 45.2239 45.7761 45 45.5 45C45.2239 45 45 45.2239 45 45.5Z"
			  fill="black"/>
		<g filter="url(#filter14_f_1502_4182)">
			<path d="M45.6 45H45.4V55H45.6V45Z" fill="white" fill-opacity="0.4"/>
		</g>
		<path d="M48 45.5V54.5C48 54.7761 48.2239 55 48.5 55C48.7761 55 49 54.7761 49 54.5V45.5C49 45.2239 48.7761 45 48.5 45C48.2239 45 48 45.2239 48 45.5Z"
			  fill="black"/>
		<g filter="url(#filter15_f_1502_4182)">
			<path d="M48.6 45H48.4V55H48.6V45Z" fill="white" fill-opacity="0.4"/>
		</g>
		<path d="M51 45.5V54.5C51 54.7761 51.2239 55 51.5 55C51.7761 55 52 54.7761 52 54.5V45.5C52 45.2239 51.7761 45 51.5 45C51.2239 45 51 45.2239 51 45.5Z"
			  fill="black"/>
		<g filter="url(#filter16_f_1502_4182)">
			<path d="M51.6 45H51.4V55H51.6V45Z" fill="white" fill-opacity="0.4"/>
		</g>
	</g>
	<defs>
		<filter id="filter0_f_1502_4182" x="2.48865" y="1" width="59.0227" height="61.5" filterUnits="userSpaceOnUse"
				color-interpolation-filters="sRGB">
			<feFlood flood-opacity="0" result="BackgroundImageFix"/>
			<feBlend mode="normal" in="SourceGraphic" in2="BackgroundImageFix" result="shape"/>
			<feGaussianBlur stdDeviation="2" result="effect1_foregroundBlur_1502_4182"/>
		</filter>
		<filter id="filter1_f_1502_4182" x="5.59662" y="51.5" width="52.8068" height="11" filterUnits="userSpaceOnUse"
				color-interpolation-filters="sRGB">
			<feFlood flood-opacity="0" result="BackgroundImageFix"/>
			<feBlend mode="normal" in="SourceGraphic" in2="BackgroundImageFix" result="shape"/>
			<feGaussianBlur stdDeviation="1.5" result="effect1_foregroundBlur_1502_4182"/>
		</filter>
		<filter id="filter2_d_1502_4182" x="4" y="1" width="56" height="62" filterUnits="userSpaceOnUse"
				color-interpolation-filters="sRGB">
			<feFlood flood-opacity="0" result="BackgroundImageFix"/>
			<feColorMatrix in="SourceAlpha" type="matrix" values="0 0 0 0 0 0 0 0 0 0 0 0 0 0 0 0 0 0 127 0"
						   result="hardAlpha"/>
			<feOffset dy="1"/>
			<feGaussianBlur stdDeviation="2"/>
			<feComposite in2="hardAlpha" operator="out"/>
			<feColorMatrix type="matrix" values="0 0 0 0 0.137255 0 0 0 0 0.14902 0 0 0 0 0.172549 0 0 0 0.2 0"/>
			<feBlend mode="normal" in2="BackgroundImageFix" result="effect1_dropShadow_1502_4182"/>
			<feBlend mode="normal" in="SourceGraphic" in2="effect1_dropShadow_1502_4182" result="shape"/>
		</filter>
		<filter id="filter3_f_1502_4182" x="1.12" y="-1" width="16.64" height="51" filterUnits="userSpaceOnUse"
				color-interpolation-filters="sRGB">
			<feFlood flood-opacity="0" result="BackgroundImageFix"/>
			<feBlend mode="normal" in="SourceGraphic" in2="BackgroundImageFix" result="shape"/>
			<feGaussianBlur stdDeviation="2" result="effect1_foregroundBlur_1502_4182"/>
		</filter>
		<filter id="filter4_f_1502_4182" x="46.24" y="-1" width="16.64" height="51" filterUnits="userSpaceOnUse"
				color-interpolation-filters="sRGB">
			<feFlood flood-opacity="0" result="BackgroundImageFix"/>
			<feBlend mode="normal" in="SourceGraphic" in2="BackgroundImageFix" result="shape"/>
			<feGaussianBlur stdDeviation="2" result="effect1_foregroundBlur_1502_4182"/>
		</filter>
		<filter id="filter5_f_1502_4182" x="10" y="-9" width="44" height="63" filterUnits="userSpaceOnUse"
				color-interpolation-filters="sRGB">
			<feFlood flood-opacity="0" result="BackgroundImageFix"/>
			<feBlend mode="normal" in="SourceGraphic" in2="BackgroundImageFix" result="shape"/>
			<feGaussianBlur stdDeviation="4" result="effect1_foregroundBlur_1502_4182"/>
		</filter>
		<filter id="filter6_d_1502_4182" x="10" y="44.5" width="5" height="5" filterUnits="userSpaceOnUse"
				color-interpolation-filters="sRGB">
			<feFlood flood-opacity="0" result="BackgroundImageFix"/>
			<feColorMatrix in="SourceAlpha" type="matrix" values="0 0 0 0 0 0 0 0 0 0 0 0 0 0 0 0 0 0 127 0"
						   result="hardAlpha"/>
			<feOffset/>
			<feGaussianBlur stdDeviation="1"/>
			<feComposite in2="hardAlpha" operator="out"/>
			<feColorMatrix type="matrix" values="0 0 0 0 0.076875 0 0 0 0 0.45 0 0 0 0 0.314715 0 0 0 1 0"/>
			<feBlend mode="normal" in2="BackgroundImageFix" result="effect1_dropShadow_1502_4182"/>
			<feBlend mode="normal" in="SourceGraphic" in2="effect1_dropShadow_1502_4182" result="shape"/>
		</filter>
		<filter id="filter7_d_1502_4182" x="10" y="47.5" width="5" height="5" filterUnits="userSpaceOnUse"
				color-interpolation-filters="sRGB">
			<feFlood flood-opacity="0" result="BackgroundImageFix"/>
			<feColorMatrix in="SourceAlpha" type="matrix" values="0 0 0 0 0 0 0 0 0 0 0 0 0 0 0 0 0 0 127 0"
						   result="hardAlpha"/>
			<feOffset/>
			<feGaussianBlur stdDeviation="1"/>
			<feComposite in2="hardAlpha" operator="out"/>
			<feColorMatrix type="matrix" values="0 0 0 0 0.076875 0 0 0 0 0.45 0 0 0 0 0.314715 0 0 0 1 0"/>
			<feBlend mode="normal" in2="BackgroundImageFix" result="effect1_dropShadow_1502_4182"/>
			<feBlend mode="normal" in="SourceGraphic" in2="effect1_dropShadow_1502_4182" result="shape"/>
		</filter>
		<filter id="filter8_d_1502_4182" x="10" y="50.5" width="5" height="5" filterUnits="userSpaceOnUse"
				color-interpolation-filters="sRGB">
			<feFlood flood-opacity="0" result="BackgroundImageFix"/>
			<feColorMatrix in="SourceAlpha" type="matrix" values="0 0 0 0 0 0 0 0 0 0 0 0 0 0 0 0 0 0 127 0"
						   result="hardAlpha"/>
			<feOffset/>
			<feGaussianBlur stdDeviation="1"/>
			<feComposite in2="hardAlpha" operator="out"/>
			<feColorMatrix type="matrix" values="0 0 0 0 0.076875 0 0 0 0 0.45 0 0 0 0 0.314715 0 0 0 1 0"/>
			<feBlend mode="normal" in2="BackgroundImageFix" result="effect1_dropShadow_1502_4182"/>
			<feBlend mode="normal" in="SourceGraphic" in2="effect1_dropShadow_1502_4182" result="shape"/>
		</filter>
		<filter id="filter9_f_1502_4182" x="6.5" y="41" width="12" height="12" filterUnits="userSpaceOnUse"
				color-interpolation-filters="sRGB">
			<feFlood flood-opacity="0" result="BackgroundImageFix"/>
			<feBlend mode="normal" in="SourceGraphic" in2="BackgroundImageFix" result="shape"/>
			<feGaussianBlur stdDeviation="2.5" result="effect1_foregroundBlur_1502_4182"/>
		</filter>
		<filter id="filter10_f_1502_4182" x="6.5" y="44" width="12" height="12" filterUnits="userSpaceOnUse"
				color-interpolation-filters="sRGB">
			<feFlood flood-opacity="0" result="BackgroundImageFix"/>
			<feBlend mode="normal" in="SourceGraphic" in2="BackgroundImageFix" result="shape"/>
			<feGaussianBlur stdDeviation="2.5" result="effect1_foregroundBlur_1502_4182"/>
		</filter>
		<filter id="filter11_f_1502_4182" x="6.5" y="47" width="12" height="12" filterUnits="userSpaceOnUse"
				color-interpolation-filters="sRGB">
			<feFlood flood-opacity="0" result="BackgroundImageFix"/>
			<feBlend mode="normal" in="SourceGraphic" in2="BackgroundImageFix" result="shape"/>
			<feGaussianBlur stdDeviation="2.5" result="effect1_foregroundBlur_1502_4182"/>
		</filter>
		<filter id="filter12_f_1502_4182" x="38.9" y="44.5" width="1.20001" height="11" filterUnits="userSpaceOnUse"
				color-interpolation-filters="sRGB">
			<feFlood flood-opacity="0" result="BackgroundImageFix"/>
			<feBlend mode="normal" in="SourceGraphic" in2="BackgroundImageFix" result="shape"/>
			<feGaussianBlur stdDeviation="0.25" result="effect1_foregroundBlur_1502_4182"/>
		</filter>
		<filter id="filter13_f_1502_4182" x="41.9" y="44.5" width="1.20001" height="11" filterUnits="userSpaceOnUse"
				color-interpolation-filters="sRGB">
			<feFlood flood-opacity="0" result="BackgroundImageFix"/>
			<feBlend mode="normal" in="SourceGraphic" in2="BackgroundImageFix" result="shape"/>
			<feGaussianBlur stdDeviation="0.25" result="effect1_foregroundBlur_1502_4182"/>
		</filter>
		<filter id="filter14_f_1502_4182" x="44.9" y="44.5" width="1.20001" height="11" filterUnits="userSpaceOnUse"
				color-interpolation-filters="sRGB">
			<feFlood flood-opacity="0" result="BackgroundImageFix"/>
			<feBlend mode="normal" in="SourceGraphic" in2="BackgroundImageFix" result="shape"/>
			<feGaussianBlur stdDeviation="0.25" result="effect1_foregroundBlur_1502_4182"/>
		</filter>
		<filter id="filter15_f_1502_4182" x="47.9" y="44.5" width="1.20001" height="11" filterUnits="userSpaceOnUse"
				color-interpolation-filters="sRGB">
			<feFlood flood-opacity="0" result="BackgroundImageFix"/>
			<feBlend mode="normal" in="SourceGraphic" in2="BackgroundImageFix" result="shape"/>
			<feGaussianBlur stdDeviation="0.25" result="effect1_foregroundBlur_1502_4182"/>
		</filter>
		<filter id="filter16_f_1502_4182" x="50.9" y="44.5" width="1.20001" height="11" filterUnits="userSpaceOnUse"
				color-interpolation-filters="sRGB">
			<feFlood flood-opacity="0" result="BackgroundImageFix"/>
			<feBlend mode="normal" in="SourceGraphic" in2="BackgroundImageFix" result="shape"/>
			<feGaussianBlur stdDeviation="0.25" result="effect1_foregroundBlur_1502_4182"/>
		</filter>
		<linearGradient id="paint0_linear_1502_4182" x1="32" y1="55.75" x2="32" y2="60.75"
						gradientUnits="userSpaceOnUse">
			<stop stop-color="#212832"/>
			<stop offset="1" stop-color="#71829D" stop-opacity="0"/>
		</linearGradient>
		<linearGradient id="paint1_linear_1502_4182" x1="32" y1="3" x2="32" y2="42.2375" gradientUnits="userSpaceOnUse">
			<stop stop-color="#F5F7FA"/>
			<stop offset="1" stop-color="#DAE4F2"/>
		</linearGradient>
		<linearGradient id="paint2_linear_1502_4182" x1="32" y1="3" x2="32" y2="42.2375" gradientUnits="userSpaceOnUse">
			<stop stop-color="#F5F7FA"/>
			<stop offset="1" stop-color="#DAE4F2"/>
		</linearGradient>
		<linearGradient id="paint3_linear_1502_4182" x1="9.43999" y1="20.7375" x2="14.7288" y2="21.1669"
						gradientUnits="userSpaceOnUse">
			<stop stop-color="#ADBACC"/>
			<stop offset="1" stop-color="#D4DDEB"/>
		</linearGradient>
		<linearGradient id="paint4_linear_1502_4182" x1="54.56" y1="20.7375" x2="49.2712" y2="21.1669"
						gradientUnits="userSpaceOnUse">
			<stop stop-color="#ADBACC"/>
			<stop offset="1" stop-color="#D4DDEB"/>
		</linearGradient>
		<linearGradient id="paint5_linear_1502_4182" x1="32" y1="41.1625" x2="32" y2="3" gradientUnits="userSpaceOnUse">
			<stop stop-color="#EDEFF2"/>
			<stop offset="1" stop-color="#F5F7FA"/>
		</linearGradient>
		<linearGradient id="paint6_linear_1502_4182" x1="32" y1="40.7125" x2="32" y2="-1"
						gradientUnits="userSpaceOnUse">
			<stop stop-color="#EDEFF2"/>
			<stop offset="1" stop-color="white"/>
		</linearGradient>
		<linearGradient id="paint7_linear_1502_4182" x1="44" y1="3" x2="45.25" y2="46" gradientUnits="userSpaceOnUse">
			<stop stop-color="#E6EBF2"/>
			<stop offset="0.924268" stop-color="#CFD8E6"/>
		</linearGradient>
		<linearGradient id="paint8_linear_1502_4182" x1="20" y1="3" x2="18.75" y2="46" gradientUnits="userSpaceOnUse">
			<stop stop-color="#E6EBF2"/>
			<stop offset="0.924268" stop-color="#CFD8E6"/>
		</linearGradient>
		<linearGradient id="paint9_linear_1502_4182" x1="55" y1="50" x2="9" y2="50" gradientUnits="userSpaceOnUse">
			<stop stop-color="#0C1014"/>
			<stop offset="0.546875" stop-color="#4C4E57"/>
			<stop offset="1" stop-color="#222428"/>
		</linearGradient>
		<linearGradient id="paint10_linear_1502_4182" x1="12.5" y1="46.4998" x2="12.5" y2="47.4998"
						gradientUnits="userSpaceOnUse">
			<stop stop-color="white" stop-opacity="0.2"/>
			<stop offset="1" stop-color="white" stop-opacity="0.5"/>
		</linearGradient>
		<linearGradient id="paint11_linear_1502_4182" x1="12.5" y1="49.4998" x2="12.5" y2="50.4998"
						gradientUnits="userSpaceOnUse">
			<stop stop-color="white" stop-opacity="0.2"/>
			<stop offset="1" stop-color="white" stop-opacity="0.5"/>
		</linearGradient>
		<linearGradient id="paint12_linear_1502_4182" x1="12.5" y1="52.4998" x2="12.5" y2="53.4998"
						gradientUnits="userSpaceOnUse">
			<stop stop-color="white" stop-opacity="0.2"/>
			<stop offset="1" stop-color="white" stop-opacity="0.5"/>
		</linearGradient>
	</defs>
</svg>
