<svg width="48" height="48" viewBox="0 0 48 48" fill="none" xmlns="http://www.w3.org/2000/svg">
	<path d="M5 8H43V32H5V8Z" fill="#DAE4F2"/>
	<path d="M20.5 24.5576C22.433 24.5576 24 22.9906 24 21.0576C24 19.1246 22.433 17.5576 20.5 17.5576C18.567 17.5576 17 19.1246 17 21.0576C17 22.9906 18.567 24.5576 20.5 24.5576Z"
		  fill="white"/>
	<path d="M24 24.5727C26.6434 24.5727 28.7864 22.4298 28.7864 19.7864C28.7864 17.1429 26.6434 15 24 15C21.3566 15 19.2136 17.1429 19.2136 19.7864C19.2136 22.4298 21.3566 24.5727 24 24.5727Z"
		  fill="#ACB8C3"/>
	<path d="M27.5 24.5576C29.433 24.5576 31 22.9906 31 21.0576C31 19.1246 29.433 17.5576 27.5 17.5576C25.567 17.5576 24 19.1246 24 21.0576C24 22.9906 25.567 24.5576 27.5 24.5576Z"
		  fill="white"/>
	<path fill-rule="evenodd" clip-rule="evenodd"
		  d="M42 8.5H6C5.72386 8.5 5.5 8.72386 5.5 9V31.5H42.5V9C42.5 8.72386 42.2761 8.5 42 8.5ZM6 7C4.89543 7 4 7.89543 4 9V33H44V9C44 7.89543 43.1046 7 42 7H6Z"
		  fill="#181F25"/>
	<path d="M4 33H44V34C44 35.1046 43.1046 36 42 36H6C4.89543 36 4 35.1046 4 34V33Z" fill="#DEE6ED"/>
	<path d="M19 36H29V41H19V36Z" fill="#C2CDD6"/>
	<path d="M14 42C14 41.4477 14.4477 41 15 41H33C33.5523 41 34 41.4477 34 42C34 42.5523 33.5523 43 33 43H15C14.4477 43 14 42.5523 14 42Z"
		  fill="#E4EBF1"/>
</svg>
