<svg width="80" height="80" viewBox="0 0 80 80" fill="none" xmlns="http://www.w3.org/2000/svg">
	<path d="M26.8 67.6L36.8 54.2667C38.4 52.1333 41.6 52.1333 43.2 54.2667L53.2 67.6C55.1777 70.2369 53.2962 74 50 74H30C26.7038 74 24.8223 70.2369 26.8 67.6Z"
		  fill="#0F8FFF"/>
	<path d="M61.4243 61C66.729 55.5887 70 48.1764 70 40C70 23.4315 56.5685 10 40 10C23.4315 10 10 23.4315 10 40C10 48.1764 13.271 55.5887 18.5757 61"
		  stroke="#0F8FFF" stroke-width="5" stroke-linecap="round"/>
	<path d="M52.4907 50C54.6866 47.2608 56 43.7838 56 40C56 31.1634 48.8366 24 40 24C31.1634 24 24 31.1634 24 40C24 43.7838 25.3134 47.2608 27.5093 50"
		  stroke="#0F8FFF" stroke-width="5" stroke-linecap="round"/>
	<circle cx="40" cy="40" r="5" fill="#0F8FFF"/>
</svg>
