<svg width="48" height="48" viewBox="0 0 48 48" fill="none" xmlns="http://www.w3.org/2000/svg">
	<path d="M15 9C15 8.44772 15.4477 8 16 8H32C32.5523 8 33 8.44772 33 9V39C33 39.5523 32.5523 40 32 40H16C15.4477 40 15 39.5523 15 39V9Z"
		  fill="#E1E9F4"/>
	<path fill-rule="evenodd" clip-rule="evenodd"
		  d="M31.5 8H16.5C15.6716 8 15 8.67157 15 9.5V38.5C15 39.3284 15.6716 40 16.5 40H31.5C32.3284 40 33 39.3284 33 38.5V9.5C33 8.67157 32.3284 8 31.5 8ZM16.5 7C15.1193 7 14 8.11929 14 9.5V38.5C14 39.8807 15.1193 41 16.5 41H31.5C32.8807 41 34 39.8807 34 38.5V9.5C34 8.11929 32.8807 7 31.5 7H16.5Z"
		  fill="#181F25"/>
	<path d="M19.5 8H28.5C28.2093 8.05815 28 8.31342 28 8.6099V8.73069C28 9.15557 27.6556 9.5 27.2307 9.5H20.7693C20.3444 9.5 20 9.15557 20 8.73069V8.6099C20 8.31342 19.7907 8.05815 19.5 8Z"
		  fill="#181F25"/>
	<path d="M25 38C25 38.5523 24.5523 39 24 39C23.4477 39 23 38.5523 23 38C23 37.4477 23.4477 37 24 37C24.5523 37 25 37.4477 25 38Z"
		  fill="#181F25"/>
	<g filter="url(#filter0_f_157_6996)">
		<path d="M21.5 16.3077C21.5 16.1378 21.6399 16 21.8125 16H26.1875C26.3601 16 26.5 16.1378 26.5 16.3077V19.6923C26.5 19.8622 26.3601 20 26.1875 20H21.8125C21.6399 20 21.5 19.8622 21.5 19.6923V16.3077Z"
			  fill="url(#paint0_linear_157_6996)" fill-opacity="0.1"/>
	</g>
	<path d="M21.5 16.3077C21.5 16.1378 21.6399 16 21.8125 16H26.1875C26.3601 16 26.5 16.1378 26.5 16.3077V19.6923C26.5 19.8622 26.3601 20 26.1875 20H21.8125C21.6399 20 21.5 19.8622 21.5 19.6923V16.3077Z"
		  fill="url(#paint1_linear_157_6996)"/>
	<path d="M21.8125 16.7812C21.8125 16.6087 21.9524 16.4688 22.125 16.4688H25.875C26.0476 16.4688 26.1875 16.6087 26.1875 16.7812V19.5C26.1875 19.6726 26.0476 19.8125 25.875 19.8125H22.125C21.9524 19.8125 21.8125 19.6726 21.8125 19.5L21.8125 16.7812Z"
		  fill="url(#paint2_linear_157_6996)"/>
	<g filter="url(#filter1_i_157_6996)">
		<path d="M21.8125 17.25C21.6399 17.25 21.5 17.3899 21.5 17.5625L21.5 19.6875C21.5 19.8601 21.6399 20 21.8125 20H26.1875C26.3601 20 26.5 19.8601 26.5 19.6875V18.5C26.5 18.3274 26.3601 18.1875 26.1875 18.1875H24.0738C23.837 18.1875 23.6206 18.0537 23.5148 17.842L23.375 17.5625C23.1875 17.25 22.992 17.25 22.75 17.25H21.8125Z"
			  fill="url(#paint3_linear_157_6996)"/>
	</g>
	<g filter="url(#filter2_f_157_6996)">
		<path d="M21.5 25.3077C21.5 25.1378 21.6399 25 21.8125 25H26.1875C26.3601 25 26.5 25.1378 26.5 25.3077V28.6923C26.5 28.8622 26.3601 29 26.1875 29H21.8125C21.6399 29 21.5 28.8622 21.5 28.6923V25.3077Z"
			  fill="url(#paint4_linear_157_6996)" fill-opacity="0.1"/>
	</g>
	<path d="M21.5 25.3077C21.5 25.1378 21.6399 25 21.8125 25H26.1875C26.3601 25 26.5 25.1378 26.5 25.3077V28.6923C26.5 28.8622 26.3601 29 26.1875 29H21.8125C21.6399 29 21.5 28.8622 21.5 28.6923V25.3077Z"
		  fill="url(#paint5_linear_157_6996)"/>
	<path d="M21.8125 25.7812C21.8125 25.6087 21.9524 25.4688 22.125 25.4688H25.875C26.0476 25.4688 26.1875 25.6087 26.1875 25.7812V28.5C26.1875 28.6726 26.0476 28.8125 25.875 28.8125H22.125C21.9524 28.8125 21.8125 28.6726 21.8125 28.5L21.8125 25.7812Z"
		  fill="url(#paint6_linear_157_6996)"/>
	<g filter="url(#filter3_i_157_6996)">
		<path d="M21.8125 26.25C21.6399 26.25 21.5 26.3899 21.5 26.5625L21.5 28.6875C21.5 28.8601 21.6399 29 21.8125 29H26.1875C26.3601 29 26.5 28.8601 26.5 28.6875V27.5C26.5 27.3274 26.3601 27.1875 26.1875 27.1875H24.0738C23.837 27.1875 23.6206 27.0537 23.5148 26.842L23.375 26.5625C23.1875 26.25 22.992 26.25 22.75 26.25H21.8125Z"
			  fill="url(#paint7_linear_157_6996)"/>
	</g>
	<defs>
		<filter id="filter0_f_157_6996" x="17.5" y="12" width="13" height="12" filterUnits="userSpaceOnUse"
				color-interpolation-filters="sRGB">
			<feFlood flood-opacity="0" result="BackgroundImageFix"/>
			<feBlend mode="normal" in="SourceGraphic" in2="BackgroundImageFix" result="shape"/>
			<feGaussianBlur stdDeviation="2" result="effect1_foregroundBlur_157_6996"/>
		</filter>
		<filter id="filter1_i_157_6996" x="21.5" y="17.25" width="5" height="3.75" filterUnits="userSpaceOnUse"
				color-interpolation-filters="sRGB">
			<feFlood flood-opacity="0" result="BackgroundImageFix"/>
			<feBlend mode="normal" in="SourceGraphic" in2="BackgroundImageFix" result="shape"/>
			<feColorMatrix in="SourceAlpha" type="matrix" values="0 0 0 0 0 0 0 0 0 0 0 0 0 0 0 0 0 0 127 0"
						   result="hardAlpha"/>
			<feOffset dy="1"/>
			<feGaussianBlur stdDeviation="1.5"/>
			<feComposite in2="hardAlpha" operator="arithmetic" k2="-1" k3="1"/>
			<feColorMatrix type="matrix" values="0 0 0 0 1 0 0 0 0 1 0 0 0 0 1 0 0 0 0.35 0"/>
			<feBlend mode="normal" in2="shape" result="effect1_innerShadow_157_6996"/>
		</filter>
		<filter id="filter2_f_157_6996" x="17.5" y="21" width="13" height="12" filterUnits="userSpaceOnUse"
				color-interpolation-filters="sRGB">
			<feFlood flood-opacity="0" result="BackgroundImageFix"/>
			<feBlend mode="normal" in="SourceGraphic" in2="BackgroundImageFix" result="shape"/>
			<feGaussianBlur stdDeviation="2" result="effect1_foregroundBlur_157_6996"/>
		</filter>
		<filter id="filter3_i_157_6996" x="21.5" y="26.25" width="5" height="3.75" filterUnits="userSpaceOnUse"
				color-interpolation-filters="sRGB">
			<feFlood flood-opacity="0" result="BackgroundImageFix"/>
			<feBlend mode="normal" in="SourceGraphic" in2="BackgroundImageFix" result="shape"/>
			<feColorMatrix in="SourceAlpha" type="matrix" values="0 0 0 0 0 0 0 0 0 0 0 0 0 0 0 0 0 0 127 0"
						   result="hardAlpha"/>
			<feOffset dy="1"/>
			<feGaussianBlur stdDeviation="1.5"/>
			<feComposite in2="hardAlpha" operator="arithmetic" k2="-1" k3="1"/>
			<feColorMatrix type="matrix" values="0 0 0 0 1 0 0 0 0 1 0 0 0 0 1 0 0 0 0.35 0"/>
			<feBlend mode="normal" in2="shape" result="effect1_innerShadow_157_6996"/>
		</filter>
		<linearGradient id="paint0_linear_157_6996" x1="22.2924" y1="16.3077" x2="24.1944" y2="18.4222"
						gradientUnits="userSpaceOnUse">
			<stop stop-color="#26629E"/>
			<stop offset="1" stop-color="#15395E"/>
		</linearGradient>
		<linearGradient id="paint1_linear_157_6996" x1="22.4821" y1="16.3062" x2="23.1431" y2="17.943"
						gradientUnits="userSpaceOnUse">
			<stop stop-color="#FEC519"/>
			<stop offset="1" stop-color="#F5B83D"/>
		</linearGradient>
		<linearGradient id="paint2_linear_157_6996" x1="28.6875" y1="16.1563" x2="30.4062" y2="19.9063"
						gradientUnits="userSpaceOnUse">
			<stop offset="0.0001" stop-color="#FFF7EB"/>
			<stop offset="1" stop-color="#FFE7C2"/>
		</linearGradient>
		<linearGradient id="paint3_linear_157_6996" x1="22.5714" y1="17.7721" x2="24.2231" y2="19.8687"
						gradientUnits="userSpaceOnUse">
			<stop stop-color="#FFE599"/>
			<stop offset="1" stop-color="#FACB3F"/>
		</linearGradient>
		<linearGradient id="paint4_linear_157_6996" x1="22.2924" y1="25.3077" x2="24.1944" y2="27.4222"
						gradientUnits="userSpaceOnUse">
			<stop stop-color="#26629E"/>
			<stop offset="1" stop-color="#15395E"/>
		</linearGradient>
		<linearGradient id="paint5_linear_157_6996" x1="22.4821" y1="25.3062" x2="23.1431" y2="26.943"
						gradientUnits="userSpaceOnUse">
			<stop stop-color="#FEC519"/>
			<stop offset="1" stop-color="#F5B83D"/>
		</linearGradient>
		<linearGradient id="paint6_linear_157_6996" x1="28.6875" y1="25.1563" x2="30.4062" y2="28.9063"
						gradientUnits="userSpaceOnUse">
			<stop offset="0.0001" stop-color="#FFF7EB"/>
			<stop offset="1" stop-color="#FFE7C2"/>
		</linearGradient>
		<linearGradient id="paint7_linear_157_6996" x1="22.5714" y1="26.7721" x2="24.2231" y2="28.8687"
						gradientUnits="userSpaceOnUse">
			<stop stop-color="#FFE599"/>
			<stop offset="1" stop-color="#FACB3F"/>
		</linearGradient>
	</defs>
</svg>
