<svg width="48" height="48" viewBox="0 0 48 48" fill="none" xmlns="http://www.w3.org/2000/svg">
	<g clip-path="url(#clip0_204_8747)">
		<circle cx="24" cy="24" r="20" fill="#DAE4F2"/>
		<mask id="mask0_204_8747" style="mask-type:alpha" maskUnits="userSpaceOnUse" x="4" y="4" width="40" height="40">
			<circle cx="24" cy="24" r="20" fill="#DAE4F2"/>
		</mask>
		<g mask="url(#mask0_204_8747)">
			<path d="M10.5 43C10.5 35.5442 16.5442 29.5 24 29.5C31.4558 29.5 37.5 35.5442 37.5 43V48.5H10.5V43Z"
				  fill="white" stroke="#181F25"/>
		</g>
		<path d="M35.5 22C35.5 23.0068 35.1933 23.8991 34.7213 24.5284C34.2495 25.1576 33.6358 25.5 33 25.5C32.3642 25.5 31.7505 25.1576 31.2787 24.5284C30.8067 23.8991 30.5 23.0068 30.5 22C30.5 20.9932 30.8067 20.1009 31.2787 19.4716C31.7505 18.8424 32.3642 18.5 33 18.5C33.6358 18.5 34.2495 18.8424 34.7213 19.4716C35.1933 20.1009 35.5 20.9932 35.5 22Z"
			  fill="#E4EBF1" stroke="#181F25"/>
		<path d="M17.5 22C17.5 23.0068 17.1933 23.8991 16.7213 24.5284C16.2495 25.1576 15.6358 25.5 15 25.5C14.3642 25.5 13.7505 25.1576 13.2787 24.5284C12.8067 23.8991 12.5 23.0068 12.5 22C12.5 20.9932 12.8067 20.1009 13.2787 19.4716C13.7505 18.8424 14.3642 18.5 15 18.5C15.6358 18.5 16.2495 18.8424 16.7213 19.4716C17.1933 20.1009 17.5 20.9932 17.5 22Z"
			  fill="#E4EBF1" stroke="#181F25"/>
		<circle cx="24" cy="22" r="9.5" fill="white" stroke="#181F25"/>
		<circle cx="24" cy="24" r="6.5" fill="white" stroke="#181F25"/>
		<circle cx="24" cy="37" r="3.25" fill="#0F8FFF" stroke="#181F25" stroke-width="0.5"/>
		<circle cx="23" cy="21" r="1.75" fill="white" stroke="#181F25" stroke-width="0.5"/>
		<circle cx="20" cy="25" r="0.75" fill="white" stroke="#181F25" stroke-width="0.5"/>
		<circle cx="24" cy="24" r="19.25" stroke="#181F25" stroke-width="1.5"/>
	</g>
	<defs>
		<clipPath id="clip0_204_8747">
			<rect width="48" height="48" fill="white"/>
		</clipPath>
	</defs>
</svg>
