<svg width="20" height="20" viewBox="0 0 20 20" fill="none" xmlns="http://www.w3.org/2000/svg">
	<circle cx="10" cy="10" r="10" fill="#FD5F1C"/>
	<path fill-rule="evenodd" clip-rule="evenodd"
		  d="M14.2426 5.75776C14.5029 6.01811 14.5029 6.44022 14.2426 6.70057L6.70009 14.243C6.43974 14.5034 6.01763 14.5034 5.75728 14.243C5.49693 13.9827 5.49693 13.5606 5.75728 13.3002L13.2998 5.75776C13.5601 5.49741 13.9822 5.49741 14.2426 5.75776Z"
		  fill="white"/>
	<path fill-rule="evenodd" clip-rule="evenodd"
		  d="M5.75727 5.75776C6.01762 5.49741 6.43973 5.49741 6.70008 5.75776L14.2426 13.3002C14.5029 13.5606 14.5029 13.9827 14.2426 14.243C13.9822 14.5034 13.5601 14.5034 13.2997 14.243L5.75727 6.70057C5.49692 6.44022 5.49692 6.01811 5.75727 5.75776Z"
		  fill="white"/>
</svg>
