<svg width="16" height="16" viewBox="0 0 16 16" fill="none" xmlns="http://www.w3.org/2000/svg">
	<path d="M10.1195 9.70433L10.6171 11.42L11.9211 12.8243C12.0975 12.7227 12.2476 12.5752 12.3532 12.3923L13.5647 10.2944C13.6702 10.1121 13.7227 9.90822 13.7227 9.70433L11.8621 9.34375L10.1195 9.70433Z"
		  fill="#EA4335"/>
	<path d="M9.80156 2.91288C9.62521 2.81126 9.42263 2.75488 9.21153 2.75488H6.7891C6.57931 2.75488 6.37477 2.81258 6.19907 2.91288L6.72092 4.67053L7.9954 6.02368L7.99999 6.03285L9.28364 4.66332L9.80156 2.91288Z"
		  fill="#188038"/>
	<path d="M5.88049 9.70446L4.02319 9.27832L2.278 9.70446C2.278 9.90769 2.33044 10.1109 2.43534 10.2938L3.64688 12.3924C3.75243 12.5746 3.90256 12.7222 4.07891 12.8244L5.36322 11.5014L5.88049 9.70446Z"
		  fill="#1967D2"/>
	<path d="M11.8988 6.22974L10.2336 3.34512C10.1281 3.16221 9.97792 3.0147 9.80157 2.91309L7.99999 6.03306L10.1195 9.70439H13.722C13.722 9.5005 13.6696 9.29726 13.564 9.11435L11.8988 6.22974Z"
		  fill="#FBBC04"/>
	<path d="M10.1196 9.7041H5.88049L4.07892 12.8241C4.25527 12.9257 4.45785 12.9821 4.66895 12.9821H11.3304C11.5415 12.9821 11.7441 12.9257 11.9205 12.8241L10.1196 9.7041Z"
		  fill="#4285F4"/>
	<path d="M8.00002 6.03306L6.19911 2.91309C6.02275 3.0147 5.87328 3.16156 5.76772 3.34381L2.43534 9.11632C2.33044 9.29858 2.278 9.50181 2.278 9.70439H5.88049L8.00002 6.03306Z"
		  fill="#34A853"/>
</svg>
