<!--
  - * @LastEditors: zhanghengxin ezreal.zhang@icewhale.org
  - * @LastEditTime: 2023/5/19 上午10:46
  - * @FilePath: /CasaOS-UI/main/src/assets/img/app/appstore.svg
  - * @Description:
  - *
  - * Copyright (c) 2023 by IceWhale, All Rights Reserved.
  -
  -->

<svg width="24" height="24" viewBox="0 0 24 24" fill="none" xmlns="http://www.w3.org/2000/svg">
	<path
		d="M0 4.5C0 2.01472 2.01472 0 4.5 0H19.5C21.9853 0 24 2.01472 24 4.5V19.5C24 21.9853 21.9853 24 19.5 24H4.5C2.01472 24 0 21.9853 0 19.5V4.5Z"
		fill="url(#paint0_linear_1648_12039)"/>
	<mask id="mask0_1648_12039" style="mask-type:alpha" maskUnits="userSpaceOnUse" x="0" y="0" width="24" height="24">
		<path
			d="M0 4.5C0 2.01472 2.01472 0 4.5 0H19.5C21.9853 0 24 2.01472 24 4.5V19.5C24 21.9853 21.9853 24 19.5 24H4.5C2.01472 24 0 21.9853 0 19.5V4.5Z"
			fill="url(#paint1_linear_1648_12039)"/>
	</mask>
	<g mask="url(#mask0_1648_12039)">
		<path
			d="M4.875 6.375C4.875 5.54657 5.54657 4.875 6.375 4.875H9.75C10.5784 4.875 11.25 5.54657 11.25 6.375V9.75C11.25 10.5784 10.5784 11.25 9.75 11.25H6.375C5.54657 11.25 4.875 10.5784 4.875 9.75V6.375Z"
			fill="url(#paint2_linear_1648_12039)"/>
		<path
			d="M12.4903 9.12316C11.9046 8.53737 11.9046 7.58763 12.4903 7.00184L14.8768 4.61535C15.4626 4.02957 16.4124 4.02957 16.9982 4.61535L19.3846 7.00184C19.9704 7.58763 19.9704 8.53737 19.3846 9.12316L16.9982 11.5096C16.4124 12.0954 15.4626 12.0954 14.8768 11.5096L12.4903 9.12316Z"
			fill="white"/>
		<path
			d="M4.875 14.25C4.875 13.4216 5.54657 12.75 6.375 12.75H9.75C10.5784 12.75 11.25 13.4216 11.25 14.25V17.625C11.25 18.4534 10.5784 19.125 9.75 19.125H6.375C5.54657 19.125 4.875 18.4534 4.875 17.625V14.25Z"
			fill="url(#paint3_linear_1648_12039)"/>
		<path
			d="M12.75 14.25C12.75 13.4216 13.4216 12.75 14.25 12.75H17.625C18.4534 12.75 19.125 13.4216 19.125 14.25V17.625C19.125 18.4534 18.4534 19.125 17.625 19.125H14.25C13.4216 19.125 12.75 18.4534 12.75 17.625V14.25Z"
			fill="url(#paint4_linear_1648_12039)"/>
	</g>
	<defs>
		<linearGradient id="paint0_linear_1648_12039" x1="11.0625" y1="-0.375" x2="12.375" y2="24.75"
						gradientUnits="userSpaceOnUse">
			<stop stop-color="#40DFFF"/>
			<stop offset="1" stop-color="#3F6FFE"/>
		</linearGradient>
		<linearGradient id="paint1_linear_1648_12039" x1="11.0625" y1="-0.375" x2="12.375" y2="24.75"
						gradientUnits="userSpaceOnUse">
			<stop stop-color="#40DFFF"/>
			<stop offset="1" stop-color="#3F6FFE"/>
		</linearGradient>
		<linearGradient id="paint2_linear_1648_12039" x1="8.0625" y1="4.875" x2="8.0625" y2="11.25"
						gradientUnits="userSpaceOnUse">
			<stop offset="0.470588" stop-color="white"/>
			<stop offset="1" stop-color="#E6ECF2"/>
		</linearGradient>
		<linearGradient id="paint3_linear_1648_12039" x1="8.0625" y1="12.75" x2="8.0625" y2="19.125"
						gradientUnits="userSpaceOnUse">
			<stop offset="0.470588" stop-color="white"/>
			<stop offset="1" stop-color="#E6ECF2"/>
		</linearGradient>
		<linearGradient id="paint4_linear_1648_12039" x1="15.9375" y1="12.75" x2="15.9375" y2="19.125"
						gradientUnits="userSpaceOnUse">
			<stop offset="0.470588" stop-color="white"/>
			<stop offset="1" stop-color="#E6ECF2"/>
		</linearGradient>
	</defs>
</svg>
