<!--
  - * @LastEditors: zhanghengxin ezreal.zhang@icewhale.org
  - * @LastEditTime: 2023/5/18 上午11:17
  - * @FilePath: /CasaOS-UI/main/src/assets/img/app/disk_merge.svg
  - * @Description:
  - *
  - * Copyright (c) 2023 by IceWhale, All Rights Reserved.
  -
  -->

<svg width="24" height="24" viewBox="0 0 24 24" fill="none" xmlns="http://www.w3.org/2000/svg">
	<path
		d="M0 4.5C0 2.01472 2.01472 0 4.5 0H19.5C21.9853 0 24 2.01472 24 4.5V19.5C24 21.9853 21.9853 24 19.5 24H4.5C2.01472 24 0 21.9853 0 19.5V4.5Z"
		fill="url(#paint0_linear_1113_7675)"/>
	<path
		d="M5.4375 19.1238C4.71263 19.1238 4.125 18.5361 4.125 17.8113V15.1863C4.125 14.4614 4.71263 13.8738 5.4375 13.8738H18.5625C19.2874 13.8738 19.875 14.4614 19.875 15.1863V17.8113C19.875 18.5361 19.2874 19.1238 18.5625 19.1238H5.4375Z"
		fill="url(#paint1_linear_1113_7675)"/>
	<path
		d="M5.6999 18.5987C5.12 18.5987 4.6499 18.1286 4.6499 17.5487V15.4487C4.6499 14.8689 5.12 14.3987 5.6999 14.3987H18.2999C18.8798 14.3987 19.3499 14.8689 19.3499 15.4487V17.5487C19.3499 18.1286 18.8798 18.5987 18.2999 18.5987H5.6999Z"
		fill="white"/>
	<g filter="url(#filter0_f_1113_7675)">
		<path
			d="M6.22515 17.2863C6.37012 17.2863 6.48765 17.4038 6.48765 17.5488C6.48765 17.6937 6.37012 17.8113 6.22515 17.8113C6.08017 17.8113 5.96265 17.6937 5.96265 17.5488C5.96265 17.4038 6.08017 17.2863 6.22515 17.2863Z"
			fill="#2BD990" fill-opacity="0.4"/>
	</g>
	<path
		d="M6.22515 17.2863C6.37012 17.2863 6.48765 17.4038 6.48765 17.5488C6.48765 17.6937 6.37012 17.8113 6.22515 17.8113C6.08017 17.8113 5.96265 17.6937 5.96265 17.5488C5.96265 17.4038 6.08017 17.2863 6.22515 17.2863Z"
		fill="#2BD990"/>
	<path fill-rule="evenodd" clip-rule="evenodd"
		  d="M6.02822 17.5488C6.02822 17.6576 6.11637 17.7457 6.2251 17.7457C6.33383 17.7457 6.42197 17.6576 6.42197 17.5488C6.42197 17.4401 6.33383 17.352 6.2251 17.352C6.11637 17.352 6.02822 17.4401 6.02822 17.5488ZM6.2251 17.877C6.04388 17.877 5.89697 17.7301 5.89697 17.5488C5.89697 17.3676 6.04388 17.2207 6.2251 17.2207C6.40632 17.2207 6.55322 17.3676 6.55322 17.5488C6.55322 17.7301 6.40632 17.877 6.2251 17.877Z"
		  fill="white"/>
	<g filter="url(#filter1_f_1113_7675)">
		<path
			d="M6.22515 16.2362C6.37012 16.2362 6.48765 16.3537 6.48765 16.4987C6.48765 16.6436 6.37012 16.7612 6.22515 16.7612C6.08017 16.7612 5.96265 16.6436 5.96265 16.4987C5.96265 16.3537 6.08017 16.2362 6.22515 16.2362Z"
			fill="#2BD990" fill-opacity="0.4"/>
	</g>
	<path
		d="M6.22515 16.2362C6.37012 16.2362 6.48765 16.3537 6.48765 16.4987C6.48765 16.6436 6.37012 16.7612 6.22515 16.7612C6.08017 16.7612 5.96265 16.6436 5.96265 16.4987C5.96265 16.3537 6.08017 16.2362 6.22515 16.2362Z"
		fill="#2BD990"/>
	<path fill-rule="evenodd" clip-rule="evenodd"
		  d="M6.02822 16.4987C6.02822 16.6075 6.11637 16.6956 6.2251 16.6956C6.33383 16.6956 6.42197 16.6075 6.42197 16.4987C6.42197 16.39 6.33383 16.3019 6.2251 16.3019C6.11637 16.3019 6.02822 16.39 6.02822 16.4987ZM6.2251 16.8269C6.04388 16.8269 5.89697 16.68 5.89697 16.4987C5.89697 16.3175 6.04388 16.1706 6.2251 16.1706C6.40632 16.1706 6.55322 16.3175 6.55322 16.4987C6.55322 16.68 6.40632 16.8269 6.2251 16.8269Z"
		  fill="white"/>
	<g filter="url(#filter2_f_1113_7675)">
		<path
			d="M6.22515 15.1863C6.37012 15.1863 6.48765 15.3038 6.48765 15.4488C6.48765 15.5937 6.37012 15.7113 6.22515 15.7113C6.08017 15.7113 5.96265 15.5937 5.96265 15.4488C5.96265 15.3038 6.08017 15.1863 6.22515 15.1863Z"
			fill="#2BD990" fill-opacity="0.4"/>
	</g>
	<path
		d="M6.22515 15.1863C6.37012 15.1863 6.48765 15.3038 6.48765 15.4488C6.48765 15.5937 6.37012 15.7113 6.22515 15.7113C6.08017 15.7113 5.96265 15.5937 5.96265 15.4488C5.96265 15.3038 6.08017 15.1863 6.22515 15.1863Z"
		fill="#2BD990"/>
	<path fill-rule="evenodd" clip-rule="evenodd"
		  d="M6.02822 15.4487C6.02822 15.5575 6.11637 15.6456 6.2251 15.6456C6.33383 15.6456 6.42197 15.5575 6.42197 15.4487C6.42197 15.34 6.33383 15.2519 6.2251 15.2519C6.11637 15.2519 6.02822 15.34 6.02822 15.4487ZM6.2251 15.7769C6.04388 15.7769 5.89697 15.63 5.89697 15.4487C5.89697 15.2675 6.04388 15.1206 6.2251 15.1206C6.40632 15.1206 6.55322 15.2675 6.55322 15.4487C6.55322 15.63 6.40632 15.7769 6.2251 15.7769Z"
		  fill="white"/>
	<path
		d="M17.9062 17.5488C17.8337 17.5488 17.7749 17.4901 17.7749 17.4176V15.5801C17.7749 15.5076 17.8337 15.4488 17.9062 15.4488C17.9786 15.4488 18.0374 15.5076 18.0374 15.5801V17.4176C18.0374 17.4901 17.9786 17.5488 17.9062 17.5488Z"
		fill="#1383F6"/>
	<path
		d="M17.1188 17.5488C17.0463 17.5488 16.9875 17.4901 16.9875 17.4176V15.5801C16.9875 15.5076 17.0463 15.4488 17.1188 15.4488C17.1913 15.4488 17.25 15.5076 17.25 15.5801V17.4176C17.25 17.4901 17.1913 17.5488 17.1188 17.5488Z"
		fill="#1383F6"/>
	<path
		d="M16.3312 17.5488C16.2587 17.5488 16.2 17.4901 16.2 17.4176V15.5801C16.2 15.5076 16.2587 15.4488 16.3312 15.4488C16.4037 15.4488 16.4625 15.5076 16.4625 15.5801V17.4176C16.4625 17.4901 16.4037 17.5488 16.3312 17.5488Z"
		fill="#1383F6"/>
	<g filter="url(#filter3_i_1113_7675)">
		<path
			d="M6.52317 5.48573C6.7714 5.04583 7.23734 4.77375 7.74244 4.77375H16.2574C16.7625 4.77375 17.2285 5.04584 17.4767 5.48574L19.8399 9.67375H4.15991L6.52317 5.48573Z"
			fill="url(#paint2_linear_1113_7675)"/>
	</g>
	<path
		d="M5.4375 13.8738C4.71263 13.8738 4.125 13.2861 4.125 12.5613V9.93626C4.125 9.21139 4.71263 8.62376 5.4375 8.62376H18.5625C19.2874 8.62376 19.875 9.21139 19.875 9.93626V12.5613C19.875 13.2861 19.2874 13.8738 18.5625 13.8738H5.4375Z"
		fill="url(#paint3_linear_1113_7675)"/>
	<path
		d="M5.6999 13.3488C5.12 13.3488 4.6499 12.8787 4.6499 12.2988V10.1988C4.6499 9.61886 5.12 9.14876 5.6999 9.14876H18.2999C18.8798 9.14876 19.3499 9.61886 19.3499 10.1988V12.2988C19.3499 12.8787 18.8798 13.3488 18.2999 13.3488H5.6999Z"
		fill="white"/>
	<g filter="url(#filter4_f_1113_7675)">
		<path
			d="M6.22515 12.0362C6.37012 12.0362 6.48765 12.1537 6.48765 12.2987C6.48765 12.4436 6.37012 12.5612 6.22515 12.5612C6.08017 12.5612 5.96265 12.4436 5.96265 12.2987C5.96265 12.1537 6.08017 12.0362 6.22515 12.0362Z"
			fill="#2BD990" fill-opacity="0.4"/>
	</g>
	<path
		d="M6.22515 12.0362C6.37012 12.0362 6.48765 12.1537 6.48765 12.2987C6.48765 12.4436 6.37012 12.5612 6.22515 12.5612C6.08017 12.5612 5.96265 12.4436 5.96265 12.2987C5.96265 12.1537 6.08017 12.0362 6.22515 12.0362Z"
		fill="#2BD990"/>
	<path fill-rule="evenodd" clip-rule="evenodd"
		  d="M6.02822 12.2988C6.02822 12.4075 6.11637 12.4956 6.2251 12.4956C6.33383 12.4956 6.42197 12.4075 6.42197 12.2988C6.42197 12.19 6.33383 12.1019 6.2251 12.1019C6.11637 12.1019 6.02822 12.19 6.02822 12.2988ZM6.2251 12.6269C6.04388 12.6269 5.89697 12.48 5.89697 12.2988C5.89697 12.1175 6.04388 11.9706 6.2251 11.9706C6.40632 11.9706 6.55322 12.1175 6.55322 12.2988C6.55322 12.48 6.40632 12.6269 6.2251 12.6269Z"
		  fill="white"/>
	<g filter="url(#filter5_f_1113_7675)">
		<path
			d="M6.22515 10.9862C6.37012 10.9862 6.48765 11.1037 6.48765 11.2487C6.48765 11.3936 6.37012 11.5112 6.22515 11.5112C6.08017 11.5112 5.96265 11.3936 5.96265 11.2487C5.96265 11.1037 6.08017 10.9862 6.22515 10.9862Z"
			fill="#2BD990" fill-opacity="0.4"/>
	</g>
	<path
		d="M6.22515 10.9862C6.37012 10.9862 6.48765 11.1037 6.48765 11.2487C6.48765 11.3936 6.37012 11.5112 6.22515 11.5112C6.08017 11.5112 5.96265 11.3936 5.96265 11.2487C5.96265 11.1037 6.08017 10.9862 6.22515 10.9862Z"
		fill="#2BD990"/>
	<path fill-rule="evenodd" clip-rule="evenodd"
		  d="M6.02822 11.2488C6.02822 11.3575 6.11637 11.4456 6.2251 11.4456C6.33383 11.4456 6.42197 11.3575 6.42197 11.2488C6.42197 11.14 6.33383 11.0519 6.2251 11.0519C6.11637 11.0519 6.02822 11.14 6.02822 11.2488ZM6.2251 11.5769C6.04388 11.5769 5.89697 11.43 5.89697 11.2488C5.89697 11.0675 6.04388 10.9206 6.2251 10.9206C6.40632 10.9206 6.55322 11.0675 6.55322 11.2488C6.55322 11.43 6.40632 11.5769 6.2251 11.5769Z"
		  fill="white"/>
	<g filter="url(#filter6_f_1113_7675)">
		<path
			d="M6.22515 9.93626C6.37012 9.93626 6.48765 10.0538 6.48765 10.1988C6.48765 10.3437 6.37012 10.4613 6.22515 10.4613C6.08017 10.4613 5.96265 10.3437 5.96265 10.1988C5.96265 10.0538 6.08017 9.93626 6.22515 9.93626Z"
			fill="#2BD990" fill-opacity="0.4"/>
	</g>
	<path
		d="M6.22515 9.93626C6.37012 9.93626 6.48765 10.0538 6.48765 10.1988C6.48765 10.3437 6.37012 10.4613 6.22515 10.4613C6.08017 10.4613 5.96265 10.3437 5.96265 10.1988C5.96265 10.0538 6.08017 9.93626 6.22515 9.93626Z"
		fill="#2BD990"/>
	<path fill-rule="evenodd" clip-rule="evenodd"
		  d="M6.02822 10.1988C6.02822 10.3075 6.11637 10.3956 6.2251 10.3956C6.33383 10.3956 6.42197 10.3075 6.42197 10.1988C6.42197 10.09 6.33383 10.0019 6.2251 10.0019C6.11637 10.0019 6.02822 10.09 6.02822 10.1988ZM6.2251 10.5269C6.04388 10.5269 5.89697 10.38 5.89697 10.1988C5.89697 10.0175 6.04388 9.87063 6.2251 9.87063C6.40632 9.87063 6.55322 10.0175 6.55322 10.1988C6.55322 10.38 6.40632 10.5269 6.2251 10.5269Z"
		  fill="white"/>
	<path
		d="M17.9062 12.2988C17.8337 12.2988 17.7749 12.24 17.7749 12.1675V10.33C17.7749 10.2575 17.8337 10.1988 17.9062 10.1988C17.9786 10.1988 18.0374 10.2575 18.0374 10.33V12.1675C18.0374 12.24 17.9786 12.2988 17.9062 12.2988Z"
		fill="#1383F6"/>
	<path
		d="M17.1188 12.2988C17.0463 12.2988 16.9875 12.24 16.9875 12.1675V10.33C16.9875 10.2575 17.0463 10.1988 17.1188 10.1988C17.1913 10.1988 17.25 10.2575 17.25 10.33V12.1675C17.25 12.24 17.1913 12.2988 17.1188 12.2988Z"
		fill="#1383F6"/>
	<path
		d="M16.3314 12.2988C16.259 12.2988 16.2002 12.24 16.2002 12.1675V10.33C16.2002 10.2575 16.259 10.1988 16.3314 10.1988C16.4039 10.1988 16.4627 10.2575 16.4627 10.33V12.1675C16.4627 12.24 16.4039 12.2988 16.3314 12.2988Z"
		fill="#1383F6"/>
	<defs>
		<filter id="filter0_f_1113_7675" x="2.96265" y="14.2863" width="6.5249" height="6.525"
				filterUnits="userSpaceOnUse" color-interpolation-filters="sRGB">
			<feFlood flood-opacity="0" result="BackgroundImageFix"/>
			<feBlend mode="normal" in="SourceGraphic" in2="BackgroundImageFix" result="shape"/>
			<feGaussianBlur stdDeviation="1.5" result="effect1_foregroundBlur_1113_7675"/>
		</filter>
		<filter id="filter1_f_1113_7675" x="2.96265" y="13.2362" width="6.5249" height="6.525"
				filterUnits="userSpaceOnUse" color-interpolation-filters="sRGB">
			<feFlood flood-opacity="0" result="BackgroundImageFix"/>
			<feBlend mode="normal" in="SourceGraphic" in2="BackgroundImageFix" result="shape"/>
			<feGaussianBlur stdDeviation="1.5" result="effect1_foregroundBlur_1113_7675"/>
		</filter>
		<filter id="filter2_f_1113_7675" x="2.96265" y="12.1863" width="6.5249" height="6.525"
				filterUnits="userSpaceOnUse" color-interpolation-filters="sRGB">
			<feFlood flood-opacity="0" result="BackgroundImageFix"/>
			<feBlend mode="normal" in="SourceGraphic" in2="BackgroundImageFix" result="shape"/>
			<feGaussianBlur stdDeviation="1.5" result="effect1_foregroundBlur_1113_7675"/>
		</filter>
		<filter id="filter3_i_1113_7675" x="4.15991" y="4.77375" width="15.6799" height="5.9"
				filterUnits="userSpaceOnUse" color-interpolation-filters="sRGB">
			<feFlood flood-opacity="0" result="BackgroundImageFix"/>
			<feBlend mode="normal" in="SourceGraphic" in2="BackgroundImageFix" result="shape"/>
			<feColorMatrix in="SourceAlpha" type="matrix" values="0 0 0 0 0 0 0 0 0 0 0 0 0 0 0 0 0 0 127 0"
						   result="hardAlpha"/>
			<feOffset dy="1"/>
			<feGaussianBlur stdDeviation="1"/>
			<feComposite in2="hardAlpha" operator="arithmetic" k2="-1" k3="1"/>
			<feColorMatrix type="matrix" values="0 0 0 0 1 0 0 0 0 1 0 0 0 0 1 0 0 0 0.24 0"/>
			<feBlend mode="normal" in2="shape" result="effect1_innerShadow_1113_7675"/>
		</filter>
		<filter id="filter4_f_1113_7675" x="2.96265" y="9.03616" width="6.5249" height="6.525"
				filterUnits="userSpaceOnUse" color-interpolation-filters="sRGB">
			<feFlood flood-opacity="0" result="BackgroundImageFix"/>
			<feBlend mode="normal" in="SourceGraphic" in2="BackgroundImageFix" result="shape"/>
			<feGaussianBlur stdDeviation="1.5" result="effect1_foregroundBlur_1113_7675"/>
		</filter>
		<filter id="filter5_f_1113_7675" x="2.96265" y="7.98617" width="6.5249" height="6.525"
				filterUnits="userSpaceOnUse" color-interpolation-filters="sRGB">
			<feFlood flood-opacity="0" result="BackgroundImageFix"/>
			<feBlend mode="normal" in="SourceGraphic" in2="BackgroundImageFix" result="shape"/>
			<feGaussianBlur stdDeviation="1.5" result="effect1_foregroundBlur_1113_7675"/>
		</filter>
		<filter id="filter6_f_1113_7675" x="2.96265" y="6.93626" width="6.5249" height="6.525"
				filterUnits="userSpaceOnUse" color-interpolation-filters="sRGB">
			<feFlood flood-opacity="0" result="BackgroundImageFix"/>
			<feBlend mode="normal" in="SourceGraphic" in2="BackgroundImageFix" result="shape"/>
			<feGaussianBlur stdDeviation="1.5" result="effect1_foregroundBlur_1113_7675"/>
		</filter>
		<linearGradient id="paint0_linear_1113_7675" x1="12" y1="1.74621e-09" x2="12" y2="24"
						gradientUnits="userSpaceOnUse">
			<stop stop-color="#F7FAFC"/>
			<stop offset="0.885386" stop-color="#E7ECF2"/>
			<stop offset="1" stop-color="#DADFE6"/>
		</linearGradient>
		<linearGradient id="paint1_linear_1113_7675" x1="4.125" y1="16.4988" x2="19.875" y2="16.4988"
						gradientUnits="userSpaceOnUse">
			<stop stop-color="#1E96FF"/>
			<stop offset="1" stop-color="#1383F6"/>
		</linearGradient>
		<linearGradient id="paint2_linear_1113_7675" x1="18.9592" y1="6.86646" x2="5.04058" y2="6.86646"
						gradientUnits="userSpaceOnUse">
			<stop stop-color="#1884F7"/>
			<stop offset="0.51024" stop-color="#2298FF"/>
			<stop offset="1" stop-color="#5DBAFF"/>
		</linearGradient>
		<linearGradient id="paint3_linear_1113_7675" x1="4.125" y1="11.2488" x2="19.875" y2="11.2488"
						gradientUnits="userSpaceOnUse">
			<stop stop-color="#1E96FF"/>
			<stop offset="1" stop-color="#1383F6"/>
		</linearGradient>
	</defs>
</svg>
