<!--
  - * @LastEditors: zhanghengxin ezreal.zhang@icewhale.org
  - * @LastEditTime: 2023/5/19 上午10:43
  - * @FilePath: /CasaOS-UI/main/src/assets/img/app/files.svg
  - * @Description:
  - *
  - * Copyright (c) 2023 by IceWhale, All Rights Reserved.
  -
  -->

<svg width="24" height="24" viewBox="0 0 24 24" fill="none" xmlns="http://www.w3.org/2000/svg">
	<path
		d="M0 4.5C0 2.01472 2.01472 0 4.5 0H19.5C21.9853 0 24 2.01472 24 4.5V19.5C24 21.9853 21.9853 24 19.5 24H4.5C2.01472 24 0 21.9853 0 19.5V4.5Z"
		fill="url(#paint0_linear_1648_12146)"/>
	<mask id="mask0_1648_12146" style="mask-type:alpha" maskUnits="userSpaceOnUse" x="0" y="0" width="24" height="24">
		<path
			d="M0 4.5C0 2.01472 2.01472 0 4.5 0H19.5C21.9853 0 24 2.01472 24 4.5V19.5C24 21.9853 21.9853 24 19.5 24H4.5C2.01472 24 0 21.9853 0 19.5V4.5Z"
			fill="url(#paint1_linear_1648_12146)"/>
	</mask>
	<g mask="url(#mask0_1648_12146)">
		<g filter="url(#filter0_f_1648_12146)">
			<path
				d="M3.75 16.875H20.25V18C20.25 18.6213 19.7463 19.125 19.125 19.125H4.875C4.25368 19.125 3.75 18.6213 3.75 18V16.875Z"
				fill="#114775" fill-opacity="0.3"/>
		</g>
		<path
			d="M3.75 6.375C3.75 5.54657 4.42157 4.875 5.25 4.875H8.75511C9.07046 4.875 9.37132 5.00735 9.58441 5.23981L10.5135 6.2534C10.5846 6.33088 10.6848 6.375 10.79 6.375H18.75C19.5784 6.375 20.25 7.04657 20.25 7.875V17.25C20.25 18.0784 19.5784 18.75 18.75 18.75H5.25C4.42157 18.75 3.75 18.0784 3.75 17.25V6.375Z"
			fill="url(#paint2_linear_1648_12146)"/>
		<path
			d="M4.5 7.875C4.5 7.46079 4.83579 7.125 5.25 7.125H18.75C19.1642 7.125 19.5 7.46079 19.5 7.875V17.25C19.5 17.6642 19.1642 18 18.75 18H5.25C4.83579 18 4.5 17.6642 4.5 17.25V7.875Z"
			fill="url(#paint3_linear_1648_12146)"/>
		<g filter="url(#filter1_i_1648_12146)">
			<path
				d="M3.0571 9.80312C3.02628 9.36908 3.37008 9 3.80521 9H8.69828C9.04279 9 9.37679 8.88141 9.64417 8.66417L10.3055 8.12687C10.506 7.96394 10.7565 7.875 11.0149 7.875H20.2008C20.6338 7.875 20.9768 8.24056 20.9493 8.67265L20.3972 17.3453C20.3469 18.1351 19.6916 18.75 18.9002 18.75H5.08965C4.30245 18.75 3.64917 18.1415 3.59341 17.3562L3.0571 9.80312Z"
				fill="url(#paint4_linear_1648_12146)"/>
		</g>
	</g>
	<defs>
		<filter id="filter0_f_1648_12146" x="-0.25" y="12.875" width="24.5" height="10.25" filterUnits="userSpaceOnUse"
				color-interpolation-filters="sRGB">
			<feFlood flood-opacity="0" result="BackgroundImageFix"/>
			<feBlend mode="normal" in="SourceGraphic" in2="BackgroundImageFix" result="shape"/>
			<feGaussianBlur stdDeviation="2" result="effect1_foregroundBlur_1648_12146"/>
		</filter>
		<filter id="filter1_i_1648_12146" x="3.05518" y="7.875" width="17.8955" height="11.875"
				filterUnits="userSpaceOnUse" color-interpolation-filters="sRGB">
			<feFlood flood-opacity="0" result="BackgroundImageFix"/>
			<feBlend mode="normal" in="SourceGraphic" in2="BackgroundImageFix" result="shape"/>
			<feColorMatrix in="SourceAlpha" type="matrix" values="0 0 0 0 0 0 0 0 0 0 0 0 0 0 0 0 0 0 127 0"
						   result="hardAlpha"/>
			<feOffset dy="1"/>
			<feGaussianBlur stdDeviation="1.5"/>
			<feComposite in2="hardAlpha" operator="arithmetic" k2="-1" k3="1"/>
			<feColorMatrix type="matrix" values="0 0 0 0 1 0 0 0 0 1 0 0 0 0 1 0 0 0 0.35 0"/>
			<feBlend mode="normal" in2="shape" result="effect1_innerShadow_1648_12146"/>
		</filter>
		<linearGradient id="paint0_linear_1648_12146" x1="12" y1="1.74621e-09" x2="12" y2="24"
						gradientUnits="userSpaceOnUse">
			<stop stop-color="#F7FAFC"/>
			<stop offset="0.885386" stop-color="#E7ECF2"/>
			<stop offset="1" stop-color="#DADFE6"/>
		</linearGradient>
		<linearGradient id="paint1_linear_1648_12146" x1="12" y1="1.74621e-09" x2="12" y2="24"
						gradientUnits="userSpaceOnUse">
			<stop stop-color="#F7FAFC"/>
			<stop offset="0.885386" stop-color="#E7ECF2"/>
			<stop offset="1" stop-color="#DADFE6"/>
		</linearGradient>
		<linearGradient id="paint2_linear_1648_12146" x1="9.5625" y1="6.375" x2="9.80518" y2="13.4917"
						gradientUnits="userSpaceOnUse">
			<stop stop-color="#2A86E1"/>
			<stop offset="1" stop-color="#2575C5"/>
		</linearGradient>
		<linearGradient id="paint3_linear_1648_12146" x1="12" y1="7.46484" x2="12" y2="13.9219"
						gradientUnits="userSpaceOnUse">
			<stop stop-color="white"/>
			<stop offset="0.282519" stop-color="#B6CBD7"/>
			<stop offset="1" stop-color="white"/>
			<stop offset="1" stop-color="#A3BBCB"/>
		</linearGradient>
		<linearGradient id="paint4_linear_1648_12146" x1="12.0001" y1="7.875" x2="12.1447" y2="18.7481"
						gradientUnits="userSpaceOnUse">
			<stop stop-color="#32C8FA"/>
			<stop offset="1" stop-color="#3081F2"/>
		</linearGradient>
	</defs>
</svg>
