<svg width="64" height="64" viewBox="0 0 64 64" fill="none" xmlns="http://www.w3.org/2000/svg">
	<rect opacity="0.6" width="64" height="64" rx="12" fill="#8595A3"/>
	<path d="M20.375 47.2451C26.7953 47.2451 32 42.0404 32 35.6201C32 29.1998 26.7953 23.9951 20.375 23.9951C13.9547 23.9951 8.75 29.1998 8.75 35.6201C8.75 42.0404 13.9547 47.2451 20.375 47.2451Z"
		  fill="#EDF0F2"/>
	<path d="M31.9997 47.2951C40.7797 47.2951 47.8973 40.1776 47.8973 31.3976C47.8973 22.6176 40.7797 15.5 31.9997 15.5C23.2198 15.5 16.1022 22.6176 16.1022 31.3976C16.1022 40.1776 23.2198 47.2951 31.9997 47.2951Z"
		  fill="#ACB8C3"/>
	<path d="M43.625 47.2451C50.0453 47.2451 55.25 42.0404 55.25 35.6201C55.25 29.1998 50.0453 23.9951 43.625 23.9951C37.2047 23.9951 32 29.1998 32 35.6201C32 42.0404 37.2047 47.2451 43.625 47.2451Z"
		  fill="#EDF0F2"/>
</svg>
