<svg width="544" height="248" viewBox="0 0 544 248" fill="none" xmlns="http://www.w3.org/2000/svg">
	<mask id="mask0_391_2125" style="mask-type:alpha" maskUnits="userSpaceOnUse" x="0" y="0" width="544" height="248">
		<rect width="544" height="248" fill="white"/>
	</mask>
	<path d="M268.37 142.82C270.741 141.042 270.741 137.487 268.37 135.709L248.222 120.598C246.269 119.133 243.481 120.527 243.481 122.968V130.376H204.963C203.327 130.376 202 131.703 202 133.339V145.191C202 146.827 203.327 148.154 204.963 148.154H243.481V155.561C243.481 158.003 246.269 159.396 248.222 157.931L268.37 142.82Z"
		  fill="#2BD990"/>
	<g filter="url(#filter0_f_391_2125)">
		<ellipse cx="384" cy="183.5" rx="112" ry="18.5" fill="#6C7480" fill-opacity="0.24"/>
	</g>
	<g filter="url(#filter1_f_391_2125)">
		<path d="M319 152H443L483 200H279L319 152Z" fill="#6C7480" fill-opacity="0.4"/>
	</g>
	<g filter="url(#filter2_f_391_2125)">
		<path d="M310 154H451L464.221 191.329C466.065 196.536 462.203 202 456.68 202H305.099C299.639 202 295.783 196.65 297.51 191.47L310 154Z"
			  fill="#88909B" fill-opacity="0.8"/>
	</g>
	<g filter="url(#filter3_iiii_391_2125)">
		<path d="M295 98.0103C295 88.1676 302.979 80.1885 312.822 80.1885H449.456C459.299 80.1885 467.278 88.1676 467.278 98.0103V181.179C467.278 191.022 459.299 199.001 449.456 199.001H312.822C302.979 199.001 295 191.022 295 181.179V98.0103Z"
			  fill="url(#paint0_linear_391_2125)"/>
	</g>
	<g filter="url(#filter4_ii_391_2125)">
		<path fill-rule="evenodd" clip-rule="evenodd"
			  d="M322.532 49C315.645 49 309.531 53.4069 307.353 59.9404L297.926 88.2228C301.112 83.383 306.594 80.1885 312.822 80.1885H449.456C455.35 80.1885 460.575 83.0493 463.819 87.4581L454.647 59.9404C452.469 53.4069 446.355 49 439.468 49H322.532ZM295.028 97C295.03 96.9658 295.032 96.9316 295.034 96.8975L295 97H295.028Z"
			  fill="url(#paint1_linear_391_2125)"/>
	</g>
	<g filter="url(#filter5_i_391_2125)">
		<path d="M318.763 100.981C318.763 94.419 324.082 89.0996 330.644 89.0996H446.486C453.048 89.0996 458.367 94.419 458.367 100.981V178.209C458.367 184.771 453.048 190.09 446.486 190.09H330.644C324.082 190.09 318.763 184.771 318.763 178.209V100.981Z"
			  fill="#B8C0CC"/>
	</g>
	<path fill-rule="evenodd" clip-rule="evenodd"
		  d="M330.644 87.6133H446.486C453.868 87.6133 459.852 93.5976 459.852 100.98V178.208C459.852 185.59 453.868 191.574 446.486 191.574H330.644C323.262 191.574 317.277 185.59 317.277 178.208V100.98C317.277 93.5976 323.262 87.6133 330.644 87.6133ZM330.644 89.0984C324.082 89.0984 318.762 94.4178 318.762 100.98V178.208C318.762 184.769 324.082 190.089 330.644 190.089H446.486C453.047 190.089 458.367 184.769 458.367 178.208V100.98C458.367 94.4178 453.047 89.0984 446.486 89.0984H330.644Z"
		  fill="#CFD8E5"/>
	<g filter="url(#filter6_f_391_2125)">
		<path d="M308.367 100.237C308.367 101.468 307.369 102.465 306.139 102.465C304.909 102.465 303.911 101.468 303.911 100.237C303.911 99.0072 304.909 98.0098 306.139 98.0098C307.369 98.0098 308.367 99.0072 308.367 100.237Z"
			  fill="white" fill-opacity="0.4"/>
	</g>
	<path d="M308.367 100.237C308.367 101.468 307.369 102.465 306.139 102.465C304.909 102.465 303.911 101.468 303.911 100.237C303.911 99.0072 304.909 98.0098 306.139 98.0098C307.369 98.0098 308.367 99.0072 308.367 100.237Z"
		  fill="white"/>
	<g filter="url(#filter7_f_391_2125)">
		<path d="M308.367 109.149C308.367 110.379 307.369 111.376 306.139 111.376C304.909 111.376 303.911 110.379 303.911 109.149C303.911 107.918 304.909 106.921 306.139 106.921C307.369 106.921 308.367 107.918 308.367 109.149Z"
			  fill="white" fill-opacity="0.4"/>
	</g>
	<path d="M308.367 109.149C308.367 110.379 307.369 111.376 306.139 111.376C304.909 111.376 303.911 110.379 303.911 109.149C303.911 107.918 304.909 106.921 306.139 106.921C307.369 106.921 308.367 107.918 308.367 109.149Z"
		  fill="white"/>
	<g filter="url(#filter8_f_391_2125)">
		<path d="M308.367 118.06C308.367 119.29 307.369 120.287 306.139 120.287C304.909 120.287 303.911 119.29 303.911 118.06C303.911 116.829 304.909 115.832 306.139 115.832C307.369 115.832 308.367 116.829 308.367 118.06Z"
			  fill="white" fill-opacity="0.4"/>
	</g>
	<path d="M308.367 118.06C308.367 119.29 307.369 120.287 306.139 120.287C304.909 120.287 303.911 119.29 303.911 118.06C303.911 116.829 304.909 115.832 306.139 115.832C307.369 115.832 308.367 116.829 308.367 118.06Z"
		  fill="white"/>
	<g filter="url(#filter9_f_391_2125)">
		<path d="M308.367 126.971C308.367 128.201 307.369 129.199 306.139 129.199C304.909 129.199 303.911 128.201 303.911 126.971C303.911 125.741 304.909 124.743 306.139 124.743C307.369 124.743 308.367 125.741 308.367 126.971Z"
			  fill="white" fill-opacity="0.4"/>
	</g>
	<path d="M308.367 126.971C308.367 128.201 307.369 129.199 306.139 129.199C304.909 129.199 303.911 128.201 303.911 126.971C303.911 125.741 304.909 124.743 306.139 124.743C307.369 124.743 308.367 125.741 308.367 126.971Z"
		  fill="white"/>
	<path d="M324.703 102.466C324.703 98.3647 328.028 95.04 332.129 95.04H346.98C351.082 95.04 354.406 98.3647 354.406 102.466V176.723C354.406 180.825 351.082 184.149 346.98 184.149H332.129C328.028 184.149 324.703 180.825 324.703 176.723V102.466Z"
		  fill="#899099"/>
	<path d="M327.674 103.95C327.674 100.669 330.333 98.0098 333.614 98.0098H345.495C348.776 98.0098 351.436 100.669 351.436 103.95V175.238C351.436 178.519 348.776 181.178 345.495 181.178H333.614C330.333 181.178 327.674 178.519 327.674 175.238V103.95Z"
		  fill="white"/>
	<g filter="url(#filter10_f_391_2125)">
		<path d="M335.099 106.922C335.099 107.742 334.434 108.407 333.614 108.407C332.794 108.407 332.129 107.742 332.129 106.922C332.129 106.101 332.794 105.437 333.614 105.437C334.434 105.437 335.099 106.101 335.099 106.922Z"
			  fill="#2BD990" fill-opacity="0.4"/>
	</g>
	<path d="M335.099 106.922C335.099 107.742 334.434 108.407 333.614 108.407C332.794 108.407 332.129 107.742 332.129 106.922C332.129 106.101 332.794 105.437 333.614 105.437C334.434 105.437 335.099 106.101 335.099 106.922Z"
		  fill="#2BD990"/>
	<path fill-rule="evenodd" clip-rule="evenodd"
		  d="M333.614 105.808C332.999 105.808 332.5 106.307 332.5 106.922C332.5 107.537 332.999 108.036 333.614 108.036C334.229 108.036 334.728 107.537 334.728 106.922C334.728 106.307 334.229 105.808 333.614 105.808ZM331.757 106.922C331.757 105.897 332.588 105.065 333.614 105.065C334.639 105.065 335.47 105.897 335.47 106.922C335.47 107.947 334.639 108.778 333.614 108.778C332.588 108.778 331.757 107.947 331.757 106.922Z"
		  fill="white"/>
	<g filter="url(#filter11_f_391_2125)">
		<path d="M341.04 106.922C341.04 107.742 340.375 108.407 339.555 108.407C338.735 108.407 338.07 107.742 338.07 106.922C338.07 106.101 338.735 105.437 339.555 105.437C340.375 105.437 341.04 106.101 341.04 106.922Z"
			  fill="#2BD990" fill-opacity="0.4"/>
	</g>
	<path d="M341.04 106.922C341.04 107.742 340.375 108.407 339.555 108.407C338.735 108.407 338.07 107.742 338.07 106.922C338.07 106.101 338.735 105.437 339.555 105.437C340.375 105.437 341.04 106.101 341.04 106.922Z"
		  fill="#2BD990"/>
	<path fill-rule="evenodd" clip-rule="evenodd"
		  d="M339.555 105.808C338.94 105.808 338.441 106.307 338.441 106.922C338.441 107.537 338.94 108.036 339.555 108.036C340.17 108.036 340.669 107.537 340.669 106.922C340.669 106.307 340.17 105.808 339.555 105.808ZM337.698 106.922C337.698 105.897 338.529 105.065 339.555 105.065C340.58 105.065 341.411 105.897 341.411 106.922C341.411 107.947 340.58 108.778 339.555 108.778C338.529 108.778 337.698 107.947 337.698 106.922Z"
		  fill="white"/>
	<g filter="url(#filter12_f_391_2125)">
		<path d="M346.981 106.922C346.981 107.742 346.316 108.407 345.495 108.407C344.675 108.407 344.01 107.742 344.01 106.922C344.01 106.101 344.675 105.437 345.495 105.437C346.316 105.437 346.981 106.101 346.981 106.922Z"
			  fill="#2BD990" fill-opacity="0.4"/>
	</g>
	<path d="M346.981 106.922C346.981 107.742 346.316 108.407 345.495 108.407C344.675 108.407 344.01 107.742 344.01 106.922C344.01 106.101 344.675 105.437 345.495 105.437C346.316 105.437 346.981 106.101 346.981 106.922Z"
		  fill="#2BD990"/>
	<path fill-rule="evenodd" clip-rule="evenodd"
		  d="M345.495 105.808C344.88 105.808 344.381 106.307 344.381 106.922C344.381 107.537 344.88 108.036 345.495 108.036C346.11 108.036 346.609 107.537 346.609 106.922C346.609 106.307 346.11 105.808 345.495 105.808ZM343.639 106.922C343.639 105.897 344.47 105.065 345.495 105.065C346.52 105.065 347.352 105.897 347.352 106.922C347.352 107.947 346.52 108.778 345.495 108.778C344.47 108.778 343.639 107.947 343.639 106.922Z"
		  fill="white"/>
	<path d="M333.614 173.01C333.614 172.6 333.946 172.268 334.357 172.268H344.753C345.163 172.268 345.495 172.6 345.495 173.01C345.495 173.42 345.163 173.753 344.753 173.753H334.357C333.946 173.753 333.614 173.42 333.614 173.01Z"
		  fill="#E6EBF2"/>
	<path d="M333.614 168.555C333.614 168.145 333.946 167.812 334.357 167.812H344.753C345.163 167.812 345.495 168.145 345.495 168.555C345.495 168.965 345.163 169.298 344.753 169.298H334.357C333.946 169.298 333.614 168.965 333.614 168.555Z"
		  fill="#E6EBF2"/>
	<path d="M333.614 164.1C333.614 163.69 333.946 163.357 334.357 163.357H344.753C345.163 163.357 345.495 163.69 345.495 164.1C345.495 164.51 345.163 164.843 344.753 164.843H334.357C333.946 164.843 333.614 164.51 333.614 164.1Z"
		  fill="#E6EBF2"/>
	<path d="M357.376 102.465C357.376 98.3637 360.701 95.0391 364.802 95.0391H379.653C383.754 95.0391 387.079 98.3637 387.079 102.465V176.722C387.079 180.824 383.754 184.148 379.653 184.148H364.802C360.701 184.148 357.376 180.824 357.376 176.722V102.465Z"
		  fill="#899099"/>
	<g opacity="0.5">
		<path d="M360.347 103.95C360.347 100.669 363.006 98.0098 366.287 98.0098H378.169C381.449 98.0098 384.109 100.669 384.109 103.95V175.238C384.109 178.519 381.449 181.178 378.169 181.178H366.287C363.006 181.178 360.347 178.519 360.347 175.238V103.95Z"
			  fill="white"/>
		<g filter="url(#filter13_f_391_2125)">
			<path d="M367.773 106.921C367.773 107.741 367.108 108.406 366.287 108.406C365.467 108.406 364.802 107.741 364.802 106.921C364.802 106.1 365.467 105.436 366.287 105.436C367.108 105.436 367.773 106.1 367.773 106.921Z"
				  fill="#2BD990" fill-opacity="0.4"/>
		</g>
		<path d="M367.773 106.921C367.773 107.741 367.108 108.406 366.287 108.406C365.467 108.406 364.802 107.741 364.802 106.921C364.802 106.1 365.467 105.436 366.287 105.436C367.108 105.436 367.773 106.1 367.773 106.921Z"
			  fill="#2BD990"/>
		<path fill-rule="evenodd" clip-rule="evenodd"
			  d="M366.287 105.807C365.672 105.807 365.173 106.306 365.173 106.921C365.173 107.536 365.672 108.035 366.287 108.035C366.902 108.035 367.401 107.536 367.401 106.921C367.401 106.306 366.902 105.807 366.287 105.807ZM364.431 106.921C364.431 105.896 365.262 105.064 366.287 105.064C367.312 105.064 368.144 105.896 368.144 106.921C368.144 107.946 367.312 108.777 366.287 108.777C365.262 108.777 364.431 107.946 364.431 106.921Z"
			  fill="white"/>
		<g filter="url(#filter14_f_391_2125)">
			<path d="M373.713 106.921C373.713 107.741 373.048 108.406 372.228 108.406C371.408 108.406 370.743 107.741 370.743 106.921C370.743 106.1 371.408 105.436 372.228 105.436C373.048 105.436 373.713 106.1 373.713 106.921Z"
				  fill="#2BD990" fill-opacity="0.4"/>
		</g>
		<path d="M373.713 106.921C373.713 107.741 373.048 108.406 372.228 108.406C371.408 108.406 370.743 107.741 370.743 106.921C370.743 106.1 371.408 105.436 372.228 105.436C373.048 105.436 373.713 106.1 373.713 106.921Z"
			  fill="#2BD990"/>
		<path fill-rule="evenodd" clip-rule="evenodd"
			  d="M372.228 105.807C371.613 105.807 371.114 106.306 371.114 106.921C371.114 107.536 371.613 108.035 372.228 108.035C372.843 108.035 373.342 107.536 373.342 106.921C373.342 106.306 372.843 105.807 372.228 105.807ZM370.371 106.921C370.371 105.896 371.202 105.064 372.228 105.064C373.253 105.064 374.084 105.896 374.084 106.921C374.084 107.946 373.253 108.777 372.228 108.777C371.202 108.777 370.371 107.946 370.371 106.921Z"
			  fill="white"/>
		<g filter="url(#filter15_f_391_2125)">
			<path d="M379.654 106.921C379.654 107.741 378.989 108.406 378.169 108.406C377.348 108.406 376.683 107.741 376.683 106.921C376.683 106.1 377.348 105.436 378.169 105.436C378.989 105.436 379.654 106.1 379.654 106.921Z"
				  fill="#2BD990" fill-opacity="0.4"/>
		</g>
		<path d="M379.654 106.921C379.654 107.741 378.989 108.406 378.169 108.406C377.348 108.406 376.683 107.741 376.683 106.921C376.683 106.1 377.348 105.436 378.169 105.436C378.989 105.436 379.654 106.1 379.654 106.921Z"
			  fill="#2BD990"/>
		<path fill-rule="evenodd" clip-rule="evenodd"
			  d="M378.168 105.807C377.553 105.807 377.054 106.306 377.054 106.921C377.054 107.536 377.553 108.035 378.168 108.035C378.783 108.035 379.282 107.536 379.282 106.921C379.282 106.306 378.783 105.807 378.168 105.807ZM376.312 106.921C376.312 105.896 377.143 105.064 378.168 105.064C379.193 105.064 380.025 105.896 380.025 106.921C380.025 107.946 379.193 108.777 378.168 108.777C377.143 108.777 376.312 107.946 376.312 106.921Z"
			  fill="white"/>
		<path d="M366.287 173.01C366.287 172.6 366.62 172.268 367.03 172.268H377.426C377.836 172.268 378.168 172.6 378.168 173.01C378.168 173.42 377.836 173.753 377.426 173.753H367.03C366.62 173.753 366.287 173.42 366.287 173.01Z"
			  fill="#E6EBF2"/>
		<path d="M366.287 168.554C366.287 168.144 366.62 167.812 367.03 167.812H377.426C377.836 167.812 378.168 168.144 378.168 168.554C378.168 168.964 377.836 169.297 377.426 169.297H367.03C366.62 169.297 366.287 168.964 366.287 168.554Z"
			  fill="#E6EBF2"/>
		<path d="M366.287 164.099C366.287 163.689 366.62 163.356 367.03 163.356H377.426C377.836 163.356 378.168 163.689 378.168 164.099C378.168 164.509 377.836 164.842 377.426 164.842H367.03C366.62 164.842 366.287 164.509 366.287 164.099Z"
			  fill="#E6EBF2"/>
	</g>
	<path d="M390.05 102.465C390.05 98.3637 393.374 95.0391 397.476 95.0391H412.327C416.428 95.0391 419.753 98.3637 419.753 102.465V176.722C419.753 180.824 416.428 184.148 412.327 184.148H397.476C393.374 184.148 390.05 180.824 390.05 176.722V102.465Z"
		  fill="#899099"/>
	<g opacity="0.5">
		<path d="M393.021 103.95C393.021 100.669 395.68 98.0098 398.961 98.0098H410.842C414.123 98.0098 416.783 100.669 416.783 103.95V175.238C416.783 178.519 414.123 181.178 410.842 181.178H398.961C395.68 181.178 393.021 178.519 393.021 175.238V103.95Z"
			  fill="white"/>
		<g filter="url(#filter16_f_391_2125)">
			<path d="M400.446 106.921C400.446 107.741 399.781 108.406 398.961 108.406C398.141 108.406 397.476 107.741 397.476 106.921C397.476 106.1 398.141 105.436 398.961 105.436C399.781 105.436 400.446 106.1 400.446 106.921Z"
				  fill="#2BD990" fill-opacity="0.4"/>
		</g>
		<path d="M400.446 106.921C400.446 107.741 399.781 108.406 398.961 108.406C398.141 108.406 397.476 107.741 397.476 106.921C397.476 106.1 398.141 105.436 398.961 105.436C399.781 105.436 400.446 106.1 400.446 106.921Z"
			  fill="#2BD990"/>
		<path fill-rule="evenodd" clip-rule="evenodd"
			  d="M398.961 105.807C398.346 105.807 397.847 106.306 397.847 106.921C397.847 107.536 398.346 108.035 398.961 108.035C399.576 108.035 400.075 107.536 400.075 106.921C400.075 106.306 399.576 105.807 398.961 105.807ZM397.104 106.921C397.104 105.896 397.936 105.064 398.961 105.064C399.986 105.064 400.817 105.896 400.817 106.921C400.817 107.946 399.986 108.777 398.961 108.777C397.936 108.777 397.104 107.946 397.104 106.921Z"
			  fill="white"/>
		<g filter="url(#filter17_f_391_2125)">
			<path d="M406.387 106.921C406.387 107.741 405.722 108.406 404.902 108.406C404.082 108.406 403.417 107.741 403.417 106.921C403.417 106.1 404.082 105.436 404.902 105.436C405.722 105.436 406.387 106.1 406.387 106.921Z"
				  fill="#2BD990" fill-opacity="0.4"/>
		</g>
		<path d="M406.387 106.921C406.387 107.741 405.722 108.406 404.902 108.406C404.082 108.406 403.417 107.741 403.417 106.921C403.417 106.1 404.082 105.436 404.902 105.436C405.722 105.436 406.387 106.1 406.387 106.921Z"
			  fill="#2BD990"/>
		<path fill-rule="evenodd" clip-rule="evenodd"
			  d="M404.902 105.807C404.287 105.807 403.788 106.306 403.788 106.921C403.788 107.536 404.287 108.035 404.902 108.035C405.517 108.035 406.016 107.536 406.016 106.921C406.016 106.306 405.517 105.807 404.902 105.807ZM403.045 106.921C403.045 105.896 403.877 105.064 404.902 105.064C405.927 105.064 406.758 105.896 406.758 106.921C406.758 107.946 405.927 108.777 404.902 108.777C403.877 108.777 403.045 107.946 403.045 106.921Z"
			  fill="white"/>
		<g filter="url(#filter18_f_391_2125)">
			<path d="M412.328 106.921C412.328 107.741 411.663 108.406 410.843 108.406C410.022 108.406 409.357 107.741 409.357 106.921C409.357 106.1 410.022 105.436 410.843 105.436C411.663 105.436 412.328 106.1 412.328 106.921Z"
				  fill="#2BD990" fill-opacity="0.4"/>
		</g>
		<path d="M412.328 106.921C412.328 107.741 411.663 108.406 410.843 108.406C410.022 108.406 409.357 107.741 409.357 106.921C409.357 106.1 410.022 105.436 410.843 105.436C411.663 105.436 412.328 106.1 412.328 106.921Z"
			  fill="#2BD990"/>
		<path fill-rule="evenodd" clip-rule="evenodd"
			  d="M410.842 105.807C410.227 105.807 409.728 106.306 409.728 106.921C409.728 107.536 410.227 108.035 410.842 108.035C411.457 108.035 411.956 107.536 411.956 106.921C411.956 106.306 411.457 105.807 410.842 105.807ZM408.986 106.921C408.986 105.896 409.817 105.064 410.842 105.064C411.868 105.064 412.699 105.896 412.699 106.921C412.699 107.946 411.868 108.777 410.842 108.777C409.817 108.777 408.986 107.946 408.986 106.921Z"
			  fill="white"/>
		<path d="M398.961 173.01C398.961 172.6 399.293 172.268 399.704 172.268H410.1C410.51 172.268 410.842 172.6 410.842 173.01C410.842 173.42 410.51 173.753 410.1 173.753H399.704C399.293 173.753 398.961 173.42 398.961 173.01Z"
			  fill="#E6EBF2"/>
		<path d="M398.961 168.554C398.961 168.144 399.293 167.812 399.704 167.812H410.1C410.51 167.812 410.842 168.144 410.842 168.554C410.842 168.964 410.51 169.297 410.1 169.297H399.704C399.293 169.297 398.961 168.964 398.961 168.554Z"
			  fill="#E6EBF2"/>
		<path d="M398.961 164.099C398.961 163.689 399.293 163.356 399.704 163.356H410.1C410.51 163.356 410.842 163.689 410.842 164.099C410.842 164.509 410.51 164.842 410.1 164.842H399.704C399.293 164.842 398.961 164.509 398.961 164.099Z"
			  fill="#E6EBF2"/>
	</g>
	<path d="M422.723 102.465C422.723 98.3637 426.048 95.0391 430.149 95.0391H445C449.102 95.0391 452.426 98.3637 452.426 102.465V176.722C452.426 180.824 449.102 184.148 445 184.148H430.149C426.048 184.148 422.723 180.824 422.723 176.722V102.465Z"
		  fill="#899099"/>
	<g opacity="0.5">
		<path d="M425.694 103.95C425.694 100.669 428.354 98.0098 431.634 98.0098H443.516C446.797 98.0098 449.456 100.669 449.456 103.95V175.238C449.456 178.519 446.797 181.178 443.516 181.178H431.634C428.354 181.178 425.694 178.519 425.694 175.238V103.95Z"
			  fill="white"/>
		<g filter="url(#filter19_f_391_2125)">
			<path d="M433.119 106.921C433.119 107.741 432.455 108.406 431.634 108.406C430.814 108.406 430.149 107.741 430.149 106.921C430.149 106.1 430.814 105.436 431.634 105.436C432.455 105.436 433.119 106.1 433.119 106.921Z"
				  fill="#2BD990" fill-opacity="0.4"/>
		</g>
		<path d="M433.119 106.921C433.119 107.741 432.455 108.406 431.634 108.406C430.814 108.406 430.149 107.741 430.149 106.921C430.149 106.1 430.814 105.436 431.634 105.436C432.455 105.436 433.119 106.1 433.119 106.921Z"
			  fill="#2BD990"/>
		<path fill-rule="evenodd" clip-rule="evenodd"
			  d="M431.634 105.807C431.019 105.807 430.52 106.306 430.52 106.921C430.52 107.536 431.019 108.035 431.634 108.035C432.249 108.035 432.748 107.536 432.748 106.921C432.748 106.306 432.249 105.807 431.634 105.807ZM429.778 106.921C429.778 105.896 430.609 105.064 431.634 105.064C432.659 105.064 433.49 105.896 433.49 106.921C433.49 107.946 432.659 108.777 431.634 108.777C430.609 108.777 429.778 107.946 429.778 106.921Z"
			  fill="white"/>
		<g filter="url(#filter20_f_391_2125)">
			<path d="M439.06 106.921C439.06 107.741 438.395 108.406 437.575 108.406C436.755 108.406 436.09 107.741 436.09 106.921C436.09 106.1 436.755 105.436 437.575 105.436C438.395 105.436 439.06 106.1 439.06 106.921Z"
				  fill="#2BD990" fill-opacity="0.4"/>
		</g>
		<path d="M439.06 106.921C439.06 107.741 438.395 108.406 437.575 108.406C436.755 108.406 436.09 107.741 436.09 106.921C436.09 106.1 436.755 105.436 437.575 105.436C438.395 105.436 439.06 106.1 439.06 106.921Z"
			  fill="#2BD990"/>
		<path fill-rule="evenodd" clip-rule="evenodd"
			  d="M437.575 105.807C436.96 105.807 436.461 106.306 436.461 106.921C436.461 107.536 436.96 108.035 437.575 108.035C438.19 108.035 438.689 107.536 438.689 106.921C438.689 106.306 438.19 105.807 437.575 105.807ZM435.719 106.921C435.719 105.896 436.55 105.064 437.575 105.064C438.6 105.064 439.431 105.896 439.431 106.921C439.431 107.946 438.6 108.777 437.575 108.777C436.55 108.777 435.719 107.946 435.719 106.921Z"
			  fill="white"/>
		<g filter="url(#filter21_f_391_2125)">
			<path d="M445.001 106.921C445.001 107.741 444.336 108.406 443.516 108.406C442.695 108.406 442.031 107.741 442.031 106.921C442.031 106.1 442.695 105.436 443.516 105.436C444.336 105.436 445.001 106.1 445.001 106.921Z"
				  fill="#2BD990" fill-opacity="0.4"/>
		</g>
		<path d="M445.001 106.921C445.001 107.741 444.336 108.406 443.516 108.406C442.695 108.406 442.031 107.741 442.031 106.921C442.031 106.1 442.695 105.436 443.516 105.436C444.336 105.436 445.001 106.1 445.001 106.921Z"
			  fill="#2BD990"/>
		<path fill-rule="evenodd" clip-rule="evenodd"
			  d="M443.515 105.807C442.9 105.807 442.402 106.306 442.402 106.921C442.402 107.536 442.9 108.035 443.515 108.035C444.131 108.035 444.629 107.536 444.629 106.921C444.629 106.306 444.131 105.807 443.515 105.807ZM441.659 106.921C441.659 105.896 442.49 105.064 443.515 105.064C444.541 105.064 445.372 105.896 445.372 106.921C445.372 107.946 444.541 108.777 443.515 108.777C442.49 108.777 441.659 107.946 441.659 106.921Z"
			  fill="white"/>
		<path d="M431.634 173.01C431.634 172.6 431.967 172.268 432.377 172.268H442.773C443.183 172.268 443.515 172.6 443.515 173.01C443.515 173.42 443.183 173.753 442.773 173.753H432.377C431.967 173.753 431.634 173.42 431.634 173.01Z"
			  fill="#E6EBF2"/>
		<path d="M431.634 168.554C431.634 168.144 431.967 167.812 432.377 167.812H442.773C443.183 167.812 443.515 168.144 443.515 168.554C443.515 168.964 443.183 169.297 442.773 169.297H432.377C431.967 169.297 431.634 168.964 431.634 168.554Z"
			  fill="#E6EBF2"/>
		<path d="M431.634 164.099C431.634 163.689 431.967 163.356 432.377 163.356H442.773C443.183 163.356 443.515 163.689 443.515 164.099C443.515 164.509 443.183 164.842 442.773 164.842H432.377C431.967 164.842 431.634 164.509 431.634 164.099Z"
			  fill="#E6EBF2"/>
	</g>
	<g filter="url(#filter22_f_391_2125)">
		<ellipse cx="129" cy="190" rx="59" ry="12" fill="#6C7480" fill-opacity="0.2"/>
	</g>
	<g filter="url(#filter23_f_391_2125)">
		<path d="M91.7059 166H168.294L193 200H67L91.7059 166Z" fill="url(#paint2_linear_391_2125)" fill-opacity="0.3"/>
	</g>
	<g filter="url(#filter24_f_391_2125)">
		<path d="M94 177H164L173 201H85L94 177Z" fill="#899099" fill-opacity="0.8"/>
	</g>
	<path d="M91.5 199C87.3579 199 84 195.642 84 191.5V176.5C84 172.358 87.3579 169 91.5 169H166.5C170.642 169 174 172.358 174 176.5V191.5C174 195.642 170.642 199 166.5 199H91.5Z"
		  fill="#899099"/>
	<path d="M92.9994 196C89.6857 196 86.9994 193.314 86.9994 190V178C86.9994 174.686 89.6857 172 92.9994 172H164.999C168.313 172 170.999 174.686 170.999 178V190C170.999 193.314 168.313 196 164.999 196H92.9994Z"
		  fill="white"/>
	<g filter="url(#filter25_f_391_2125)">
		<path d="M96 188.5C96.8284 188.5 97.5 189.172 97.5 190C97.5 190.828 96.8284 191.5 96 191.5C95.1716 191.5 94.5 190.828 94.5 190C94.5 189.172 95.1716 188.5 96 188.5Z"
			  fill="#2BD990" fill-opacity="0.4"/>
	</g>
	<path d="M96 188.5C96.8284 188.5 97.5 189.172 97.5 190C97.5 190.828 96.8284 191.5 96 191.5C95.1716 191.5 94.5 190.828 94.5 190C94.5 189.172 95.1716 188.5 96 188.5Z"
		  fill="#2BD990"/>
	<path fill-rule="evenodd" clip-rule="evenodd"
		  d="M94.8752 190C94.8752 190.621 95.3789 191.125 96.0002 191.125C96.6216 191.125 97.1252 190.621 97.1252 190C97.1252 189.379 96.6216 188.875 96.0002 188.875C95.3789 188.875 94.8752 189.379 94.8752 190ZM96.0002 191.875C94.9647 191.875 94.1252 191.036 94.1252 190C94.1252 188.964 94.9647 188.125 96.0002 188.125C97.0358 188.125 97.8752 188.964 97.8752 190C97.8752 191.036 97.0358 191.875 96.0002 191.875Z"
		  fill="white"/>
	<g filter="url(#filter26_f_391_2125)">
		<path d="M96 182.5C96.8284 182.5 97.5 183.172 97.5 184C97.5 184.828 96.8284 185.5 96 185.5C95.1716 185.5 94.5 184.828 94.5 184C94.5 183.172 95.1716 182.5 96 182.5Z"
			  fill="#2BD990" fill-opacity="0.4"/>
	</g>
	<path d="M96 182.5C96.8284 182.5 97.5 183.172 97.5 184C97.5 184.828 96.8284 185.5 96 185.5C95.1716 185.5 94.5 184.828 94.5 184C94.5 183.172 95.1716 182.5 96 182.5Z"
		  fill="#2BD990"/>
	<path fill-rule="evenodd" clip-rule="evenodd"
		  d="M94.8752 184C94.8752 184.621 95.3789 185.125 96.0002 185.125C96.6216 185.125 97.1252 184.621 97.1252 184C97.1252 183.379 96.6216 182.875 96.0002 182.875C95.3789 182.875 94.8752 183.379 94.8752 184ZM96.0002 185.875C94.9647 185.875 94.1252 185.036 94.1252 184C94.1252 182.964 94.9647 182.125 96.0002 182.125C97.0358 182.125 97.8752 182.964 97.8752 184C97.8752 185.036 97.0358 185.875 96.0002 185.875Z"
		  fill="white"/>
	<g filter="url(#filter27_f_391_2125)">
		<path d="M96 176.5C96.8284 176.5 97.5 177.172 97.5 178C97.5 178.828 96.8284 179.5 96 179.5C95.1716 179.5 94.5 178.828 94.5 178C94.5 177.172 95.1716 176.5 96 176.5Z"
			  fill="#2BD990" fill-opacity="0.4"/>
	</g>
	<path d="M96 176.5C96.8284 176.5 97.5 177.172 97.5 178C97.5 178.828 96.8284 179.5 96 179.5C95.1716 179.5 94.5 178.828 94.5 178C94.5 177.172 95.1716 176.5 96 176.5Z"
		  fill="#2BD990"/>
	<path fill-rule="evenodd" clip-rule="evenodd"
		  d="M94.8752 178C94.8752 178.621 95.3789 179.125 96.0002 179.125C96.6216 179.125 97.1252 178.621 97.1252 178C97.1252 177.379 96.6216 176.875 96.0002 176.875C95.3789 176.875 94.8752 177.379 94.8752 178ZM96.0002 179.875C94.9647 179.875 94.1252 179.036 94.1252 178C94.1252 176.964 94.9647 176.125 96.0002 176.125C97.0358 176.125 97.8752 176.964 97.8752 178C97.8752 179.036 97.0358 179.875 96.0002 179.875Z"
		  fill="white"/>
	<path d="M162.75 190C162.335 190 162 189.664 162 189.25V178.75C162 178.336 162.335 178 162.75 178C163.164 178 163.5 178.336 163.5 178.75V189.25C163.5 189.664 163.164 190 162.75 190Z"
		  fill="#E6EBF2"/>
	<path d="M158.25 190C157.836 190 157.5 189.664 157.5 189.25V178.75C157.5 178.336 157.836 178 158.25 178C158.664 178 159 178.336 159 178.75V189.25C159 189.664 158.664 190 158.25 190Z"
		  fill="#E6EBF2"/>
	<path d="M153.75 190C153.336 190 153 189.664 153 189.25V178.75C153 178.336 153.336 178 153.75 178C154.165 178 154.5 178.336 154.5 178.75V189.25C154.5 189.664 154.165 190 153.75 190Z"
		  fill="#E6EBF2"/>
	<path d="M91.5 169C87.3579 169 84 165.642 84 161.5V146.5C84 142.358 87.3579 139 91.5 139H166.5C170.642 139 174 142.358 174 146.5V161.5C174 165.642 170.642 169 166.5 169H91.5Z"
		  fill="#899099"/>
	<path d="M92.9994 166C89.6857 166 86.9994 163.314 86.9994 160V148C86.9994 144.686 89.6857 142 92.9994 142H164.999C168.313 142 170.999 144.686 170.999 148V160C170.999 163.314 168.313 166 164.999 166H92.9994Z"
		  fill="white"/>
	<g filter="url(#filter28_f_391_2125)">
		<path d="M96 158.5C96.8284 158.5 97.5 159.172 97.5 160C97.5 160.828 96.8284 161.5 96 161.5C95.1716 161.5 94.5 160.828 94.5 160C94.5 159.172 95.1716 158.5 96 158.5Z"
			  fill="#2BD990" fill-opacity="0.4"/>
	</g>
	<path d="M96 158.5C96.8284 158.5 97.5 159.172 97.5 160C97.5 160.828 96.8284 161.5 96 161.5C95.1716 161.5 94.5 160.828 94.5 160C94.5 159.172 95.1716 158.5 96 158.5Z"
		  fill="#2BD990"/>
	<path fill-rule="evenodd" clip-rule="evenodd"
		  d="M94.8752 160C94.8752 160.621 95.3789 161.125 96.0002 161.125C96.6216 161.125 97.1252 160.621 97.1252 160C97.1252 159.379 96.6216 158.875 96.0002 158.875C95.3789 158.875 94.8752 159.379 94.8752 160ZM96.0002 161.875C94.9647 161.875 94.1252 161.036 94.1252 160C94.1252 158.964 94.9647 158.125 96.0002 158.125C97.0358 158.125 97.8752 158.964 97.8752 160C97.8752 161.036 97.0358 161.875 96.0002 161.875Z"
		  fill="white"/>
	<g filter="url(#filter29_f_391_2125)">
		<path d="M96 152.5C96.8284 152.5 97.5 153.172 97.5 154C97.5 154.828 96.8284 155.5 96 155.5C95.1716 155.5 94.5 154.828 94.5 154C94.5 153.172 95.1716 152.5 96 152.5Z"
			  fill="#2BD990" fill-opacity="0.4"/>
	</g>
	<path d="M96 152.5C96.8284 152.5 97.5 153.172 97.5 154C97.5 154.828 96.8284 155.5 96 155.5C95.1716 155.5 94.5 154.828 94.5 154C94.5 153.172 95.1716 152.5 96 152.5Z"
		  fill="#2BD990"/>
	<path fill-rule="evenodd" clip-rule="evenodd"
		  d="M94.8752 154C94.8752 154.621 95.3789 155.125 96.0002 155.125C96.6216 155.125 97.1252 154.621 97.1252 154C97.1252 153.379 96.6216 152.875 96.0002 152.875C95.3789 152.875 94.8752 153.379 94.8752 154ZM96.0002 155.875C94.9647 155.875 94.1252 155.036 94.1252 154C94.1252 152.964 94.9647 152.125 96.0002 152.125C97.0358 152.125 97.8752 152.964 97.8752 154C97.8752 155.036 97.0358 155.875 96.0002 155.875Z"
		  fill="white"/>
	<g filter="url(#filter30_f_391_2125)">
		<path d="M96 146.5C96.8284 146.5 97.5 147.172 97.5 148C97.5 148.828 96.8284 149.5 96 149.5C95.1716 149.5 94.5 148.828 94.5 148C94.5 147.172 95.1716 146.5 96 146.5Z"
			  fill="#2BD990" fill-opacity="0.4"/>
	</g>
	<path d="M96 146.5C96.8284 146.5 97.5 147.172 97.5 148C97.5 148.828 96.8284 149.5 96 149.5C95.1716 149.5 94.5 148.828 94.5 148C94.5 147.172 95.1716 146.5 96 146.5Z"
		  fill="#2BD990"/>
	<path fill-rule="evenodd" clip-rule="evenodd"
		  d="M94.8752 148C94.8752 148.621 95.3789 149.125 96.0002 149.125C96.6216 149.125 97.1252 148.621 97.1252 148C97.1252 147.379 96.6216 146.875 96.0002 146.875C95.3789 146.875 94.8752 147.379 94.8752 148ZM96.0002 149.875C94.9647 149.875 94.1252 149.036 94.1252 148C94.1252 146.964 94.9647 146.125 96.0002 146.125C97.0358 146.125 97.8752 146.964 97.8752 148C97.8752 149.036 97.0358 149.875 96.0002 149.875Z"
		  fill="white"/>
	<path d="M162.75 160C162.335 160 162 159.664 162 159.25V148.75C162 148.336 162.335 148 162.75 148C163.164 148 163.5 148.336 163.5 148.75V159.25C163.5 159.664 163.164 160 162.75 160Z"
		  fill="#E6EBF2"/>
	<path d="M158.25 160C157.836 160 157.5 159.664 157.5 159.25V148.75C157.5 148.336 157.836 148 158.25 148C158.664 148 159 148.336 159 148.75V159.25C159 159.664 158.664 160 158.25 160Z"
		  fill="#E6EBF2"/>
	<path d="M153.75 160C153.336 160 153 159.664 153 159.25V148.75C153 148.336 153.336 148 153.75 148C154.165 148 154.5 148.336 154.5 148.75V159.25C154.5 159.664 154.165 160 153.75 160Z"
		  fill="#E6EBF2"/>
	<g filter="url(#filter31_i_391_2125)">
		<path d="M97.7045 91.0684C99.123 88.5547 101.785 87 104.672 87H153.329C156.215 87 158.878 88.5548 160.296 91.0685L173.8 115H84.2002L97.7045 91.0684Z"
			  fill="url(#paint3_linear_391_2125)"/>
	</g>
	<path d="M91.5 139C87.3579 139 84 135.642 84 131.5V116.5C84 112.358 87.3579 109 91.5 109H166.5C170.642 109 174 112.358 174 116.5V131.5C174 135.642 170.642 139 166.5 139H91.5Z"
		  fill="url(#paint4_linear_391_2125)"/>
	<path d="M92.9995 136C89.6858 136 86.9995 133.314 86.9995 130V118C86.9995 114.686 89.6858 112 92.9995 112H165C168.313 112 171 114.686 171 118V130C171 133.314 168.313 136 165 136H92.9995Z"
		  fill="white"/>
	<g filter="url(#filter32_f_391_2125)">
		<path d="M96.0002 128.5C96.8287 128.5 97.5002 129.172 97.5002 130C97.5002 130.828 96.8287 131.5 96.0002 131.5C95.1718 131.5 94.5002 130.828 94.5002 130C94.5002 129.172 95.1718 128.5 96.0002 128.5Z"
			  fill="#2BD990" fill-opacity="0.4"/>
	</g>
	<path d="M96.0002 128.5C96.8287 128.5 97.5002 129.172 97.5002 130C97.5002 130.828 96.8287 131.5 96.0002 131.5C95.1718 131.5 94.5002 130.828 94.5002 130C94.5002 129.172 95.1718 128.5 96.0002 128.5Z"
		  fill="#2BD990"/>
	<path fill-rule="evenodd" clip-rule="evenodd"
		  d="M94.8755 130C94.8755 130.621 95.3792 131.125 96.0005 131.125C96.6218 131.125 97.1255 130.621 97.1255 130C97.1255 129.379 96.6218 128.875 96.0005 128.875C95.3792 128.875 94.8755 129.379 94.8755 130ZM96.0005 131.875C94.965 131.875 94.1255 131.036 94.1255 130C94.1255 128.964 94.965 128.125 96.0005 128.125C97.036 128.125 97.8755 128.964 97.8755 130C97.8755 131.036 97.036 131.875 96.0005 131.875Z"
		  fill="white"/>
	<g filter="url(#filter33_f_391_2125)">
		<path d="M96.0002 122.5C96.8287 122.5 97.5002 123.172 97.5002 124C97.5002 124.828 96.8287 125.5 96.0002 125.5C95.1718 125.5 94.5002 124.828 94.5002 124C94.5002 123.172 95.1718 122.5 96.0002 122.5Z"
			  fill="#2BD990" fill-opacity="0.4"/>
	</g>
	<path d="M96.0002 122.5C96.8287 122.5 97.5002 123.172 97.5002 124C97.5002 124.828 96.8287 125.5 96.0002 125.5C95.1718 125.5 94.5002 124.828 94.5002 124C94.5002 123.172 95.1718 122.5 96.0002 122.5Z"
		  fill="#2BD990"/>
	<path fill-rule="evenodd" clip-rule="evenodd"
		  d="M94.8755 124C94.8755 124.621 95.3792 125.125 96.0005 125.125C96.6218 125.125 97.1255 124.621 97.1255 124C97.1255 123.379 96.6218 122.875 96.0005 122.875C95.3792 122.875 94.8755 123.379 94.8755 124ZM96.0005 125.875C94.965 125.875 94.1255 125.036 94.1255 124C94.1255 122.964 94.965 122.125 96.0005 122.125C97.036 122.125 97.8755 122.964 97.8755 124C97.8755 125.036 97.036 125.875 96.0005 125.875Z"
		  fill="white"/>
	<g filter="url(#filter34_f_391_2125)">
		<path d="M96.0002 116.5C96.8287 116.5 97.5002 117.172 97.5002 118C97.5002 118.828 96.8287 119.5 96.0002 119.5C95.1718 119.5 94.5002 118.828 94.5002 118C94.5002 117.172 95.1718 116.5 96.0002 116.5Z"
			  fill="#2BD990" fill-opacity="0.4"/>
	</g>
	<path d="M96.0002 116.5C96.8287 116.5 97.5002 117.172 97.5002 118C97.5002 118.828 96.8287 119.5 96.0002 119.5C95.1718 119.5 94.5002 118.828 94.5002 118C94.5002 117.172 95.1718 116.5 96.0002 116.5Z"
		  fill="#2BD990"/>
	<path fill-rule="evenodd" clip-rule="evenodd"
		  d="M94.8755 118C94.8755 118.621 95.3792 119.125 96.0005 119.125C96.6218 119.125 97.1255 118.621 97.1255 118C97.1255 117.379 96.6218 116.875 96.0005 116.875C95.3792 116.875 94.8755 117.379 94.8755 118ZM96.0005 119.875C94.965 119.875 94.1255 119.036 94.1255 118C94.1255 116.964 94.965 116.125 96.0005 116.125C97.036 116.125 97.8755 116.964 97.8755 118C97.8755 119.036 97.036 119.875 96.0005 119.875Z"
		  fill="white"/>
	<path d="M162.75 130C162.335 130 162 129.664 162 129.25V118.75C162 118.336 162.335 118 162.75 118C163.164 118 163.5 118.336 163.5 118.75V129.25C163.5 129.664 163.164 130 162.75 130Z"
		  fill="#E6EBF2"/>
	<path d="M158.25 130C157.836 130 157.5 129.664 157.5 129.25V118.75C157.5 118.336 157.836 118 158.25 118C158.664 118 159 118.336 159 118.75V129.25C159 129.664 158.664 130 158.25 130Z"
		  fill="#E6EBF2"/>
	<path d="M153.75 130C153.336 130 153 129.664 153 129.25V118.75C153 118.336 153.336 118 153.75 118C154.165 118 154.5 118.336 154.5 118.75V129.25C154.5 129.664 154.165 130 153.75 130Z"
		  fill="#E6EBF2"/>
	<path d="M113.424 62.6875V64H106.752V62.8721L109.992 59.3379C110.348 58.9368 110.628 58.5905 110.833 58.2988C111.038 58.0072 111.182 57.7451 111.264 57.5127C111.35 57.2757 111.394 57.0456 111.394 56.8223C111.394 56.5078 111.334 56.2321 111.216 55.9951C111.102 55.7536 110.933 55.5645 110.71 55.4277C110.487 55.2865 110.215 55.2158 109.896 55.2158C109.527 55.2158 109.217 55.2956 108.967 55.4551C108.716 55.6146 108.527 55.8356 108.399 56.1182C108.272 56.3962 108.208 56.7152 108.208 57.0752H106.561C106.561 56.4964 106.693 55.9678 106.957 55.4893C107.221 55.0062 107.604 54.6234 108.105 54.3408C108.607 54.0537 109.211 53.9102 109.917 53.9102C110.582 53.9102 111.147 54.0218 111.612 54.2451C112.077 54.4684 112.43 54.7852 112.672 55.1953C112.918 55.6055 113.041 56.0908 113.041 56.6514C113.041 56.9613 112.991 57.2689 112.891 57.5742C112.79 57.8796 112.647 58.1849 112.46 58.4902C112.278 58.791 112.061 59.0941 111.811 59.3994C111.56 59.7002 111.284 60.0055 110.983 60.3154L108.83 62.6875H113.424ZM119.063 54.0469V64H117.361V54.0469H119.063ZM122.188 54.0469V55.4141H114.265V54.0469H122.188ZM127.232 59.502H124.696L124.683 58.251H126.897C127.271 58.251 127.588 58.1963 127.848 58.0869C128.112 57.973 128.312 57.8112 128.449 57.6016C128.586 57.3874 128.654 57.1299 128.654 56.8291C128.654 56.4964 128.59 56.2253 128.463 56.0156C128.335 55.806 128.139 55.6533 127.875 55.5576C127.615 55.4619 127.283 55.4141 126.877 55.4141H125.216V64H123.5V54.0469H126.877C127.424 54.0469 127.911 54.0993 128.34 54.2041C128.773 54.3089 129.14 54.473 129.44 54.6963C129.746 54.915 129.976 55.193 130.131 55.5303C130.29 55.8675 130.37 56.2686 130.37 56.7334C130.37 57.1436 130.272 57.5195 130.076 57.8613C129.88 58.1986 129.591 58.4743 129.208 58.6885C128.825 58.9027 128.349 59.0303 127.779 59.0713L127.232 59.502ZM127.157 64H124.156L124.929 62.6396H127.157C127.545 62.6396 127.868 62.5758 128.128 62.4482C128.388 62.3161 128.581 62.1361 128.709 61.9082C128.841 61.6758 128.907 61.4046 128.907 61.0947C128.907 60.7712 128.85 60.4909 128.736 60.2539C128.622 60.0124 128.442 59.8278 128.196 59.7002C127.95 59.568 127.629 59.502 127.232 59.502H125.305L125.318 58.251H127.827L128.217 58.7227C128.764 58.7409 129.213 58.8617 129.563 59.085C129.919 59.3083 130.183 59.5977 130.356 59.9531C130.53 60.3086 130.616 60.6914 130.616 61.1016C130.616 61.735 130.477 62.266 130.199 62.6943C129.926 63.1227 129.532 63.4486 129.017 63.6719C128.502 63.8906 127.882 64 127.157 64ZM136.338 62.6123L135.34 61.6211L140.665 56.1865L141.663 57.1846L136.338 62.6123ZM140.679 62.6123L135.354 57.1846L136.352 56.1865L141.677 61.6211L140.679 62.6123ZM148.444 58.2783H149.429C149.812 58.2783 150.128 58.2122 150.379 58.0801C150.634 57.9479 150.823 57.7656 150.946 57.5332C151.069 57.3008 151.131 57.0342 151.131 56.7334C151.131 56.4189 151.074 56.1501 150.96 55.9268C150.851 55.6989 150.682 55.5234 150.454 55.4004C150.231 55.2773 149.946 55.2158 149.6 55.2158C149.308 55.2158 149.044 55.2751 148.807 55.3936C148.574 55.5075 148.39 55.6715 148.253 55.8857C148.116 56.0954 148.048 56.346 148.048 56.6377H146.394C146.394 56.109 146.533 55.6396 146.811 55.2295C147.089 54.8193 147.467 54.498 147.945 54.2656C148.428 54.0286 148.971 53.9102 149.572 53.9102C150.215 53.9102 150.775 54.0173 151.254 54.2314C151.737 54.4411 152.113 54.7555 152.382 55.1748C152.651 55.5941 152.785 56.1136 152.785 56.7334C152.785 57.016 152.719 57.3031 152.587 57.5947C152.455 57.8864 152.259 58.153 151.999 58.3945C151.739 58.6315 151.416 58.8252 151.028 58.9756C150.641 59.1214 150.192 59.1943 149.682 59.1943H148.444V58.2783ZM148.444 59.5635V58.6611H149.682C150.265 58.6611 150.762 58.7295 151.172 58.8662C151.587 59.0029 151.924 59.1921 152.184 59.4336C152.443 59.6706 152.632 59.9417 152.751 60.2471C152.874 60.5524 152.936 60.876 152.936 61.2178C152.936 61.6826 152.851 62.0973 152.683 62.4619C152.519 62.8219 152.284 63.1273 151.979 63.3779C151.673 63.6286 151.315 63.8177 150.905 63.9453C150.5 64.0729 150.058 64.1367 149.579 64.1367C149.151 64.1367 148.741 64.0775 148.349 63.959C147.957 63.8405 147.606 63.665 147.296 63.4326C146.986 63.1956 146.74 62.9017 146.558 62.5508C146.38 62.1953 146.291 61.7852 146.291 61.3203H147.938C147.938 61.6165 148.007 61.8786 148.144 62.1064C148.285 62.3298 148.481 62.5052 148.731 62.6328C148.987 62.7604 149.278 62.8242 149.606 62.8242C149.953 62.8242 150.251 62.7627 150.502 62.6396C150.753 62.5166 150.944 62.3343 151.076 62.0928C151.213 61.8512 151.281 61.5596 151.281 61.2178C151.281 60.8304 151.206 60.516 151.056 60.2744C150.905 60.0329 150.691 59.8551 150.413 59.7412C150.135 59.6227 149.807 59.5635 149.429 59.5635H148.444Z"
		  fill="#4A4A4A"/>
	<defs>
		<filter id="filter0_f_391_2125" x="240" y="133" width="288" height="101" filterUnits="userSpaceOnUse"
				color-interpolation-filters="sRGB">
			<feFlood flood-opacity="0" result="BackgroundImageFix"/>
			<feBlend mode="normal" in="SourceGraphic" in2="BackgroundImageFix" result="shape"/>
			<feGaussianBlur stdDeviation="16" result="effect1_foregroundBlur_391_2125"/>
		</filter>
		<filter id="filter1_f_391_2125" x="255" y="128" width="252" height="96" filterUnits="userSpaceOnUse"
				color-interpolation-filters="sRGB">
			<feFlood flood-opacity="0" result="BackgroundImageFix"/>
			<feBlend mode="normal" in="SourceGraphic" in2="BackgroundImageFix" result="shape"/>
			<feGaussianBlur stdDeviation="12" result="effect1_foregroundBlur_391_2125"/>
		</filter>
		<filter id="filter2_f_391_2125" x="289.093" y="146" width="183.593" height="64" filterUnits="userSpaceOnUse"
				color-interpolation-filters="sRGB">
			<feFlood flood-opacity="0" result="BackgroundImageFix"/>
			<feBlend mode="normal" in="SourceGraphic" in2="BackgroundImageFix" result="shape"/>
			<feGaussianBlur stdDeviation="4" result="effect1_foregroundBlur_391_2125"/>
		</filter>
		<filter id="filter3_iiii_391_2125" x="295" y="78.1885" width="172.278" height="122.812"
				filterUnits="userSpaceOnUse" color-interpolation-filters="sRGB">
			<feFlood flood-opacity="0" result="BackgroundImageFix"/>
			<feBlend mode="normal" in="SourceGraphic" in2="BackgroundImageFix" result="shape"/>
			<feColorMatrix in="SourceAlpha" type="matrix" values="0 0 0 0 0 0 0 0 0 0 0 0 0 0 0 0 0 0 127 0"
						   result="hardAlpha"/>
			<feOffset dy="2"/>
			<feGaussianBlur stdDeviation="2"/>
			<feComposite in2="hardAlpha" operator="arithmetic" k2="-1" k3="1"/>
			<feColorMatrix type="matrix" values="0 0 0 0 1 0 0 0 0 1 0 0 0 0 1 0 0 0 0.15 0"/>
			<feBlend mode="normal" in2="shape" result="effect1_innerShadow_391_2125"/>
			<feColorMatrix in="SourceAlpha" type="matrix" values="0 0 0 0 0 0 0 0 0 0 0 0 0 0 0 0 0 0 127 0"
						   result="hardAlpha"/>
			<feOffset dy="1"/>
			<feGaussianBlur stdDeviation="1"/>
			<feComposite in2="hardAlpha" operator="arithmetic" k2="-1" k3="1"/>
			<feColorMatrix type="matrix" values="0 0 0 0 1 0 0 0 0 1 0 0 0 0 1 0 0 0 0.2 0"/>
			<feBlend mode="normal" in2="effect1_innerShadow_391_2125" result="effect2_innerShadow_391_2125"/>
			<feColorMatrix in="SourceAlpha" type="matrix" values="0 0 0 0 0 0 0 0 0 0 0 0 0 0 0 0 0 0 127 0"
						   result="hardAlpha"/>
			<feOffset dy="-2"/>
			<feGaussianBlur stdDeviation="2"/>
			<feComposite in2="hardAlpha" operator="arithmetic" k2="-1" k3="1"/>
			<feColorMatrix type="matrix" values="0 0 0 0 0.358333 0 0 0 0 0.375694 0 0 0 0 0.4 0 0 0 0.3 0"/>
			<feBlend mode="normal" in2="effect2_innerShadow_391_2125" result="effect3_innerShadow_391_2125"/>
			<feColorMatrix in="SourceAlpha" type="matrix" values="0 0 0 0 0 0 0 0 0 0 0 0 0 0 0 0 0 0 127 0"
						   result="hardAlpha"/>
			<feOffset dy="-1"/>
			<feGaussianBlur stdDeviation="0.5"/>
			<feComposite in2="hardAlpha" operator="arithmetic" k2="-1" k3="1"/>
			<feColorMatrix type="matrix" values="0 0 0 0 1 0 0 0 0 1 0 0 0 0 1 0 0 0 0.05 0"/>
			<feBlend mode="normal" in2="effect3_innerShadow_391_2125" result="effect4_innerShadow_391_2125"/>
		</filter>
		<filter id="filter4_ii_391_2125" x="295" y="48" width="168.819" height="50" filterUnits="userSpaceOnUse"
				color-interpolation-filters="sRGB">
			<feFlood flood-opacity="0" result="BackgroundImageFix"/>
			<feBlend mode="normal" in="SourceGraphic" in2="BackgroundImageFix" result="shape"/>
			<feColorMatrix in="SourceAlpha" type="matrix" values="0 0 0 0 0 0 0 0 0 0 0 0 0 0 0 0 0 0 127 0"
						   result="hardAlpha"/>
			<feOffset dy="1"/>
			<feGaussianBlur stdDeviation="2"/>
			<feComposite in2="hardAlpha" operator="arithmetic" k2="-1" k3="1"/>
			<feColorMatrix type="matrix" values="0 0 0 0 1 0 0 0 0 1 0 0 0 0 1 0 0 0 0.3 0"/>
			<feBlend mode="normal" in2="shape" result="effect1_innerShadow_391_2125"/>
			<feColorMatrix in="SourceAlpha" type="matrix" values="0 0 0 0 0 0 0 0 0 0 0 0 0 0 0 0 0 0 127 0"
						   result="hardAlpha"/>
			<feOffset dy="-1"/>
			<feGaussianBlur stdDeviation="1"/>
			<feComposite in2="hardAlpha" operator="arithmetic" k2="-1" k3="1"/>
			<feColorMatrix type="matrix" values="0 0 0 0 1 0 0 0 0 1 0 0 0 0 1 0 0 0 0.06 0"/>
			<feBlend mode="normal" in2="effect1_innerShadow_391_2125" result="effect2_innerShadow_391_2125"/>
		</filter>
		<filter id="filter5_i_391_2125" x="318.763" y="89.0996" width="139.604" height="101.99"
				filterUnits="userSpaceOnUse" color-interpolation-filters="sRGB">
			<feFlood flood-opacity="0" result="BackgroundImageFix"/>
			<feBlend mode="normal" in="SourceGraphic" in2="BackgroundImageFix" result="shape"/>
			<feColorMatrix in="SourceAlpha" type="matrix" values="0 0 0 0 0 0 0 0 0 0 0 0 0 0 0 0 0 0 127 0"
						   result="hardAlpha"/>
			<feOffset dy="1"/>
			<feGaussianBlur stdDeviation="1"/>
			<feComposite in2="hardAlpha" operator="arithmetic" k2="-1" k3="1"/>
			<feColorMatrix type="matrix" values="0 0 0 0 0.537255 0 0 0 0 0.564706 0 0 0 0 0.6 0 0 0 0.3 0"/>
			<feBlend mode="normal" in2="shape" result="effect1_innerShadow_391_2125"/>
		</filter>
		<filter id="filter6_f_391_2125" x="299.911" y="94.0098" width="12.4556" height="12.4551"
				filterUnits="userSpaceOnUse" color-interpolation-filters="sRGB">
			<feFlood flood-opacity="0" result="BackgroundImageFix"/>
			<feBlend mode="normal" in="SourceGraphic" in2="BackgroundImageFix" result="shape"/>
			<feGaussianBlur stdDeviation="2" result="effect1_foregroundBlur_391_2125"/>
		</filter>
		<filter id="filter7_f_391_2125" x="299.911" y="102.921" width="12.4556" height="12.4551"
				filterUnits="userSpaceOnUse" color-interpolation-filters="sRGB">
			<feFlood flood-opacity="0" result="BackgroundImageFix"/>
			<feBlend mode="normal" in="SourceGraphic" in2="BackgroundImageFix" result="shape"/>
			<feGaussianBlur stdDeviation="2" result="effect1_foregroundBlur_391_2125"/>
		</filter>
		<filter id="filter8_f_391_2125" x="299.911" y="111.832" width="12.4556" height="12.4551"
				filterUnits="userSpaceOnUse" color-interpolation-filters="sRGB">
			<feFlood flood-opacity="0" result="BackgroundImageFix"/>
			<feBlend mode="normal" in="SourceGraphic" in2="BackgroundImageFix" result="shape"/>
			<feGaussianBlur stdDeviation="2" result="effect1_foregroundBlur_391_2125"/>
		</filter>
		<filter id="filter9_f_391_2125" x="299.911" y="120.743" width="12.4556" height="12.4551"
				filterUnits="userSpaceOnUse" color-interpolation-filters="sRGB">
			<feFlood flood-opacity="0" result="BackgroundImageFix"/>
			<feBlend mode="normal" in="SourceGraphic" in2="BackgroundImageFix" result="shape"/>
			<feGaussianBlur stdDeviation="2" result="effect1_foregroundBlur_391_2125"/>
		</filter>
		<filter id="filter10_f_391_2125" x="329.129" y="102.437" width="8.97021" height="8.9707"
				filterUnits="userSpaceOnUse" color-interpolation-filters="sRGB">
			<feFlood flood-opacity="0" result="BackgroundImageFix"/>
			<feBlend mode="normal" in="SourceGraphic" in2="BackgroundImageFix" result="shape"/>
			<feGaussianBlur stdDeviation="1.5" result="effect1_foregroundBlur_391_2125"/>
		</filter>
		<filter id="filter11_f_391_2125" x="335.07" y="102.437" width="8.97021" height="8.9707"
				filterUnits="userSpaceOnUse" color-interpolation-filters="sRGB">
			<feFlood flood-opacity="0" result="BackgroundImageFix"/>
			<feBlend mode="normal" in="SourceGraphic" in2="BackgroundImageFix" result="shape"/>
			<feGaussianBlur stdDeviation="1.5" result="effect1_foregroundBlur_391_2125"/>
		</filter>
		<filter id="filter12_f_391_2125" x="341.01" y="102.437" width="8.97021" height="8.9707"
				filterUnits="userSpaceOnUse" color-interpolation-filters="sRGB">
			<feFlood flood-opacity="0" result="BackgroundImageFix"/>
			<feBlend mode="normal" in="SourceGraphic" in2="BackgroundImageFix" result="shape"/>
			<feGaussianBlur stdDeviation="1.5" result="effect1_foregroundBlur_391_2125"/>
		</filter>
		<filter id="filter13_f_391_2125" x="361.802" y="102.436" width="8.97021" height="8.9707"
				filterUnits="userSpaceOnUse" color-interpolation-filters="sRGB">
			<feFlood flood-opacity="0" result="BackgroundImageFix"/>
			<feBlend mode="normal" in="SourceGraphic" in2="BackgroundImageFix" result="shape"/>
			<feGaussianBlur stdDeviation="1.5" result="effect1_foregroundBlur_391_2125"/>
		</filter>
		<filter id="filter14_f_391_2125" x="367.743" y="102.436" width="8.97021" height="8.9707"
				filterUnits="userSpaceOnUse" color-interpolation-filters="sRGB">
			<feFlood flood-opacity="0" result="BackgroundImageFix"/>
			<feBlend mode="normal" in="SourceGraphic" in2="BackgroundImageFix" result="shape"/>
			<feGaussianBlur stdDeviation="1.5" result="effect1_foregroundBlur_391_2125"/>
		</filter>
		<filter id="filter15_f_391_2125" x="373.683" y="102.436" width="8.97021" height="8.9707"
				filterUnits="userSpaceOnUse" color-interpolation-filters="sRGB">
			<feFlood flood-opacity="0" result="BackgroundImageFix"/>
			<feBlend mode="normal" in="SourceGraphic" in2="BackgroundImageFix" result="shape"/>
			<feGaussianBlur stdDeviation="1.5" result="effect1_foregroundBlur_391_2125"/>
		</filter>
		<filter id="filter16_f_391_2125" x="394.476" y="102.436" width="8.97021" height="8.9707"
				filterUnits="userSpaceOnUse" color-interpolation-filters="sRGB">
			<feFlood flood-opacity="0" result="BackgroundImageFix"/>
			<feBlend mode="normal" in="SourceGraphic" in2="BackgroundImageFix" result="shape"/>
			<feGaussianBlur stdDeviation="1.5" result="effect1_foregroundBlur_391_2125"/>
		</filter>
		<filter id="filter17_f_391_2125" x="400.417" y="102.436" width="8.97021" height="8.9707"
				filterUnits="userSpaceOnUse" color-interpolation-filters="sRGB">
			<feFlood flood-opacity="0" result="BackgroundImageFix"/>
			<feBlend mode="normal" in="SourceGraphic" in2="BackgroundImageFix" result="shape"/>
			<feGaussianBlur stdDeviation="1.5" result="effect1_foregroundBlur_391_2125"/>
		</filter>
		<filter id="filter18_f_391_2125" x="406.357" y="102.436" width="8.97021" height="8.9707"
				filterUnits="userSpaceOnUse" color-interpolation-filters="sRGB">
			<feFlood flood-opacity="0" result="BackgroundImageFix"/>
			<feBlend mode="normal" in="SourceGraphic" in2="BackgroundImageFix" result="shape"/>
			<feGaussianBlur stdDeviation="1.5" result="effect1_foregroundBlur_391_2125"/>
		</filter>
		<filter id="filter19_f_391_2125" x="427.149" y="102.436" width="8.97021" height="8.9707"
				filterUnits="userSpaceOnUse" color-interpolation-filters="sRGB">
			<feFlood flood-opacity="0" result="BackgroundImageFix"/>
			<feBlend mode="normal" in="SourceGraphic" in2="BackgroundImageFix" result="shape"/>
			<feGaussianBlur stdDeviation="1.5" result="effect1_foregroundBlur_391_2125"/>
		</filter>
		<filter id="filter20_f_391_2125" x="433.09" y="102.436" width="8.97021" height="8.9707"
				filterUnits="userSpaceOnUse" color-interpolation-filters="sRGB">
			<feFlood flood-opacity="0" result="BackgroundImageFix"/>
			<feBlend mode="normal" in="SourceGraphic" in2="BackgroundImageFix" result="shape"/>
			<feGaussianBlur stdDeviation="1.5" result="effect1_foregroundBlur_391_2125"/>
		</filter>
		<filter id="filter21_f_391_2125" x="439.031" y="102.436" width="8.97021" height="8.9707"
				filterUnits="userSpaceOnUse" color-interpolation-filters="sRGB">
			<feFlood flood-opacity="0" result="BackgroundImageFix"/>
			<feBlend mode="normal" in="SourceGraphic" in2="BackgroundImageFix" result="shape"/>
			<feGaussianBlur stdDeviation="1.5" result="effect1_foregroundBlur_391_2125"/>
		</filter>
		<filter id="filter22_f_391_2125" x="38" y="146" width="182" height="88" filterUnits="userSpaceOnUse"
				color-interpolation-filters="sRGB">
			<feFlood flood-opacity="0" result="BackgroundImageFix"/>
			<feBlend mode="normal" in="SourceGraphic" in2="BackgroundImageFix" result="shape"/>
			<feGaussianBlur stdDeviation="16" result="effect1_foregroundBlur_391_2125"/>
		</filter>
		<filter id="filter23_f_391_2125" x="43" y="142" width="174" height="82" filterUnits="userSpaceOnUse"
				color-interpolation-filters="sRGB">
			<feFlood flood-opacity="0" result="BackgroundImageFix"/>
			<feBlend mode="normal" in="SourceGraphic" in2="BackgroundImageFix" result="shape"/>
			<feGaussianBlur stdDeviation="12" result="effect1_foregroundBlur_391_2125"/>
		</filter>
		<filter id="filter24_f_391_2125" x="81" y="173" width="96" height="32" filterUnits="userSpaceOnUse"
				color-interpolation-filters="sRGB">
			<feFlood flood-opacity="0" result="BackgroundImageFix"/>
			<feBlend mode="normal" in="SourceGraphic" in2="BackgroundImageFix" result="shape"/>
			<feGaussianBlur stdDeviation="2" result="effect1_foregroundBlur_391_2125"/>
		</filter>
		<filter id="filter25_f_391_2125" x="91.5" y="185.5" width="9" height="9" filterUnits="userSpaceOnUse"
				color-interpolation-filters="sRGB">
			<feFlood flood-opacity="0" result="BackgroundImageFix"/>
			<feBlend mode="normal" in="SourceGraphic" in2="BackgroundImageFix" result="shape"/>
			<feGaussianBlur stdDeviation="1.5" result="effect1_foregroundBlur_391_2125"/>
		</filter>
		<filter id="filter26_f_391_2125" x="91.5" y="179.5" width="9" height="9" filterUnits="userSpaceOnUse"
				color-interpolation-filters="sRGB">
			<feFlood flood-opacity="0" result="BackgroundImageFix"/>
			<feBlend mode="normal" in="SourceGraphic" in2="BackgroundImageFix" result="shape"/>
			<feGaussianBlur stdDeviation="1.5" result="effect1_foregroundBlur_391_2125"/>
		</filter>
		<filter id="filter27_f_391_2125" x="91.5" y="173.5" width="9" height="9" filterUnits="userSpaceOnUse"
				color-interpolation-filters="sRGB">
			<feFlood flood-opacity="0" result="BackgroundImageFix"/>
			<feBlend mode="normal" in="SourceGraphic" in2="BackgroundImageFix" result="shape"/>
			<feGaussianBlur stdDeviation="1.5" result="effect1_foregroundBlur_391_2125"/>
		</filter>
		<filter id="filter28_f_391_2125" x="91.5" y="155.5" width="9" height="9" filterUnits="userSpaceOnUse"
				color-interpolation-filters="sRGB">
			<feFlood flood-opacity="0" result="BackgroundImageFix"/>
			<feBlend mode="normal" in="SourceGraphic" in2="BackgroundImageFix" result="shape"/>
			<feGaussianBlur stdDeviation="1.5" result="effect1_foregroundBlur_391_2125"/>
		</filter>
		<filter id="filter29_f_391_2125" x="91.5" y="149.5" width="9" height="9" filterUnits="userSpaceOnUse"
				color-interpolation-filters="sRGB">
			<feFlood flood-opacity="0" result="BackgroundImageFix"/>
			<feBlend mode="normal" in="SourceGraphic" in2="BackgroundImageFix" result="shape"/>
			<feGaussianBlur stdDeviation="1.5" result="effect1_foregroundBlur_391_2125"/>
		</filter>
		<filter id="filter30_f_391_2125" x="91.5" y="143.5" width="9" height="9" filterUnits="userSpaceOnUse"
				color-interpolation-filters="sRGB">
			<feFlood flood-opacity="0" result="BackgroundImageFix"/>
			<feBlend mode="normal" in="SourceGraphic" in2="BackgroundImageFix" result="shape"/>
			<feGaussianBlur stdDeviation="1.5" result="effect1_foregroundBlur_391_2125"/>
		</filter>
		<filter id="filter31_i_391_2125" x="84.2002" y="87" width="89.6" height="29" filterUnits="userSpaceOnUse"
				color-interpolation-filters="sRGB">
			<feFlood flood-opacity="0" result="BackgroundImageFix"/>
			<feBlend mode="normal" in="SourceGraphic" in2="BackgroundImageFix" result="shape"/>
			<feColorMatrix in="SourceAlpha" type="matrix" values="0 0 0 0 0 0 0 0 0 0 0 0 0 0 0 0 0 0 127 0"
						   result="hardAlpha"/>
			<feOffset dy="1"/>
			<feGaussianBlur stdDeviation="1"/>
			<feComposite in2="hardAlpha" operator="arithmetic" k2="-1" k3="1"/>
			<feColorMatrix type="matrix" values="0 0 0 0 1 0 0 0 0 1 0 0 0 0 1 0 0 0 0.5 0"/>
			<feBlend mode="normal" in2="shape" result="effect1_innerShadow_391_2125"/>
		</filter>
		<filter id="filter32_f_391_2125" x="91.5002" y="125.5" width="9" height="9" filterUnits="userSpaceOnUse"
				color-interpolation-filters="sRGB">
			<feFlood flood-opacity="0" result="BackgroundImageFix"/>
			<feBlend mode="normal" in="SourceGraphic" in2="BackgroundImageFix" result="shape"/>
			<feGaussianBlur stdDeviation="1.5" result="effect1_foregroundBlur_391_2125"/>
		</filter>
		<filter id="filter33_f_391_2125" x="91.5002" y="119.5" width="9" height="9" filterUnits="userSpaceOnUse"
				color-interpolation-filters="sRGB">
			<feFlood flood-opacity="0" result="BackgroundImageFix"/>
			<feBlend mode="normal" in="SourceGraphic" in2="BackgroundImageFix" result="shape"/>
			<feGaussianBlur stdDeviation="1.5" result="effect1_foregroundBlur_391_2125"/>
		</filter>
		<filter id="filter34_f_391_2125" x="91.5002" y="113.5" width="9" height="9" filterUnits="userSpaceOnUse"
				color-interpolation-filters="sRGB">
			<feFlood flood-opacity="0" result="BackgroundImageFix"/>
			<feBlend mode="normal" in="SourceGraphic" in2="BackgroundImageFix" result="shape"/>
			<feGaussianBlur stdDeviation="1.5" result="effect1_foregroundBlur_391_2125"/>
		</filter>
		<linearGradient id="paint0_linear_391_2125" x1="359.5" y1="77.5" x2="391" y2="199"
						gradientUnits="userSpaceOnUse">
			<stop stop-color="#ACB4BF"/>
			<stop offset="1" stop-color="#899099"/>
		</linearGradient>
		<linearGradient id="paint1_linear_391_2125" x1="458.5" y1="68" x2="311" y2="56.5"
						gradientUnits="userSpaceOnUse">
			<stop stop-color="#A1A8B3"/>
			<stop offset="0.140826" stop-color="#96A0AD"/>
			<stop offset="0.423145" stop-color="#939BA6"/>
			<stop offset="0.651042" stop-color="#98A1AD"/>
			<stop offset="1" stop-color="#A7AEB8"/>
		</linearGradient>
		<linearGradient id="paint2_linear_391_2125" x1="130" y1="166" x2="130" y2="200" gradientUnits="userSpaceOnUse">
			<stop stop-color="#6C7480" stop-opacity="0"/>
			<stop offset="1" stop-color="#6C7480"/>
		</linearGradient>
		<linearGradient id="paint3_linear_391_2125" x1="168.767" y1="98.9583" x2="89.2326" y2="98.9583"
						gradientUnits="userSpaceOnUse">
			<stop stop-color="#A1A8B3"/>
			<stop offset="0.51024" stop-color="#8B939E"/>
			<stop offset="1" stop-color="#A1A8B3"/>
		</linearGradient>
		<linearGradient id="paint4_linear_391_2125" x1="84" y1="124" x2="174" y2="124" gradientUnits="userSpaceOnUse">
			<stop stop-color="#899099"/>
			<stop offset="1" stop-color="#899099"/>
		</linearGradient>
	</defs>
</svg>
