<!--
  - * @LastEditors: zhanghengxin ezreal.zhang@icewhale.org
  - * @LastEditTime: 2023/5/17 下午3:13
  - * @FilePath: /CasaOS-UI/main/src/assets/img/learn/guidance-Windows-AppStore.svg
  - * @Description:
  - *
  - * Copyright (c) 2023 by IceWhale, All Rights Reserved.
  -
  -->

<svg width="156" height="48" viewBox="0 0 156 48" fill="none" xmlns="http://www.w3.org/2000/svg">
	<rect width="156" height="48" rx="6" fill="#181F25"/>
	<path
		d="M24.8333 25.0556H15.3333V33.2362L24.8333 34.5429V25.0556ZM24.8333 13.4445L15.3333 14.7639V22.9445H24.8333V13.4445ZM26.9444 13.1806V22.9445H40.6666V11.3334L26.9444 13.1806ZM26.9444 25.0556V34.8195L40.6666 36.6667V25.0556H26.9444Z"
		fill="#0F8FFF"/>
	<path
		d="M60.3682 35.5479L62.917 25.2031H64.2969L64.3848 27.3828L61.6602 38H60.2012L60.3682 35.5479ZM58.7598 25.2031L60.8516 35.5127V38H59.2607L56.3604 25.2031H58.7598ZM67.0303 35.4688L69.0869 25.2031H71.4951L68.5947 38H67.0039L67.0303 35.4688ZM64.9561 25.2031L67.5049 35.583L67.6543 38H66.1953L63.4795 27.374L63.585 25.2031H64.9561ZM75.3096 28.4902V38H72.9805V28.4902H75.3096ZM72.8223 26.0029C72.8223 25.6572 72.9395 25.3701 73.1738 25.1416C73.4141 24.9131 73.7363 24.7988 74.1406 24.7988C74.5449 24.7988 74.8643 24.9131 75.0986 25.1416C75.3389 25.3701 75.459 25.6572 75.459 26.0029C75.459 26.3428 75.3389 26.627 75.0986 26.8555C74.8643 27.084 74.5449 27.1982 74.1406 27.1982C73.7363 27.1982 73.4141 27.084 73.1738 26.8555C72.9395 26.627 72.8223 26.3428 72.8223 26.0029ZM79.8008 30.5205V38H77.4805V28.4902H79.6602L79.8008 30.5205ZM79.4316 32.9023H78.7461C78.752 32.2109 78.8457 31.584 79.0273 31.0215C79.209 30.459 79.4639 29.9756 79.792 29.5713C80.126 29.167 80.5215 28.8564 80.9785 28.6396C81.4355 28.4229 81.9453 28.3145 82.5078 28.3145C82.9648 28.3145 83.3779 28.3789 83.7471 28.5078C84.1162 28.6367 84.4326 28.8418 84.6963 29.123C84.9658 29.4043 85.1709 29.7734 85.3115 30.2305C85.458 30.6816 85.5312 31.2383 85.5312 31.9004V38H83.1934V31.8828C83.1934 31.4492 83.1289 31.1064 83 30.8545C82.877 30.6025 82.6953 30.4238 82.4551 30.3184C82.2207 30.2129 81.9307 30.1602 81.585 30.1602C81.2275 30.1602 80.9141 30.2334 80.6445 30.3799C80.3809 30.5205 80.1582 30.7168 79.9766 30.9688C79.8008 31.2207 79.666 31.5107 79.5723 31.8389C79.4785 32.167 79.4316 32.5215 79.4316 32.9023ZM93.2832 35.9785V24.5H95.6211V38H93.5117L93.2832 35.9785ZM87.1748 33.3594V33.1748C87.1748 32.4482 87.2568 31.7891 87.4209 31.1973C87.5908 30.5996 87.8369 30.0869 88.1592 29.6592C88.4814 29.2314 88.8711 28.9004 89.3281 28.666C89.791 28.4316 90.3154 28.3145 90.9014 28.3145C91.4697 28.3145 91.9648 28.4287 92.3867 28.6572C92.8145 28.8857 93.1777 29.2109 93.4766 29.6328C93.7812 30.0547 94.0244 30.5557 94.2061 31.1357C94.3877 31.71 94.5195 32.3428 94.6016 33.0342V33.5352C94.5195 34.209 94.3877 34.8271 94.2061 35.3896C94.0244 35.9521 93.7812 36.4443 93.4766 36.8662C93.1777 37.2822 92.8145 37.6045 92.3867 37.833C91.959 38.0615 91.458 38.1758 90.8838 38.1758C90.3037 38.1758 89.7822 38.0557 89.3193 37.8154C88.8623 37.5752 88.4727 37.2383 88.1504 36.8047C87.834 36.3711 87.5908 35.8613 87.4209 35.2754C87.2568 34.6895 87.1748 34.0508 87.1748 33.3594ZM89.5039 33.1748V33.3594C89.5039 33.7695 89.5391 34.1533 89.6094 34.5107C89.6797 34.8682 89.7939 35.1846 89.9521 35.46C90.1104 35.7295 90.3125 35.9404 90.5586 36.0928C90.8105 36.2451 91.1152 36.3213 91.4727 36.3213C91.9297 36.3213 92.3047 36.2217 92.5977 36.0225C92.8965 35.8174 93.1279 35.5391 93.292 35.1875C93.4561 34.8301 93.5615 34.4287 93.6084 33.9834V32.6035C93.585 32.252 93.5234 31.9268 93.4238 31.6279C93.3301 31.3291 93.1953 31.0713 93.0195 30.8545C92.8496 30.6377 92.6387 30.4678 92.3867 30.3447C92.1348 30.2217 91.8359 30.1602 91.4902 30.1602C91.1328 30.1602 90.8281 30.2393 90.5762 30.3975C90.3242 30.5498 90.1191 30.7637 89.9609 31.0391C89.8027 31.3145 89.6855 31.6338 89.6094 31.9971C89.5391 32.3604 89.5039 32.7529 89.5039 33.1748ZM97.3086 33.3418V33.1572C97.3086 32.46 97.4082 31.8184 97.6074 31.2324C97.8066 30.6406 98.0967 30.1279 98.4775 29.6943C98.8584 29.2607 99.3242 28.9238 99.875 28.6836C100.426 28.4375 101.053 28.3145 101.756 28.3145C102.471 28.3145 103.104 28.4375 103.654 28.6836C104.211 28.9238 104.68 29.2607 105.061 29.6943C105.441 30.1279 105.731 30.6406 105.931 31.2324C106.13 31.8184 106.229 32.46 106.229 33.1572V33.3418C106.229 34.0332 106.13 34.6748 105.931 35.2666C105.731 35.8525 105.441 36.3652 105.061 36.8047C104.68 37.2383 104.214 37.5752 103.663 37.8154C103.112 38.0557 102.482 38.1758 101.773 38.1758C101.07 38.1758 100.44 38.0557 99.8838 37.8154C99.3271 37.5752 98.8584 37.2383 98.4775 36.8047C98.0967 36.3652 97.8066 35.8525 97.6074 35.2666C97.4082 34.6748 97.3086 34.0332 97.3086 33.3418ZM99.6289 33.1572V33.3418C99.6289 33.7578 99.6699 34.1475 99.752 34.5107C99.834 34.874 99.96 35.1934 100.13 35.4688C100.3 35.7441 100.52 35.9609 100.789 36.1191C101.064 36.2715 101.393 36.3477 101.773 36.3477C102.148 36.3477 102.471 36.2715 102.74 36.1191C103.01 35.9609 103.229 35.7441 103.399 35.4688C103.575 35.1934 103.704 34.874 103.786 34.5107C103.868 34.1475 103.909 33.7578 103.909 33.3418V33.1572C103.909 32.7471 103.868 32.3633 103.786 32.0059C103.704 31.6426 103.575 31.3232 103.399 31.0479C103.229 30.7666 103.007 30.5469 102.731 30.3887C102.462 30.2246 102.137 30.1426 101.756 30.1426C101.381 30.1426 101.059 30.2246 100.789 30.3887C100.52 30.5469 100.3 30.7666 100.13 31.0479C99.96 31.3232 99.834 31.6426 99.752 32.0059C99.6699 32.3633 99.6289 32.7471 99.6289 33.1572ZM110.562 35.7148L112.646 28.4902H114.122L113.683 30.9863L111.582 38H110.308L110.562 35.7148ZM109.411 28.4902L110.976 35.7324L111.116 38H109.648L107.152 28.4902H109.411ZM116.056 35.627L117.585 28.4902H119.835L117.356 38H115.889L116.056 35.627ZM114.351 28.4902L116.416 35.6445L116.688 38H115.414L113.296 30.9863L112.865 28.4902H114.351ZM126.436 35.3984C126.436 35.1992 126.383 35.0205 126.277 34.8623C126.172 34.7041 125.973 34.5605 125.68 34.4316C125.393 34.2969 124.971 34.1709 124.414 34.0537C123.922 33.9482 123.468 33.8164 123.052 33.6582C122.636 33.5 122.278 33.3096 121.979 33.0869C121.681 32.8584 121.446 32.5918 121.276 32.2871C121.112 31.9766 121.03 31.6191 121.03 31.2148C121.03 30.8223 121.115 30.4531 121.285 30.1074C121.455 29.7559 121.701 29.4482 122.023 29.1846C122.346 28.915 122.738 28.7041 123.201 28.5518C123.664 28.3936 124.186 28.3145 124.766 28.3145C125.574 28.3145 126.269 28.4463 126.849 28.71C127.435 28.9736 127.883 29.3369 128.193 29.7998C128.504 30.2568 128.659 30.7725 128.659 31.3467H126.339C126.339 31.0947 126.28 30.8662 126.163 30.6611C126.052 30.4561 125.879 30.292 125.645 30.1689C125.41 30.04 125.114 29.9756 124.757 29.9756C124.435 29.9756 124.162 30.0283 123.939 30.1338C123.723 30.2393 123.559 30.377 123.447 30.5469C123.336 30.7168 123.28 30.9043 123.28 31.1094C123.28 31.2617 123.31 31.3994 123.368 31.5225C123.433 31.6396 123.535 31.748 123.676 31.8477C123.816 31.9473 124.007 32.0381 124.247 32.1201C124.493 32.2021 124.795 32.2812 125.152 32.3574C125.861 32.498 126.479 32.6855 127.007 32.9199C127.54 33.1484 127.956 33.4531 128.255 33.834C128.554 34.2148 128.703 34.7012 128.703 35.293C128.703 35.7148 128.612 36.1016 128.431 36.4531C128.249 36.7988 127.985 37.1006 127.64 37.3584C127.294 37.6162 126.881 37.8184 126.4 37.9648C125.92 38.1055 125.378 38.1758 124.774 38.1758C123.901 38.1758 123.163 38.0205 122.56 37.71C121.956 37.3936 121.499 36.9951 121.188 36.5146C120.878 36.0283 120.723 35.5244 120.723 35.0029H122.946C122.964 35.3721 123.063 35.668 123.245 35.8906C123.427 36.1133 123.655 36.2744 123.931 36.374C124.212 36.4678 124.508 36.5146 124.818 36.5146C125.17 36.5146 125.466 36.4678 125.706 36.374C125.946 36.2744 126.128 36.1426 126.251 35.9785C126.374 35.8086 126.436 35.6152 126.436 35.3984Z"
		fill="white"/>
	<path
		d="M59.2988 18H57.5176L57.5293 17.0801H59.2988C59.9082 17.0801 60.416 16.9531 60.8223 16.6992C61.2285 16.4414 61.5332 16.082 61.7363 15.6211C61.9434 15.1562 62.0469 14.6133 62.0469 13.9922V13.4707C62.0469 12.9824 61.9883 12.5488 61.8711 12.1699C61.7539 11.7871 61.582 11.4648 61.3555 11.2031C61.1289 10.9375 60.8516 10.7363 60.5234 10.5996C60.1992 10.4629 59.8262 10.3945 59.4043 10.3945H57.4824V9.46875H59.4043C59.9629 9.46875 60.4727 9.5625 60.9336 9.75C61.3945 9.93359 61.791 10.2012 62.123 10.5527C62.459 10.9004 62.7168 11.3223 62.8965 11.8184C63.0762 12.3105 63.166 12.8652 63.166 13.4824V13.9922C63.166 14.6094 63.0762 15.166 62.8965 15.6621C62.7168 16.1543 62.457 16.5742 62.1172 16.9219C61.7812 17.2695 61.375 17.5371 60.8984 17.7246C60.4258 17.9082 59.8926 18 59.2988 18ZM58.1211 9.46875V18H56.9902V9.46875H58.1211ZM64.4141 14.9004V14.7656C64.4141 14.3086 64.4805 13.8848 64.6133 13.4941C64.7461 13.0996 64.9375 12.7578 65.1875 12.4688C65.4375 12.1758 65.7402 11.9492 66.0957 11.7891C66.4512 11.625 66.8496 11.543 67.291 11.543C67.7363 11.543 68.1367 11.625 68.4922 11.7891C68.8516 11.9492 69.1562 12.1758 69.4062 12.4688C69.6602 12.7578 69.8535 13.0996 69.9863 13.4941C70.1191 13.8848 70.1855 14.3086 70.1855 14.7656V14.9004C70.1855 15.3574 70.1191 15.7812 69.9863 16.1719C69.8535 16.5625 69.6602 16.9043 69.4062 17.1973C69.1562 17.4863 68.8535 17.7129 68.498 17.877C68.1465 18.0371 67.748 18.1172 67.3027 18.1172C66.8574 18.1172 66.457 18.0371 66.1016 17.877C65.7461 17.7129 65.4414 17.4863 65.1875 17.1973C64.9375 16.9043 64.7461 16.5625 64.6133 16.1719C64.4805 15.7812 64.4141 15.3574 64.4141 14.9004ZM65.498 14.7656V14.9004C65.498 15.2168 65.5352 15.5156 65.6094 15.7969C65.6836 16.0742 65.7949 16.3203 65.9434 16.5352C66.0957 16.75 66.2852 16.9199 66.5117 17.0449C66.7383 17.166 67.002 17.2266 67.3027 17.2266C67.5996 17.2266 67.8594 17.166 68.082 17.0449C68.3086 16.9199 68.4961 16.75 68.6445 16.5352C68.793 16.3203 68.9043 16.0742 68.9785 15.7969C69.0566 15.5156 69.0957 15.2168 69.0957 14.9004V14.7656C69.0957 14.4531 69.0566 14.1582 68.9785 13.8809C68.9043 13.5996 68.791 13.3516 68.6387 13.1367C68.4902 12.918 68.3027 12.7461 68.0762 12.6211C67.8535 12.4961 67.5918 12.4336 67.291 12.4336C66.9941 12.4336 66.7324 12.4961 66.5059 12.6211C66.2832 12.7461 66.0957 12.918 65.9434 13.1367C65.7949 13.3516 65.6836 13.5996 65.6094 13.8809C65.5352 14.1582 65.498 14.4531 65.498 14.7656ZM73.1504 16.875L74.7793 11.6602H75.4941L75.3535 12.6973L73.6953 18H72.998L73.1504 16.875ZM72.0547 11.6602L73.4434 16.9336L73.543 18H72.8105L70.9707 11.6602H72.0547ZM77.0527 16.8926L78.377 11.6602H79.4551L77.6152 18H76.8887L77.0527 16.8926ZM75.6523 11.6602L77.2461 16.7871L77.4277 18H76.7363L75.0312 12.6855L74.8906 11.6602H75.6523ZM81.6523 13.0137V18H80.5684V11.6602H81.5938L81.6523 13.0137ZM81.3945 14.5898L80.9434 14.5723C80.9473 14.1387 81.0117 13.7383 81.1367 13.3711C81.2617 13 81.4375 12.6777 81.6641 12.4043C81.8906 12.1309 82.1602 11.9199 82.4727 11.7715C82.7891 11.6191 83.1387 11.543 83.5215 11.543C83.834 11.543 84.1152 11.5859 84.3652 11.6719C84.6152 11.7539 84.8281 11.8867 85.0039 12.0703C85.1836 12.2539 85.3203 12.4922 85.4141 12.7852C85.5078 13.0742 85.5547 13.4277 85.5547 13.8457V18H84.4648V13.834C84.4648 13.502 84.416 13.2363 84.3184 13.0371C84.2207 12.834 84.0781 12.6875 83.8906 12.5977C83.7031 12.5039 83.4727 12.457 83.1992 12.457C82.9297 12.457 82.6836 12.5137 82.4609 12.627C82.2422 12.7402 82.0527 12.8965 81.8926 13.0957C81.7363 13.2949 81.6133 13.5234 81.5234 13.7812C81.4375 14.0352 81.3945 14.3047 81.3945 14.5898ZM88.3789 9V18H87.2891V9H88.3789ZM89.832 14.9004V14.7656C89.832 14.3086 89.8984 13.8848 90.0312 13.4941C90.1641 13.0996 90.3555 12.7578 90.6055 12.4688C90.8555 12.1758 91.1582 11.9492 91.5137 11.7891C91.8691 11.625 92.2676 11.543 92.709 11.543C93.1543 11.543 93.5547 11.625 93.9102 11.7891C94.2695 11.9492 94.5742 12.1758 94.8242 12.4688C95.0781 12.7578 95.2715 13.0996 95.4043 13.4941C95.5371 13.8848 95.6035 14.3086 95.6035 14.7656V14.9004C95.6035 15.3574 95.5371 15.7812 95.4043 16.1719C95.2715 16.5625 95.0781 16.9043 94.8242 17.1973C94.5742 17.4863 94.2715 17.7129 93.916 17.877C93.5645 18.0371 93.166 18.1172 92.7207 18.1172C92.2754 18.1172 91.875 18.0371 91.5195 17.877C91.1641 17.7129 90.8594 17.4863 90.6055 17.1973C90.3555 16.9043 90.1641 16.5625 90.0312 16.1719C89.8984 15.7812 89.832 15.3574 89.832 14.9004ZM90.916 14.7656V14.9004C90.916 15.2168 90.9531 15.5156 91.0273 15.7969C91.1016 16.0742 91.2129 16.3203 91.3613 16.5352C91.5137 16.75 91.7031 16.9199 91.9297 17.0449C92.1562 17.166 92.4199 17.2266 92.7207 17.2266C93.0176 17.2266 93.2773 17.166 93.5 17.0449C93.7266 16.9199 93.9141 16.75 94.0625 16.5352C94.2109 16.3203 94.3223 16.0742 94.3965 15.7969C94.4746 15.5156 94.5137 15.2168 94.5137 14.9004V14.7656C94.5137 14.4531 94.4746 14.1582 94.3965 13.8809C94.3223 13.5996 94.209 13.3516 94.0566 13.1367C93.9082 12.918 93.7207 12.7461 93.4941 12.6211C93.2715 12.4961 93.0098 12.4336 92.709 12.4336C92.4121 12.4336 92.1504 12.4961 91.9238 12.6211C91.7012 12.7461 91.5137 12.918 91.3613 13.1367C91.2129 13.3516 91.1016 13.5996 91.0273 13.8809C90.9531 14.1582 90.916 14.4531 90.916 14.7656ZM100.701 16.916V13.6523C100.701 13.4023 100.65 13.1855 100.549 13.002C100.451 12.8145 100.303 12.6699 100.104 12.5684C99.9043 12.4668 99.6582 12.416 99.3652 12.416C99.0918 12.416 98.8516 12.4629 98.6445 12.5566C98.4414 12.6504 98.2812 12.7734 98.1641 12.9258C98.0508 13.0781 97.9941 13.2422 97.9941 13.418H96.9102C96.9102 13.1914 96.9688 12.9668 97.0859 12.7441C97.2031 12.5215 97.3711 12.3203 97.5898 12.1406C97.8125 11.957 98.0781 11.8125 98.3867 11.707C98.6992 11.5977 99.0469 11.543 99.4297 11.543C99.8906 11.543 100.297 11.6211 100.648 11.7773C101.004 11.9336 101.281 12.1699 101.48 12.4863C101.684 12.7988 101.785 13.1914 101.785 13.6641V16.6172C101.785 16.8281 101.803 17.0527 101.838 17.291C101.877 17.5293 101.934 17.7344 102.008 17.9062V18H100.877C100.822 17.875 100.779 17.709 100.748 17.502C100.717 17.291 100.701 17.0957 100.701 16.916ZM100.889 14.1562L100.9 14.918H99.8047C99.4961 14.918 99.2207 14.9434 98.9785 14.9941C98.7363 15.041 98.5332 15.1133 98.3691 15.2109C98.2051 15.3086 98.0801 15.4316 97.9941 15.5801C97.9082 15.7246 97.8652 15.8945 97.8652 16.0898C97.8652 16.2891 97.9102 16.4707 98 16.6348C98.0898 16.7988 98.2246 16.9297 98.4043 17.0273C98.5879 17.1211 98.8125 17.168 99.0781 17.168C99.4102 17.168 99.7031 17.0977 99.957 16.957C100.211 16.8164 100.412 16.6445 100.561 16.4414C100.713 16.2383 100.795 16.041 100.807 15.8496L101.27 16.3711C101.242 16.5352 101.168 16.7168 101.047 16.916C100.926 17.1152 100.764 17.3066 100.561 17.4902C100.361 17.6699 100.123 17.8203 99.8457 17.9414C99.5723 18.0586 99.2637 18.1172 98.9199 18.1172C98.4902 18.1172 98.1133 18.0332 97.7891 17.8652C97.4688 17.6973 97.2188 17.4727 97.0391 17.1914C96.8633 16.9062 96.7754 16.5879 96.7754 16.2363C96.7754 15.8965 96.8418 15.5977 96.9746 15.3398C97.1074 15.0781 97.2988 14.8613 97.5488 14.6895C97.7988 14.5137 98.0996 14.3809 98.4512 14.291C98.8027 14.2012 99.1953 14.1562 99.6289 14.1562H100.889ZM107.486 16.7695V9H108.576V18H107.58L107.486 16.7695ZM103.221 14.9004V14.7773C103.221 14.293 103.279 13.8535 103.396 13.459C103.518 13.0605 103.688 12.7188 103.906 12.4336C104.129 12.1484 104.393 11.9297 104.697 11.7773C105.006 11.6211 105.35 11.543 105.729 11.543C106.127 11.543 106.475 11.6133 106.771 11.7539C107.072 11.8906 107.326 12.0918 107.533 12.3574C107.744 12.6191 107.91 12.9355 108.031 13.3066C108.152 13.6777 108.236 14.0977 108.283 14.5664V15.1055C108.24 15.5703 108.156 15.9883 108.031 16.3594C107.91 16.7305 107.744 17.0469 107.533 17.3086C107.326 17.5703 107.072 17.7715 106.771 17.9121C106.471 18.0488 106.119 18.1172 105.717 18.1172C105.346 18.1172 105.006 18.0371 104.697 17.877C104.393 17.7168 104.129 17.4922 103.906 17.2031C103.688 16.9141 103.518 16.5742 103.396 16.1836C103.279 15.7891 103.221 15.3613 103.221 14.9004ZM104.311 14.7773V14.9004C104.311 15.2168 104.342 15.5137 104.404 15.791C104.471 16.0684 104.572 16.3125 104.709 16.5234C104.846 16.7344 105.02 16.9004 105.23 17.0215C105.441 17.1387 105.693 17.1973 105.986 17.1973C106.346 17.1973 106.641 17.1211 106.871 16.9688C107.105 16.8164 107.293 16.6152 107.434 16.3652C107.574 16.1152 107.684 15.8438 107.762 15.5508V14.1387C107.715 13.9238 107.646 13.7168 107.557 13.5176C107.471 13.3145 107.357 13.1348 107.217 12.9785C107.08 12.8184 106.91 12.6914 106.707 12.5977C106.508 12.5039 106.271 12.457 105.998 12.457C105.701 12.457 105.445 12.5195 105.23 12.6445C105.02 12.7656 104.846 12.9336 104.709 13.1484C104.572 13.3594 104.471 13.6055 104.404 13.8867C104.342 14.1641 104.311 14.4609 104.311 14.7773ZM116.562 10.2246L113.738 18H112.584L115.836 9.46875H116.58L116.562 10.2246ZM118.93 18L116.1 10.2246L116.082 9.46875H116.826L120.09 18H118.93ZM118.783 14.8418V15.7676H113.99V14.8418H118.783ZM124.379 14.6543H122.1V13.7344H124.379C124.82 13.7344 125.178 13.6641 125.451 13.5234C125.725 13.3828 125.924 13.1875 126.049 12.9375C126.178 12.6875 126.242 12.4023 126.242 12.082C126.242 11.7891 126.178 11.5137 126.049 11.2559C125.924 10.998 125.725 10.791 125.451 10.6348C125.178 10.4746 124.82 10.3945 124.379 10.3945H122.363V18H121.232V9.46875H124.379C125.023 9.46875 125.568 9.58008 126.014 9.80273C126.459 10.0254 126.797 10.334 127.027 10.7285C127.258 11.1191 127.373 11.5664 127.373 12.0703C127.373 12.6172 127.258 13.084 127.027 13.4707C126.797 13.8574 126.459 14.1523 126.014 14.3555C125.568 14.5547 125.023 14.6543 124.379 14.6543ZM131.949 14.6543H129.67V13.7344H131.949C132.391 13.7344 132.748 13.6641 133.021 13.5234C133.295 13.3828 133.494 13.1875 133.619 12.9375C133.748 12.6875 133.812 12.4023 133.812 12.082C133.812 11.7891 133.748 11.5137 133.619 11.2559C133.494 10.998 133.295 10.791 133.021 10.6348C132.748 10.4746 132.391 10.3945 131.949 10.3945H129.934V18H128.803V9.46875H131.949C132.594 9.46875 133.139 9.58008 133.584 9.80273C134.029 10.0254 134.367 10.334 134.598 10.7285C134.828 11.1191 134.943 11.5664 134.943 12.0703C134.943 12.6172 134.828 13.084 134.598 13.4707C134.367 13.8574 134.029 14.1523 133.584 14.3555C133.139 14.5547 132.594 14.6543 131.949 14.6543Z"
		fill="white"/>
</svg>
