<!--
  - * @LastEditors: zhanghengxin ezreal.zhang@icewhale.org
  - * @LastEditTime: 2023/5/17 下午3:14
  - * @FilePath: /CasaOS-UI/main/src/assets/img/learn/guidance-MacOS-AppStore.svg
  - * @Description:
  - *
  - * Copyright (c) 2023 by IceWhale, All Rights Reserved.
  -
  -->

<svg width="156" height="48" viewBox="0 0 156 48" fill="none" xmlns="http://www.w3.org/2000/svg">
	<rect width="156" height="48" rx="6" fill="#181F25"/>
	<path
		d="M40.3673 30.175C39.6845 31.6916 39.3555 32.3694 38.4772 33.7079C37.2477 35.5782 35.5134 37.9136 33.371 37.9284C31.4635 37.9458 30.9712 36.684 28.381 36.7063C25.7932 36.7187 25.2539 37.9532 23.344 37.9334C21.1991 37.9136 19.5589 35.8107 18.3293 33.9429C14.8905 28.7055 14.5268 22.5652 16.6519 19.2995C18.1561 16.9839 20.5336 15.6232 22.7676 15.6232C25.0436 15.6232 26.4736 16.8726 28.3538 16.8726C30.1796 16.8726 31.2904 15.6208 33.9227 15.6208C35.9117 15.6208 38.0146 16.7043 39.5188 18.5747C34.6005 21.2713 35.3996 28.2948 40.3673 30.175ZM31.9237 13.5303C32.8811 12.3007 33.6085 10.5665 33.3437 8.80005C31.7827 8.90643 29.9569 9.90343 28.8906 11.1948C27.9233 12.3724 27.1217 14.1191 27.4335 15.8088C29.138 15.8632 30.902 14.8464 31.9237 13.5303Z"
		fill="white"/>
	<path
		d="M58.2764 25.2031H60.3682L63.8662 34.8359L67.3555 25.2031H69.4561L64.7012 38H63.0225L58.2764 25.2031ZM57.2217 25.2031H59.2695L59.6387 34.0537V38H57.2217V25.2031ZM68.4541 25.2031H70.5107V38H68.0938V34.0537L68.4541 25.2031ZM78.0342 35.9785V31.5928C78.0342 31.2705 77.9785 30.9922 77.8672 30.7578C77.7559 30.5234 77.5859 30.3418 77.3574 30.2129C77.1289 30.084 76.8389 30.0195 76.4873 30.0195C76.1768 30.0195 75.9043 30.0723 75.6699 30.1777C75.4414 30.2832 75.2656 30.4326 75.1426 30.626C75.0195 30.8135 74.958 31.0303 74.958 31.2764H72.6289C72.6289 30.8838 72.7227 30.5117 72.9102 30.1602C73.0977 29.8027 73.3643 29.4863 73.71 29.2109C74.0615 28.9297 74.4805 28.71 74.9668 28.5518C75.459 28.3936 76.0098 28.3145 76.6191 28.3145C77.3398 28.3145 77.9814 28.4375 78.5439 28.6836C79.1123 28.9238 79.5576 29.2871 79.8799 29.7734C80.208 30.2598 80.3721 30.8721 80.3721 31.6104V35.7588C80.3721 36.2334 80.4014 36.6406 80.46 36.9805C80.5244 37.3145 80.6182 37.6045 80.7412 37.8506V38H78.377C78.2656 37.7598 78.1807 37.4551 78.1221 37.0859C78.0635 36.7109 78.0342 36.3418 78.0342 35.9785ZM78.3594 32.208L78.377 33.5879H76.9092C76.5459 33.5879 76.2266 33.626 75.9512 33.7021C75.6758 33.7725 75.4502 33.8779 75.2744 34.0186C75.0986 34.1533 74.9668 34.3174 74.8789 34.5107C74.791 34.6982 74.7471 34.9121 74.7471 35.1523C74.7471 35.3867 74.7998 35.5977 74.9053 35.7852C75.0166 35.9727 75.1748 36.1221 75.3799 36.2334C75.5908 36.3389 75.8369 36.3916 76.1182 36.3916C76.5283 36.3916 76.8857 36.3096 77.1904 36.1455C77.4951 35.9756 77.7324 35.7705 77.9023 35.5303C78.0723 35.29 78.1631 35.0615 78.1748 34.8447L78.8428 35.8467C78.7607 36.0869 78.6377 36.3418 78.4736 36.6113C78.3096 36.8809 78.0986 37.1328 77.8408 37.3672C77.583 37.6016 77.2725 37.7949 76.9092 37.9473C76.5459 38.0996 76.124 38.1758 75.6436 38.1758C75.0283 38.1758 74.4775 38.0527 73.9912 37.8066C73.5049 37.5605 73.1211 37.2236 72.8398 36.7959C72.5586 36.3682 72.418 35.8818 72.418 35.3369C72.418 34.833 72.5117 34.3877 72.6992 34.001C72.8867 33.6143 73.165 33.2891 73.5342 33.0254C73.9033 32.7559 74.3604 32.5537 74.9053 32.4189C75.4561 32.2783 76.0859 32.208 76.7949 32.208H78.3594ZM86.3662 36.3477C86.6943 36.3477 86.9873 36.2832 87.2451 36.1543C87.5029 36.0254 87.708 35.8438 87.8604 35.6094C88.0186 35.375 88.1035 35.1025 88.1152 34.792H90.3037C90.292 35.4365 90.1104 36.0137 89.7588 36.5234C89.4072 37.0332 88.9385 37.4375 88.3525 37.7363C87.7725 38.0293 87.1221 38.1758 86.4014 38.1758C85.6689 38.1758 85.0303 38.0527 84.4854 37.8066C83.9404 37.5605 83.4863 37.2178 83.123 36.7783C82.7656 36.3389 82.4961 35.8291 82.3145 35.249C82.1387 34.6689 82.0508 34.0479 82.0508 33.3857V33.1045C82.0508 32.4424 82.1387 31.8213 82.3145 31.2412C82.4961 30.6611 82.7656 30.1514 83.123 29.7119C83.4863 29.2725 83.9404 28.9297 84.4854 28.6836C85.0303 28.4375 85.666 28.3145 86.3926 28.3145C87.1602 28.3145 87.834 28.4639 88.4141 28.7627C89 29.0615 89.457 29.4834 89.7852 30.0283C90.1191 30.5732 90.292 31.2148 90.3037 31.9531H88.1152C88.1035 31.6133 88.0273 31.3086 87.8867 31.0391C87.7461 30.7695 87.5469 30.5527 87.2891 30.3887C87.0312 30.2246 86.7178 30.1426 86.3486 30.1426C85.9561 30.1426 85.6279 30.2246 85.3643 30.3887C85.1064 30.5527 84.9043 30.7783 84.7578 31.0654C84.6172 31.3467 84.5176 31.6631 84.459 32.0146C84.4062 32.3604 84.3799 32.7236 84.3799 33.1045V33.3857C84.3799 33.7725 84.4062 34.1416 84.459 34.4932C84.5176 34.8447 84.6172 35.1611 84.7578 35.4424C84.9043 35.7178 85.1064 35.9375 85.3643 36.1016C85.6279 36.2656 85.9619 36.3477 86.3662 36.3477ZM102.389 31.2764V31.9355C102.389 32.9023 102.26 33.7725 102.002 34.5459C101.744 35.3135 101.378 35.9668 100.903 36.5059C100.429 37.0449 99.8633 37.458 99.207 37.7451C98.5508 38.0322 97.8213 38.1758 97.0186 38.1758C96.2275 38.1758 95.501 38.0322 94.8389 37.7451C94.1826 37.458 93.6143 37.0449 93.1338 36.5059C92.6533 35.9668 92.2812 35.3135 92.0176 34.5459C91.7539 33.7725 91.6221 32.9023 91.6221 31.9355V31.2764C91.6221 30.3037 91.7539 29.4336 92.0176 28.666C92.2812 27.8984 92.6504 27.2451 93.125 26.7061C93.5996 26.1611 94.165 25.7451 94.8213 25.458C95.4834 25.1709 96.21 25.0273 97.001 25.0273C97.8037 25.0273 98.5332 25.1709 99.1895 25.458C99.8457 25.7451 100.411 26.1611 100.886 26.7061C101.366 27.2451 101.735 27.8984 101.993 28.666C102.257 29.4336 102.389 30.3037 102.389 31.2764ZM99.9453 31.9355V31.2588C99.9453 30.5615 99.8809 29.9492 99.752 29.4219C99.623 28.8887 99.4326 28.4404 99.1807 28.0771C98.9287 27.7139 98.6182 27.4414 98.249 27.2598C97.8799 27.0723 97.4639 26.9785 97.001 26.9785C96.5322 26.9785 96.1162 27.0723 95.7529 27.2598C95.3955 27.4414 95.0908 27.7139 94.8389 28.0771C94.5869 28.4404 94.3936 28.8887 94.2588 29.4219C94.1299 29.9492 94.0654 30.5615 94.0654 31.2588V31.9355C94.0654 32.627 94.1299 33.2393 94.2588 33.7725C94.3936 34.3057 94.5869 34.7568 94.8389 35.126C95.0967 35.4893 95.4072 35.7646 95.7705 35.9521C96.1338 36.1396 96.5498 36.2334 97.0186 36.2334C97.4873 36.2334 97.9033 36.1396 98.2666 35.9521C98.6299 35.7646 98.9346 35.4893 99.1807 35.126C99.4326 34.7568 99.623 34.3057 99.752 33.7725C99.8809 33.2393 99.9453 32.627 99.9453 31.9355ZM111.134 34.6777C111.134 34.4316 111.096 34.2119 111.02 34.0186C110.949 33.8193 110.817 33.6406 110.624 33.4824C110.437 33.3184 110.17 33.1602 109.824 33.0078C109.484 32.8496 109.045 32.6855 108.506 32.5156C107.908 32.3281 107.352 32.1172 106.836 31.8828C106.32 31.6484 105.866 31.376 105.474 31.0654C105.087 30.7549 104.785 30.3975 104.568 29.9932C104.352 29.583 104.243 29.1084 104.243 28.5693C104.243 28.042 104.354 27.5615 104.577 27.1279C104.806 26.6943 105.128 26.3223 105.544 26.0117C105.96 25.6953 106.449 25.4521 107.012 25.2822C107.58 25.1123 108.207 25.0273 108.893 25.0273C109.842 25.0273 110.662 25.2002 111.354 25.5459C112.051 25.8916 112.59 26.3604 112.971 26.9521C113.352 27.5439 113.542 28.209 113.542 28.9473H111.134C111.134 28.5488 111.049 28.1973 110.879 27.8926C110.715 27.5879 110.463 27.3477 110.123 27.1719C109.789 26.9961 109.367 26.9082 108.857 26.9082C108.365 26.9082 107.955 26.9814 107.627 27.1279C107.305 27.2744 107.062 27.4736 106.897 27.7256C106.739 27.9775 106.66 28.2588 106.66 28.5693C106.66 28.8037 106.716 29.0146 106.827 29.2021C106.938 29.3838 107.105 29.5566 107.328 29.7207C107.551 29.8789 107.826 30.0283 108.154 30.1689C108.488 30.3037 108.875 30.4385 109.314 30.5732C110.018 30.7842 110.633 31.0186 111.16 31.2764C111.693 31.5342 112.136 31.8271 112.487 32.1553C112.845 32.4834 113.111 32.8525 113.287 33.2627C113.469 33.6729 113.56 34.1387 113.56 34.6602C113.56 35.2109 113.451 35.7031 113.234 36.1367C113.018 36.5703 112.707 36.9395 112.303 37.2441C111.898 37.5488 111.412 37.7803 110.844 37.9385C110.281 38.0967 109.651 38.1758 108.954 38.1758C108.333 38.1758 107.718 38.0938 107.108 37.9297C106.505 37.7598 105.957 37.5078 105.465 37.1738C104.973 36.834 104.58 36.4062 104.287 35.8906C103.994 35.3691 103.848 34.7598 103.848 34.0625H106.273C106.273 34.4668 106.338 34.8125 106.467 35.0996C106.602 35.3809 106.789 35.6123 107.029 35.7939C107.275 35.9697 107.562 36.0986 107.891 36.1807C108.219 36.2627 108.573 36.3037 108.954 36.3037C109.446 36.3037 109.851 36.2363 110.167 36.1016C110.489 35.9609 110.729 35.7676 110.888 35.5215C111.052 35.2754 111.134 34.9941 111.134 34.6777Z"
		fill="white"/>
	<path
		d="M59.2988 18H57.5176L57.5293 17.0801H59.2988C59.9082 17.0801 60.416 16.9531 60.8223 16.6992C61.2285 16.4414 61.5332 16.082 61.7363 15.6211C61.9434 15.1562 62.0469 14.6133 62.0469 13.9922V13.4707C62.0469 12.9824 61.9883 12.5488 61.8711 12.1699C61.7539 11.7871 61.582 11.4648 61.3555 11.2031C61.1289 10.9375 60.8516 10.7363 60.5234 10.5996C60.1992 10.4629 59.8262 10.3945 59.4043 10.3945H57.4824V9.46875H59.4043C59.9629 9.46875 60.4727 9.5625 60.9336 9.75C61.3945 9.93359 61.791 10.2012 62.123 10.5527C62.459 10.9004 62.7168 11.3223 62.8965 11.8184C63.0762 12.3105 63.166 12.8652 63.166 13.4824V13.9922C63.166 14.6094 63.0762 15.166 62.8965 15.6621C62.7168 16.1543 62.457 16.5742 62.1172 16.9219C61.7812 17.2695 61.375 17.5371 60.8984 17.7246C60.4258 17.9082 59.8926 18 59.2988 18ZM58.1211 9.46875V18H56.9902V9.46875H58.1211ZM64.4141 14.9004V14.7656C64.4141 14.3086 64.4805 13.8848 64.6133 13.4941C64.7461 13.0996 64.9375 12.7578 65.1875 12.4688C65.4375 12.1758 65.7402 11.9492 66.0957 11.7891C66.4512 11.625 66.8496 11.543 67.291 11.543C67.7363 11.543 68.1367 11.625 68.4922 11.7891C68.8516 11.9492 69.1562 12.1758 69.4062 12.4688C69.6602 12.7578 69.8535 13.0996 69.9863 13.4941C70.1191 13.8848 70.1855 14.3086 70.1855 14.7656V14.9004C70.1855 15.3574 70.1191 15.7812 69.9863 16.1719C69.8535 16.5625 69.6602 16.9043 69.4062 17.1973C69.1562 17.4863 68.8535 17.7129 68.498 17.877C68.1465 18.0371 67.748 18.1172 67.3027 18.1172C66.8574 18.1172 66.457 18.0371 66.1016 17.877C65.7461 17.7129 65.4414 17.4863 65.1875 17.1973C64.9375 16.9043 64.7461 16.5625 64.6133 16.1719C64.4805 15.7812 64.4141 15.3574 64.4141 14.9004ZM65.498 14.7656V14.9004C65.498 15.2168 65.5352 15.5156 65.6094 15.7969C65.6836 16.0742 65.7949 16.3203 65.9434 16.5352C66.0957 16.75 66.2852 16.9199 66.5117 17.0449C66.7383 17.166 67.002 17.2266 67.3027 17.2266C67.5996 17.2266 67.8594 17.166 68.082 17.0449C68.3086 16.9199 68.4961 16.75 68.6445 16.5352C68.793 16.3203 68.9043 16.0742 68.9785 15.7969C69.0566 15.5156 69.0957 15.2168 69.0957 14.9004V14.7656C69.0957 14.4531 69.0566 14.1582 68.9785 13.8809C68.9043 13.5996 68.791 13.3516 68.6387 13.1367C68.4902 12.918 68.3027 12.7461 68.0762 12.6211C67.8535 12.4961 67.5918 12.4336 67.291 12.4336C66.9941 12.4336 66.7324 12.4961 66.5059 12.6211C66.2832 12.7461 66.0957 12.918 65.9434 13.1367C65.7949 13.3516 65.6836 13.5996 65.6094 13.8809C65.5352 14.1582 65.498 14.4531 65.498 14.7656ZM73.1504 16.875L74.7793 11.6602H75.4941L75.3535 12.6973L73.6953 18H72.998L73.1504 16.875ZM72.0547 11.6602L73.4434 16.9336L73.543 18H72.8105L70.9707 11.6602H72.0547ZM77.0527 16.8926L78.377 11.6602H79.4551L77.6152 18H76.8887L77.0527 16.8926ZM75.6523 11.6602L77.2461 16.7871L77.4277 18H76.7363L75.0312 12.6855L74.8906 11.6602H75.6523ZM81.6523 13.0137V18H80.5684V11.6602H81.5938L81.6523 13.0137ZM81.3945 14.5898L80.9434 14.5723C80.9473 14.1387 81.0117 13.7383 81.1367 13.3711C81.2617 13 81.4375 12.6777 81.6641 12.4043C81.8906 12.1309 82.1602 11.9199 82.4727 11.7715C82.7891 11.6191 83.1387 11.543 83.5215 11.543C83.834 11.543 84.1152 11.5859 84.3652 11.6719C84.6152 11.7539 84.8281 11.8867 85.0039 12.0703C85.1836 12.2539 85.3203 12.4922 85.4141 12.7852C85.5078 13.0742 85.5547 13.4277 85.5547 13.8457V18H84.4648V13.834C84.4648 13.502 84.416 13.2363 84.3184 13.0371C84.2207 12.834 84.0781 12.6875 83.8906 12.5977C83.7031 12.5039 83.4727 12.457 83.1992 12.457C82.9297 12.457 82.6836 12.5137 82.4609 12.627C82.2422 12.7402 82.0527 12.8965 81.8926 13.0957C81.7363 13.2949 81.6133 13.5234 81.5234 13.7812C81.4375 14.0352 81.3945 14.3047 81.3945 14.5898ZM88.3789 9V18H87.2891V9H88.3789ZM89.832 14.9004V14.7656C89.832 14.3086 89.8984 13.8848 90.0312 13.4941C90.1641 13.0996 90.3555 12.7578 90.6055 12.4688C90.8555 12.1758 91.1582 11.9492 91.5137 11.7891C91.8691 11.625 92.2676 11.543 92.709 11.543C93.1543 11.543 93.5547 11.625 93.9102 11.7891C94.2695 11.9492 94.5742 12.1758 94.8242 12.4688C95.0781 12.7578 95.2715 13.0996 95.4043 13.4941C95.5371 13.8848 95.6035 14.3086 95.6035 14.7656V14.9004C95.6035 15.3574 95.5371 15.7812 95.4043 16.1719C95.2715 16.5625 95.0781 16.9043 94.8242 17.1973C94.5742 17.4863 94.2715 17.7129 93.916 17.877C93.5645 18.0371 93.166 18.1172 92.7207 18.1172C92.2754 18.1172 91.875 18.0371 91.5195 17.877C91.1641 17.7129 90.8594 17.4863 90.6055 17.1973C90.3555 16.9043 90.1641 16.5625 90.0312 16.1719C89.8984 15.7812 89.832 15.3574 89.832 14.9004ZM90.916 14.7656V14.9004C90.916 15.2168 90.9531 15.5156 91.0273 15.7969C91.1016 16.0742 91.2129 16.3203 91.3613 16.5352C91.5137 16.75 91.7031 16.9199 91.9297 17.0449C92.1562 17.166 92.4199 17.2266 92.7207 17.2266C93.0176 17.2266 93.2773 17.166 93.5 17.0449C93.7266 16.9199 93.9141 16.75 94.0625 16.5352C94.2109 16.3203 94.3223 16.0742 94.3965 15.7969C94.4746 15.5156 94.5137 15.2168 94.5137 14.9004V14.7656C94.5137 14.4531 94.4746 14.1582 94.3965 13.8809C94.3223 13.5996 94.209 13.3516 94.0566 13.1367C93.9082 12.918 93.7207 12.7461 93.4941 12.6211C93.2715 12.4961 93.0098 12.4336 92.709 12.4336C92.4121 12.4336 92.1504 12.4961 91.9238 12.6211C91.7012 12.7461 91.5137 12.918 91.3613 13.1367C91.2129 13.3516 91.1016 13.5996 91.0273 13.8809C90.9531 14.1582 90.916 14.4531 90.916 14.7656ZM100.701 16.916V13.6523C100.701 13.4023 100.65 13.1855 100.549 13.002C100.451 12.8145 100.303 12.6699 100.104 12.5684C99.9043 12.4668 99.6582 12.416 99.3652 12.416C99.0918 12.416 98.8516 12.4629 98.6445 12.5566C98.4414 12.6504 98.2812 12.7734 98.1641 12.9258C98.0508 13.0781 97.9941 13.2422 97.9941 13.418H96.9102C96.9102 13.1914 96.9688 12.9668 97.0859 12.7441C97.2031 12.5215 97.3711 12.3203 97.5898 12.1406C97.8125 11.957 98.0781 11.8125 98.3867 11.707C98.6992 11.5977 99.0469 11.543 99.4297 11.543C99.8906 11.543 100.297 11.6211 100.648 11.7773C101.004 11.9336 101.281 12.1699 101.48 12.4863C101.684 12.7988 101.785 13.1914 101.785 13.6641V16.6172C101.785 16.8281 101.803 17.0527 101.838 17.291C101.877 17.5293 101.934 17.7344 102.008 17.9062V18H100.877C100.822 17.875 100.779 17.709 100.748 17.502C100.717 17.291 100.701 17.0957 100.701 16.916ZM100.889 14.1562L100.9 14.918H99.8047C99.4961 14.918 99.2207 14.9434 98.9785 14.9941C98.7363 15.041 98.5332 15.1133 98.3691 15.2109C98.2051 15.3086 98.0801 15.4316 97.9941 15.5801C97.9082 15.7246 97.8652 15.8945 97.8652 16.0898C97.8652 16.2891 97.9102 16.4707 98 16.6348C98.0898 16.7988 98.2246 16.9297 98.4043 17.0273C98.5879 17.1211 98.8125 17.168 99.0781 17.168C99.4102 17.168 99.7031 17.0977 99.957 16.957C100.211 16.8164 100.412 16.6445 100.561 16.4414C100.713 16.2383 100.795 16.041 100.807 15.8496L101.27 16.3711C101.242 16.5352 101.168 16.7168 101.047 16.916C100.926 17.1152 100.764 17.3066 100.561 17.4902C100.361 17.6699 100.123 17.8203 99.8457 17.9414C99.5723 18.0586 99.2637 18.1172 98.9199 18.1172C98.4902 18.1172 98.1133 18.0332 97.7891 17.8652C97.4688 17.6973 97.2188 17.4727 97.0391 17.1914C96.8633 16.9062 96.7754 16.5879 96.7754 16.2363C96.7754 15.8965 96.8418 15.5977 96.9746 15.3398C97.1074 15.0781 97.2988 14.8613 97.5488 14.6895C97.7988 14.5137 98.0996 14.3809 98.4512 14.291C98.8027 14.2012 99.1953 14.1562 99.6289 14.1562H100.889ZM107.486 16.7695V9H108.576V18H107.58L107.486 16.7695ZM103.221 14.9004V14.7773C103.221 14.293 103.279 13.8535 103.396 13.459C103.518 13.0605 103.688 12.7188 103.906 12.4336C104.129 12.1484 104.393 11.9297 104.697 11.7773C105.006 11.6211 105.35 11.543 105.729 11.543C106.127 11.543 106.475 11.6133 106.771 11.7539C107.072 11.8906 107.326 12.0918 107.533 12.3574C107.744 12.6191 107.91 12.9355 108.031 13.3066C108.152 13.6777 108.236 14.0977 108.283 14.5664V15.1055C108.24 15.5703 108.156 15.9883 108.031 16.3594C107.91 16.7305 107.744 17.0469 107.533 17.3086C107.326 17.5703 107.072 17.7715 106.771 17.9121C106.471 18.0488 106.119 18.1172 105.717 18.1172C105.346 18.1172 105.006 18.0371 104.697 17.877C104.393 17.7168 104.129 17.4922 103.906 17.2031C103.688 16.9141 103.518 16.5742 103.396 16.1836C103.279 15.7891 103.221 15.3613 103.221 14.9004ZM104.311 14.7773V14.9004C104.311 15.2168 104.342 15.5137 104.404 15.791C104.471 16.0684 104.572 16.3125 104.709 16.5234C104.846 16.7344 105.02 16.9004 105.23 17.0215C105.441 17.1387 105.693 17.1973 105.986 17.1973C106.346 17.1973 106.641 17.1211 106.871 16.9688C107.105 16.8164 107.293 16.6152 107.434 16.3652C107.574 16.1152 107.684 15.8438 107.762 15.5508V14.1387C107.715 13.9238 107.646 13.7168 107.557 13.5176C107.471 13.3145 107.357 13.1348 107.217 12.9785C107.08 12.8184 106.91 12.6914 106.707 12.5977C106.508 12.5039 106.271 12.457 105.998 12.457C105.701 12.457 105.445 12.5195 105.23 12.6445C105.02 12.7656 104.846 12.9336 104.709 13.1484C104.572 13.3594 104.471 13.6055 104.404 13.8867C104.342 14.1641 104.311 14.4609 104.311 14.7773ZM116.562 10.2246L113.738 18H112.584L115.836 9.46875H116.58L116.562 10.2246ZM118.93 18L116.1 10.2246L116.082 9.46875H116.826L120.09 18H118.93ZM118.783 14.8418V15.7676H113.99V14.8418H118.783ZM124.379 14.6543H122.1V13.7344H124.379C124.82 13.7344 125.178 13.6641 125.451 13.5234C125.725 13.3828 125.924 13.1875 126.049 12.9375C126.178 12.6875 126.242 12.4023 126.242 12.082C126.242 11.7891 126.178 11.5137 126.049 11.2559C125.924 10.998 125.725 10.791 125.451 10.6348C125.178 10.4746 124.82 10.3945 124.379 10.3945H122.363V18H121.232V9.46875H124.379C125.023 9.46875 125.568 9.58008 126.014 9.80273C126.459 10.0254 126.797 10.334 127.027 10.7285C127.258 11.1191 127.373 11.5664 127.373 12.0703C127.373 12.6172 127.258 13.084 127.027 13.4707C126.797 13.8574 126.459 14.1523 126.014 14.3555C125.568 14.5547 125.023 14.6543 124.379 14.6543ZM131.949 14.6543H129.67V13.7344H131.949C132.391 13.7344 132.748 13.6641 133.021 13.5234C133.295 13.3828 133.494 13.1875 133.619 12.9375C133.748 12.6875 133.812 12.4023 133.812 12.082C133.812 11.7891 133.748 11.5137 133.619 11.2559C133.494 10.998 133.295 10.791 133.021 10.6348C132.748 10.4746 132.391 10.3945 131.949 10.3945H129.934V18H128.803V9.46875H131.949C132.594 9.46875 133.139 9.58008 133.584 9.80273C134.029 10.0254 134.367 10.334 134.598 10.7285C134.828 11.1191 134.943 11.5664 134.943 12.0703C134.943 12.6172 134.828 13.084 134.598 13.4707C134.367 13.8574 134.029 14.1523 133.584 14.3555C133.139 14.5547 132.594 14.6543 131.949 14.6543Z"
		fill="white"/>
</svg>
