<!--
  - * @LastEditors: zhanghengxin ezreal.zhang@icewhale.org
  - * @LastEditTime: 2023/5/24 下午2:32
  - * @FilePath: /CasaOS-UI/main/src/assets/img/learn/tips-mergeStorage.svg
  - * @Description:
  - *
  - * Copyright (c) 2023 by IceWhale, All Rights Reserved.
  -
  -->

<svg width="320" height="100" viewBox="0 0 320 100" fill="none" xmlns="http://www.w3.org/2000/svg">
	<path
		d="M2 14C2 10.6863 4.68629 8 8 8H312C315.314 8 318 10.6863 318 14V86C318 89.3137 315.314 92 312 92H8.00001C4.6863 92 2 89.3137 2 86V14Z"
		fill="white"/>
	<rect x="12" y="12" width="128" height="36" rx="4" fill="white"/>
	<path
		d="M54.46 32.4844C54.46 32.252 54.4235 32.0469 54.3506 31.8691C54.2822 31.6868 54.1592 31.5228 53.9814 31.377C53.8083 31.2311 53.5667 31.0921 53.2568 30.96C52.9515 30.8278 52.5641 30.6934 52.0947 30.5566C51.6025 30.4108 51.1582 30.249 50.7617 30.0713C50.3652 29.889 50.0257 29.6816 49.7432 29.4492C49.4606 29.2168 49.2441 28.9502 49.0938 28.6494C48.9434 28.3486 48.8682 28.0046 48.8682 27.6172C48.8682 27.2298 48.9479 26.8721 49.1074 26.5439C49.2669 26.2158 49.4948 25.931 49.791 25.6895C50.0918 25.4434 50.4495 25.252 50.8643 25.1152C51.279 24.9785 51.7415 24.9102 52.252 24.9102C52.9993 24.9102 53.6328 25.0537 54.1523 25.3408C54.6764 25.6234 55.0752 25.9948 55.3486 26.4551C55.6221 26.9108 55.7588 27.3984 55.7588 27.918H54.4463C54.4463 27.5443 54.3665 27.2139 54.207 26.9268C54.0475 26.6351 53.806 26.4072 53.4824 26.2432C53.1589 26.0745 52.7487 25.9902 52.252 25.9902C51.7826 25.9902 51.3952 26.0609 51.0898 26.2021C50.7845 26.3434 50.5566 26.5348 50.4062 26.7764C50.2604 27.0179 50.1875 27.2936 50.1875 27.6035C50.1875 27.8132 50.2308 28.0046 50.3174 28.1777C50.4085 28.3464 50.5475 28.5036 50.7344 28.6494C50.9258 28.7952 51.1673 28.9297 51.459 29.0527C51.7552 29.1758 52.1084 29.2943 52.5186 29.4082C53.0837 29.5677 53.5713 29.7454 53.9814 29.9414C54.3916 30.1374 54.7288 30.3584 54.9932 30.6045C55.262 30.846 55.4603 31.1217 55.5879 31.4316C55.7201 31.737 55.7861 32.0833 55.7861 32.4707C55.7861 32.8763 55.7041 33.2432 55.54 33.5713C55.376 33.8994 55.1413 34.1797 54.8359 34.4121C54.5306 34.6445 54.1637 34.8245 53.7354 34.9521C53.3115 35.0752 52.8376 35.1367 52.3135 35.1367C51.8532 35.1367 51.3997 35.0729 50.9531 34.9453C50.5111 34.8177 50.1077 34.6263 49.7432 34.3711C49.3831 34.1159 49.0938 33.8014 48.875 33.4277C48.6608 33.0495 48.5537 32.612 48.5537 32.1152H49.8662C49.8662 32.457 49.9323 32.751 50.0645 32.9971C50.1966 33.2386 50.3766 33.4391 50.6045 33.5986C50.8369 33.7581 51.099 33.8766 51.3906 33.9541C51.6868 34.027 51.9945 34.0635 52.3135 34.0635C52.7738 34.0635 53.1634 33.9997 53.4824 33.8721C53.8014 33.7445 54.043 33.5622 54.207 33.3252C54.3757 33.0882 54.46 32.8079 54.46 32.4844ZM60.373 27.6035V28.5742H56.374V27.6035H60.373ZM57.7275 25.8057H58.9922V33.168C58.9922 33.4186 59.0309 33.6077 59.1084 33.7354C59.1859 33.863 59.2861 33.9473 59.4092 33.9883C59.5322 34.0293 59.6644 34.0498 59.8057 34.0498C59.9105 34.0498 60.0199 34.0407 60.1338 34.0225C60.2523 33.9997 60.3411 33.9814 60.4004 33.9678L60.4072 35C60.307 35.0319 60.1748 35.0615 60.0107 35.0889C59.8512 35.1208 59.6576 35.1367 59.4297 35.1367C59.1198 35.1367 58.835 35.0752 58.5752 34.9521C58.3154 34.8291 58.1081 34.624 57.9531 34.3369C57.8027 34.0452 57.7275 33.6533 57.7275 33.1611V25.8057ZM61.3848 31.3838V31.2266C61.3848 30.6934 61.4622 30.1989 61.6172 29.7432C61.7721 29.2829 61.9954 28.8841 62.2871 28.5469C62.5788 28.2051 62.932 27.9408 63.3467 27.7539C63.7614 27.5625 64.2262 27.4668 64.7412 27.4668C65.2607 27.4668 65.7279 27.5625 66.1426 27.7539C66.5618 27.9408 66.9173 28.2051 67.209 28.5469C67.5052 28.8841 67.7308 29.2829 67.8857 29.7432C68.0407 30.1989 68.1182 30.6934 68.1182 31.2266V31.3838C68.1182 31.917 68.0407 32.4115 67.8857 32.8672C67.7308 33.3229 67.5052 33.7217 67.209 34.0635C66.9173 34.4007 66.5641 34.665 66.1494 34.8564C65.7393 35.0433 65.2744 35.1367 64.7549 35.1367C64.2354 35.1367 63.7682 35.0433 63.3535 34.8564C62.9388 34.665 62.5833 34.4007 62.2871 34.0635C61.9954 33.7217 61.7721 33.3229 61.6172 32.8672C61.4622 32.4115 61.3848 31.917 61.3848 31.3838ZM62.6494 31.2266V31.3838C62.6494 31.7529 62.6927 32.1016 62.7793 32.4297C62.8659 32.7533 62.9958 33.0404 63.1689 33.291C63.3467 33.5417 63.5677 33.7399 63.832 33.8857C64.0964 34.027 64.404 34.0977 64.7549 34.0977C65.1012 34.0977 65.4043 34.027 65.6641 33.8857C65.9284 33.7399 66.1471 33.5417 66.3203 33.291C66.4935 33.0404 66.6234 32.7533 66.71 32.4297C66.8011 32.1016 66.8467 31.7529 66.8467 31.3838V31.2266C66.8467 30.862 66.8011 30.5179 66.71 30.1943C66.6234 29.8662 66.4912 29.5768 66.3135 29.3262C66.1403 29.071 65.9215 28.8704 65.6572 28.7246C65.3975 28.5788 65.0921 28.5059 64.7412 28.5059C64.3949 28.5059 64.0895 28.5788 63.8252 28.7246C63.5654 28.8704 63.3467 29.071 63.1689 29.3262C62.9958 29.5768 62.8659 29.8662 62.7793 30.1943C62.6927 30.5179 62.6494 30.862 62.6494 31.2266ZM70.9688 28.7656V35H69.7041V27.6035H70.9346L70.9688 28.7656ZM73.2793 27.5625L73.2725 28.7383C73.1676 28.7155 73.0674 28.7018 72.9717 28.6973C72.8805 28.6882 72.7757 28.6836 72.6572 28.6836C72.3656 28.6836 72.1081 28.7292 71.8848 28.8203C71.6615 28.9115 71.4723 29.0391 71.3174 29.2031C71.1624 29.3672 71.0394 29.5632 70.9482 29.791C70.8617 30.0143 70.8047 30.2604 70.7773 30.5293L70.4219 30.7344C70.4219 30.2878 70.4652 29.8685 70.5518 29.4766C70.6429 29.0846 70.7819 28.7383 70.9688 28.4375C71.1556 28.1322 71.3926 27.8952 71.6797 27.7266C71.9714 27.5534 72.3177 27.4668 72.7188 27.4668C72.8099 27.4668 72.9147 27.4782 73.0332 27.501C73.1517 27.5192 73.2337 27.5397 73.2793 27.5625ZM78.5361 33.7354V29.9277C78.5361 29.6361 78.4769 29.3831 78.3584 29.1689C78.2445 28.9502 78.0713 28.7816 77.8389 28.6631C77.6064 28.5446 77.3193 28.4854 76.9775 28.4854C76.6585 28.4854 76.3783 28.54 76.1367 28.6494C75.8997 28.7588 75.7129 28.9023 75.5762 29.0801C75.444 29.2578 75.3779 29.4492 75.3779 29.6543H74.1133C74.1133 29.39 74.1816 29.1279 74.3184 28.8682C74.4551 28.6084 74.651 28.3737 74.9062 28.1641C75.166 27.9499 75.4759 27.7812 75.8359 27.6582C76.2005 27.5306 76.6061 27.4668 77.0527 27.4668C77.5905 27.4668 78.0645 27.5579 78.4746 27.7402C78.8893 27.9225 79.2129 28.1982 79.4453 28.5674C79.6823 28.932 79.8008 29.39 79.8008 29.9414V33.3867C79.8008 33.6328 79.8213 33.8949 79.8623 34.1729C79.9079 34.4508 79.974 34.6901 80.0605 34.8906V35H78.7412C78.6774 34.8542 78.6273 34.6605 78.5908 34.4189C78.5544 34.1729 78.5361 33.945 78.5361 33.7354ZM78.7549 30.5156L78.7686 31.4043H77.4902C77.1302 31.4043 76.8089 31.4339 76.5264 31.4932C76.2438 31.5479 76.0068 31.6322 75.8154 31.7461C75.624 31.86 75.4782 32.0036 75.3779 32.1768C75.2777 32.3454 75.2275 32.5436 75.2275 32.7715C75.2275 33.0039 75.2799 33.2158 75.3848 33.4072C75.4896 33.5986 75.6468 33.7513 75.8564 33.8652C76.0706 33.9746 76.3327 34.0293 76.6426 34.0293C77.0299 34.0293 77.3717 33.9473 77.668 33.7832C77.9642 33.6191 78.1989 33.4186 78.3721 33.1816C78.5498 32.9447 78.6455 32.7145 78.6592 32.4912L79.1992 33.0996C79.1673 33.291 79.0807 33.5029 78.9395 33.7354C78.7982 33.9678 78.609 34.1911 78.3721 34.4053C78.1396 34.6149 77.8617 34.7904 77.5381 34.9316C77.2191 35.0684 76.859 35.1367 76.458 35.1367C75.9567 35.1367 75.5169 35.0387 75.1387 34.8428C74.765 34.6468 74.4733 34.3848 74.2637 34.0566C74.0586 33.724 73.9561 33.3525 73.9561 32.9424C73.9561 32.5459 74.0335 32.1973 74.1885 31.8965C74.3434 31.5911 74.5667 31.3382 74.8584 31.1377C75.1501 30.9326 75.501 30.7777 75.9111 30.6729C76.3213 30.568 76.7793 30.5156 77.2852 30.5156H78.7549ZM86.582 27.6035H87.7305V34.8428C87.7305 35.4945 87.5983 36.0505 87.334 36.5107C87.0697 36.971 86.7005 37.3197 86.2266 37.5566C85.7572 37.7982 85.2148 37.9189 84.5996 37.9189C84.3444 37.9189 84.0436 37.8779 83.6973 37.7959C83.3555 37.7184 83.0182 37.584 82.6855 37.3926C82.3574 37.2057 82.0817 36.9528 81.8584 36.6338L82.5215 35.8818C82.8314 36.2555 83.1549 36.5153 83.4922 36.6611C83.834 36.807 84.1712 36.8799 84.5039 36.8799C84.9049 36.8799 85.2513 36.8047 85.543 36.6543C85.8346 36.5039 86.0602 36.2806 86.2197 35.9844C86.3838 35.6927 86.4658 35.3327 86.4658 34.9043V29.2305L86.582 27.6035ZM81.4893 31.3838V31.2402C81.4893 30.6751 81.5553 30.1624 81.6875 29.7021C81.8242 29.2373 82.0179 28.8385 82.2686 28.5059C82.5238 28.1732 82.8314 27.918 83.1914 27.7402C83.5514 27.5579 83.957 27.4668 84.4082 27.4668C84.873 27.4668 85.2786 27.5488 85.625 27.7129C85.9759 27.8724 86.2721 28.1071 86.5137 28.417C86.7598 28.7223 86.9535 29.0915 87.0947 29.5244C87.236 29.9574 87.334 30.4473 87.3887 30.9941V31.623C87.3385 32.1654 87.2406 32.653 87.0947 33.0859C86.9535 33.5189 86.7598 33.888 86.5137 34.1934C86.2721 34.4987 85.9759 34.7334 85.625 34.8975C85.2741 35.057 84.8639 35.1367 84.3945 35.1367C83.9525 35.1367 83.5514 35.0433 83.1914 34.8564C82.8359 34.6696 82.5306 34.4076 82.2754 34.0703C82.0202 33.7331 81.8242 33.3366 81.6875 32.8809C81.5553 32.4206 81.4893 31.9215 81.4893 31.3838ZM82.7539 31.2402V31.3838C82.7539 31.7529 82.7904 32.0993 82.8633 32.4229C82.9408 32.7464 83.057 33.0312 83.2119 33.2773C83.3714 33.5234 83.5742 33.7171 83.8203 33.8584C84.0664 33.9951 84.3604 34.0635 84.7021 34.0635C85.1214 34.0635 85.4678 33.9746 85.7412 33.7969C86.0146 33.6191 86.2311 33.3844 86.3906 33.0928C86.5547 32.8011 86.6823 32.4844 86.7734 32.1426V30.4951C86.7233 30.2445 86.6458 30.0029 86.541 29.7705C86.4408 29.5335 86.3086 29.3239 86.1445 29.1416C85.985 28.9548 85.7868 28.8066 85.5498 28.6973C85.3128 28.5879 85.0348 28.5332 84.7158 28.5332C84.3695 28.5332 84.071 28.6061 83.8203 28.752C83.5742 28.8932 83.3714 29.0892 83.2119 29.3398C83.057 29.5859 82.9408 29.873 82.8633 30.2012C82.7904 30.5247 82.7539 30.8711 82.7539 31.2402ZM92.7207 35.1367C92.2057 35.1367 91.7386 35.0501 91.3193 34.877C90.9046 34.6992 90.5469 34.4508 90.2461 34.1318C89.9499 33.8128 89.722 33.4346 89.5625 32.9971C89.403 32.5596 89.3232 32.0811 89.3232 31.5615V31.2744C89.3232 30.6729 89.4121 30.1374 89.5898 29.668C89.7676 29.194 90.0091 28.793 90.3145 28.4648C90.6198 28.1367 90.9661 27.8883 91.3535 27.7197C91.7409 27.5511 92.1419 27.4668 92.5566 27.4668C93.0853 27.4668 93.541 27.5579 93.9238 27.7402C94.3112 27.9225 94.6279 28.1777 94.874 28.5059C95.1201 28.8294 95.3024 29.2122 95.4209 29.6543C95.5394 30.0918 95.5986 30.5703 95.5986 31.0898V31.6572H90.0752V30.625H94.334V30.5293C94.3158 30.2012 94.2474 29.8822 94.1289 29.5723C94.015 29.2624 93.8327 29.0072 93.582 28.8066C93.3314 28.6061 92.9896 28.5059 92.5566 28.5059C92.2695 28.5059 92.0052 28.5674 91.7637 28.6904C91.5221 28.8089 91.3148 28.9867 91.1416 29.2236C90.9684 29.4606 90.834 29.75 90.7383 30.0918C90.6426 30.4336 90.5947 30.8278 90.5947 31.2744V31.5615C90.5947 31.9124 90.6426 32.2428 90.7383 32.5527C90.8385 32.8581 90.9821 33.127 91.1689 33.3594C91.3604 33.5918 91.5905 33.7741 91.8594 33.9062C92.1328 34.0384 92.4427 34.1045 92.7891 34.1045C93.2357 34.1045 93.6139 34.0133 93.9238 33.8311C94.2337 33.6488 94.5049 33.4049 94.7373 33.0996L95.5029 33.708C95.3434 33.9495 95.1406 34.1797 94.8945 34.3984C94.6484 34.6172 94.3454 34.7949 93.9854 34.9316C93.6299 35.0684 93.2083 35.1367 92.7207 35.1367ZM100.521 24.9922V35H99.2559V26.5713L96.7061 27.501V26.3594L100.322 24.9922H100.521Z"
		fill="#29343D"/>
	<rect x="20" y="20" width="20" height="20" rx="4" fill="#EDF0F2"/>
	<path fill-rule="evenodd" clip-rule="evenodd"
		  d="M24.768 24.3094C24.9019 23.5058 25.5972 22.9167 26.4119 22.9167H33.5882C34.4029 22.9167 35.0983 23.5058 35.2322 24.3094L36.5552 32.2474C36.3368 32.1423 36.092 32.0834 35.8334 32.0834H24.1668C23.9082 32.0834 23.6634 32.1423 23.445 32.2474L24.768 24.3094Z"
		  fill="#0F8FFF"/>
	<path fill-rule="evenodd" clip-rule="evenodd"
		  d="M24.1667 32.9167C23.7065 32.9167 23.3334 33.2898 23.3334 33.7501L23.3334 35.8334C23.3334 36.2937 23.7065 36.6667 24.1667 36.6667H35.8334C36.2936 36.6667 36.6667 36.2937 36.6667 35.8334V33.7501C36.6667 33.2898 36.2936 32.9167 35.8334 32.9167H24.1667Z"
		  fill="#0F8FFF"/>
	<rect x="12" y="52" width="128" height="36" rx="6" fill="white"/>
	<path
		d="M54.46 72.4844C54.46 72.252 54.4235 72.0469 54.3506 71.8691C54.2822 71.6868 54.1592 71.5228 53.9814 71.377C53.8083 71.2311 53.5667 71.0921 53.2568 70.96C52.9515 70.8278 52.5641 70.6934 52.0947 70.5566C51.6025 70.4108 51.1582 70.249 50.7617 70.0713C50.3652 69.889 50.0257 69.6816 49.7432 69.4492C49.4606 69.2168 49.2441 68.9502 49.0938 68.6494C48.9434 68.3486 48.8682 68.0046 48.8682 67.6172C48.8682 67.2298 48.9479 66.8721 49.1074 66.5439C49.2669 66.2158 49.4948 65.931 49.791 65.6895C50.0918 65.4434 50.4495 65.252 50.8643 65.1152C51.279 64.9785 51.7415 64.9102 52.252 64.9102C52.9993 64.9102 53.6328 65.0537 54.1523 65.3408C54.6764 65.6234 55.0752 65.9948 55.3486 66.4551C55.6221 66.9108 55.7588 67.3984 55.7588 67.918H54.4463C54.4463 67.5443 54.3665 67.2139 54.207 66.9268C54.0475 66.6351 53.806 66.4072 53.4824 66.2432C53.1589 66.0745 52.7487 65.9902 52.252 65.9902C51.7826 65.9902 51.3952 66.0609 51.0898 66.2021C50.7845 66.3434 50.5566 66.5348 50.4062 66.7764C50.2604 67.0179 50.1875 67.2936 50.1875 67.6035C50.1875 67.8132 50.2308 68.0046 50.3174 68.1777C50.4085 68.3464 50.5475 68.5036 50.7344 68.6494C50.9258 68.7952 51.1673 68.9297 51.459 69.0527C51.7552 69.1758 52.1084 69.2943 52.5186 69.4082C53.0837 69.5677 53.5713 69.7454 53.9814 69.9414C54.3916 70.1374 54.7288 70.3584 54.9932 70.6045C55.262 70.846 55.4603 71.1217 55.5879 71.4316C55.7201 71.737 55.7861 72.0833 55.7861 72.4707C55.7861 72.8763 55.7041 73.2432 55.54 73.5713C55.376 73.8994 55.1413 74.1797 54.8359 74.4121C54.5306 74.6445 54.1637 74.8245 53.7354 74.9521C53.3115 75.0752 52.8376 75.1367 52.3135 75.1367C51.8532 75.1367 51.3997 75.0729 50.9531 74.9453C50.5111 74.8177 50.1077 74.6263 49.7432 74.3711C49.3831 74.1159 49.0938 73.8014 48.875 73.4277C48.6608 73.0495 48.5537 72.612 48.5537 72.1152H49.8662C49.8662 72.457 49.9323 72.751 50.0645 72.9971C50.1966 73.2386 50.3766 73.4391 50.6045 73.5986C50.8369 73.7581 51.099 73.8766 51.3906 73.9541C51.6868 74.027 51.9945 74.0635 52.3135 74.0635C52.7738 74.0635 53.1634 73.9997 53.4824 73.8721C53.8014 73.7445 54.043 73.5622 54.207 73.3252C54.3757 73.0882 54.46 72.8079 54.46 72.4844ZM60.373 67.6035V68.5742H56.374V67.6035H60.373ZM57.7275 65.8057H58.9922V73.168C58.9922 73.4186 59.0309 73.6077 59.1084 73.7354C59.1859 73.863 59.2861 73.9473 59.4092 73.9883C59.5322 74.0293 59.6644 74.0498 59.8057 74.0498C59.9105 74.0498 60.0199 74.0407 60.1338 74.0225C60.2523 73.9997 60.3411 73.9814 60.4004 73.9678L60.4072 75C60.307 75.0319 60.1748 75.0615 60.0107 75.0889C59.8512 75.1208 59.6576 75.1367 59.4297 75.1367C59.1198 75.1367 58.835 75.0752 58.5752 74.9521C58.3154 74.8291 58.1081 74.624 57.9531 74.3369C57.8027 74.0452 57.7275 73.6533 57.7275 73.1611V65.8057ZM61.3848 71.3838V71.2266C61.3848 70.6934 61.4622 70.1989 61.6172 69.7432C61.7721 69.2829 61.9954 68.8841 62.2871 68.5469C62.5788 68.2051 62.932 67.9408 63.3467 67.7539C63.7614 67.5625 64.2262 67.4668 64.7412 67.4668C65.2607 67.4668 65.7279 67.5625 66.1426 67.7539C66.5618 67.9408 66.9173 68.2051 67.209 68.5469C67.5052 68.8841 67.7308 69.2829 67.8857 69.7432C68.0407 70.1989 68.1182 70.6934 68.1182 71.2266V71.3838C68.1182 71.917 68.0407 72.4115 67.8857 72.8672C67.7308 73.3229 67.5052 73.7217 67.209 74.0635C66.9173 74.4007 66.5641 74.665 66.1494 74.8564C65.7393 75.0433 65.2744 75.1367 64.7549 75.1367C64.2354 75.1367 63.7682 75.0433 63.3535 74.8564C62.9388 74.665 62.5833 74.4007 62.2871 74.0635C61.9954 73.7217 61.7721 73.3229 61.6172 72.8672C61.4622 72.4115 61.3848 71.917 61.3848 71.3838ZM62.6494 71.2266V71.3838C62.6494 71.7529 62.6927 72.1016 62.7793 72.4297C62.8659 72.7533 62.9958 73.0404 63.1689 73.291C63.3467 73.5417 63.5677 73.7399 63.832 73.8857C64.0964 74.027 64.404 74.0977 64.7549 74.0977C65.1012 74.0977 65.4043 74.027 65.6641 73.8857C65.9284 73.7399 66.1471 73.5417 66.3203 73.291C66.4935 73.0404 66.6234 72.7533 66.71 72.4297C66.8011 72.1016 66.8467 71.7529 66.8467 71.3838V71.2266C66.8467 70.862 66.8011 70.5179 66.71 70.1943C66.6234 69.8662 66.4912 69.5768 66.3135 69.3262C66.1403 69.071 65.9215 68.8704 65.6572 68.7246C65.3975 68.5788 65.0921 68.5059 64.7412 68.5059C64.3949 68.5059 64.0895 68.5788 63.8252 68.7246C63.5654 68.8704 63.3467 69.071 63.1689 69.3262C62.9958 69.5768 62.8659 69.8662 62.7793 70.1943C62.6927 70.5179 62.6494 70.862 62.6494 71.2266ZM70.9688 68.7656V75H69.7041V67.6035H70.9346L70.9688 68.7656ZM73.2793 67.5625L73.2725 68.7383C73.1676 68.7155 73.0674 68.7018 72.9717 68.6973C72.8805 68.6882 72.7757 68.6836 72.6572 68.6836C72.3656 68.6836 72.1081 68.7292 71.8848 68.8203C71.6615 68.9115 71.4723 69.0391 71.3174 69.2031C71.1624 69.3672 71.0394 69.5632 70.9482 69.791C70.8617 70.0143 70.8047 70.2604 70.7773 70.5293L70.4219 70.7344C70.4219 70.2878 70.4652 69.8685 70.5518 69.4766C70.6429 69.0846 70.7819 68.7383 70.9688 68.4375C71.1556 68.1322 71.3926 67.8952 71.6797 67.7266C71.9714 67.5534 72.3177 67.4668 72.7188 67.4668C72.8099 67.4668 72.9147 67.4782 73.0332 67.501C73.1517 67.5192 73.2337 67.5397 73.2793 67.5625ZM78.5361 73.7354V69.9277C78.5361 69.6361 78.4769 69.3831 78.3584 69.1689C78.2445 68.9502 78.0713 68.7816 77.8389 68.6631C77.6064 68.5446 77.3193 68.4854 76.9775 68.4854C76.6585 68.4854 76.3783 68.54 76.1367 68.6494C75.8997 68.7588 75.7129 68.9023 75.5762 69.0801C75.444 69.2578 75.3779 69.4492 75.3779 69.6543H74.1133C74.1133 69.39 74.1816 69.1279 74.3184 68.8682C74.4551 68.6084 74.651 68.3737 74.9062 68.1641C75.166 67.9499 75.4759 67.7812 75.8359 67.6582C76.2005 67.5306 76.6061 67.4668 77.0527 67.4668C77.5905 67.4668 78.0645 67.5579 78.4746 67.7402C78.8893 67.9225 79.2129 68.1982 79.4453 68.5674C79.6823 68.932 79.8008 69.39 79.8008 69.9414V73.3867C79.8008 73.6328 79.8213 73.8949 79.8623 74.1729C79.9079 74.4508 79.974 74.6901 80.0605 74.8906V75H78.7412C78.6774 74.8542 78.6273 74.6605 78.5908 74.4189C78.5544 74.1729 78.5361 73.945 78.5361 73.7354ZM78.7549 70.5156L78.7686 71.4043H77.4902C77.1302 71.4043 76.8089 71.4339 76.5264 71.4932C76.2438 71.5479 76.0068 71.6322 75.8154 71.7461C75.624 71.86 75.4782 72.0036 75.3779 72.1768C75.2777 72.3454 75.2275 72.5436 75.2275 72.7715C75.2275 73.0039 75.2799 73.2158 75.3848 73.4072C75.4896 73.5986 75.6468 73.7513 75.8564 73.8652C76.0706 73.9746 76.3327 74.0293 76.6426 74.0293C77.0299 74.0293 77.3717 73.9473 77.668 73.7832C77.9642 73.6191 78.1989 73.4186 78.3721 73.1816C78.5498 72.9447 78.6455 72.7145 78.6592 72.4912L79.1992 73.0996C79.1673 73.291 79.0807 73.5029 78.9395 73.7354C78.7982 73.9678 78.609 74.1911 78.3721 74.4053C78.1396 74.6149 77.8617 74.7904 77.5381 74.9316C77.2191 75.0684 76.859 75.1367 76.458 75.1367C75.9567 75.1367 75.5169 75.0387 75.1387 74.8428C74.765 74.6468 74.4733 74.3848 74.2637 74.0566C74.0586 73.724 73.9561 73.3525 73.9561 72.9424C73.9561 72.5459 74.0335 72.1973 74.1885 71.8965C74.3434 71.5911 74.5667 71.3382 74.8584 71.1377C75.1501 70.9326 75.501 70.7777 75.9111 70.6729C76.3213 70.568 76.7793 70.5156 77.2852 70.5156H78.7549ZM86.582 67.6035H87.7305V74.8428C87.7305 75.4945 87.5983 76.0505 87.334 76.5107C87.0697 76.971 86.7005 77.3197 86.2266 77.5566C85.7572 77.7982 85.2148 77.9189 84.5996 77.9189C84.3444 77.9189 84.0436 77.8779 83.6973 77.7959C83.3555 77.7184 83.0182 77.584 82.6855 77.3926C82.3574 77.2057 82.0817 76.9528 81.8584 76.6338L82.5215 75.8818C82.8314 76.2555 83.1549 76.5153 83.4922 76.6611C83.834 76.807 84.1712 76.8799 84.5039 76.8799C84.9049 76.8799 85.2513 76.8047 85.543 76.6543C85.8346 76.5039 86.0602 76.2806 86.2197 75.9844C86.3838 75.6927 86.4658 75.3327 86.4658 74.9043V69.2305L86.582 67.6035ZM81.4893 71.3838V71.2402C81.4893 70.6751 81.5553 70.1624 81.6875 69.7021C81.8242 69.2373 82.0179 68.8385 82.2686 68.5059C82.5238 68.1732 82.8314 67.918 83.1914 67.7402C83.5514 67.5579 83.957 67.4668 84.4082 67.4668C84.873 67.4668 85.2786 67.5488 85.625 67.7129C85.9759 67.8724 86.2721 68.1071 86.5137 68.417C86.7598 68.7223 86.9535 69.0915 87.0947 69.5244C87.236 69.9574 87.334 70.4473 87.3887 70.9941V71.623C87.3385 72.1654 87.2406 72.653 87.0947 73.0859C86.9535 73.5189 86.7598 73.888 86.5137 74.1934C86.2721 74.4987 85.9759 74.7334 85.625 74.8975C85.2741 75.057 84.8639 75.1367 84.3945 75.1367C83.9525 75.1367 83.5514 75.0433 83.1914 74.8564C82.8359 74.6696 82.5306 74.4076 82.2754 74.0703C82.0202 73.7331 81.8242 73.3366 81.6875 72.8809C81.5553 72.4206 81.4893 71.9215 81.4893 71.3838ZM82.7539 71.2402V71.3838C82.7539 71.7529 82.7904 72.0993 82.8633 72.4229C82.9408 72.7464 83.057 73.0312 83.2119 73.2773C83.3714 73.5234 83.5742 73.7171 83.8203 73.8584C84.0664 73.9951 84.3604 74.0635 84.7021 74.0635C85.1214 74.0635 85.4678 73.9746 85.7412 73.7969C86.0146 73.6191 86.2311 73.3844 86.3906 73.0928C86.5547 72.8011 86.6823 72.4844 86.7734 72.1426V70.4951C86.7233 70.2445 86.6458 70.0029 86.541 69.7705C86.4408 69.5335 86.3086 69.3239 86.1445 69.1416C85.985 68.9548 85.7868 68.8066 85.5498 68.6973C85.3128 68.5879 85.0348 68.5332 84.7158 68.5332C84.3695 68.5332 84.071 68.6061 83.8203 68.752C83.5742 68.8932 83.3714 69.0892 83.2119 69.3398C83.057 69.5859 82.9408 69.873 82.8633 70.2012C82.7904 70.5247 82.7539 70.8711 82.7539 71.2402ZM92.7207 75.1367C92.2057 75.1367 91.7386 75.0501 91.3193 74.877C90.9046 74.6992 90.5469 74.4508 90.2461 74.1318C89.9499 73.8128 89.722 73.4346 89.5625 72.9971C89.403 72.5596 89.3232 72.0811 89.3232 71.5615V71.2744C89.3232 70.6729 89.4121 70.1374 89.5898 69.668C89.7676 69.194 90.0091 68.793 90.3145 68.4648C90.6198 68.1367 90.9661 67.8883 91.3535 67.7197C91.7409 67.5511 92.1419 67.4668 92.5566 67.4668C93.0853 67.4668 93.541 67.5579 93.9238 67.7402C94.3112 67.9225 94.6279 68.1777 94.874 68.5059C95.1201 68.8294 95.3024 69.2122 95.4209 69.6543C95.5394 70.0918 95.5986 70.5703 95.5986 71.0898V71.6572H90.0752V70.625H94.334V70.5293C94.3158 70.2012 94.2474 69.8822 94.1289 69.5723C94.015 69.2624 93.8327 69.0072 93.582 68.8066C93.3314 68.6061 92.9896 68.5059 92.5566 68.5059C92.2695 68.5059 92.0052 68.5674 91.7637 68.6904C91.5221 68.8089 91.3148 68.9867 91.1416 69.2236C90.9684 69.4606 90.834 69.75 90.7383 70.0918C90.6426 70.4336 90.5947 70.8278 90.5947 71.2744V71.5615C90.5947 71.9124 90.6426 72.2428 90.7383 72.5527C90.8385 72.8581 90.9821 73.127 91.1689 73.3594C91.3604 73.5918 91.5905 73.7741 91.8594 73.9062C92.1328 74.0384 92.4427 74.1045 92.7891 74.1045C93.2357 74.1045 93.6139 74.0133 93.9238 73.8311C94.2337 73.6488 94.5049 73.4049 94.7373 73.0996L95.5029 73.708C95.3434 73.9495 95.1406 74.1797 94.8945 74.3984C94.6484 74.6172 94.3454 74.7949 93.9854 74.9316C93.6299 75.0684 93.2083 75.1367 92.7207 75.1367ZM103.46 73.9609V75H96.9453V74.0908L100.206 70.4609C100.607 70.0143 100.917 69.6361 101.136 69.3262C101.359 69.0117 101.514 68.7314 101.601 68.4854C101.692 68.2347 101.737 67.9795 101.737 67.7197C101.737 67.3916 101.669 67.0954 101.532 66.8311C101.4 66.5622 101.204 66.348 100.944 66.1885C100.685 66.029 100.37 65.9492 100.001 65.9492C99.5589 65.9492 99.1898 66.0358 98.8936 66.209C98.6019 66.3776 98.3831 66.6146 98.2373 66.9199C98.0915 67.2253 98.0186 67.5762 98.0186 67.9727H96.7539C96.7539 67.4121 96.877 66.8994 97.123 66.4346C97.3691 65.9697 97.7337 65.6006 98.2168 65.3271C98.6999 65.0492 99.2946 64.9102 100.001 64.9102C100.63 64.9102 101.168 65.0218 101.614 65.2451C102.061 65.4639 102.403 65.7738 102.64 66.1748C102.881 66.5713 103.002 67.0361 103.002 67.5693C103.002 67.861 102.952 68.1572 102.852 68.458C102.756 68.7542 102.621 69.0505 102.448 69.3467C102.28 69.6429 102.081 69.9346 101.854 70.2217C101.63 70.5088 101.391 70.7913 101.136 71.0693L98.4697 73.9609H103.46Z"
		fill="#29343D"/>
	<rect x="20" y="60" width="20" height="20" rx="4" fill="#EDF0F2"/>
	<path fill-rule="evenodd" clip-rule="evenodd"
		  d="M24.768 64.3094C24.9019 63.5058 25.5972 62.9167 26.4119 62.9167H33.5882C34.4029 62.9167 35.0983 63.5058 35.2322 64.3094L36.5552 72.2474C36.3368 72.1423 36.092 72.0834 35.8334 72.0834H24.1668C23.9082 72.0834 23.6634 72.1423 23.445 72.2474L24.768 64.3094Z"
		  fill="#0F8FFF"/>
	<path fill-rule="evenodd" clip-rule="evenodd"
		  d="M24.1667 72.9167C23.7065 72.9167 23.3334 73.2898 23.3334 73.7501L23.3334 75.8334C23.3334 76.2937 23.7065 76.6667 24.1667 76.6667H35.8334C36.2936 76.6667 36.6667 76.2937 36.6667 75.8334V73.7501C36.6667 73.2898 36.2936 72.9167 35.8334 72.9167H24.1667Z"
		  fill="#0F8FFF"/>
	<rect x="180" y="32" width="128" height="36" rx="4" fill="#F3F5F6"/>
	<path
		d="M223.164 51.835H224.477C224.408 52.4639 224.228 53.0267 223.937 53.5234C223.645 54.0202 223.232 54.4144 222.699 54.7061C222.166 54.9932 221.501 55.1367 220.703 55.1367C220.12 55.1367 219.589 55.0273 219.11 54.8086C218.636 54.5898 218.229 54.2799 217.887 53.8789C217.545 53.4733 217.281 52.988 217.094 52.4229C216.911 51.8532 216.82 51.2197 216.82 50.5225V49.5312C216.82 48.834 216.911 48.2028 217.094 47.6377C217.281 47.068 217.547 46.5804 217.894 46.1748C218.244 45.7692 218.666 45.457 219.158 45.2383C219.65 45.0195 220.204 44.9102 220.819 44.9102C221.571 44.9102 222.207 45.0514 222.727 45.334C223.246 45.6165 223.649 46.0085 223.937 46.5098C224.228 47.0065 224.408 47.583 224.477 48.2393H223.164C223.1 47.7744 222.982 47.3757 222.809 47.043C222.635 46.7057 222.389 46.446 222.07 46.2637C221.751 46.0814 221.334 45.9902 220.819 45.9902C220.377 45.9902 219.988 46.0745 219.65 46.2432C219.318 46.4118 219.037 46.651 218.81 46.9609C218.586 47.2708 218.418 47.6423 218.304 48.0752C218.19 48.5081 218.133 48.9889 218.133 49.5176V50.5225C218.133 51.0101 218.183 51.4681 218.283 51.8965C218.388 52.3249 218.545 52.7008 218.755 53.0244C218.965 53.348 219.231 53.6032 219.555 53.79C219.878 53.9723 220.261 54.0635 220.703 54.0635C221.264 54.0635 221.71 53.9746 222.043 53.7969C222.376 53.6191 222.626 53.3639 222.795 53.0312C222.968 52.6986 223.091 52.2998 223.164 51.835ZM230.444 53.7354V49.9277C230.444 49.6361 230.385 49.3831 230.267 49.1689C230.153 48.9502 229.979 48.7816 229.747 48.6631C229.515 48.5446 229.228 48.4854 228.886 48.4854C228.567 48.4854 228.286 48.54 228.045 48.6494C227.808 48.7588 227.621 48.9023 227.484 49.0801C227.352 49.2578 227.286 49.4492 227.286 49.6543H226.021C226.021 49.39 226.09 49.1279 226.227 48.8682C226.363 48.6084 226.559 48.3737 226.814 48.1641C227.074 47.9499 227.384 47.7812 227.744 47.6582C228.109 47.5306 228.514 47.4668 228.961 47.4668C229.499 47.4668 229.973 47.5579 230.383 47.7402C230.798 47.9225 231.121 48.1982 231.354 48.5674C231.59 48.932 231.709 49.39 231.709 49.9414V53.3867C231.709 53.6328 231.729 53.8949 231.771 54.1729C231.816 54.4508 231.882 54.6901 231.969 54.8906V55H230.649C230.586 54.8542 230.535 54.6605 230.499 54.4189C230.463 54.1729 230.444 53.945 230.444 53.7354ZM230.663 50.5156L230.677 51.4043H229.398C229.038 51.4043 228.717 51.4339 228.435 51.4932C228.152 51.5479 227.915 51.6322 227.724 51.7461C227.532 51.86 227.386 52.0036 227.286 52.1768C227.186 52.3454 227.136 52.5436 227.136 52.7715C227.136 53.0039 227.188 53.2158 227.293 53.4072C227.398 53.5986 227.555 53.7513 227.765 53.8652C227.979 53.9746 228.241 54.0293 228.551 54.0293C228.938 54.0293 229.28 53.9473 229.576 53.7832C229.872 53.6191 230.107 53.4186 230.28 53.1816C230.458 52.9447 230.554 52.7145 230.567 52.4912L231.107 53.0996C231.076 53.291 230.989 53.5029 230.848 53.7354C230.706 53.9678 230.517 54.1911 230.28 54.4053C230.048 54.6149 229.77 54.7904 229.446 54.9316C229.127 55.0684 228.767 55.1367 228.366 55.1367C227.865 55.1367 227.425 55.0387 227.047 54.8428C226.673 54.6468 226.382 54.3848 226.172 54.0566C225.967 53.724 225.864 53.3525 225.864 52.9424C225.864 52.5459 225.942 52.1973 226.097 51.8965C226.252 51.5911 226.475 51.3382 226.767 51.1377C227.058 50.9326 227.409 50.7777 227.819 50.6729C228.229 50.568 228.688 50.5156 229.193 50.5156H230.663ZM238.005 53.0381C238.005 52.8558 237.964 52.6872 237.882 52.5322C237.804 52.3727 237.643 52.2292 237.396 52.1016C237.155 51.9694 236.79 51.8555 236.303 51.7598C235.893 51.6732 235.521 51.5706 235.188 51.4521C234.86 51.3337 234.58 51.1901 234.348 51.0215C234.12 50.8529 233.944 50.6546 233.821 50.4268C233.698 50.1989 233.637 49.9323 233.637 49.627C233.637 49.3353 233.701 49.0596 233.828 48.7998C233.96 48.54 234.145 48.3099 234.382 48.1094C234.623 47.9089 234.913 47.7516 235.25 47.6377C235.587 47.5238 235.963 47.4668 236.378 47.4668C236.97 47.4668 237.476 47.5716 237.896 47.7812C238.315 47.9909 238.636 48.2712 238.859 48.6221C239.083 48.9684 239.194 49.3535 239.194 49.7773H237.93C237.93 49.5723 237.868 49.374 237.745 49.1826C237.627 48.9867 237.451 48.8249 237.219 48.6973C236.991 48.5697 236.711 48.5059 236.378 48.5059C236.027 48.5059 235.742 48.5605 235.523 48.6699C235.309 48.7747 235.152 48.9092 235.052 49.0732C234.956 49.2373 234.908 49.4105 234.908 49.5928C234.908 49.7295 234.931 49.8525 234.977 49.9619C235.027 50.0667 235.113 50.1647 235.236 50.2559C235.359 50.3424 235.533 50.4245 235.756 50.502C235.979 50.5794 236.264 50.6569 236.61 50.7344C237.216 50.8711 237.715 51.0352 238.107 51.2266C238.499 51.418 238.791 51.6527 238.982 51.9307C239.174 52.2087 239.27 52.5459 239.27 52.9424C239.27 53.266 239.201 53.5622 239.064 53.8311C238.932 54.0999 238.739 54.3324 238.483 54.5283C238.233 54.7197 237.932 54.8701 237.581 54.9795C237.235 55.0843 236.845 55.1367 236.412 55.1367C235.76 55.1367 235.209 55.0205 234.758 54.7881C234.307 54.5557 233.965 54.2549 233.732 53.8857C233.5 53.5166 233.384 53.127 233.384 52.7168H234.655C234.674 53.0632 234.774 53.3389 234.956 53.5439C235.138 53.7445 235.362 53.888 235.626 53.9746C235.89 54.0566 236.152 54.0977 236.412 54.0977C236.758 54.0977 237.048 54.0521 237.28 53.9609C237.517 53.8698 237.697 53.7445 237.82 53.585C237.943 53.4255 238.005 53.2432 238.005 53.0381ZM245.292 53.7354V49.9277C245.292 49.6361 245.233 49.3831 245.114 49.1689C245 48.9502 244.827 48.7816 244.595 48.6631C244.362 48.5446 244.075 48.4854 243.733 48.4854C243.414 48.4854 243.134 48.54 242.893 48.6494C242.656 48.7588 242.469 48.9023 242.332 49.0801C242.2 49.2578 242.134 49.4492 242.134 49.6543H240.869C240.869 49.39 240.938 49.1279 241.074 48.8682C241.211 48.6084 241.407 48.3737 241.662 48.1641C241.922 47.9499 242.232 47.7812 242.592 47.6582C242.956 47.5306 243.362 47.4668 243.809 47.4668C244.346 47.4668 244.82 47.5579 245.23 47.7402C245.645 47.9225 245.969 48.1982 246.201 48.5674C246.438 48.932 246.557 49.39 246.557 49.9414V53.3867C246.557 53.6328 246.577 53.8949 246.618 54.1729C246.664 54.4508 246.73 54.6901 246.816 54.8906V55H245.497C245.433 54.8542 245.383 54.6605 245.347 54.4189C245.31 54.1729 245.292 53.945 245.292 53.7354ZM245.511 50.5156L245.524 51.4043H244.246C243.886 51.4043 243.565 51.4339 243.282 51.4932C243 51.5479 242.763 51.6322 242.571 51.7461C242.38 51.86 242.234 52.0036 242.134 52.1768C242.034 52.3454 241.983 52.5436 241.983 52.7715C241.983 53.0039 242.036 53.2158 242.141 53.4072C242.245 53.5986 242.403 53.7513 242.612 53.8652C242.826 53.9746 243.089 54.0293 243.398 54.0293C243.786 54.0293 244.128 53.9473 244.424 53.7832C244.72 53.6191 244.955 53.4186 245.128 53.1816C245.306 52.9447 245.401 52.7145 245.415 52.4912L245.955 53.0996C245.923 53.291 245.837 53.5029 245.695 53.7354C245.554 53.9678 245.365 54.1911 245.128 54.4053C244.896 54.6149 244.618 54.7904 244.294 54.9316C243.975 55.0684 243.615 55.1367 243.214 55.1367C242.713 55.1367 242.273 55.0387 241.895 54.8428C241.521 54.6468 241.229 54.3848 241.02 54.0566C240.814 53.724 240.712 53.3525 240.712 52.9424C240.712 52.5459 240.789 52.1973 240.944 51.8965C241.099 51.5911 241.323 51.3382 241.614 51.1377C241.906 50.9326 242.257 50.7777 242.667 50.6729C243.077 50.568 243.535 50.5156 244.041 50.5156H245.511ZM256.4 49.709V50.3379C256.4 51.0853 256.307 51.7552 256.12 52.3477C255.933 52.9401 255.664 53.4437 255.313 53.8584C254.963 54.2731 254.541 54.5898 254.049 54.8086C253.561 55.0273 253.014 55.1367 252.408 55.1367C251.82 55.1367 251.28 55.0273 250.788 54.8086C250.3 54.5898 249.877 54.2731 249.517 53.8584C249.161 53.4437 248.885 52.9401 248.689 52.3477C248.493 51.7552 248.396 51.0853 248.396 50.3379V49.709C248.396 48.9616 248.491 48.2939 248.683 47.7061C248.879 47.1136 249.154 46.61 249.51 46.1953C249.865 45.776 250.287 45.457 250.774 45.2383C251.267 45.0195 251.807 44.9102 252.395 44.9102C253.001 44.9102 253.548 45.0195 254.035 45.2383C254.527 45.457 254.949 45.776 255.3 46.1953C255.655 46.61 255.926 47.1136 256.113 47.7061C256.305 48.2939 256.4 48.9616 256.4 49.709ZM255.095 50.3379V49.6953C255.095 49.1029 255.033 48.5788 254.91 48.123C254.792 47.6673 254.616 47.2845 254.384 46.9746C254.151 46.6647 253.867 46.43 253.529 46.2705C253.197 46.111 252.818 46.0312 252.395 46.0312C251.984 46.0312 251.613 46.111 251.28 46.2705C250.952 46.43 250.67 46.6647 250.433 46.9746C250.2 47.2845 250.02 47.6673 249.893 48.123C249.765 48.5788 249.701 49.1029 249.701 49.6953V50.3379C249.701 50.9349 249.765 51.4635 249.893 51.9238C250.02 52.3796 250.202 52.7646 250.439 53.0791C250.681 53.389 250.966 53.6237 251.294 53.7832C251.627 53.9427 251.998 54.0225 252.408 54.0225C252.837 54.0225 253.217 53.9427 253.55 53.7832C253.882 53.6237 254.163 53.389 254.391 53.0791C254.623 52.7646 254.799 52.3796 254.917 51.9238C255.035 51.4635 255.095 50.9349 255.095 50.3379ZM263.681 52.4844C263.681 52.252 263.644 52.0469 263.571 51.8691C263.503 51.6868 263.38 51.5228 263.202 51.377C263.029 51.2311 262.787 51.0921 262.478 50.96C262.172 50.8278 261.785 50.6934 261.315 50.5566C260.823 50.4108 260.379 50.249 259.982 50.0713C259.586 49.889 259.246 49.6816 258.964 49.4492C258.681 49.2168 258.465 48.9502 258.314 48.6494C258.164 48.3486 258.089 48.0046 258.089 47.6172C258.089 47.2298 258.169 46.8721 258.328 46.5439C258.488 46.2158 258.715 45.931 259.012 45.6895C259.312 45.4434 259.67 45.252 260.085 45.1152C260.5 44.9785 260.962 44.9102 261.473 44.9102C262.22 44.9102 262.854 45.0537 263.373 45.3408C263.897 45.6234 264.296 45.9948 264.569 46.4551C264.843 46.9108 264.979 47.3984 264.979 47.918H263.667C263.667 47.5443 263.587 47.2139 263.428 46.9268C263.268 46.6351 263.027 46.4072 262.703 46.2432C262.38 46.0745 261.969 45.9902 261.473 45.9902C261.003 45.9902 260.616 46.0609 260.311 46.2021C260.005 46.3434 259.777 46.5348 259.627 46.7764C259.481 47.0179 259.408 47.2936 259.408 47.6035C259.408 47.8132 259.451 48.0046 259.538 48.1777C259.629 48.3464 259.768 48.5036 259.955 48.6494C260.146 48.7952 260.388 48.9297 260.68 49.0527C260.976 49.1758 261.329 49.2943 261.739 49.4082C262.304 49.5677 262.792 49.7454 263.202 49.9414C263.612 50.1374 263.95 50.3584 264.214 50.6045C264.483 50.846 264.681 51.1217 264.809 51.4316C264.941 51.737 265.007 52.0833 265.007 52.4707C265.007 52.8763 264.925 53.2432 264.761 53.5713C264.597 53.8994 264.362 54.1797 264.057 54.4121C263.751 54.6445 263.384 54.8245 262.956 54.9521C262.532 55.0752 262.058 55.1367 261.534 55.1367C261.074 55.1367 260.62 55.0729 260.174 54.9453C259.732 54.8177 259.328 54.6263 258.964 54.3711C258.604 54.1159 258.314 53.8014 258.096 53.4277C257.882 53.0495 257.774 52.612 257.774 52.1152H259.087C259.087 52.457 259.153 52.751 259.285 52.9971C259.417 53.2386 259.597 53.4391 259.825 53.5986C260.058 53.7581 260.32 53.8766 260.611 53.9541C260.908 54.027 261.215 54.0635 261.534 54.0635C261.994 54.0635 262.384 53.9997 262.703 53.8721C263.022 53.7445 263.264 53.5622 263.428 53.3252C263.596 53.0882 263.681 52.8079 263.681 52.4844ZM276.662 49.3262V50.3994H271.275V49.3262H276.662ZM271.48 45.0469V55H270.161V45.0469H271.48ZM277.811 45.0469V55H276.498V45.0469H277.811ZM282.849 55H280.771L280.784 53.9268H282.849C283.56 53.9268 284.152 53.7786 284.626 53.4824C285.1 53.1816 285.455 52.7624 285.692 52.2246C285.934 51.6823 286.055 51.0488 286.055 50.3242V49.7158C286.055 49.1462 285.986 48.6403 285.85 48.1982C285.713 47.7516 285.512 47.3757 285.248 47.0703C284.984 46.7604 284.66 46.5257 284.277 46.3662C283.899 46.2067 283.464 46.127 282.972 46.127H280.729V45.0469H282.972C283.623 45.0469 284.218 45.1562 284.756 45.375C285.294 45.5892 285.756 45.9014 286.144 46.3115C286.535 46.7171 286.836 47.2093 287.046 47.7881C287.256 48.3623 287.36 49.0094 287.36 49.7295V50.3242C287.36 51.0443 287.256 51.6937 287.046 52.2725C286.836 52.8467 286.533 53.3366 286.137 53.7422C285.745 54.1478 285.271 54.46 284.715 54.6787C284.163 54.8929 283.541 55 282.849 55ZM281.475 45.0469V55H280.155V45.0469H281.475Z"
		fill="#29343D"/>
	<rect x="188" y="40" width="20" height="20" rx="4" fill="#EDF0F2"/>
	<path fill-rule="evenodd" clip-rule="evenodd"
		  d="M194.412 42.9167C193.597 42.9167 192.902 43.5058 192.768 44.3094L191.445 52.2474C191.663 52.1423 191.908 52.0834 192.167 52.0834H203.833C204.092 52.0834 204.337 52.1423 204.555 52.2474L203.232 44.3094C203.098 43.5058 202.403 42.9167 201.588 42.9167H194.412ZM195.917 47.9167C195.917 48.377 195.45 48.7501 194.875 48.7501C194.3 48.7501 193.833 48.377 193.833 47.9167C193.833 47.4565 194.3 47.0834 194.875 47.0834C195.45 47.0834 195.917 47.4565 195.917 47.9167ZM199.042 47.9167C199.042 48.377 198.575 48.7501 198 48.7501C197.425 48.7501 196.958 48.377 196.958 47.9167C196.958 47.4565 197.425 47.0834 198 47.0834C198.575 47.0834 199.042 47.4565 199.042 47.9167ZM201.125 48.7501C201.7 48.7501 202.167 48.377 202.167 47.9167C202.167 47.4565 201.7 47.0834 201.125 47.0834C200.55 47.0834 200.083 47.4565 200.083 47.9167C200.083 48.377 200.55 48.7501 201.125 48.7501Z"
		  fill="#0F8FFF"/>
	<path fill-rule="evenodd" clip-rule="evenodd"
		  d="M192.167 52.9167C191.706 52.9167 191.333 53.2898 191.333 53.7501L191.333 55.8334C191.333 56.2937 191.706 56.6667 192.167 56.6667H203.833C204.294 56.6667 204.667 56.2937 204.667 55.8334V53.7501C204.667 53.2898 204.294 52.9167 203.833 52.9167H192.167Z"
		  fill="#0F8FFF"/>
	<rect x="202" y="38" width="8" height="8" rx="4" fill="#0F8FFF" stroke="white"/>
	<path
		d="M207.477 43.4375V44H204.617V43.5166L206.006 42.002C206.158 41.8301 206.278 41.6816 206.366 41.5566C206.454 41.4316 206.516 41.3193 206.551 41.2197C206.588 41.1182 206.606 41.0195 206.606 40.9238C206.606 40.7891 206.581 40.6709 206.53 40.5693C206.481 40.4658 206.409 40.3848 206.313 40.3262C206.218 40.2656 206.102 40.2354 205.965 40.2354C205.807 40.2354 205.674 40.2695 205.566 40.3379C205.459 40.4062 205.378 40.501 205.323 40.6221C205.269 40.7412 205.241 40.8779 205.241 41.0322H204.535C204.535 40.7842 204.592 40.5576 204.705 40.3525C204.818 40.1455 204.982 39.9814 205.197 39.8604C205.412 39.7373 205.671 39.6758 205.974 39.6758C206.259 39.6758 206.501 39.7236 206.7 39.8193C206.899 39.915 207.051 40.0508 207.154 40.2266C207.26 40.4023 207.312 40.6104 207.312 40.8506C207.312 40.9834 207.291 41.1152 207.248 41.2461C207.205 41.377 207.144 41.5078 207.063 41.6387C206.985 41.7676 206.893 41.8975 206.785 42.0283C206.678 42.1572 206.56 42.2881 206.431 42.4209L205.508 43.4375H207.477Z"
		fill="white"/>
	<path
		d="M167.113 51.8456C168.296 50.9228 168.296 49.0772 167.113 48.1544L157.061 40.3104C156.086 39.55 154.696 40.2734 154.696 41.5408V45.3861H135.478C134.662 45.3861 134 46.0747 134 46.9241V53.0763C134 53.9257 134.662 54.6143 135.478 54.6143H154.696V58.4592C154.696 59.7266 156.086 60.45 157.061 59.6896L167.113 51.8456Z"
		fill="#2BD990"/>
</svg>
