<!--
  - * @LastEditors: zhanghengxin ezreal.zhang@icewhale.org
  - * @LastEditTime: 2023/7/19 下午7:26
  - * @FilePath: /CasaOS-UI/main/src/assets/img/learn/tips-insertMoreDrives.svg
  - * @Description:
  - *
  - * Copyright (c) 2023 by IceWhale, All Rights Reserved.
  -
  -->

<svg width="320" height="100" viewBox="0 0 320 100" fill="none" xmlns="http://www.w3.org/2000/svg">
	<mask id="mask0_2139_3123" style="mask-type:alpha" maskUnits="userSpaceOnUse" x="0" y="0" width="320" height="100">
		<rect width="320" height="100" fill="#D9D9D9"/>
	</mask>
	<g mask="url(#mask0_2139_3123)">
		<g filter="url(#filter0_f_2139_3123)">
			<path d="M51.8529 52H90.1471L102.5 69H39.5L51.8529 52Z" fill="url(#paint0_linear_2139_3123)"
				  fill-opacity="0.3"/>
		</g>
		<g filter="url(#filter1_f_2139_3123)">
			<path d="M53 57.5H88L92.5 69.5H48.5L53 57.5Z" fill="#899099" fill-opacity="0.8"/>
		</g>
		<path
			d="M51.75 68.5C49.6789 68.5 48 66.8211 48 64.75V57.25C48 55.1789 49.6789 53.5 51.75 53.5H89.25C91.3211 53.5 93 55.1789 93 57.25V64.75C93 66.8211 91.3211 68.5 89.25 68.5H51.75Z"
			fill="#899099"/>
		<path
			d="M52.4998 67C50.8429 67 49.4998 65.6569 49.4998 64V58C49.4998 56.3431 50.8429 55 52.4998 55H88.4998C90.1566 55 91.4998 56.3431 91.4998 58V64C91.4998 65.6569 90.1566 67 88.4998 67H52.4998Z"
			fill="white"/>
		<g filter="url(#filter2_f_2139_3123)">
			<path
				d="M54.0001 63.25C54.4143 63.25 54.7501 63.5858 54.7501 64C54.7501 64.4142 54.4143 64.75 54.0001 64.75C53.5859 64.75 53.2501 64.4142 53.2501 64C53.2501 63.5858 53.5859 63.25 54.0001 63.25Z"
				fill="#2BD990" fill-opacity="0.4"/>
		</g>
		<path
			d="M54.0001 63.25C54.4143 63.25 54.7501 63.5858 54.7501 64C54.7501 64.4142 54.4143 64.75 54.0001 64.75C53.5859 64.75 53.2501 64.4142 53.2501 64C53.2501 63.5858 53.5859 63.25 54.0001 63.25Z"
			fill="#2BD990"/>
		<path fill-rule="evenodd" clip-rule="evenodd"
			  d="M53.4376 64C53.4376 64.3107 53.6895 64.5625 54.0001 64.5625C54.3108 64.5625 54.5626 64.3107 54.5626 64C54.5626 63.6893 54.3108 63.4375 54.0001 63.4375C53.6895 63.4375 53.4376 63.6893 53.4376 64ZM54.0001 64.9375C53.4824 64.9375 53.0626 64.5178 53.0626 64C53.0626 63.4822 53.4824 63.0625 54.0001 63.0625C54.5179 63.0625 54.9376 63.4822 54.9376 64C54.9376 64.5178 54.5179 64.9375 54.0001 64.9375Z"
			  fill="white"/>
		<g filter="url(#filter3_f_2139_3123)">
			<path
				d="M54.0001 60.25C54.4143 60.25 54.7501 60.5858 54.7501 61C54.7501 61.4142 54.4143 61.75 54.0001 61.75C53.5859 61.75 53.2501 61.4142 53.2501 61C53.2501 60.5858 53.5859 60.25 54.0001 60.25Z"
				fill="#2BD990" fill-opacity="0.4"/>
		</g>
		<path
			d="M54.0001 60.25C54.4143 60.25 54.7501 60.5858 54.7501 61C54.7501 61.4142 54.4143 61.75 54.0001 61.75C53.5859 61.75 53.2501 61.4142 53.2501 61C53.2501 60.5858 53.5859 60.25 54.0001 60.25Z"
			fill="#2BD990"/>
		<path fill-rule="evenodd" clip-rule="evenodd"
			  d="M53.4376 61C53.4376 61.3107 53.6895 61.5625 54.0001 61.5625C54.3108 61.5625 54.5626 61.3107 54.5626 61C54.5626 60.6893 54.3108 60.4375 54.0001 60.4375C53.6895 60.4375 53.4376 60.6893 53.4376 61ZM54.0001 61.9375C53.4824 61.9375 53.0626 61.5178 53.0626 61C53.0626 60.4822 53.4824 60.0625 54.0001 60.0625C54.5179 60.0625 54.9376 60.4822 54.9376 61C54.9376 61.5178 54.5179 61.9375 54.0001 61.9375Z"
			  fill="white"/>
		<g filter="url(#filter4_f_2139_3123)">
			<path
				d="M54.0001 57.25C54.4143 57.25 54.7501 57.5858 54.7501 58C54.7501 58.4142 54.4143 58.75 54.0001 58.75C53.5859 58.75 53.2501 58.4142 53.2501 58C53.2501 57.5858 53.5859 57.25 54.0001 57.25Z"
				fill="#2BD990" fill-opacity="0.4"/>
		</g>
		<path
			d="M54.0001 57.25C54.4143 57.25 54.7501 57.5858 54.7501 58C54.7501 58.4142 54.4143 58.75 54.0001 58.75C53.5859 58.75 53.2501 58.4142 53.2501 58C53.2501 57.5858 53.5859 57.25 54.0001 57.25Z"
			fill="#2BD990"/>
		<path fill-rule="evenodd" clip-rule="evenodd"
			  d="M53.4376 58C53.4376 58.3107 53.6895 58.5625 54.0001 58.5625C54.3108 58.5625 54.5626 58.3107 54.5626 58C54.5626 57.6893 54.3108 57.4375 54.0001 57.4375C53.6895 57.4375 53.4376 57.6893 53.4376 58ZM54.0001 58.9375C53.4824 58.9375 53.0626 58.5178 53.0626 58C53.0626 57.4822 53.4824 57.0625 54.0001 57.0625C54.5179 57.0625 54.9376 57.4822 54.9376 58C54.9376 58.5178 54.5179 58.9375 54.0001 58.9375Z"
			  fill="white"/>
		<path
			d="M87.3748 64C87.1676 64 86.9998 63.8321 86.9998 63.625V58.375C86.9998 58.1679 87.1676 58 87.3748 58C87.5819 58 87.7498 58.1679 87.7498 58.375V63.625C87.7498 63.8321 87.5819 64 87.3748 64Z"
			fill="#E6EBF2"/>
		<path
			d="M85.125 64C84.9179 64 84.75 63.8321 84.75 63.625V58.375C84.75 58.1679 84.9179 58 85.125 58C85.3321 58 85.5 58.1679 85.5 58.375V63.625C85.5 63.8321 85.3321 64 85.125 64Z"
			fill="#E6EBF2"/>
		<path
			d="M82.8752 64C82.6681 64 82.5002 63.8321 82.5002 63.625V58.375C82.5002 58.1679 82.6681 58 82.8752 58C83.0824 58 83.2502 58.1679 83.2502 58.375V63.625C83.2502 63.8321 83.0824 64 82.8752 64Z"
			fill="#E6EBF2"/>
		<path
			d="M51.75 53.5C49.6789 53.5 48 51.8211 48 49.75V42.25C48 40.1789 49.6789 38.5 51.75 38.5H89.25C91.3211 38.5 93 40.1789 93 42.25V49.75C93 51.8211 91.3211 53.5 89.25 53.5H51.75Z"
			fill="#899099"/>
		<path
			d="M52.4998 52C50.8429 52 49.4998 50.6569 49.4998 49V43C49.4998 41.3431 50.8429 40 52.4998 40H88.4998C90.1566 40 91.4998 41.3431 91.4998 43V49C91.4998 50.6569 90.1566 52 88.4998 52H52.4998Z"
			fill="white"/>
		<g filter="url(#filter5_f_2139_3123)">
			<path
				d="M54.0001 48.25C54.4143 48.25 54.7501 48.5858 54.7501 49C54.7501 49.4142 54.4143 49.75 54.0001 49.75C53.5859 49.75 53.2501 49.4142 53.2501 49C53.2501 48.5858 53.5859 48.25 54.0001 48.25Z"
				fill="#2BD990" fill-opacity="0.4"/>
		</g>
		<path
			d="M54.0001 48.25C54.4143 48.25 54.7501 48.5858 54.7501 49C54.7501 49.4142 54.4143 49.75 54.0001 49.75C53.5859 49.75 53.2501 49.4142 53.2501 49C53.2501 48.5858 53.5859 48.25 54.0001 48.25Z"
			fill="#2BD990"/>
		<path fill-rule="evenodd" clip-rule="evenodd"
			  d="M53.4376 49C53.4376 49.3107 53.6895 49.5625 54.0001 49.5625C54.3108 49.5625 54.5626 49.3107 54.5626 49C54.5626 48.6893 54.3108 48.4375 54.0001 48.4375C53.6895 48.4375 53.4376 48.6893 53.4376 49ZM54.0001 49.9375C53.4824 49.9375 53.0626 49.5178 53.0626 49C53.0626 48.4822 53.4824 48.0625 54.0001 48.0625C54.5179 48.0625 54.9376 48.4822 54.9376 49C54.9376 49.5178 54.5179 49.9375 54.0001 49.9375Z"
			  fill="white"/>
		<g filter="url(#filter6_f_2139_3123)">
			<path
				d="M54.0001 45.25C54.4143 45.25 54.7501 45.5858 54.7501 46C54.7501 46.4142 54.4143 46.75 54.0001 46.75C53.5859 46.75 53.2501 46.4142 53.2501 46C53.2501 45.5858 53.5859 45.25 54.0001 45.25Z"
				fill="#2BD990" fill-opacity="0.4"/>
		</g>
		<path
			d="M54.0001 45.25C54.4143 45.25 54.7501 45.5858 54.7501 46C54.7501 46.4142 54.4143 46.75 54.0001 46.75C53.5859 46.75 53.2501 46.4142 53.2501 46C53.2501 45.5858 53.5859 45.25 54.0001 45.25Z"
			fill="#2BD990"/>
		<path fill-rule="evenodd" clip-rule="evenodd"
			  d="M53.4376 46C53.4376 46.3107 53.6895 46.5625 54.0001 46.5625C54.3108 46.5625 54.5626 46.3107 54.5626 46C54.5626 45.6893 54.3108 45.4375 54.0001 45.4375C53.6895 45.4375 53.4376 45.6893 53.4376 46ZM54.0001 46.9375C53.4824 46.9375 53.0626 46.5178 53.0626 46C53.0626 45.4822 53.4824 45.0625 54.0001 45.0625C54.5179 45.0625 54.9376 45.4822 54.9376 46C54.9376 46.5178 54.5179 46.9375 54.0001 46.9375Z"
			  fill="white"/>
		<g filter="url(#filter7_f_2139_3123)">
			<path
				d="M54.0001 42.25C54.4143 42.25 54.7501 42.5858 54.7501 43C54.7501 43.4142 54.4143 43.75 54.0001 43.75C53.5859 43.75 53.2501 43.4142 53.2501 43C53.2501 42.5858 53.5859 42.25 54.0001 42.25Z"
				fill="#2BD990" fill-opacity="0.4"/>
		</g>
		<path
			d="M54.0001 42.25C54.4143 42.25 54.7501 42.5858 54.7501 43C54.7501 43.4142 54.4143 43.75 54.0001 43.75C53.5859 43.75 53.2501 43.4142 53.2501 43C53.2501 42.5858 53.5859 42.25 54.0001 42.25Z"
			fill="#2BD990"/>
		<path fill-rule="evenodd" clip-rule="evenodd"
			  d="M53.4376 43C53.4376 43.3107 53.6895 43.5625 54.0001 43.5625C54.3108 43.5625 54.5626 43.3107 54.5626 43C54.5626 42.6893 54.3108 42.4375 54.0001 42.4375C53.6895 42.4375 53.4376 42.6893 53.4376 43ZM54.0001 43.9375C53.4824 43.9375 53.0626 43.5178 53.0626 43C53.0626 42.4822 53.4824 42.0625 54.0001 42.0625C54.5179 42.0625 54.9376 42.4822 54.9376 43C54.9376 43.5178 54.5179 43.9375 54.0001 43.9375Z"
			  fill="white"/>
		<path
			d="M87.3748 49C87.1676 49 86.9998 48.8321 86.9998 48.625V43.375C86.9998 43.1679 87.1676 43 87.3748 43C87.5819 43 87.7498 43.1679 87.7498 43.375V48.625C87.7498 48.8321 87.5819 49 87.3748 49Z"
			fill="#E6EBF2"/>
		<path
			d="M85.125 49C84.9179 49 84.75 48.8321 84.75 48.625V43.375C84.75 43.1679 84.9179 43 85.125 43C85.3321 43 85.5 43.1679 85.5 43.375V48.625C85.5 48.8321 85.3321 49 85.125 49Z"
			fill="#E6EBF2"/>
		<path
			d="M82.8752 49C82.6681 49 82.5002 48.8321 82.5002 48.625V43.375C82.5002 43.1679 82.6681 43 82.8752 43C83.0824 43 83.2502 43.1679 83.2502 43.375V48.625C83.2502 48.8321 83.0824 49 82.8752 49Z"
			fill="#E6EBF2"/>
		<g filter="url(#filter8_i_2139_3123)">
			<path
				d="M54.8523 14.5342C55.5615 13.2774 56.8927 12.5 58.3359 12.5H82.6644C84.1075 12.5 85.4388 13.2774 86.148 14.5342L92.9001 26.5H48.1001L54.8523 14.5342Z"
				fill="url(#paint1_linear_2139_3123)"/>
		</g>
		<path
			d="M51.75 38.5C49.6789 38.5 48 36.8211 48 34.75V27.25C48 25.1789 49.6789 23.5 51.75 23.5H89.25C91.3211 23.5 93 25.1789 93 27.25V34.75C93 36.8211 91.3211 38.5 89.25 38.5H51.75Z"
			fill="url(#paint2_linear_2139_3123)"/>
		<path
			d="M52.4998 37C50.8429 37 49.4998 35.6569 49.4998 34V28C49.4998 26.3431 50.8429 25 52.4998 25H88.4998C90.1566 25 91.4998 26.3431 91.4998 28V34C91.4998 35.6569 90.1566 37 88.4998 37H52.4998Z"
			fill="white"/>
		<g filter="url(#filter9_f_2139_3123)">
			<path
				d="M54.0001 33.25C54.4143 33.25 54.7501 33.5858 54.7501 34C54.7501 34.4142 54.4143 34.75 54.0001 34.75C53.5859 34.75 53.2501 34.4142 53.2501 34C53.2501 33.5858 53.5859 33.25 54.0001 33.25Z"
				fill="#2BD990" fill-opacity="0.4"/>
		</g>
		<path
			d="M54.0001 33.25C54.4143 33.25 54.7501 33.5858 54.7501 34C54.7501 34.4142 54.4143 34.75 54.0001 34.75C53.5859 34.75 53.2501 34.4142 53.2501 34C53.2501 33.5858 53.5859 33.25 54.0001 33.25Z"
			fill="#2BD990"/>
		<path fill-rule="evenodd" clip-rule="evenodd"
			  d="M53.4377 34C53.4377 34.3107 53.6896 34.5625 54.0002 34.5625C54.3109 34.5625 54.5627 34.3107 54.5627 34C54.5627 33.6893 54.3109 33.4375 54.0002 33.4375C53.6896 33.4375 53.4377 33.6893 53.4377 34ZM54.0002 34.9375C53.4825 34.9375 53.0627 34.5178 53.0627 34C53.0627 33.4822 53.4825 33.0625 54.0002 33.0625C54.518 33.0625 54.9377 33.4822 54.9377 34C54.9377 34.5178 54.518 34.9375 54.0002 34.9375Z"
			  fill="white"/>
		<g filter="url(#filter10_f_2139_3123)">
			<path
				d="M54.0001 30.25C54.4143 30.25 54.7501 30.5858 54.7501 31C54.7501 31.4142 54.4143 31.75 54.0001 31.75C53.5859 31.75 53.2501 31.4142 53.2501 31C53.2501 30.5858 53.5859 30.25 54.0001 30.25Z"
				fill="#2BD990" fill-opacity="0.4"/>
		</g>
		<path
			d="M54.0001 30.25C54.4143 30.25 54.7501 30.5858 54.7501 31C54.7501 31.4142 54.4143 31.75 54.0001 31.75C53.5859 31.75 53.2501 31.4142 53.2501 31C53.2501 30.5858 53.5859 30.25 54.0001 30.25Z"
			fill="#2BD990"/>
		<path fill-rule="evenodd" clip-rule="evenodd"
			  d="M53.4377 31C53.4377 31.3107 53.6896 31.5625 54.0002 31.5625C54.3109 31.5625 54.5627 31.3107 54.5627 31C54.5627 30.6893 54.3109 30.4375 54.0002 30.4375C53.6896 30.4375 53.4377 30.6893 53.4377 31ZM54.0002 31.9375C53.4825 31.9375 53.0627 31.5178 53.0627 31C53.0627 30.4822 53.4825 30.0625 54.0002 30.0625C54.518 30.0625 54.9377 30.4822 54.9377 31C54.9377 31.5178 54.518 31.9375 54.0002 31.9375Z"
			  fill="white"/>
		<g filter="url(#filter11_f_2139_3123)">
			<path
				d="M54.0001 27.25C54.4143 27.25 54.7501 27.5858 54.7501 28C54.7501 28.4142 54.4143 28.75 54.0001 28.75C53.5859 28.75 53.2501 28.4142 53.2501 28C53.2501 27.5858 53.5859 27.25 54.0001 27.25Z"
				fill="#2BD990" fill-opacity="0.4"/>
		</g>
		<path
			d="M54.0001 27.25C54.4143 27.25 54.7501 27.5858 54.7501 28C54.7501 28.4142 54.4143 28.75 54.0001 28.75C53.5859 28.75 53.2501 28.4142 53.2501 28C53.2501 27.5858 53.5859 27.25 54.0001 27.25Z"
			fill="#2BD990"/>
		<path fill-rule="evenodd" clip-rule="evenodd"
			  d="M53.4377 28C53.4377 28.3107 53.6896 28.5625 54.0002 28.5625C54.3109 28.5625 54.5627 28.3107 54.5627 28C54.5627 27.6893 54.3109 27.4375 54.0002 27.4375C53.6896 27.4375 53.4377 27.6893 53.4377 28ZM54.0002 28.9375C53.4825 28.9375 53.0627 28.5178 53.0627 28C53.0627 27.4822 53.4825 27.0625 54.0002 27.0625C54.518 27.0625 54.9377 27.4822 54.9377 28C54.9377 28.5178 54.518 28.9375 54.0002 28.9375Z"
			  fill="white"/>
		<path
			d="M87.3748 34C87.1676 34 86.9998 33.8321 86.9998 33.625V28.375C86.9998 28.1679 87.1676 28 87.3748 28C87.5819 28 87.7498 28.1679 87.7498 28.375V33.625C87.7498 33.8321 87.5819 34 87.3748 34Z"
			fill="#E6EBF2"/>
		<path
			d="M85.125 34C84.9179 34 84.75 33.8321 84.75 33.625V28.375C84.75 28.1679 84.9179 28 85.125 28C85.3321 28 85.5 28.1679 85.5 28.375V33.625C85.5 33.8321 85.3321 34 85.125 34Z"
			fill="#E6EBF2"/>
		<path
			d="M82.8752 34C82.6681 34 82.5002 33.8321 82.5002 33.625V28.375C82.5002 28.1679 82.6681 28 82.8752 28C83.0824 28 83.2502 28.1679 83.2502 28.375V33.625C83.2502 33.8321 83.0824 34 82.8752 34Z"
			fill="#E6EBF2"/>
		<path
			d="M143.113 57.8456C144.296 56.9228 144.296 55.0772 143.113 54.1544L133.061 46.3104C132.086 45.55 130.696 46.2734 130.696 47.5408V51.3861H111.478C110.662 51.3861 110 52.0747 110 52.9241V59.0763C110 59.9257 110.662 60.6143 111.478 60.6143H130.696V64.4592C130.696 65.7266 132.086 66.45 133.061 65.6896L143.113 57.8456Z"
			fill="#2BD990"/>
		<g filter="url(#filter12_f_2139_3123)">
			<path d="M173.5 66H261.5L280.5 90H155.5L173.5 66Z" fill="#6C7480" fill-opacity="0.24"/>
		</g>
		<g filter="url(#filter13_f_2139_3123)">
			<path
				d="M168 67H270.5L277.11 85.6646C278.032 88.2678 276.102 91 273.34 91H165.55C162.819 91 160.892 88.3252 161.755 85.7351L168 67Z"
				fill="#88909B" fill-opacity="0.8"/>
		</g>
		<g filter="url(#filter14_iiii_2139_3123)">
			<path
				d="M160.5 34.0052C160.5 29.0838 164.49 25.0942 169.411 25.0942H269.728C274.649 25.0942 278.639 29.0838 278.639 34.0052V80.5894C278.639 85.5108 274.649 89.5003 269.728 89.5003H169.411C164.49 89.5003 160.5 85.5108 160.5 80.5894V34.0052Z"
				fill="url(#paint3_linear_2139_3123)"/>
		</g>
		<g filter="url(#filter15_ii_2139_3123)">
			<path fill-rule="evenodd" clip-rule="evenodd"
				  d="M174.266 9.5C170.823 9.5 167.766 11.7034 166.677 14.9702L161.963 29.1114C163.556 26.6915 166.297 25.0942 169.411 25.0942H269.728C272.675 25.0942 275.287 26.5247 276.91 28.729L272.323 14.9702C271.234 11.7034 268.177 9.5 264.734 9.5H174.266ZM160.514 33.5C160.515 33.4829 160.516 33.4658 160.517 33.4487L160.5 33.5H160.514Z"
				  fill="url(#paint4_linear_2139_3123)"/>
		</g>
		<g filter="url(#filter16_i_2139_3123)">
			<path
				d="M172.381 35.4904C172.381 32.2095 175.041 29.5498 178.322 29.5498H268.243C271.524 29.5498 274.184 32.2095 274.184 35.4904V74.1044C274.184 77.3853 271.524 80.045 268.243 80.045H178.322C175.041 80.045 172.381 77.3853 172.381 74.1044V35.4904Z"
				fill="#B8C0CC"/>
		</g>
		<path fill-rule="evenodd" clip-rule="evenodd"
			  d="M178.322 28.8066H268.243C271.934 28.8066 274.926 31.7988 274.926 35.4898V74.1038C274.926 77.7948 271.934 80.787 268.243 80.787H178.322C174.631 80.787 171.639 77.7948 171.639 74.1038V35.4898C171.639 31.7988 174.631 28.8066 178.322 28.8066ZM178.322 29.5492C175.041 29.5492 172.381 32.2089 172.381 35.4898V74.1038C172.381 77.3847 175.041 80.0444 178.322 80.0444H268.243C271.524 80.0444 274.183 77.3847 274.183 74.1038V35.4898C274.183 32.2089 271.524 29.5492 268.243 29.5492H178.322Z"
			  fill="#CFD8E5"/>
		<g filter="url(#filter17_f_2139_3123)">
			<path
				d="M167.184 35.1187C167.184 35.7339 166.685 36.2326 166.07 36.2326C165.455 36.2326 164.956 35.7339 164.956 35.1187C164.956 34.5036 165.455 34.0049 166.07 34.0049C166.685 34.0049 167.184 34.5036 167.184 35.1187Z"
				fill="white" fill-opacity="0.4"/>
		</g>
		<path
			d="M167.184 35.1187C167.184 35.7339 166.685 36.2326 166.07 36.2326C165.455 36.2326 164.956 35.7339 164.956 35.1187C164.956 34.5036 165.455 34.0049 166.07 34.0049C166.685 34.0049 167.184 34.5036 167.184 35.1187Z"
			fill="white"/>
		<g filter="url(#filter18_f_2139_3123)">
			<path
				d="M167.183 39.5748C167.183 40.19 166.685 40.6887 166.07 40.6887C165.454 40.6887 164.956 40.19 164.956 39.5748C164.956 38.9596 165.454 38.4609 166.07 38.4609C166.685 38.4609 167.183 38.9596 167.183 39.5748Z"
				fill="white" fill-opacity="0.4"/>
		</g>
		<path
			d="M167.183 39.5748C167.183 40.19 166.685 40.6887 166.07 40.6887C165.454 40.6887 164.956 40.19 164.956 39.5748C164.956 38.9596 165.454 38.4609 166.07 38.4609C166.685 38.4609 167.183 38.9596 167.183 39.5748Z"
			fill="white"/>
		<g filter="url(#filter19_f_2139_3123)">
			<path
				d="M167.183 44.0299C167.183 44.6451 166.685 45.1437 166.069 45.1437C165.454 45.1437 164.956 44.6451 164.956 44.0299C164.956 43.4147 165.454 42.916 166.069 42.916C166.685 42.916 167.183 43.4147 167.183 44.0299Z"
				fill="white" fill-opacity="0.4"/>
		</g>
		<path
			d="M167.183 44.0299C167.183 44.6451 166.685 45.1437 166.069 45.1437C165.454 45.1437 164.956 44.6451 164.956 44.0299C164.956 43.4147 165.454 42.916 166.069 42.916C166.685 42.916 167.183 43.4147 167.183 44.0299Z"
			fill="white"/>
		<g filter="url(#filter20_f_2139_3123)">
			<path
				d="M167.183 48.4854C167.183 49.1006 166.685 49.5993 166.069 49.5993C165.454 49.5993 164.956 49.1006 164.956 48.4854C164.956 47.8703 165.454 47.3716 166.069 47.3716C166.685 47.3716 167.183 47.8703 167.183 48.4854Z"
				fill="white" fill-opacity="0.4"/>
		</g>
		<path
			d="M167.183 48.4854C167.183 49.1006 166.685 49.5993 166.069 49.5993C165.454 49.5993 164.956 49.1006 164.956 48.4854C164.956 47.8703 165.454 47.3716 166.069 47.3716C166.685 47.3716 167.183 47.8703 167.183 48.4854Z"
			fill="white"/>
		<path
			d="M175.352 36.2329C175.352 34.1823 177.014 32.52 179.064 32.52H186.49C188.541 32.52 190.203 34.1823 190.203 36.2329V73.3617C190.203 75.4123 188.541 77.0746 186.49 77.0746H179.064C177.014 77.0746 175.352 75.4123 175.352 73.3617V36.2329Z"
			fill="#899099"/>
		<path
			d="M176.837 36.9752C176.837 35.3347 178.167 34.0049 179.807 34.0049H185.748C187.388 34.0049 188.718 35.3347 188.718 36.9752V72.6188C188.718 74.2593 187.388 75.5892 185.748 75.5892H179.807C178.167 75.5892 176.837 74.2593 176.837 72.6188V36.9752Z"
			fill="white"/>
		<g filter="url(#filter21_f_2139_3123)">
			<path
				d="M180.55 38.4613C180.55 38.8714 180.217 39.2039 179.807 39.2039C179.397 39.2039 179.064 38.8714 179.064 38.4613C179.064 38.0512 179.397 37.7188 179.807 37.7188C180.217 37.7188 180.55 38.0512 180.55 38.4613Z"
				fill="#2BD990" fill-opacity="0.4"/>
		</g>
		<path
			d="M180.55 38.4613C180.55 38.8714 180.217 39.2039 179.807 39.2039C179.397 39.2039 179.064 38.8714 179.064 38.4613C179.064 38.0512 179.397 37.7188 179.807 37.7188C180.217 37.7188 180.55 38.0512 180.55 38.4613Z"
			fill="#2BD990"/>
		<path fill-rule="evenodd" clip-rule="evenodd"
			  d="M179.807 37.904C179.499 37.904 179.25 38.1534 179.25 38.4609C179.25 38.7685 179.499 39.0179 179.807 39.0179C180.114 39.0179 180.364 38.7685 180.364 38.4609C180.364 38.1534 180.114 37.904 179.807 37.904ZM178.879 38.4609C178.879 37.9483 179.294 37.5327 179.807 37.5327C180.32 37.5327 180.735 37.9483 180.735 38.4609C180.735 38.9736 180.32 39.3892 179.807 39.3892C179.294 39.3892 178.879 38.9736 178.879 38.4609Z"
			  fill="white"/>
		<g filter="url(#filter22_f_2139_3123)">
			<path
				d="M183.52 38.4613C183.52 38.8714 183.188 39.2039 182.777 39.2039C182.367 39.2039 182.035 38.8714 182.035 38.4613C182.035 38.0512 182.367 37.7188 182.777 37.7188C183.188 37.7188 183.52 38.0512 183.52 38.4613Z"
				fill="#2BD990" fill-opacity="0.4"/>
		</g>
		<path
			d="M183.52 38.4613C183.52 38.8714 183.188 39.2039 182.777 39.2039C182.367 39.2039 182.035 38.8714 182.035 38.4613C182.035 38.0512 182.367 37.7188 182.777 37.7188C183.188 37.7188 183.52 38.0512 183.52 38.4613Z"
			fill="#2BD990"/>
		<path fill-rule="evenodd" clip-rule="evenodd"
			  d="M182.777 37.904C182.47 37.904 182.22 38.1534 182.22 38.4609C182.22 38.7685 182.47 39.0179 182.777 39.0179C183.085 39.0179 183.334 38.7685 183.334 38.4609C183.334 38.1534 183.085 37.904 182.777 37.904ZM181.849 38.4609C181.849 37.9483 182.265 37.5327 182.777 37.5327C183.29 37.5327 183.706 37.9483 183.706 38.4609C183.706 38.9736 183.29 39.3892 182.777 39.3892C182.265 39.3892 181.849 38.9736 181.849 38.4609Z"
			  fill="white"/>
		<g filter="url(#filter23_f_2139_3123)">
			<path
				d="M186.49 38.4613C186.49 38.8714 186.158 39.2039 185.748 39.2039C185.338 39.2039 185.005 38.8714 185.005 38.4613C185.005 38.0512 185.338 37.7188 185.748 37.7188C186.158 37.7188 186.49 38.0512 186.49 38.4613Z"
				fill="#2BD990" fill-opacity="0.4"/>
		</g>
		<path
			d="M186.49 38.4613C186.49 38.8714 186.158 39.2039 185.748 39.2039C185.338 39.2039 185.005 38.8714 185.005 38.4613C185.005 38.0512 185.338 37.7188 185.748 37.7188C186.158 37.7188 186.49 38.0512 186.49 38.4613Z"
			fill="#2BD990"/>
		<path fill-rule="evenodd" clip-rule="evenodd"
			  d="M185.748 37.904C185.44 37.904 185.191 38.1534 185.191 38.4609C185.191 38.7685 185.44 39.0179 185.748 39.0179C186.055 39.0179 186.304 38.7685 186.304 38.4609C186.304 38.1534 186.055 37.904 185.748 37.904ZM184.819 38.4609C184.819 37.9483 185.235 37.5327 185.748 37.5327C186.26 37.5327 186.676 37.9483 186.676 38.4609C186.676 38.9736 186.26 39.3892 185.748 39.3892C185.235 39.3892 184.819 38.9736 184.819 38.4609Z"
			  fill="white"/>
		<path
			d="M179.807 71.5051C179.807 71.3 179.973 71.1338 180.178 71.1338H185.376C185.581 71.1338 185.748 71.3 185.748 71.5051C185.748 71.7101 185.581 71.8764 185.376 71.8764H180.178C179.973 71.8764 179.807 71.7101 179.807 71.5051Z"
			fill="#E6EBF2"/>
		<path
			d="M179.807 69.2775C179.807 69.0725 179.973 68.9062 180.178 68.9062H185.376C185.581 68.9062 185.748 69.0725 185.748 69.2775C185.748 69.4826 185.581 69.6488 185.376 69.6488H180.178C179.973 69.6488 179.807 69.4826 179.807 69.2775Z"
			fill="#E6EBF2"/>
		<path
			d="M179.807 67.05C179.807 66.8449 179.973 66.6787 180.178 66.6787H185.376C185.581 66.6787 185.748 66.8449 185.748 67.05C185.748 67.2551 185.581 67.4213 185.376 67.4213H180.178C179.973 67.4213 179.807 67.2551 179.807 67.05Z"
			fill="#E6EBF2"/>
		<path
			d="M191.688 36.2324C191.688 34.1818 193.35 32.5195 195.401 32.5195H202.827C204.877 32.5195 206.54 34.1818 206.54 36.2324V73.3612C206.54 75.4118 204.877 77.0741 202.827 77.0741H195.401C193.35 77.0741 191.688 75.4118 191.688 73.3612V36.2324Z"
			fill="#899099"/>
		<path
			d="M193.173 36.9752C193.173 35.3347 194.503 34.0049 196.144 34.0049H202.084C203.725 34.0049 205.055 35.3347 205.055 36.9752V72.6188C205.055 74.2593 203.725 75.5892 202.084 75.5892H196.144C194.503 75.5892 193.173 74.2593 193.173 72.6188V36.9752Z"
			fill="white"/>
		<g filter="url(#filter24_f_2139_3123)">
			<path
				d="M196.886 38.4603C196.886 38.8705 196.554 39.2029 196.144 39.2029C195.734 39.2029 195.401 38.8705 195.401 38.4603C195.401 38.0502 195.734 37.7178 196.144 37.7178C196.554 37.7178 196.886 38.0502 196.886 38.4603Z"
				fill="#2BD990" fill-opacity="0.4"/>
		</g>
		<path
			d="M196.886 38.4603C196.886 38.8705 196.554 39.2029 196.144 39.2029C195.734 39.2029 195.401 38.8705 195.401 38.4603C195.401 38.0502 195.734 37.7178 196.144 37.7178C196.554 37.7178 196.886 38.0502 196.886 38.4603Z"
			fill="#2BD990"/>
		<path fill-rule="evenodd" clip-rule="evenodd"
			  d="M196.144 37.9035C195.836 37.9035 195.587 38.1529 195.587 38.4604C195.587 38.768 195.836 39.0174 196.144 39.0174C196.451 39.0174 196.7 38.768 196.7 38.4604C196.7 38.1529 196.451 37.9035 196.144 37.9035ZM195.215 38.4604C195.215 37.9478 195.631 37.5322 196.144 37.5322C196.656 37.5322 197.072 37.9478 197.072 38.4604C197.072 38.9731 196.656 39.3887 196.144 39.3887C195.631 39.3887 195.215 38.9731 195.215 38.4604Z"
			  fill="white"/>
		<g filter="url(#filter25_f_2139_3123)">
			<path
				d="M199.857 38.4603C199.857 38.8705 199.524 39.2029 199.114 39.2029C198.704 39.2029 198.372 38.8705 198.372 38.4603C198.372 38.0502 198.704 37.7178 199.114 37.7178C199.524 37.7178 199.857 38.0502 199.857 38.4603Z"
				fill="#2BD990" fill-opacity="0.4"/>
		</g>
		<path
			d="M199.857 38.4603C199.857 38.8705 199.524 39.2029 199.114 39.2029C198.704 39.2029 198.372 38.8705 198.372 38.4603C198.372 38.0502 198.704 37.7178 199.114 37.7178C199.524 37.7178 199.857 38.0502 199.857 38.4603Z"
			fill="#2BD990"/>
		<path fill-rule="evenodd" clip-rule="evenodd"
			  d="M199.114 37.9035C198.806 37.9035 198.557 38.1529 198.557 38.4604C198.557 38.768 198.806 39.0174 199.114 39.0174C199.421 39.0174 199.671 38.768 199.671 38.4604C199.671 38.1529 199.421 37.9035 199.114 37.9035ZM198.186 38.4604C198.186 37.9478 198.601 37.5322 199.114 37.5322C199.627 37.5322 200.042 37.9478 200.042 38.4604C200.042 38.9731 199.627 39.3887 199.114 39.3887C198.601 39.3887 198.186 38.9731 198.186 38.4604Z"
			  fill="white"/>
		<g filter="url(#filter26_f_2139_3123)">
			<path
				d="M202.827 38.4603C202.827 38.8705 202.494 39.2029 202.084 39.2029C201.674 39.2029 201.342 38.8705 201.342 38.4603C201.342 38.0502 201.674 37.7178 202.084 37.7178C202.494 37.7178 202.827 38.0502 202.827 38.4603Z"
				fill="#2BD990" fill-opacity="0.4"/>
		</g>
		<path
			d="M202.827 38.4603C202.827 38.8705 202.494 39.2029 202.084 39.2029C201.674 39.2029 201.342 38.8705 201.342 38.4603C201.342 38.0502 201.674 37.7178 202.084 37.7178C202.494 37.7178 202.827 38.0502 202.827 38.4603Z"
			fill="#2BD990"/>
		<path fill-rule="evenodd" clip-rule="evenodd"
			  d="M202.084 37.9035C201.777 37.9035 201.527 38.1529 201.527 38.4604C201.527 38.768 201.777 39.0174 202.084 39.0174C202.392 39.0174 202.641 38.768 202.641 38.4604C202.641 38.1529 202.392 37.9035 202.084 37.9035ZM201.156 38.4604C201.156 37.9478 201.571 37.5322 202.084 37.5322C202.597 37.5322 203.012 37.9478 203.012 38.4604C203.012 38.9731 202.597 39.3887 202.084 39.3887C201.571 39.3887 201.156 38.9731 201.156 38.4604Z"
			  fill="white"/>
		<path
			d="M196.144 71.5051C196.144 71.3 196.31 71.1338 196.515 71.1338H201.713C201.918 71.1338 202.084 71.3 202.084 71.5051C202.084 71.7101 201.918 71.8764 201.713 71.8764H196.515C196.31 71.8764 196.144 71.7101 196.144 71.5051Z"
			fill="#E6EBF2"/>
		<path
			d="M196.144 69.277C196.144 69.072 196.31 68.9058 196.515 68.9058H201.713C201.918 68.9058 202.084 69.072 202.084 69.277C202.084 69.4821 201.918 69.6483 201.713 69.6483H196.515C196.31 69.6483 196.144 69.4821 196.144 69.277Z"
			fill="#E6EBF2"/>
		<path
			d="M196.144 67.05C196.144 66.8449 196.31 66.6787 196.515 66.6787H201.713C201.918 66.6787 202.084 66.8449 202.084 67.05C202.084 67.2551 201.918 67.4213 201.713 67.4213H196.515C196.31 67.4213 196.144 67.2551 196.144 67.05Z"
			fill="#E6EBF2"/>
		<path
			d="M208.025 36.2324C208.025 34.1818 209.687 32.5195 211.738 32.5195H219.164C221.214 32.5195 222.876 34.1818 222.876 36.2324V73.3612C222.876 75.4118 221.214 77.0741 219.164 77.0741H211.738C209.687 77.0741 208.025 75.4118 208.025 73.3612V36.2324Z"
			fill="#899099"/>
		<path
			d="M209.51 36.9752C209.51 35.3347 210.84 34.0049 212.481 34.0049H218.421C220.062 34.0049 221.391 35.3347 221.391 36.9752V72.6188C221.391 74.2593 220.062 75.5892 218.421 75.5892H212.481C210.84 75.5892 209.51 74.2593 209.51 72.6188V36.9752Z"
			fill="white"/>
		<g filter="url(#filter27_f_2139_3123)">
			<path
				d="M213.223 38.4603C213.223 38.8705 212.891 39.2029 212.481 39.2029C212.07 39.2029 211.738 38.8705 211.738 38.4603C211.738 38.0502 212.07 37.7178 212.481 37.7178C212.891 37.7178 213.223 38.0502 213.223 38.4603Z"
				fill="#2BD990" fill-opacity="0.4"/>
		</g>
		<path
			d="M213.223 38.4603C213.223 38.8705 212.891 39.2029 212.481 39.2029C212.07 39.2029 211.738 38.8705 211.738 38.4603C211.738 38.0502 212.07 37.7178 212.481 37.7178C212.891 37.7178 213.223 38.0502 213.223 38.4603Z"
			fill="#2BD990"/>
		<path fill-rule="evenodd" clip-rule="evenodd"
			  d="M212.48 37.9035C212.173 37.9035 211.924 38.1529 211.924 38.4604C211.924 38.768 212.173 39.0174 212.48 39.0174C212.788 39.0174 213.037 38.768 213.037 38.4604C213.037 38.1529 212.788 37.9035 212.48 37.9035ZM211.552 38.4604C211.552 37.9478 211.968 37.5322 212.48 37.5322C212.993 37.5322 213.409 37.9478 213.409 38.4604C213.409 38.9731 212.993 39.3887 212.48 39.3887C211.968 39.3887 211.552 38.9731 211.552 38.4604Z"
			  fill="white"/>
		<g filter="url(#filter28_f_2139_3123)">
			<path
				d="M216.194 38.4603C216.194 38.8705 215.861 39.2029 215.451 39.2029C215.041 39.2029 214.708 38.8705 214.708 38.4603C214.708 38.0502 215.041 37.7178 215.451 37.7178C215.861 37.7178 216.194 38.0502 216.194 38.4603Z"
				fill="#2BD990" fill-opacity="0.4"/>
		</g>
		<path
			d="M216.194 38.4603C216.194 38.8705 215.861 39.2029 215.451 39.2029C215.041 39.2029 214.708 38.8705 214.708 38.4603C214.708 38.0502 215.041 37.7178 215.451 37.7178C215.861 37.7178 216.194 38.0502 216.194 38.4603Z"
			fill="#2BD990"/>
		<path fill-rule="evenodd" clip-rule="evenodd"
			  d="M215.451 37.9035C215.143 37.9035 214.894 38.1529 214.894 38.4604C214.894 38.768 215.143 39.0174 215.451 39.0174C215.759 39.0174 216.008 38.768 216.008 38.4604C216.008 38.1529 215.759 37.9035 215.451 37.9035ZM214.523 38.4604C214.523 37.9478 214.938 37.5322 215.451 37.5322C215.964 37.5322 216.379 37.9478 216.379 38.4604C216.379 38.9731 215.964 39.3887 215.451 39.3887C214.938 39.3887 214.523 38.9731 214.523 38.4604Z"
			  fill="white"/>
		<g filter="url(#filter29_f_2139_3123)">
			<path
				d="M219.164 38.4603C219.164 38.8705 218.831 39.2029 218.421 39.2029C218.011 39.2029 217.679 38.8705 217.679 38.4603C217.679 38.0502 218.011 37.7178 218.421 37.7178C218.831 37.7178 219.164 38.0502 219.164 38.4603Z"
				fill="#2BD990" fill-opacity="0.4"/>
		</g>
		<path
			d="M219.164 38.4603C219.164 38.8705 218.831 39.2029 218.421 39.2029C218.011 39.2029 217.679 38.8705 217.679 38.4603C217.679 38.0502 218.011 37.7178 218.421 37.7178C218.831 37.7178 219.164 38.0502 219.164 38.4603Z"
			fill="#2BD990"/>
		<path fill-rule="evenodd" clip-rule="evenodd"
			  d="M218.421 37.9035C218.114 37.9035 217.864 38.1529 217.864 38.4604C217.864 38.768 218.114 39.0174 218.421 39.0174C218.729 39.0174 218.978 38.768 218.978 38.4604C218.978 38.1529 218.729 37.9035 218.421 37.9035ZM217.493 38.4604C217.493 37.9478 217.908 37.5322 218.421 37.5322C218.934 37.5322 219.349 37.9478 219.349 38.4604C219.349 38.9731 218.934 39.3887 218.421 39.3887C217.908 39.3887 217.493 38.9731 217.493 38.4604Z"
			  fill="white"/>
		<path
			d="M212.48 71.5051C212.48 71.3 212.647 71.1338 212.852 71.1338H218.05C218.255 71.1338 218.421 71.3 218.421 71.5051C218.421 71.7101 218.255 71.8764 218.05 71.8764H212.852C212.647 71.8764 212.48 71.7101 212.48 71.5051Z"
			fill="#E6EBF2"/>
		<path
			d="M212.48 69.277C212.48 69.072 212.647 68.9058 212.852 68.9058H218.05C218.255 68.9058 218.421 69.072 218.421 69.277C218.421 69.4821 218.255 69.6483 218.05 69.6483H212.852C212.647 69.6483 212.48 69.4821 212.48 69.277Z"
			fill="#E6EBF2"/>
		<path
			d="M212.48 67.05C212.48 66.8449 212.647 66.6787 212.852 66.6787H218.05C218.255 66.6787 218.421 66.8449 218.421 67.05C218.421 67.2551 218.255 67.4213 218.05 67.4213H212.852C212.647 67.4213 212.48 67.2551 212.48 67.05Z"
			fill="#E6EBF2"/>
		<path
			d="M224.362 36.2324C224.362 34.1818 226.024 32.5195 228.074 32.5195H235.5C237.551 32.5195 239.213 34.1818 239.213 36.2324V73.3612C239.213 75.4118 237.551 77.0741 235.5 77.0741H228.074C226.024 77.0741 224.362 75.4118 224.362 73.3612V36.2324Z"
			fill="#899099"/>
		<g opacity="0.6">
			<path
				d="M225.847 36.9752C225.847 35.3347 227.177 34.0049 228.817 34.0049H234.758C236.398 34.0049 237.728 35.3347 237.728 36.9752V72.6188C237.728 74.2593 236.398 75.5892 234.758 75.5892H228.817C227.177 75.5892 225.847 74.2593 225.847 72.6188V36.9752Z"
				fill="white"/>
			<g filter="url(#filter30_f_2139_3123)">
				<path
					d="M229.56 38.4603C229.56 38.8705 229.227 39.2029 228.817 39.2029C228.407 39.2029 228.075 38.8705 228.075 38.4603C228.075 38.0502 228.407 37.7178 228.817 37.7178C229.227 37.7178 229.56 38.0502 229.56 38.4603Z"
					fill="#2BD990" fill-opacity="0.4"/>
			</g>
			<path
				d="M229.56 38.4603C229.56 38.8705 229.227 39.2029 228.817 39.2029C228.407 39.2029 228.075 38.8705 228.075 38.4603C228.075 38.0502 228.407 37.7178 228.817 37.7178C229.227 37.7178 229.56 38.0502 229.56 38.4603Z"
				fill="#2BD990"/>
			<path fill-rule="evenodd" clip-rule="evenodd"
				  d="M228.817 37.9035C228.509 37.9035 228.26 38.1529 228.26 38.4604C228.26 38.768 228.509 39.0174 228.817 39.0174C229.125 39.0174 229.374 38.768 229.374 38.4604C229.374 38.1529 229.125 37.9035 228.817 37.9035ZM227.889 38.4604C227.889 37.9478 228.304 37.5322 228.817 37.5322C229.33 37.5322 229.745 37.9478 229.745 38.4604C229.745 38.9731 229.33 39.3887 228.817 39.3887C228.304 39.3887 227.889 38.9731 227.889 38.4604Z"
				  fill="white"/>
			<g filter="url(#filter31_f_2139_3123)">
				<path
					d="M232.53 38.4603C232.53 38.8705 232.198 39.2029 231.787 39.2029C231.377 39.2029 231.045 38.8705 231.045 38.4603C231.045 38.0502 231.377 37.7178 231.787 37.7178C232.198 37.7178 232.53 38.0502 232.53 38.4603Z"
					fill="#2BD990" fill-opacity="0.4"/>
			</g>
			<path
				d="M232.53 38.4603C232.53 38.8705 232.198 39.2029 231.787 39.2029C231.377 39.2029 231.045 38.8705 231.045 38.4603C231.045 38.0502 231.377 37.7178 231.787 37.7178C232.198 37.7178 232.53 38.0502 232.53 38.4603Z"
				fill="#2BD990"/>
			<path fill-rule="evenodd" clip-rule="evenodd"
				  d="M231.787 37.9035C231.48 37.9035 231.231 38.1529 231.231 38.4604C231.231 38.768 231.48 39.0174 231.787 39.0174C232.095 39.0174 232.344 38.768 232.344 38.4604C232.344 38.1529 232.095 37.9035 231.787 37.9035ZM230.859 38.4604C230.859 37.9478 231.275 37.5322 231.787 37.5322C232.3 37.5322 232.716 37.9478 232.716 38.4604C232.716 38.9731 232.3 39.3887 231.787 39.3887C231.275 39.3887 230.859 38.9731 230.859 38.4604Z"
				  fill="white"/>
			<g filter="url(#filter32_f_2139_3123)">
				<path
					d="M235.5 38.4603C235.5 38.8705 235.168 39.2029 234.758 39.2029C234.348 39.2029 234.015 38.8705 234.015 38.4603C234.015 38.0502 234.348 37.7178 234.758 37.7178C235.168 37.7178 235.5 38.0502 235.5 38.4603Z"
					fill="#2BD990" fill-opacity="0.4"/>
			</g>
			<path
				d="M235.5 38.4603C235.5 38.8705 235.168 39.2029 234.758 39.2029C234.348 39.2029 234.015 38.8705 234.015 38.4603C234.015 38.0502 234.348 37.7178 234.758 37.7178C235.168 37.7178 235.5 38.0502 235.5 38.4603Z"
				fill="#2BD990"/>
			<path fill-rule="evenodd" clip-rule="evenodd"
				  d="M234.758 37.9035C234.45 37.9035 234.201 38.1529 234.201 38.4604C234.201 38.768 234.45 39.0174 234.758 39.0174C235.065 39.0174 235.315 38.768 235.315 38.4604C235.315 38.1529 235.065 37.9035 234.758 37.9035ZM233.829 38.4604C233.829 37.9478 234.245 37.5322 234.758 37.5322C235.27 37.5322 235.686 37.9478 235.686 38.4604C235.686 38.9731 235.27 39.3887 234.758 39.3887C234.245 39.3887 233.829 38.9731 233.829 38.4604Z"
				  fill="white"/>
			<path
				d="M228.817 71.5051C228.817 71.3 228.983 71.1338 229.188 71.1338H234.386C234.592 71.1338 234.758 71.3 234.758 71.5051C234.758 71.7101 234.592 71.8764 234.386 71.8764H229.188C228.983 71.8764 228.817 71.7101 228.817 71.5051Z"
				fill="#E6EBF2"/>
			<path
				d="M228.817 69.277C228.817 69.072 228.983 68.9058 229.188 68.9058H234.386C234.592 68.9058 234.758 69.072 234.758 69.277C234.758 69.4821 234.592 69.6483 234.386 69.6483H229.188C228.983 69.6483 228.817 69.4821 228.817 69.277Z"
				fill="#E6EBF2"/>
			<path
				d="M228.817 67.05C228.817 66.8449 228.983 66.6787 229.188 66.6787H234.386C234.592 66.6787 234.758 66.8449 234.758 67.05C234.758 67.2551 234.592 67.4213 234.386 67.4213H229.188C228.983 67.4213 228.817 67.2551 228.817 67.05Z"
				fill="#E6EBF2"/>
		</g>
		<path
			d="M240.7 36.2324C240.7 34.1818 242.362 32.5195 244.413 32.5195H251.839C253.889 32.5195 255.551 34.1818 255.551 36.2324V73.3612C255.551 75.4118 253.889 77.0741 251.839 77.0741H244.413C242.362 77.0741 240.7 75.4118 240.7 73.3612V36.2324Z"
			fill="#899099"/>
		<g opacity="0.6">
			<path
				d="M242.185 36.9752C242.185 35.3347 243.515 34.0049 245.156 34.0049H251.096C252.737 34.0049 254.067 35.3347 254.067 36.9752V72.6188C254.067 74.2593 252.737 75.5892 251.096 75.5892H245.156C243.515 75.5892 242.185 74.2593 242.185 72.6188V36.9752Z"
				fill="white"/>
			<g filter="url(#filter33_f_2139_3123)">
				<path
					d="M245.898 38.4603C245.898 38.8705 245.566 39.2029 245.156 39.2029C244.746 39.2029 244.413 38.8705 244.413 38.4603C244.413 38.0502 244.746 37.7178 245.156 37.7178C245.566 37.7178 245.898 38.0502 245.898 38.4603Z"
					fill="#2BD990" fill-opacity="0.4"/>
			</g>
			<path
				d="M245.898 38.4603C245.898 38.8705 245.566 39.2029 245.156 39.2029C244.746 39.2029 244.413 38.8705 244.413 38.4603C244.413 38.0502 244.746 37.7178 245.156 37.7178C245.566 37.7178 245.898 38.0502 245.898 38.4603Z"
				fill="#2BD990"/>
			<path fill-rule="evenodd" clip-rule="evenodd"
				  d="M245.155 37.9035C244.848 37.9035 244.598 38.1529 244.598 38.4604C244.598 38.768 244.848 39.0174 245.155 39.0174C245.463 39.0174 245.712 38.768 245.712 38.4604C245.712 38.1529 245.463 37.9035 245.155 37.9035ZM244.227 38.4604C244.227 37.9478 244.643 37.5322 245.155 37.5322C245.668 37.5322 246.084 37.9478 246.084 38.4604C246.084 38.9731 245.668 39.3887 245.155 39.3887C244.643 39.3887 244.227 38.9731 244.227 38.4604Z"
				  fill="white"/>
			<g filter="url(#filter34_f_2139_3123)">
				<path
					d="M248.869 38.4603C248.869 38.8705 248.536 39.2029 248.126 39.2029C247.716 39.2029 247.383 38.8705 247.383 38.4603C247.383 38.0502 247.716 37.7178 248.126 37.7178C248.536 37.7178 248.869 38.0502 248.869 38.4603Z"
					fill="#2BD990" fill-opacity="0.4"/>
			</g>
			<path
				d="M248.869 38.4603C248.869 38.8705 248.536 39.2029 248.126 39.2029C247.716 39.2029 247.383 38.8705 247.383 38.4603C247.383 38.0502 247.716 37.7178 248.126 37.7178C248.536 37.7178 248.869 38.0502 248.869 38.4603Z"
				fill="#2BD990"/>
			<path fill-rule="evenodd" clip-rule="evenodd"
				  d="M248.126 37.9035C247.818 37.9035 247.569 38.1529 247.569 38.4604C247.569 38.768 247.818 39.0174 248.126 39.0174C248.433 39.0174 248.683 38.768 248.683 38.4604C248.683 38.1529 248.433 37.9035 248.126 37.9035ZM247.198 38.4604C247.198 37.9478 247.613 37.5322 248.126 37.5322C248.638 37.5322 249.054 37.9478 249.054 38.4604C249.054 38.9731 248.638 39.3887 248.126 39.3887C247.613 39.3887 247.198 38.9731 247.198 38.4604Z"
				  fill="white"/>
			<g filter="url(#filter35_f_2139_3123)">
				<path
					d="M251.839 38.4603C251.839 38.8705 251.506 39.2029 251.096 39.2029C250.686 39.2029 250.354 38.8705 250.354 38.4603C250.354 38.0502 250.686 37.7178 251.096 37.7178C251.506 37.7178 251.839 38.0502 251.839 38.4603Z"
					fill="#2BD990" fill-opacity="0.4"/>
			</g>
			<path
				d="M251.839 38.4603C251.839 38.8705 251.506 39.2029 251.096 39.2029C250.686 39.2029 250.354 38.8705 250.354 38.4603C250.354 38.0502 250.686 37.7178 251.096 37.7178C251.506 37.7178 251.839 38.0502 251.839 38.4603Z"
				fill="#2BD990"/>
			<path fill-rule="evenodd" clip-rule="evenodd"
				  d="M251.096 37.9035C250.788 37.9035 250.539 38.1529 250.539 38.4604C250.539 38.768 250.788 39.0174 251.096 39.0174C251.404 39.0174 251.653 38.768 251.653 38.4604C251.653 38.1529 251.404 37.9035 251.096 37.9035ZM250.168 38.4604C250.168 37.9478 250.583 37.5322 251.096 37.5322C251.609 37.5322 252.024 37.9478 252.024 38.4604C252.024 38.9731 251.609 39.3887 251.096 39.3887C250.583 39.3887 250.168 38.9731 250.168 38.4604Z"
				  fill="white"/>
			<path
				d="M245.156 71.5051C245.156 71.3 245.322 71.1338 245.527 71.1338H250.725C250.93 71.1338 251.096 71.3 251.096 71.5051C251.096 71.7101 250.93 71.8764 250.725 71.8764H245.527C245.322 71.8764 245.156 71.7101 245.156 71.5051Z"
				fill="#E6EBF2"/>
			<path
				d="M245.156 69.277C245.156 69.072 245.322 68.9058 245.527 68.9058H250.725C250.93 68.9058 251.096 69.072 251.096 69.277C251.096 69.4821 250.93 69.6483 250.725 69.6483H245.527C245.322 69.6483 245.156 69.4821 245.156 69.277Z"
				fill="#E6EBF2"/>
			<path
				d="M245.156 67.05C245.156 66.8449 245.322 66.6787 245.527 66.6787H250.725C250.93 66.6787 251.096 66.8449 251.096 67.05C251.096 67.2551 250.93 67.4213 250.725 67.4213H245.527C245.322 67.4213 245.156 67.2551 245.156 67.05Z"
				fill="#E6EBF2"/>
		</g>
		<path
			d="M257.04 36.2324C257.04 34.1818 258.702 32.5195 260.753 32.5195H268.179C270.229 32.5195 271.892 34.1818 271.892 36.2324V73.3612C271.892 75.4118 270.229 77.0741 268.179 77.0741H260.753C258.702 77.0741 257.04 75.4118 257.04 73.3612V36.2324Z"
			fill="#899099"/>
		<g opacity="0.6">
			<path
				d="M258.525 36.9752C258.525 35.3347 259.855 34.0049 261.496 34.0049H267.436C269.077 34.0049 270.407 35.3347 270.407 36.9752V72.6188C270.407 74.2593 269.077 75.5892 267.436 75.5892H261.496C259.855 75.5892 258.525 74.2593 258.525 72.6188V36.9752Z"
				fill="white"/>
			<g filter="url(#filter36_f_2139_3123)">
				<path
					d="M262.238 38.4603C262.238 38.8705 261.906 39.2029 261.496 39.2029C261.086 39.2029 260.753 38.8705 260.753 38.4603C260.753 38.0502 261.086 37.7178 261.496 37.7178C261.906 37.7178 262.238 38.0502 262.238 38.4603Z"
					fill="#2BD990" fill-opacity="0.4"/>
			</g>
			<path
				d="M262.238 38.4603C262.238 38.8705 261.906 39.2029 261.496 39.2029C261.086 39.2029 260.753 38.8705 260.753 38.4603C260.753 38.0502 261.086 37.7178 261.496 37.7178C261.906 37.7178 262.238 38.0502 262.238 38.4603Z"
				fill="#2BD990"/>
			<path fill-rule="evenodd" clip-rule="evenodd"
				  d="M261.495 37.9035C261.188 37.9035 260.939 38.1529 260.939 38.4604C260.939 38.768 261.188 39.0174 261.495 39.0174C261.803 39.0174 262.052 38.768 262.052 38.4604C262.052 38.1529 261.803 37.9035 261.495 37.9035ZM260.567 38.4604C260.567 37.9478 260.983 37.5322 261.495 37.5322C262.008 37.5322 262.424 37.9478 262.424 38.4604C262.424 38.9731 262.008 39.3887 261.495 39.3887C260.983 39.3887 260.567 38.9731 260.567 38.4604Z"
				  fill="white"/>
			<g filter="url(#filter37_f_2139_3123)">
				<path
					d="M265.209 38.4603C265.209 38.8705 264.876 39.2029 264.466 39.2029C264.056 39.2029 263.723 38.8705 263.723 38.4603C263.723 38.0502 264.056 37.7178 264.466 37.7178C264.876 37.7178 265.209 38.0502 265.209 38.4603Z"
					fill="#2BD990" fill-opacity="0.4"/>
			</g>
			<path
				d="M265.209 38.4603C265.209 38.8705 264.876 39.2029 264.466 39.2029C264.056 39.2029 263.723 38.8705 263.723 38.4603C263.723 38.0502 264.056 37.7178 264.466 37.7178C264.876 37.7178 265.209 38.0502 265.209 38.4603Z"
				fill="#2BD990"/>
			<path fill-rule="evenodd" clip-rule="evenodd"
				  d="M264.466 37.9035C264.158 37.9035 263.909 38.1529 263.909 38.4604C263.909 38.768 264.158 39.0174 264.466 39.0174C264.774 39.0174 265.023 38.768 265.023 38.4604C265.023 38.1529 264.774 37.9035 264.466 37.9035ZM263.538 38.4604C263.538 37.9478 263.953 37.5322 264.466 37.5322C264.979 37.5322 265.394 37.9478 265.394 38.4604C265.394 38.9731 264.979 39.3887 264.466 39.3887C263.953 39.3887 263.538 38.9731 263.538 38.4604Z"
				  fill="white"/>
			<g filter="url(#filter38_f_2139_3123)">
				<path
					d="M268.179 38.4603C268.179 38.8705 267.846 39.2029 267.436 39.2029C267.026 39.2029 266.694 38.8705 266.694 38.4603C266.694 38.0502 267.026 37.7178 267.436 37.7178C267.846 37.7178 268.179 38.0502 268.179 38.4603Z"
					fill="#2BD990" fill-opacity="0.4"/>
			</g>
			<path
				d="M268.179 38.4603C268.179 38.8705 267.846 39.2029 267.436 39.2029C267.026 39.2029 266.694 38.8705 266.694 38.4603C266.694 38.0502 267.026 37.7178 267.436 37.7178C267.846 37.7178 268.179 38.0502 268.179 38.4603Z"
				fill="#2BD990"/>
			<path fill-rule="evenodd" clip-rule="evenodd"
				  d="M267.436 37.9035C267.129 37.9035 266.879 38.1529 266.879 38.4604C266.879 38.768 267.129 39.0174 267.436 39.0174C267.744 39.0174 267.993 38.768 267.993 38.4604C267.993 38.1529 267.744 37.9035 267.436 37.9035ZM266.508 38.4604C266.508 37.9478 266.924 37.5322 267.436 37.5322C267.949 37.5322 268.364 37.9478 268.364 38.4604C268.364 38.9731 267.949 39.3887 267.436 39.3887C266.924 39.3887 266.508 38.9731 266.508 38.4604Z"
				  fill="white"/>
			<path
				d="M261.496 71.5051C261.496 71.3 261.662 71.1338 261.867 71.1338H267.065C267.27 71.1338 267.436 71.3 267.436 71.5051C267.436 71.7101 267.27 71.8764 267.065 71.8764H261.867C261.662 71.8764 261.496 71.7101 261.496 71.5051Z"
				fill="#E6EBF2"/>
			<path
				d="M261.496 69.277C261.496 69.072 261.662 68.9058 261.867 68.9058H267.065C267.27 68.9058 267.436 69.072 267.436 69.277C267.436 69.4821 267.27 69.6483 267.065 69.6483H261.867C261.662 69.6483 261.496 69.4821 261.496 69.277Z"
				fill="#E6EBF2"/>
			<path
				d="M261.496 67.05C261.496 66.8449 261.662 66.6787 261.867 66.6787H267.065C267.27 66.6787 267.436 66.8449 267.436 67.05C267.436 67.2551 267.27 67.4213 267.065 67.4213H261.867C261.662 67.4213 261.496 67.2551 261.496 67.05Z"
				fill="#E6EBF2"/>
		</g>
		<rect x="178.5" y="83.5" width="41" height="3" rx="0.7" fill="#899099" stroke="#ADB4BF"/>
		<g filter="url(#filter39_i_2139_3123)">
			<rect x="229" y="84" width="40" height="2" rx="0.2" fill="#727880"/>
		</g>
		<rect x="228.5" y="83.5" width="41" height="3" rx="0.7" stroke="#ADB4BF"/>
		<g filter="url(#filter40_i_2139_3123)">
			<path
				d="M179 84.5H219L222.6 87.2C222.852 87.3889 223 87.6852 223 88H175C175 87.6852 175.148 87.3889 175.4 87.2L179 84.5Z"
				fill="white"/>
		</g>
		<path
			d="M175 87.7998C175 87.5237 175.224 87.2998 175.5 87.2998H222.5C222.776 87.2998 223 87.5237 223 87.7998V88.9998C223 89.2759 222.776 89.4998 222.5 89.4998H175.5C175.224 89.4998 175 89.2759 175 88.9998V87.7998Z"
			fill="#B8C0CC"/>
		<path
			d="M48.7071 78.2929L48.2462 78.7538C47.7863 79.2137 48.112 80 48.7624 80H92.2376C92.888 80 93.2137 79.2137 92.7538 78.7538L92.2929 78.2929C92.1054 78.1054 91.851 78 91.5858 78H49.4142C49.149 78 48.8946 78.1054 48.7071 78.2929Z"
			fill="url(#paint5_linear_2139_3123)"/>
		<rect x="48" y="78.5" width="45" height="10" rx="1" fill="#899099"/>
		<g filter="url(#filter41_i_2139_3123)">
			<rect x="49" y="79.5" width="43" height="8" rx="1" fill="#F5F7FA"/>
		</g>
		<rect x="51" y="87.5" width="39" height="2" fill="url(#paint6_linear_2139_3123)"/>
		<path fill-rule="evenodd" clip-rule="evenodd"
			  d="M52 87.5H53V89.5H52V87.5ZM55 87.5H56V89.5H55V87.5ZM59 87.5H58V89.5H59V87.5ZM61 87.5H62V89.5H61V87.5ZM65 87.5H64V89.5H65V87.5ZM67 87.5H68V89.5H67V87.5ZM71 87.5H70V89.5H71V87.5ZM73 87.5H74V89.5H73V87.5ZM77 87.5H76V89.5H77V87.5ZM79 87.5H80V89.5H79V87.5ZM83 87.5H82V89.5H83V87.5ZM85 87.5H86V89.5H85V87.5ZM89 87.5H88V89.5H89V87.5Z"
			  fill="url(#paint7_linear_2139_3123)"/>
		<path
			d="M67.4355 84.4278C67.4355 84.3583 67.4236 84.2959 67.3998 84.2406C67.378 84.1836 67.3364 84.1319 67.2749 84.0856C67.2135 84.0374 67.1272 83.9902 67.0162 83.9439C66.9052 83.8975 66.7615 83.8494 66.585 83.7995C66.3888 83.7424 66.2024 83.6783 66.026 83.607C65.8515 83.5357 65.6969 83.4528 65.562 83.3583C65.4292 83.262 65.3241 83.1506 65.2468 83.0241C65.1715 82.8975 65.1338 82.7504 65.1338 82.5829C65.1338 82.4207 65.1735 82.2736 65.2528 82.1417C65.3321 82.008 65.4431 81.8939 65.5858 81.7995C65.7286 81.7032 65.8971 81.6292 66.0914 81.5775C66.2876 81.5258 66.5027 81.5 66.7367 81.5C67.0559 81.5 67.3344 81.5517 67.5723 81.6551C67.8102 81.7585 67.9946 81.9002 68.1254 82.0802C68.2583 82.2602 68.3247 82.4661 68.3247 82.6979H67.4385C67.4385 82.5838 67.4117 82.484 67.3582 82.3984C67.3067 82.3111 67.2274 82.2424 67.1203 82.1925C67.0152 82.1426 66.8824 82.1176 66.7218 82.1176C66.5672 82.1176 66.4383 82.139 66.3352 82.1818C66.2321 82.2228 66.1548 82.279 66.1033 82.3503C66.0517 82.4198 66.026 82.4982 66.026 82.5856C66.026 82.6515 66.0438 82.7112 66.0795 82.7647C66.1171 82.8182 66.1727 82.8681 66.246 82.9144C66.3194 82.9608 66.4096 83.0045 66.5166 83.0455C66.6237 83.0865 66.7476 83.1266 66.8883 83.1658C67.1243 83.2299 67.3314 83.3021 67.5099 83.3824C67.6903 83.4626 67.8409 83.5526 67.9619 83.6524C68.0828 83.7522 68.174 83.8654 68.2355 83.992C68.2969 84.1185 68.3277 84.262 68.3277 84.4225C68.3277 84.5918 68.291 84.7433 68.2176 84.877C68.1443 85.0107 68.0382 85.1239 67.8994 85.2166C67.7607 85.3093 67.5951 85.3797 67.4028 85.4278C67.2105 85.4759 66.9954 85.5 66.7575 85.5C66.5434 85.5 66.3323 85.475 66.1241 85.4251C65.9159 85.3734 65.7266 85.2959 65.5561 85.1925C65.3876 85.0891 65.2528 84.9572 65.1517 84.7968C65.0506 84.6364 65 84.4465 65 84.2273H65.8951C65.8951 84.3485 65.9159 84.451 65.9576 84.5348C65.9992 84.6185 66.0577 84.6863 66.133 84.738C66.2103 84.7897 66.3015 84.8271 66.4066 84.8503C66.5137 84.8734 66.6306 84.885 66.7575 84.885C66.9121 84.885 67.039 84.8654 67.1381 84.8262C67.2393 84.787 67.3136 84.7326 67.3612 84.6631C67.4107 84.5936 67.4355 84.5152 67.4355 84.4278Z"
			fill="#C3CCD9"/>
		<path
			d="M71.1884 84.4278C71.1884 84.3583 71.1765 84.2959 71.1527 84.2406C71.1309 84.1836 71.0893 84.1319 71.0278 84.0856C70.9664 84.0374 70.8801 83.9902 70.7691 83.9439C70.6581 83.8975 70.5144 83.8494 70.3379 83.7995C70.1417 83.7424 69.9553 83.6783 69.7789 83.607C69.6044 83.5357 69.4498 83.4528 69.3149 83.3583C69.1821 83.262 69.077 83.1506 68.9997 83.0241C68.9244 82.8975 68.8867 82.7504 68.8867 82.5829C68.8867 82.4207 68.9264 82.2736 69.0057 82.1417C69.085 82.008 69.196 81.8939 69.3387 81.7995C69.4815 81.7032 69.65 81.6292 69.8443 81.5775C70.0406 81.5258 70.2557 81.5 70.4896 81.5C70.8088 81.5 71.0873 81.5517 71.3252 81.6551C71.5631 81.7585 71.7475 81.9002 71.8783 82.0802C72.0112 82.2602 72.0776 82.4661 72.0776 82.6979H71.1914C71.1914 82.5838 71.1646 82.484 71.1111 82.3984C71.0596 82.3111 70.9803 82.2424 70.8732 82.1925C70.7681 82.1426 70.6353 82.1176 70.4747 82.1176C70.3201 82.1176 70.1912 82.139 70.0881 82.1818C69.985 82.2228 69.9077 82.279 69.8562 82.3503C69.8046 82.4198 69.7789 82.4982 69.7789 82.5856C69.7789 82.6515 69.7967 82.7112 69.8324 82.7647C69.8701 82.8182 69.9256 82.8681 69.9989 82.9144C70.0723 82.9608 70.1625 83.0045 70.2695 83.0455C70.3766 83.0865 70.5005 83.1266 70.6413 83.1658C70.8772 83.2299 71.0843 83.3021 71.2628 83.3824C71.4432 83.4626 71.5939 83.5526 71.7148 83.6524C71.8357 83.7522 71.9269 83.8654 71.9884 83.992C72.0498 84.1185 72.0806 84.262 72.0806 84.4225C72.0806 84.5918 72.0439 84.7433 71.9705 84.877C71.8972 85.0107 71.7911 85.1239 71.6523 85.2166C71.5136 85.3093 71.348 85.3797 71.1557 85.4278C70.9634 85.4759 70.7483 85.5 70.5104 85.5C70.2963 85.5 70.0852 85.475 69.877 85.4251C69.6688 85.3734 69.4795 85.2959 69.309 85.1925C69.1405 85.0891 69.0057 84.9572 68.9046 84.7968C68.8035 84.6364 68.7529 84.4465 68.7529 84.2273H69.648C69.648 84.3485 69.6688 84.451 69.7105 84.5348C69.7521 84.6185 69.8106 84.6863 69.8859 84.738C69.9632 84.7897 70.0544 84.8271 70.1595 84.8503C70.2666 84.8734 70.3835 84.885 70.5104 84.885C70.665 84.885 70.7919 84.8654 70.8911 84.8262C70.9922 84.787 71.0665 84.7326 71.1141 84.6631C71.1636 84.5936 71.1884 84.5152 71.1884 84.4278Z"
			fill="#C3CCD9"/>
		<path
			d="M74.0165 85.4465H73.0738L73.0798 84.8209H74.0165C74.2504 84.8209 74.4477 84.7736 74.6083 84.6791C74.7689 84.5829 74.8898 84.443 74.9711 84.2594C75.0543 84.0758 75.096 83.8538 75.096 83.5936V83.4037C75.096 83.2041 75.0722 83.0285 75.0246 82.877C74.979 82.7255 74.9106 82.598 74.8194 82.4947C74.7282 82.3913 74.6162 82.3137 74.4834 82.262C74.3505 82.2086 74.1979 82.1818 74.0254 82.1818H73.056V81.5535H74.0254C74.3149 81.5535 74.5795 81.598 74.8194 81.6872C75.0613 81.7745 75.2704 81.9002 75.4469 82.0642C75.6233 82.2282 75.7591 82.4242 75.8543 82.6524C75.9514 82.8788 76 83.131 76 83.4091V83.5936C76 83.8699 75.9514 84.1221 75.8543 84.3503C75.7591 84.5784 75.6233 84.7745 75.4469 84.9385C75.2724 85.1007 75.0633 85.2264 74.8194 85.3155C74.5775 85.4029 74.3099 85.4465 74.0165 85.4465ZM73.5793 81.5535V85.4465H72.6872V81.5535H73.5793Z"
			fill="#C3CCD9"/>
		<rect x="51" y="81.5" width="3" height="4" rx="0.3" fill="#E6EBF2"/>
		<rect x="78" y="81.5" width="3" height="4" rx="0.3" fill="#E6EBF2"/>
		<rect x="55.5" y="81.5" width="3" height="4" rx="0.3" fill="#E6EBF2"/>
		<rect x="82.5" y="81.5" width="3" height="4" rx="0.3" fill="#E6EBF2"/>
		<rect x="60" y="81.5" width="3" height="4" rx="0.3" fill="#E6EBF2"/>
		<rect x="87" y="81.5" width="3" height="4" rx="0.3" fill="#E6EBF2"/>
		<defs>
			<filter id="filter0_f_2139_3123" x="15.5" y="28" width="111" height="65" filterUnits="userSpaceOnUse"
					color-interpolation-filters="sRGB">
				<feFlood flood-opacity="0" result="BackgroundImageFix"/>
				<feBlend mode="normal" in="SourceGraphic" in2="BackgroundImageFix" result="shape"/>
				<feGaussianBlur stdDeviation="12" result="effect1_foregroundBlur_2139_3123"/>
			</filter>
			<filter id="filter1_f_2139_3123" x="44.5" y="53.5" width="52" height="20" filterUnits="userSpaceOnUse"
					color-interpolation-filters="sRGB">
				<feFlood flood-opacity="0" result="BackgroundImageFix"/>
				<feBlend mode="normal" in="SourceGraphic" in2="BackgroundImageFix" result="shape"/>
				<feGaussianBlur stdDeviation="2" result="effect1_foregroundBlur_2139_3123"/>
			</filter>
			<filter id="filter2_f_2139_3123" x="50.2501" y="60.25" width="7.5" height="7.5" filterUnits="userSpaceOnUse"
					color-interpolation-filters="sRGB">
				<feFlood flood-opacity="0" result="BackgroundImageFix"/>
				<feBlend mode="normal" in="SourceGraphic" in2="BackgroundImageFix" result="shape"/>
				<feGaussianBlur stdDeviation="1.5" result="effect1_foregroundBlur_2139_3123"/>
			</filter>
			<filter id="filter3_f_2139_3123" x="50.2501" y="57.25" width="7.5" height="7.5" filterUnits="userSpaceOnUse"
					color-interpolation-filters="sRGB">
				<feFlood flood-opacity="0" result="BackgroundImageFix"/>
				<feBlend mode="normal" in="SourceGraphic" in2="BackgroundImageFix" result="shape"/>
				<feGaussianBlur stdDeviation="1.5" result="effect1_foregroundBlur_2139_3123"/>
			</filter>
			<filter id="filter4_f_2139_3123" x="50.2501" y="54.25" width="7.5" height="7.5" filterUnits="userSpaceOnUse"
					color-interpolation-filters="sRGB">
				<feFlood flood-opacity="0" result="BackgroundImageFix"/>
				<feBlend mode="normal" in="SourceGraphic" in2="BackgroundImageFix" result="shape"/>
				<feGaussianBlur stdDeviation="1.5" result="effect1_foregroundBlur_2139_3123"/>
			</filter>
			<filter id="filter5_f_2139_3123" x="50.2501" y="45.25" width="7.5" height="7.5" filterUnits="userSpaceOnUse"
					color-interpolation-filters="sRGB">
				<feFlood flood-opacity="0" result="BackgroundImageFix"/>
				<feBlend mode="normal" in="SourceGraphic" in2="BackgroundImageFix" result="shape"/>
				<feGaussianBlur stdDeviation="1.5" result="effect1_foregroundBlur_2139_3123"/>
			</filter>
			<filter id="filter6_f_2139_3123" x="50.2501" y="42.25" width="7.5" height="7.5" filterUnits="userSpaceOnUse"
					color-interpolation-filters="sRGB">
				<feFlood flood-opacity="0" result="BackgroundImageFix"/>
				<feBlend mode="normal" in="SourceGraphic" in2="BackgroundImageFix" result="shape"/>
				<feGaussianBlur stdDeviation="1.5" result="effect1_foregroundBlur_2139_3123"/>
			</filter>
			<filter id="filter7_f_2139_3123" x="50.2501" y="39.25" width="7.5" height="7.5" filterUnits="userSpaceOnUse"
					color-interpolation-filters="sRGB">
				<feFlood flood-opacity="0" result="BackgroundImageFix"/>
				<feBlend mode="normal" in="SourceGraphic" in2="BackgroundImageFix" result="shape"/>
				<feGaussianBlur stdDeviation="1.5" result="effect1_foregroundBlur_2139_3123"/>
			</filter>
			<filter id="filter8_i_2139_3123" x="48.1001" y="12.5" width="44.8" height="15" filterUnits="userSpaceOnUse"
					color-interpolation-filters="sRGB">
				<feFlood flood-opacity="0" result="BackgroundImageFix"/>
				<feBlend mode="normal" in="SourceGraphic" in2="BackgroundImageFix" result="shape"/>
				<feColorMatrix in="SourceAlpha" type="matrix" values="0 0 0 0 0 0 0 0 0 0 0 0 0 0 0 0 0 0 127 0"
							   result="hardAlpha"/>
				<feOffset dy="1"/>
				<feGaussianBlur stdDeviation="1"/>
				<feComposite in2="hardAlpha" operator="arithmetic" k2="-1" k3="1"/>
				<feColorMatrix type="matrix" values="0 0 0 0 1 0 0 0 0 1 0 0 0 0 1 0 0 0 0.5 0"/>
				<feBlend mode="normal" in2="shape" result="effect1_innerShadow_2139_3123"/>
			</filter>
			<filter id="filter9_f_2139_3123" x="50.2501" y="30.25" width="7.5" height="7.5" filterUnits="userSpaceOnUse"
					color-interpolation-filters="sRGB">
				<feFlood flood-opacity="0" result="BackgroundImageFix"/>
				<feBlend mode="normal" in="SourceGraphic" in2="BackgroundImageFix" result="shape"/>
				<feGaussianBlur stdDeviation="1.5" result="effect1_foregroundBlur_2139_3123"/>
			</filter>
			<filter id="filter10_f_2139_3123" x="50.2501" y="27.25" width="7.5" height="7.5"
					filterUnits="userSpaceOnUse" color-interpolation-filters="sRGB">
				<feFlood flood-opacity="0" result="BackgroundImageFix"/>
				<feBlend mode="normal" in="SourceGraphic" in2="BackgroundImageFix" result="shape"/>
				<feGaussianBlur stdDeviation="1.5" result="effect1_foregroundBlur_2139_3123"/>
			</filter>
			<filter id="filter11_f_2139_3123" x="50.2501" y="24.25" width="7.5" height="7.5"
					filterUnits="userSpaceOnUse" color-interpolation-filters="sRGB">
				<feFlood flood-opacity="0" result="BackgroundImageFix"/>
				<feBlend mode="normal" in="SourceGraphic" in2="BackgroundImageFix" result="shape"/>
				<feGaussianBlur stdDeviation="1.5" result="effect1_foregroundBlur_2139_3123"/>
			</filter>
			<filter id="filter12_f_2139_3123" x="139.5" y="50" width="157" height="56" filterUnits="userSpaceOnUse"
					color-interpolation-filters="sRGB">
				<feFlood flood-opacity="0" result="BackgroundImageFix"/>
				<feBlend mode="normal" in="SourceGraphic" in2="BackgroundImageFix" result="shape"/>
				<feGaussianBlur stdDeviation="8" result="effect1_foregroundBlur_2139_3123"/>
			</filter>
			<filter id="filter13_f_2139_3123" x="153.547" y="59" width="131.797" height="40"
					filterUnits="userSpaceOnUse" color-interpolation-filters="sRGB">
				<feFlood flood-opacity="0" result="BackgroundImageFix"/>
				<feBlend mode="normal" in="SourceGraphic" in2="BackgroundImageFix" result="shape"/>
				<feGaussianBlur stdDeviation="4" result="effect1_foregroundBlur_2139_3123"/>
			</filter>
			<filter id="filter14_iiii_2139_3123" x="160.5" y="23.0942" width="118.139" height="68.4062"
					filterUnits="userSpaceOnUse" color-interpolation-filters="sRGB">
				<feFlood flood-opacity="0" result="BackgroundImageFix"/>
				<feBlend mode="normal" in="SourceGraphic" in2="BackgroundImageFix" result="shape"/>
				<feColorMatrix in="SourceAlpha" type="matrix" values="0 0 0 0 0 0 0 0 0 0 0 0 0 0 0 0 0 0 127 0"
							   result="hardAlpha"/>
				<feOffset dy="2"/>
				<feGaussianBlur stdDeviation="2"/>
				<feComposite in2="hardAlpha" operator="arithmetic" k2="-1" k3="1"/>
				<feColorMatrix type="matrix" values="0 0 0 0 1 0 0 0 0 1 0 0 0 0 1 0 0 0 0.12 0"/>
				<feBlend mode="normal" in2="shape" result="effect1_innerShadow_2139_3123"/>
				<feColorMatrix in="SourceAlpha" type="matrix" values="0 0 0 0 0 0 0 0 0 0 0 0 0 0 0 0 0 0 127 0"
							   result="hardAlpha"/>
				<feOffset dy="1"/>
				<feGaussianBlur stdDeviation="1"/>
				<feComposite in2="hardAlpha" operator="arithmetic" k2="-1" k3="1"/>
				<feColorMatrix type="matrix" values="0 0 0 0 1 0 0 0 0 1 0 0 0 0 1 0 0 0 0.12 0"/>
				<feBlend mode="normal" in2="effect1_innerShadow_2139_3123" result="effect2_innerShadow_2139_3123"/>
				<feColorMatrix in="SourceAlpha" type="matrix" values="0 0 0 0 0 0 0 0 0 0 0 0 0 0 0 0 0 0 127 0"
							   result="hardAlpha"/>
				<feOffset dy="-2"/>
				<feGaussianBlur stdDeviation="2"/>
				<feComposite in2="hardAlpha" operator="arithmetic" k2="-1" k3="1"/>
				<feColorMatrix type="matrix" values="0 0 0 0 0.358333 0 0 0 0 0.375694 0 0 0 0 0.4 0 0 0 0.16 0"/>
				<feBlend mode="normal" in2="effect2_innerShadow_2139_3123" result="effect3_innerShadow_2139_3123"/>
				<feColorMatrix in="SourceAlpha" type="matrix" values="0 0 0 0 0 0 0 0 0 0 0 0 0 0 0 0 0 0 127 0"
							   result="hardAlpha"/>
				<feOffset dy="-1"/>
				<feGaussianBlur stdDeviation="0.5"/>
				<feComposite in2="hardAlpha" operator="arithmetic" k2="-1" k3="1"/>
				<feColorMatrix type="matrix" values="0 0 0 0 1 0 0 0 0 1 0 0 0 0 1 0 0 0 0.05 0"/>
				<feBlend mode="normal" in2="effect3_innerShadow_2139_3123" result="effect4_innerShadow_2139_3123"/>
			</filter>
			<filter id="filter15_ii_2139_3123" x="160.5" y="8.5" width="116.41" height="26" filterUnits="userSpaceOnUse"
					color-interpolation-filters="sRGB">
				<feFlood flood-opacity="0" result="BackgroundImageFix"/>
				<feBlend mode="normal" in="SourceGraphic" in2="BackgroundImageFix" result="shape"/>
				<feColorMatrix in="SourceAlpha" type="matrix" values="0 0 0 0 0 0 0 0 0 0 0 0 0 0 0 0 0 0 127 0"
							   result="hardAlpha"/>
				<feOffset dy="1"/>
				<feGaussianBlur stdDeviation="2"/>
				<feComposite in2="hardAlpha" operator="arithmetic" k2="-1" k3="1"/>
				<feColorMatrix type="matrix" values="0 0 0 0 1 0 0 0 0 1 0 0 0 0 1 0 0 0 0.3 0"/>
				<feBlend mode="normal" in2="shape" result="effect1_innerShadow_2139_3123"/>
				<feColorMatrix in="SourceAlpha" type="matrix" values="0 0 0 0 0 0 0 0 0 0 0 0 0 0 0 0 0 0 127 0"
							   result="hardAlpha"/>
				<feOffset dy="-1"/>
				<feGaussianBlur stdDeviation="1"/>
				<feComposite in2="hardAlpha" operator="arithmetic" k2="-1" k3="1"/>
				<feColorMatrix type="matrix" values="0 0 0 0 1 0 0 0 0 1 0 0 0 0 1 0 0 0 0.06 0"/>
				<feBlend mode="normal" in2="effect1_innerShadow_2139_3123" result="effect2_innerShadow_2139_3123"/>
			</filter>
			<filter id="filter16_i_2139_3123" x="172.381" y="29.5498" width="101.802" height="51.4951"
					filterUnits="userSpaceOnUse" color-interpolation-filters="sRGB">
				<feFlood flood-opacity="0" result="BackgroundImageFix"/>
				<feBlend mode="normal" in="SourceGraphic" in2="BackgroundImageFix" result="shape"/>
				<feColorMatrix in="SourceAlpha" type="matrix" values="0 0 0 0 0 0 0 0 0 0 0 0 0 0 0 0 0 0 127 0"
							   result="hardAlpha"/>
				<feOffset dy="1"/>
				<feGaussianBlur stdDeviation="1"/>
				<feComposite in2="hardAlpha" operator="arithmetic" k2="-1" k3="1"/>
				<feColorMatrix type="matrix" values="0 0 0 0 0.537255 0 0 0 0 0.564706 0 0 0 0 0.6 0 0 0 0.3 0"/>
				<feBlend mode="normal" in2="shape" result="effect1_innerShadow_2139_3123"/>
			</filter>
			<filter id="filter17_f_2139_3123" x="160.956" y="30.0049" width="10.2277" height="10.2275"
					filterUnits="userSpaceOnUse" color-interpolation-filters="sRGB">
				<feFlood flood-opacity="0" result="BackgroundImageFix"/>
				<feBlend mode="normal" in="SourceGraphic" in2="BackgroundImageFix" result="shape"/>
				<feGaussianBlur stdDeviation="2" result="effect1_foregroundBlur_2139_3123"/>
			</filter>
			<filter id="filter18_f_2139_3123" x="160.956" y="34.4609" width="10.2277" height="10.2275"
					filterUnits="userSpaceOnUse" color-interpolation-filters="sRGB">
				<feFlood flood-opacity="0" result="BackgroundImageFix"/>
				<feBlend mode="normal" in="SourceGraphic" in2="BackgroundImageFix" result="shape"/>
				<feGaussianBlur stdDeviation="2" result="effect1_foregroundBlur_2139_3123"/>
			</filter>
			<filter id="filter19_f_2139_3123" x="160.956" y="38.916" width="10.2277" height="10.2275"
					filterUnits="userSpaceOnUse" color-interpolation-filters="sRGB">
				<feFlood flood-opacity="0" result="BackgroundImageFix"/>
				<feBlend mode="normal" in="SourceGraphic" in2="BackgroundImageFix" result="shape"/>
				<feGaussianBlur stdDeviation="2" result="effect1_foregroundBlur_2139_3123"/>
			</filter>
			<filter id="filter20_f_2139_3123" x="160.956" y="43.3716" width="10.2277" height="10.2275"
					filterUnits="userSpaceOnUse" color-interpolation-filters="sRGB">
				<feFlood flood-opacity="0" result="BackgroundImageFix"/>
				<feBlend mode="normal" in="SourceGraphic" in2="BackgroundImageFix" result="shape"/>
				<feGaussianBlur stdDeviation="2" result="effect1_foregroundBlur_2139_3123"/>
			</filter>
			<filter id="filter21_f_2139_3123" x="176.064" y="34.7188" width="7.48517" height="7.48535"
					filterUnits="userSpaceOnUse" color-interpolation-filters="sRGB">
				<feFlood flood-opacity="0" result="BackgroundImageFix"/>
				<feBlend mode="normal" in="SourceGraphic" in2="BackgroundImageFix" result="shape"/>
				<feGaussianBlur stdDeviation="1.5" result="effect1_foregroundBlur_2139_3123"/>
			</filter>
			<filter id="filter22_f_2139_3123" x="179.035" y="34.7188" width="7.48517" height="7.48535"
					filterUnits="userSpaceOnUse" color-interpolation-filters="sRGB">
				<feFlood flood-opacity="0" result="BackgroundImageFix"/>
				<feBlend mode="normal" in="SourceGraphic" in2="BackgroundImageFix" result="shape"/>
				<feGaussianBlur stdDeviation="1.5" result="effect1_foregroundBlur_2139_3123"/>
			</filter>
			<filter id="filter23_f_2139_3123" x="182.005" y="34.7188" width="7.48517" height="7.48535"
					filterUnits="userSpaceOnUse" color-interpolation-filters="sRGB">
				<feFlood flood-opacity="0" result="BackgroundImageFix"/>
				<feBlend mode="normal" in="SourceGraphic" in2="BackgroundImageFix" result="shape"/>
				<feGaussianBlur stdDeviation="1.5" result="effect1_foregroundBlur_2139_3123"/>
			</filter>
			<filter id="filter24_f_2139_3123" x="192.401" y="34.7178" width="7.48517" height="7.48535"
					filterUnits="userSpaceOnUse" color-interpolation-filters="sRGB">
				<feFlood flood-opacity="0" result="BackgroundImageFix"/>
				<feBlend mode="normal" in="SourceGraphic" in2="BackgroundImageFix" result="shape"/>
				<feGaussianBlur stdDeviation="1.5" result="effect1_foregroundBlur_2139_3123"/>
			</filter>
			<filter id="filter25_f_2139_3123" x="195.372" y="34.7178" width="7.48517" height="7.48535"
					filterUnits="userSpaceOnUse" color-interpolation-filters="sRGB">
				<feFlood flood-opacity="0" result="BackgroundImageFix"/>
				<feBlend mode="normal" in="SourceGraphic" in2="BackgroundImageFix" result="shape"/>
				<feGaussianBlur stdDeviation="1.5" result="effect1_foregroundBlur_2139_3123"/>
			</filter>
			<filter id="filter26_f_2139_3123" x="198.342" y="34.7178" width="7.48517" height="7.48535"
					filterUnits="userSpaceOnUse" color-interpolation-filters="sRGB">
				<feFlood flood-opacity="0" result="BackgroundImageFix"/>
				<feBlend mode="normal" in="SourceGraphic" in2="BackgroundImageFix" result="shape"/>
				<feGaussianBlur stdDeviation="1.5" result="effect1_foregroundBlur_2139_3123"/>
			</filter>
			<filter id="filter27_f_2139_3123" x="208.738" y="34.7178" width="7.48517" height="7.48535"
					filterUnits="userSpaceOnUse" color-interpolation-filters="sRGB">
				<feFlood flood-opacity="0" result="BackgroundImageFix"/>
				<feBlend mode="normal" in="SourceGraphic" in2="BackgroundImageFix" result="shape"/>
				<feGaussianBlur stdDeviation="1.5" result="effect1_foregroundBlur_2139_3123"/>
			</filter>
			<filter id="filter28_f_2139_3123" x="211.708" y="34.7178" width="7.48517" height="7.48535"
					filterUnits="userSpaceOnUse" color-interpolation-filters="sRGB">
				<feFlood flood-opacity="0" result="BackgroundImageFix"/>
				<feBlend mode="normal" in="SourceGraphic" in2="BackgroundImageFix" result="shape"/>
				<feGaussianBlur stdDeviation="1.5" result="effect1_foregroundBlur_2139_3123"/>
			</filter>
			<filter id="filter29_f_2139_3123" x="214.679" y="34.7178" width="7.48517" height="7.48535"
					filterUnits="userSpaceOnUse" color-interpolation-filters="sRGB">
				<feFlood flood-opacity="0" result="BackgroundImageFix"/>
				<feBlend mode="normal" in="SourceGraphic" in2="BackgroundImageFix" result="shape"/>
				<feGaussianBlur stdDeviation="1.5" result="effect1_foregroundBlur_2139_3123"/>
			</filter>
			<filter id="filter30_f_2139_3123" x="225.075" y="34.7178" width="7.48517" height="7.48535"
					filterUnits="userSpaceOnUse" color-interpolation-filters="sRGB">
				<feFlood flood-opacity="0" result="BackgroundImageFix"/>
				<feBlend mode="normal" in="SourceGraphic" in2="BackgroundImageFix" result="shape"/>
				<feGaussianBlur stdDeviation="1.5" result="effect1_foregroundBlur_2139_3123"/>
			</filter>
			<filter id="filter31_f_2139_3123" x="228.045" y="34.7178" width="7.48517" height="7.48535"
					filterUnits="userSpaceOnUse" color-interpolation-filters="sRGB">
				<feFlood flood-opacity="0" result="BackgroundImageFix"/>
				<feBlend mode="normal" in="SourceGraphic" in2="BackgroundImageFix" result="shape"/>
				<feGaussianBlur stdDeviation="1.5" result="effect1_foregroundBlur_2139_3123"/>
			</filter>
			<filter id="filter32_f_2139_3123" x="231.015" y="34.7178" width="7.48517" height="7.48535"
					filterUnits="userSpaceOnUse" color-interpolation-filters="sRGB">
				<feFlood flood-opacity="0" result="BackgroundImageFix"/>
				<feBlend mode="normal" in="SourceGraphic" in2="BackgroundImageFix" result="shape"/>
				<feGaussianBlur stdDeviation="1.5" result="effect1_foregroundBlur_2139_3123"/>
			</filter>
			<filter id="filter33_f_2139_3123" x="241.413" y="34.7178" width="7.48517" height="7.48535"
					filterUnits="userSpaceOnUse" color-interpolation-filters="sRGB">
				<feFlood flood-opacity="0" result="BackgroundImageFix"/>
				<feBlend mode="normal" in="SourceGraphic" in2="BackgroundImageFix" result="shape"/>
				<feGaussianBlur stdDeviation="1.5" result="effect1_foregroundBlur_2139_3123"/>
			</filter>
			<filter id="filter34_f_2139_3123" x="244.383" y="34.7178" width="7.48517" height="7.48535"
					filterUnits="userSpaceOnUse" color-interpolation-filters="sRGB">
				<feFlood flood-opacity="0" result="BackgroundImageFix"/>
				<feBlend mode="normal" in="SourceGraphic" in2="BackgroundImageFix" result="shape"/>
				<feGaussianBlur stdDeviation="1.5" result="effect1_foregroundBlur_2139_3123"/>
			</filter>
			<filter id="filter35_f_2139_3123" x="247.354" y="34.7178" width="7.48517" height="7.48535"
					filterUnits="userSpaceOnUse" color-interpolation-filters="sRGB">
				<feFlood flood-opacity="0" result="BackgroundImageFix"/>
				<feBlend mode="normal" in="SourceGraphic" in2="BackgroundImageFix" result="shape"/>
				<feGaussianBlur stdDeviation="1.5" result="effect1_foregroundBlur_2139_3123"/>
			</filter>
			<filter id="filter36_f_2139_3123" x="257.753" y="34.7178" width="7.48517" height="7.48535"
					filterUnits="userSpaceOnUse" color-interpolation-filters="sRGB">
				<feFlood flood-opacity="0" result="BackgroundImageFix"/>
				<feBlend mode="normal" in="SourceGraphic" in2="BackgroundImageFix" result="shape"/>
				<feGaussianBlur stdDeviation="1.5" result="effect1_foregroundBlur_2139_3123"/>
			</filter>
			<filter id="filter37_f_2139_3123" x="260.723" y="34.7178" width="7.48517" height="7.48535"
					filterUnits="userSpaceOnUse" color-interpolation-filters="sRGB">
				<feFlood flood-opacity="0" result="BackgroundImageFix"/>
				<feBlend mode="normal" in="SourceGraphic" in2="BackgroundImageFix" result="shape"/>
				<feGaussianBlur stdDeviation="1.5" result="effect1_foregroundBlur_2139_3123"/>
			</filter>
			<filter id="filter38_f_2139_3123" x="263.694" y="34.7178" width="7.48517" height="7.48535"
					filterUnits="userSpaceOnUse" color-interpolation-filters="sRGB">
				<feFlood flood-opacity="0" result="BackgroundImageFix"/>
				<feBlend mode="normal" in="SourceGraphic" in2="BackgroundImageFix" result="shape"/>
				<feGaussianBlur stdDeviation="1.5" result="effect1_foregroundBlur_2139_3123"/>
			</filter>
			<filter id="filter39_i_2139_3123" x="228" y="83" width="42" height="4" filterUnits="userSpaceOnUse"
					color-interpolation-filters="sRGB">
				<feFlood flood-opacity="0" result="BackgroundImageFix"/>
				<feBlend mode="normal" in="SourceGraphic" in2="BackgroundImageFix" result="shape"/>
				<feColorMatrix in="SourceAlpha" type="matrix" values="0 0 0 0 0 0 0 0 0 0 0 0 0 0 0 0 0 0 127 0"
							   result="hardAlpha"/>
				<feOffset/>
				<feGaussianBlur stdDeviation="1"/>
				<feComposite in2="hardAlpha" operator="arithmetic" k2="-1" k3="1"/>
				<feColorMatrix type="matrix" values="0 0 0 0 1 0 0 0 0 1 0 0 0 0 1 0 0 0 0.25 0"/>
				<feBlend mode="normal" in2="shape" result="effect1_innerShadow_2139_3123"/>
			</filter>
			<filter id="filter40_i_2139_3123" x="175" y="84.5" width="48" height="3.5" filterUnits="userSpaceOnUse"
					color-interpolation-filters="sRGB">
				<feFlood flood-opacity="0" result="BackgroundImageFix"/>
				<feBlend mode="normal" in="SourceGraphic" in2="BackgroundImageFix" result="shape"/>
				<feColorMatrix in="SourceAlpha" type="matrix" values="0 0 0 0 0 0 0 0 0 0 0 0 0 0 0 0 0 0 127 0"
							   result="hardAlpha"/>
				<feOffset/>
				<feGaussianBlur stdDeviation="1.5"/>
				<feComposite in2="hardAlpha" operator="arithmetic" k2="-1" k3="1"/>
				<feColorMatrix type="matrix" values="0 0 0 0 0.631088 0 0 0 0 0.660104 0 0 0 0 0.7 0 0 0 0.3 0"/>
				<feBlend mode="normal" in2="shape" result="effect1_innerShadow_2139_3123"/>
			</filter>
			<filter id="filter41_i_2139_3123" x="49" y="79.5" width="43" height="8" filterUnits="userSpaceOnUse"
					color-interpolation-filters="sRGB">
				<feFlood flood-opacity="0" result="BackgroundImageFix"/>
				<feBlend mode="normal" in="SourceGraphic" in2="BackgroundImageFix" result="shape"/>
				<feColorMatrix in="SourceAlpha" type="matrix" values="0 0 0 0 0 0 0 0 0 0 0 0 0 0 0 0 0 0 127 0"
							   result="hardAlpha"/>
				<feOffset/>
				<feGaussianBlur stdDeviation="1"/>
				<feComposite in2="hardAlpha" operator="arithmetic" k2="-1" k3="1"/>
				<feColorMatrix type="matrix" values="0 0 0 0 0.76 0 0 0 0 0.776667 0 0 0 0 0.8 0 0 0 0.2 0"/>
				<feBlend mode="normal" in2="shape" result="effect1_innerShadow_2139_3123"/>
			</filter>
			<linearGradient id="paint0_linear_2139_3123" x1="71" y1="52" x2="71" y2="69" gradientUnits="userSpaceOnUse">
				<stop stop-color="#6C7480" stop-opacity="0"/>
				<stop offset="1" stop-color="#6C7480"/>
			</linearGradient>
			<linearGradient id="paint1_linear_2139_3123" x1="90.3837" y1="18.4792" x2="50.6163" y2="18.4792"
							gradientUnits="userSpaceOnUse">
				<stop stop-color="#A1A8B3"/>
				<stop offset="0.51024" stop-color="#8B939E"/>
				<stop offset="1" stop-color="#A1A8B3"/>
			</linearGradient>
			<linearGradient id="paint2_linear_2139_3123" x1="48" y1="31" x2="93" y2="31" gradientUnits="userSpaceOnUse">
				<stop stop-color="#899099"/>
				<stop offset="1" stop-color="#899099"/>
			</linearGradient>
			<linearGradient id="paint3_linear_2139_3123" x1="192.75" y1="23.75" x2="208.5" y2="84.5"
							gradientUnits="userSpaceOnUse">
				<stop stop-color="#ACB4BF"/>
				<stop offset="1" stop-color="#899099"/>
			</linearGradient>
			<linearGradient id="paint4_linear_2139_3123" x1="242.25" y1="19" x2="168.5" y2="13.25"
							gradientUnits="userSpaceOnUse">
				<stop stop-color="#A1A8B3"/>
				<stop offset="0.315342" stop-color="#96A0AD"/>
				<stop offset="1" stop-color="#A7AEB8"/>
			</linearGradient>
			<linearGradient id="paint5_linear_2139_3123" x1="70.5" y1="78" x2="70.5" y2="78.5"
							gradientUnits="userSpaceOnUse">
				<stop stop-color="#959CA6"/>
				<stop offset="1" stop-color="#A0A8B3"/>
			</linearGradient>
			<linearGradient id="paint6_linear_2139_3123" x1="70.5" y1="88.5" x2="70.5" y2="89.5"
							gradientUnits="userSpaceOnUse">
				<stop stop-color="#899099"/>
				<stop offset="1" stop-color="#A0A8B3"/>
			</linearGradient>
			<linearGradient id="paint7_linear_2139_3123" x1="70.5" y1="87.5" x2="70.5" y2="89.5"
							gradientUnits="userSpaceOnUse">
				<stop stop-color="#F5F7FA"/>
				<stop offset="1" stop-color="#E6EBF2" stop-opacity="0.8"/>
			</linearGradient>
		</defs>
	</g>
</svg>