<!--
  - * @LastEditors: zhanghengxin ezreal.zhang@icewhale.org
  - * @LastEditTime: 2023/5/23 下午2:48
  - * @FilePath: /CasaOS-UI/main/src/assets/img/learn/helper-insertMoreDrives.svg
  - * @Description:
  - *
  - * Copyright (c) 2023 by IceWhale, All Rights Reserved.
  -
  -->

<svg width="320" height="100" viewBox="0 0 320 100" fill="none" xmlns="http://www.w3.org/2000/svg">
	<mask id="mask0_1298_18432" style="mask-type:alpha" maskUnits="userSpaceOnUse" x="0" y="0" width="320" height="100">
		<path d="M0 0H320V100H0V0Z" fill="white"/>
	</mask>
	<g mask="url(#mask0_1298_18432)">
		<path
			d="M172.113 57.8456C173.296 56.9228 173.296 55.0772 172.113 54.1544L162.061 46.3104C161.086 45.55 159.696 46.2734 159.696 47.5408V51.3861H140.478C139.662 51.3861 139 52.0747 139 52.9241V59.0763C139 59.9257 139.662 60.6143 140.478 60.6143H159.696V64.4592C159.696 65.7266 161.086 66.45 162.061 65.6896L172.113 57.8456Z"
			fill="#2BD990"/>
	</g>
	<g filter="url(#filter0_f_1298_18432)">
		<path d="M197.5 61H259.5L279.5 85H177.5L197.5 61Z" fill="#6C7480" fill-opacity="0.24"/>
	</g>
	<g filter="url(#filter1_f_1298_18432)">
		<path
			d="M193 62H263.5L270.11 80.6646C271.032 83.2678 269.102 86 266.34 86H190.55C187.819 86 185.892 83.3252 186.755 80.7351L193 62Z"
			fill="#88909B" fill-opacity="0.8"/>
	</g>
	<g filter="url(#filter2_iiii_1298_18432)">
		<path
			d="M185.5 34.0052C185.5 29.0838 189.49 25.0942 194.411 25.0942H262.728C267.649 25.0942 271.639 29.0838 271.639 34.0052V75.5894C271.639 80.5108 267.649 84.5003 262.728 84.5003H194.411C189.49 84.5003 185.5 80.5108 185.5 75.5894V34.0052Z"
			fill="url(#paint0_linear_1298_18432)"/>
	</g>
	<g filter="url(#filter3_ii_1298_18432)">
		<path fill-rule="evenodd" clip-rule="evenodd"
			  d="M199.266 9.5C195.823 9.5 192.766 11.7034 191.677 14.9702L186.963 29.1114C188.556 26.6915 191.297 25.0942 194.411 25.0942H262.728C265.675 25.0942 268.287 26.5247 269.91 28.729L265.323 14.9702C264.234 11.7034 261.177 9.5 257.734 9.5H199.266ZM185.514 33.5C185.515 33.4829 185.516 33.4658 185.517 33.4487L185.5 33.5H185.514Z"
			  fill="url(#paint1_linear_1298_18432)"/>
	</g>
	<g filter="url(#filter4_i_1298_18432)">
		<path
			d="M197.381 35.4904C197.381 32.2095 200.041 29.5498 203.322 29.5498H261.243C264.524 29.5498 267.184 32.2095 267.184 35.4904V74.1044C267.184 77.3853 264.524 80.045 261.243 80.045H203.322C200.041 80.045 197.381 77.3853 197.381 74.1044V35.4904Z"
			fill="#B8C0CC"/>
	</g>
	<path fill-rule="evenodd" clip-rule="evenodd"
		  d="M203.322 28.8066H261.243C264.934 28.8066 267.926 31.7988 267.926 35.4898V74.1038C267.926 77.7948 264.934 80.787 261.243 80.787H203.322C199.631 80.787 196.639 77.7948 196.639 74.1038V35.4898C196.639 31.7988 199.631 28.8066 203.322 28.8066ZM203.322 29.5492C200.041 29.5492 197.381 32.2089 197.381 35.4898V74.1038C197.381 77.3847 200.041 80.0444 203.322 80.0444H261.243C264.524 80.0444 267.183 77.3847 267.183 74.1038V35.4898C267.183 32.2089 264.524 29.5492 261.243 29.5492H203.322Z"
		  fill="#CFD8E5"/>
	<g filter="url(#filter5_f_1298_18432)">
		<path
			d="M192.184 35.1187C192.184 35.7339 191.685 36.2326 191.07 36.2326C190.455 36.2326 189.956 35.7339 189.956 35.1187C189.956 34.5036 190.455 34.0049 191.07 34.0049C191.685 34.0049 192.184 34.5036 192.184 35.1187Z"
			fill="white" fill-opacity="0.4"/>
	</g>
	<path
		d="M192.184 35.1187C192.184 35.7339 191.685 36.2326 191.07 36.2326C190.455 36.2326 189.956 35.7339 189.956 35.1187C189.956 34.5036 190.455 34.0049 191.07 34.0049C191.685 34.0049 192.184 34.5036 192.184 35.1187Z"
		fill="white"/>
	<g filter="url(#filter6_f_1298_18432)">
		<path
			d="M192.183 39.5746C192.183 40.1897 191.685 40.6884 191.07 40.6884C190.454 40.6884 189.956 40.1897 189.956 39.5746C189.956 38.9594 190.454 38.4607 191.07 38.4607C191.685 38.4607 192.183 38.9594 192.183 39.5746Z"
			fill="white" fill-opacity="0.4"/>
	</g>
	<path
		d="M192.183 39.5746C192.183 40.1897 191.685 40.6884 191.07 40.6884C190.454 40.6884 189.956 40.1897 189.956 39.5746C189.956 38.9594 190.454 38.4607 191.07 38.4607C191.685 38.4607 192.183 38.9594 192.183 39.5746Z"
		fill="white"/>
	<g filter="url(#filter7_f_1298_18432)">
		<path
			d="M192.183 44.0299C192.183 44.6451 191.685 45.1437 191.069 45.1437C190.454 45.1437 189.956 44.6451 189.956 44.0299C189.956 43.4147 190.454 42.916 191.069 42.916C191.685 42.916 192.183 43.4147 192.183 44.0299Z"
			fill="white" fill-opacity="0.4"/>
	</g>
	<path
		d="M192.183 44.0299C192.183 44.6451 191.685 45.1437 191.069 45.1437C190.454 45.1437 189.956 44.6451 189.956 44.0299C189.956 43.4147 190.454 42.916 191.069 42.916C191.685 42.916 192.183 43.4147 192.183 44.0299Z"
		fill="white"/>
	<g filter="url(#filter8_f_1298_18432)">
		<path
			d="M192.183 48.4854C192.183 49.1006 191.685 49.5993 191.069 49.5993C190.454 49.5993 189.956 49.1006 189.956 48.4854C189.956 47.8703 190.454 47.3716 191.069 47.3716C191.685 47.3716 192.183 47.8703 192.183 48.4854Z"
			fill="white" fill-opacity="0.4"/>
	</g>
	<path
		d="M192.183 48.4854C192.183 49.1006 191.685 49.5993 191.069 49.5993C190.454 49.5993 189.956 49.1006 189.956 48.4854C189.956 47.8703 190.454 47.3716 191.069 47.3716C191.685 47.3716 192.183 47.8703 192.183 48.4854Z"
		fill="white"/>
	<path
		d="M200.352 36.2329C200.352 34.1823 202.014 32.52 204.064 32.52H211.49C213.541 32.52 215.203 34.1823 215.203 36.2329V73.3617C215.203 75.4123 213.541 77.0746 211.49 77.0746H204.064C202.014 77.0746 200.352 75.4123 200.352 73.3617V36.2329Z"
		fill="#899099"/>
	<path
		d="M201.837 36.9752C201.837 35.3347 203.167 34.0049 204.807 34.0049H210.748C212.388 34.0049 213.718 35.3347 213.718 36.9752V72.6188C213.718 74.2593 212.388 75.5892 210.748 75.5892H204.807C203.167 75.5892 201.837 74.2593 201.837 72.6188V36.9752Z"
		fill="white"/>
	<g filter="url(#filter9_f_1298_18432)">
		<path
			d="M205.55 38.4613C205.55 38.8714 205.217 39.2039 204.807 39.2039C204.397 39.2039 204.064 38.8714 204.064 38.4613C204.064 38.0512 204.397 37.7188 204.807 37.7188C205.217 37.7188 205.55 38.0512 205.55 38.4613Z"
			fill="#2BD990" fill-opacity="0.4"/>
	</g>
	<path
		d="M205.55 38.4613C205.55 38.8714 205.217 39.2039 204.807 39.2039C204.397 39.2039 204.064 38.8714 204.064 38.4613C204.064 38.0512 204.397 37.7188 204.807 37.7188C205.217 37.7188 205.55 38.0512 205.55 38.4613Z"
		fill="#2BD990"/>
	<path fill-rule="evenodd" clip-rule="evenodd"
		  d="M204.807 37.904C204.499 37.904 204.25 38.1534 204.25 38.4609C204.25 38.7685 204.499 39.0179 204.807 39.0179C205.114 39.0179 205.364 38.7685 205.364 38.4609C205.364 38.1534 205.114 37.904 204.807 37.904ZM203.879 38.4609C203.879 37.9483 204.294 37.5327 204.807 37.5327C205.32 37.5327 205.735 37.9483 205.735 38.4609C205.735 38.9736 205.32 39.3892 204.807 39.3892C204.294 39.3892 203.879 38.9736 203.879 38.4609Z"
		  fill="white"/>
	<g filter="url(#filter10_f_1298_18432)">
		<path
			d="M208.52 38.4613C208.52 38.8714 208.188 39.2039 207.777 39.2039C207.367 39.2039 207.035 38.8714 207.035 38.4613C207.035 38.0512 207.367 37.7188 207.777 37.7188C208.188 37.7188 208.52 38.0512 208.52 38.4613Z"
			fill="#2BD990" fill-opacity="0.4"/>
	</g>
	<path
		d="M208.52 38.4613C208.52 38.8714 208.188 39.2039 207.777 39.2039C207.367 39.2039 207.035 38.8714 207.035 38.4613C207.035 38.0512 207.367 37.7188 207.777 37.7188C208.188 37.7188 208.52 38.0512 208.52 38.4613Z"
		fill="#2BD990"/>
	<path fill-rule="evenodd" clip-rule="evenodd"
		  d="M207.777 37.904C207.47 37.904 207.22 38.1534 207.22 38.4609C207.22 38.7685 207.47 39.0179 207.777 39.0179C208.085 39.0179 208.334 38.7685 208.334 38.4609C208.334 38.1534 208.085 37.904 207.777 37.904ZM206.849 38.4609C206.849 37.9483 207.265 37.5327 207.777 37.5327C208.29 37.5327 208.706 37.9483 208.706 38.4609C208.706 38.9736 208.29 39.3892 207.777 39.3892C207.265 39.3892 206.849 38.9736 206.849 38.4609Z"
		  fill="white"/>
	<g filter="url(#filter11_f_1298_18432)">
		<path
			d="M211.49 38.4613C211.49 38.8714 211.158 39.2039 210.748 39.2039C210.338 39.2039 210.005 38.8714 210.005 38.4613C210.005 38.0512 210.338 37.7188 210.748 37.7188C211.158 37.7188 211.49 38.0512 211.49 38.4613Z"
			fill="#2BD990" fill-opacity="0.4"/>
	</g>
	<path
		d="M211.49 38.4613C211.49 38.8714 211.158 39.2039 210.748 39.2039C210.338 39.2039 210.005 38.8714 210.005 38.4613C210.005 38.0512 210.338 37.7188 210.748 37.7188C211.158 37.7188 211.49 38.0512 211.49 38.4613Z"
		fill="#2BD990"/>
	<path fill-rule="evenodd" clip-rule="evenodd"
		  d="M210.748 37.904C210.44 37.904 210.191 38.1534 210.191 38.4609C210.191 38.7685 210.44 39.0179 210.748 39.0179C211.055 39.0179 211.304 38.7685 211.304 38.4609C211.304 38.1534 211.055 37.904 210.748 37.904ZM209.819 38.4609C209.819 37.9483 210.235 37.5327 210.748 37.5327C211.26 37.5327 211.676 37.9483 211.676 38.4609C211.676 38.9736 211.26 39.3892 210.748 39.3892C210.235 39.3892 209.819 38.9736 209.819 38.4609Z"
		  fill="white"/>
	<path
		d="M204.807 71.5053C204.807 71.3003 204.973 71.134 205.178 71.134H210.376C210.581 71.134 210.748 71.3003 210.748 71.5053C210.748 71.7104 210.581 71.8766 210.376 71.8766H205.178C204.973 71.8766 204.807 71.7104 204.807 71.5053Z"
		fill="#E6EBF2"/>
	<path
		d="M204.807 69.2773C204.807 69.0722 204.973 68.906 205.178 68.906H210.376C210.581 68.906 210.748 69.0722 210.748 69.2773C210.748 69.4824 210.581 69.6486 210.376 69.6486H205.178C204.973 69.6486 204.807 69.4824 204.807 69.2773Z"
		fill="#E6EBF2"/>
	<path
		d="M204.807 67.05C204.807 66.8449 204.973 66.6787 205.178 66.6787H210.376C210.581 66.6787 210.748 66.8449 210.748 67.05C210.748 67.2551 210.581 67.4213 210.376 67.4213H205.178C204.973 67.4213 204.807 67.2551 204.807 67.05Z"
		fill="#E6EBF2"/>
	<path
		d="M216.688 36.2324C216.688 34.1818 218.35 32.5195 220.401 32.5195H227.827C229.877 32.5195 231.54 34.1818 231.54 36.2324V73.3612C231.54 75.4118 229.877 77.0741 227.827 77.0741H220.401C218.35 77.0741 216.688 75.4118 216.688 73.3612V36.2324Z"
		fill="#899099"/>
	<g opacity="0.6">
		<path
			d="M218.173 36.9752C218.173 35.3347 219.503 34.0049 221.144 34.0049H227.084C228.725 34.0049 230.055 35.3347 230.055 36.9752V72.6188C230.055 74.2593 228.725 75.5892 227.084 75.5892H221.144C219.503 75.5892 218.173 74.2593 218.173 72.6188V36.9752Z"
			fill="white"/>
		<g filter="url(#filter12_f_1298_18432)">
			<path
				d="M221.886 38.4606C221.886 38.8707 221.554 39.2032 221.144 39.2032C220.734 39.2032 220.401 38.8707 220.401 38.4606C220.401 38.0505 220.734 37.718 221.144 37.718C221.554 37.718 221.886 38.0505 221.886 38.4606Z"
				fill="#2BD990" fill-opacity="0.4"/>
		</g>
		<path
			d="M221.886 38.4606C221.886 38.8707 221.554 39.2032 221.144 39.2032C220.734 39.2032 220.401 38.8707 220.401 38.4606C220.401 38.0505 220.734 37.718 221.144 37.718C221.554 37.718 221.886 38.0505 221.886 38.4606Z"
			fill="#2BD990"/>
		<path fill-rule="evenodd" clip-rule="evenodd"
			  d="M221.144 37.9035C220.836 37.9035 220.587 38.1529 220.587 38.4604C220.587 38.768 220.836 39.0174 221.144 39.0174C221.451 39.0174 221.7 38.768 221.7 38.4604C221.7 38.1529 221.451 37.9035 221.144 37.9035ZM220.215 38.4604C220.215 37.9478 220.631 37.5322 221.144 37.5322C221.656 37.5322 222.072 37.9478 222.072 38.4604C222.072 38.9731 221.656 39.3887 221.144 39.3887C220.631 39.3887 220.215 38.9731 220.215 38.4604Z"
			  fill="white"/>
		<g filter="url(#filter13_f_1298_18432)">
			<path
				d="M224.857 38.4606C224.857 38.8707 224.524 39.2032 224.114 39.2032C223.704 39.2032 223.372 38.8707 223.372 38.4606C223.372 38.0505 223.704 37.718 224.114 37.718C224.524 37.718 224.857 38.0505 224.857 38.4606Z"
				fill="#2BD990" fill-opacity="0.4"/>
		</g>
		<path
			d="M224.857 38.4606C224.857 38.8707 224.524 39.2032 224.114 39.2032C223.704 39.2032 223.372 38.8707 223.372 38.4606C223.372 38.0505 223.704 37.718 224.114 37.718C224.524 37.718 224.857 38.0505 224.857 38.4606Z"
			fill="#2BD990"/>
		<path fill-rule="evenodd" clip-rule="evenodd"
			  d="M224.114 37.9035C223.806 37.9035 223.557 38.1529 223.557 38.4604C223.557 38.768 223.806 39.0174 224.114 39.0174C224.421 39.0174 224.671 38.768 224.671 38.4604C224.671 38.1529 224.421 37.9035 224.114 37.9035ZM223.186 38.4604C223.186 37.9478 223.601 37.5322 224.114 37.5322C224.627 37.5322 225.042 37.9478 225.042 38.4604C225.042 38.9731 224.627 39.3887 224.114 39.3887C223.601 39.3887 223.186 38.9731 223.186 38.4604Z"
			  fill="white"/>
		<g filter="url(#filter14_f_1298_18432)">
			<path
				d="M227.827 38.4606C227.827 38.8707 227.494 39.2032 227.084 39.2032C226.674 39.2032 226.342 38.8707 226.342 38.4606C226.342 38.0505 226.674 37.718 227.084 37.718C227.494 37.718 227.827 38.0505 227.827 38.4606Z"
				fill="#2BD990" fill-opacity="0.4"/>
		</g>
		<path
			d="M227.827 38.4606C227.827 38.8707 227.494 39.2032 227.084 39.2032C226.674 39.2032 226.342 38.8707 226.342 38.4606C226.342 38.0505 226.674 37.718 227.084 37.718C227.494 37.718 227.827 38.0505 227.827 38.4606Z"
			fill="#2BD990"/>
		<path fill-rule="evenodd" clip-rule="evenodd"
			  d="M227.084 37.9035C226.777 37.9035 226.527 38.1529 226.527 38.4604C226.527 38.768 226.777 39.0174 227.084 39.0174C227.392 39.0174 227.641 38.768 227.641 38.4604C227.641 38.1529 227.392 37.9035 227.084 37.9035ZM226.156 38.4604C226.156 37.9478 226.571 37.5322 227.084 37.5322C227.597 37.5322 228.012 37.9478 228.012 38.4604C228.012 38.9731 227.597 39.3887 227.084 39.3887C226.571 39.3887 226.156 38.9731 226.156 38.4604Z"
			  fill="white"/>
		<path
			d="M221.144 71.5051C221.144 71.3 221.31 71.1338 221.515 71.1338H226.713C226.918 71.1338 227.084 71.3 227.084 71.5051C227.084 71.7101 226.918 71.8764 226.713 71.8764H221.515C221.31 71.8764 221.144 71.7101 221.144 71.5051Z"
			fill="#E6EBF2"/>
		<path
			d="M221.144 69.277C221.144 69.072 221.31 68.9058 221.515 68.9058H226.713C226.918 68.9058 227.084 69.072 227.084 69.277C227.084 69.4821 226.918 69.6483 226.713 69.6483H221.515C221.31 69.6483 221.144 69.4821 221.144 69.277Z"
			fill="#E6EBF2"/>
		<path
			d="M221.144 67.0498C221.144 66.8447 221.31 66.6785 221.515 66.6785H226.713C226.918 66.6785 227.084 66.8447 227.084 67.0498C227.084 67.2548 226.918 67.421 226.713 67.421H221.515C221.31 67.421 221.144 67.2548 221.144 67.0498Z"
			fill="#E6EBF2"/>
	</g>
	<path
		d="M233.025 36.2324C233.025 34.1818 234.687 32.5195 236.738 32.5195H244.164C246.214 32.5195 247.876 34.1818 247.876 36.2324V73.3612C247.876 75.4118 246.214 77.0741 244.164 77.0741H236.738C234.687 77.0741 233.025 75.4118 233.025 73.3612V36.2324Z"
		fill="#899099"/>
	<g opacity="0.6">
		<path
			d="M234.51 36.9752C234.51 35.3347 235.84 34.0049 237.481 34.0049H243.421C245.062 34.0049 246.391 35.3347 246.391 36.9752V72.6188C246.391 74.2593 245.062 75.5892 243.421 75.5892H237.481C235.84 75.5892 234.51 74.2593 234.51 72.6188V36.9752Z"
			fill="white"/>
		<g filter="url(#filter15_f_1298_18432)">
			<path
				d="M238.223 38.4606C238.223 38.8707 237.891 39.2032 237.481 39.2032C237.07 39.2032 236.738 38.8707 236.738 38.4606C236.738 38.0505 237.07 37.718 237.481 37.718C237.891 37.718 238.223 38.0505 238.223 38.4606Z"
				fill="#2BD990" fill-opacity="0.4"/>
		</g>
		<path
			d="M238.223 38.4606C238.223 38.8707 237.891 39.2032 237.481 39.2032C237.07 39.2032 236.738 38.8707 236.738 38.4606C236.738 38.0505 237.07 37.718 237.481 37.718C237.891 37.718 238.223 38.0505 238.223 38.4606Z"
			fill="#2BD990"/>
		<path fill-rule="evenodd" clip-rule="evenodd"
			  d="M237.48 37.9035C237.173 37.9035 236.924 38.1529 236.924 38.4604C236.924 38.768 237.173 39.0174 237.48 39.0174C237.788 39.0174 238.037 38.768 238.037 38.4604C238.037 38.1529 237.788 37.9035 237.48 37.9035ZM236.552 38.4604C236.552 37.9478 236.968 37.5322 237.48 37.5322C237.993 37.5322 238.409 37.9478 238.409 38.4604C238.409 38.9731 237.993 39.3887 237.48 39.3887C236.968 39.3887 236.552 38.9731 236.552 38.4604Z"
			  fill="white"/>
		<g filter="url(#filter16_f_1298_18432)">
			<path
				d="M241.194 38.4606C241.194 38.8707 240.861 39.2032 240.451 39.2032C240.041 39.2032 239.708 38.8707 239.708 38.4606C239.708 38.0505 240.041 37.718 240.451 37.718C240.861 37.718 241.194 38.0505 241.194 38.4606Z"
				fill="#2BD990" fill-opacity="0.4"/>
		</g>
		<path
			d="M241.194 38.4606C241.194 38.8707 240.861 39.2032 240.451 39.2032C240.041 39.2032 239.708 38.8707 239.708 38.4606C239.708 38.0505 240.041 37.718 240.451 37.718C240.861 37.718 241.194 38.0505 241.194 38.4606Z"
			fill="#2BD990"/>
		<path fill-rule="evenodd" clip-rule="evenodd"
			  d="M240.451 37.9035C240.143 37.9035 239.894 38.1529 239.894 38.4604C239.894 38.768 240.143 39.0174 240.451 39.0174C240.759 39.0174 241.008 38.768 241.008 38.4604C241.008 38.1529 240.759 37.9035 240.451 37.9035ZM239.523 38.4604C239.523 37.9478 239.938 37.5322 240.451 37.5322C240.964 37.5322 241.379 37.9478 241.379 38.4604C241.379 38.9731 240.964 39.3887 240.451 39.3887C239.938 39.3887 239.523 38.9731 239.523 38.4604Z"
			  fill="white"/>
		<g filter="url(#filter17_f_1298_18432)">
			<path
				d="M244.164 38.4606C244.164 38.8707 243.831 39.2032 243.421 39.2032C243.011 39.2032 242.679 38.8707 242.679 38.4606C242.679 38.0505 243.011 37.718 243.421 37.718C243.831 37.718 244.164 38.0505 244.164 38.4606Z"
				fill="#2BD990" fill-opacity="0.4"/>
		</g>
		<path
			d="M244.164 38.4606C244.164 38.8707 243.831 39.2032 243.421 39.2032C243.011 39.2032 242.679 38.8707 242.679 38.4606C242.679 38.0505 243.011 37.718 243.421 37.718C243.831 37.718 244.164 38.0505 244.164 38.4606Z"
			fill="#2BD990"/>
		<path fill-rule="evenodd" clip-rule="evenodd"
			  d="M243.421 37.9035C243.114 37.9035 242.864 38.1529 242.864 38.4604C242.864 38.768 243.114 39.0174 243.421 39.0174C243.729 39.0174 243.978 38.768 243.978 38.4604C243.978 38.1529 243.729 37.9035 243.421 37.9035ZM242.493 38.4604C242.493 37.9478 242.908 37.5322 243.421 37.5322C243.934 37.5322 244.349 37.9478 244.349 38.4604C244.349 38.9731 243.934 39.3887 243.421 39.3887C242.908 39.3887 242.493 38.9731 242.493 38.4604Z"
			  fill="white"/>
		<path
			d="M237.48 71.5051C237.48 71.3 237.647 71.1338 237.852 71.1338H243.05C243.255 71.1338 243.421 71.3 243.421 71.5051C243.421 71.7101 243.255 71.8764 243.05 71.8764H237.852C237.647 71.8764 237.48 71.7101 237.48 71.5051Z"
			fill="#E6EBF2"/>
		<path
			d="M237.48 69.277C237.48 69.072 237.647 68.9058 237.852 68.9058H243.05C243.255 68.9058 243.421 69.072 243.421 69.277C243.421 69.4821 243.255 69.6483 243.05 69.6483H237.852C237.647 69.6483 237.48 69.4821 237.48 69.277Z"
			fill="#E6EBF2"/>
		<path
			d="M237.48 67.0498C237.48 66.8447 237.647 66.6785 237.852 66.6785H243.05C243.255 66.6785 243.421 66.8447 243.421 67.0498C243.421 67.2548 243.255 67.421 243.05 67.421H237.852C237.647 67.421 237.48 67.2548 237.48 67.0498Z"
			fill="#E6EBF2"/>
	</g>
	<path
		d="M249.362 36.2324C249.362 34.1818 251.024 32.5195 253.074 32.5195H260.5C262.551 32.5195 264.213 34.1818 264.213 36.2324V73.3612C264.213 75.4118 262.551 77.0741 260.5 77.0741H253.074C251.024 77.0741 249.362 75.4118 249.362 73.3612V36.2324Z"
		fill="#899099"/>
	<g opacity="0.6">
		<path
			d="M250.847 36.9752C250.847 35.3347 252.177 34.0049 253.817 34.0049H259.758C261.398 34.0049 262.728 35.3347 262.728 36.9752V72.6188C262.728 74.2593 261.398 75.5892 259.758 75.5892H253.817C252.177 75.5892 250.847 74.2593 250.847 72.6188V36.9752Z"
			fill="white"/>
		<g filter="url(#filter18_f_1298_18432)">
			<path
				d="M254.56 38.4606C254.56 38.8707 254.227 39.2032 253.817 39.2032C253.407 39.2032 253.075 38.8707 253.075 38.4606C253.075 38.0505 253.407 37.718 253.817 37.718C254.227 37.718 254.56 38.0505 254.56 38.4606Z"
				fill="#2BD990" fill-opacity="0.4"/>
		</g>
		<path
			d="M254.56 38.4606C254.56 38.8707 254.227 39.2032 253.817 39.2032C253.407 39.2032 253.075 38.8707 253.075 38.4606C253.075 38.0505 253.407 37.718 253.817 37.718C254.227 37.718 254.56 38.0505 254.56 38.4606Z"
			fill="#2BD990"/>
		<path fill-rule="evenodd" clip-rule="evenodd"
			  d="M253.817 37.9035C253.509 37.9035 253.26 38.1529 253.26 38.4604C253.26 38.768 253.509 39.0174 253.817 39.0174C254.125 39.0174 254.374 38.768 254.374 38.4604C254.374 38.1529 254.125 37.9035 253.817 37.9035ZM252.889 38.4604C252.889 37.9478 253.304 37.5322 253.817 37.5322C254.33 37.5322 254.745 37.9478 254.745 38.4604C254.745 38.9731 254.33 39.3887 253.817 39.3887C253.304 39.3887 252.889 38.9731 252.889 38.4604Z"
			  fill="white"/>
		<g filter="url(#filter19_f_1298_18432)">
			<path
				d="M257.53 38.4606C257.53 38.8707 257.198 39.2032 256.787 39.2032C256.377 39.2032 256.045 38.8707 256.045 38.4606C256.045 38.0505 256.377 37.718 256.787 37.718C257.198 37.718 257.53 38.0505 257.53 38.4606Z"
				fill="#2BD990" fill-opacity="0.4"/>
		</g>
		<path
			d="M257.53 38.4606C257.53 38.8707 257.198 39.2032 256.787 39.2032C256.377 39.2032 256.045 38.8707 256.045 38.4606C256.045 38.0505 256.377 37.718 256.787 37.718C257.198 37.718 257.53 38.0505 257.53 38.4606Z"
			fill="#2BD990"/>
		<path fill-rule="evenodd" clip-rule="evenodd"
			  d="M256.787 37.9035C256.48 37.9035 256.231 38.1529 256.231 38.4604C256.231 38.768 256.48 39.0174 256.787 39.0174C257.095 39.0174 257.344 38.768 257.344 38.4604C257.344 38.1529 257.095 37.9035 256.787 37.9035ZM255.859 38.4604C255.859 37.9478 256.275 37.5322 256.787 37.5322C257.3 37.5322 257.716 37.9478 257.716 38.4604C257.716 38.9731 257.3 39.3887 256.787 39.3887C256.275 39.3887 255.859 38.9731 255.859 38.4604Z"
			  fill="white"/>
		<g filter="url(#filter20_f_1298_18432)">
			<path
				d="M260.5 38.4606C260.5 38.8707 260.168 39.2032 259.758 39.2032C259.348 39.2032 259.015 38.8707 259.015 38.4606C259.015 38.0505 259.348 37.718 259.758 37.718C260.168 37.718 260.5 38.0505 260.5 38.4606Z"
				fill="#2BD990" fill-opacity="0.4"/>
		</g>
		<path
			d="M260.5 38.4606C260.5 38.8707 260.168 39.2032 259.758 39.2032C259.348 39.2032 259.015 38.8707 259.015 38.4606C259.015 38.0505 259.348 37.718 259.758 37.718C260.168 37.718 260.5 38.0505 260.5 38.4606Z"
			fill="#2BD990"/>
		<path fill-rule="evenodd" clip-rule="evenodd"
			  d="M259.758 37.9035C259.45 37.9035 259.201 38.1529 259.201 38.4604C259.201 38.768 259.45 39.0174 259.758 39.0174C260.065 39.0174 260.315 38.768 260.315 38.4604C260.315 38.1529 260.065 37.9035 259.758 37.9035ZM258.829 38.4604C258.829 37.9478 259.245 37.5322 259.758 37.5322C260.27 37.5322 260.686 37.9478 260.686 38.4604C260.686 38.9731 260.27 39.3887 259.758 39.3887C259.245 39.3887 258.829 38.9731 258.829 38.4604Z"
			  fill="white"/>
		<path
			d="M253.817 71.5051C253.817 71.3 253.983 71.1338 254.188 71.1338H259.386C259.592 71.1338 259.758 71.3 259.758 71.5051C259.758 71.7101 259.592 71.8764 259.386 71.8764H254.188C253.983 71.8764 253.817 71.7101 253.817 71.5051Z"
			fill="#E6EBF2"/>
		<path
			d="M253.817 69.277C253.817 69.072 253.983 68.9058 254.188 68.9058H259.386C259.592 68.9058 259.758 69.072 259.758 69.277C259.758 69.4821 259.592 69.6483 259.386 69.6483H254.188C253.983 69.6483 253.817 69.4821 253.817 69.277Z"
			fill="#E6EBF2"/>
		<path
			d="M253.817 67.0498C253.817 66.8447 253.983 66.6785 254.188 66.6785H259.386C259.592 66.6785 259.758 66.8447 259.758 67.0498C259.758 67.2548 259.592 67.421 259.386 67.421H254.188C253.983 67.421 253.817 67.2548 253.817 67.0498Z"
			fill="#E6EBF2"/>
	</g>
	<g filter="url(#filter21_f_1298_18432)">
		<path d="M83.8529 68H122.147L134.5 85H71.5L83.8529 68Z" fill="url(#paint2_linear_1298_18432)"
			  fill-opacity="0.3"/>
	</g>
	<g filter="url(#filter22_f_1298_18432)">
		<path d="M85 73.5H120L124.5 85.5H80.5L85 73.5Z" fill="#899099" fill-opacity="0.8"/>
	</g>
	<path
		d="M83.75 84.5C81.6789 84.5 80 82.8211 80 80.75V73.25C80 71.1789 81.6789 69.5 83.75 69.5H121.25C123.321 69.5 125 71.1789 125 73.25V80.75C125 82.8211 123.321 84.5 121.25 84.5H83.75Z"
		fill="#899099"/>
	<path
		d="M84.4998 83C82.8429 83 81.4998 81.6569 81.4998 80V74C81.4998 72.3431 82.8429 71 84.4998 71H120.5C122.157 71 123.5 72.3431 123.5 74V80C123.5 81.6569 122.157 83 120.5 83H84.4998Z"
		fill="white"/>
	<g filter="url(#filter23_f_1298_18432)">
		<path
			d="M86.0001 79.25C86.4143 79.25 86.7501 79.5858 86.7501 80C86.7501 80.4142 86.4143 80.75 86.0001 80.75C85.5859 80.75 85.2501 80.4142 85.2501 80C85.2501 79.5858 85.5859 79.25 86.0001 79.25Z"
			fill="#2BD990" fill-opacity="0.4"/>
	</g>
	<path
		d="M86.0001 79.25C86.4143 79.25 86.7501 79.5858 86.7501 80C86.7501 80.4142 86.4143 80.75 86.0001 80.75C85.5859 80.75 85.2501 80.4142 85.2501 80C85.2501 79.5858 85.5859 79.25 86.0001 79.25Z"
		fill="#2BD990"/>
	<path fill-rule="evenodd" clip-rule="evenodd"
		  d="M85.4376 80.0002C85.4376 80.3109 85.6895 80.5627 86.0001 80.5627C86.3108 80.5627 86.5626 80.3109 86.5626 80.0002C86.5626 79.6896 86.3108 79.4377 86.0001 79.4377C85.6895 79.4377 85.4376 79.6896 85.4376 80.0002ZM86.0001 80.9377C85.4824 80.9377 85.0626 80.518 85.0626 80.0002C85.0626 79.4825 85.4824 79.0627 86.0001 79.0627C86.5179 79.0627 86.9376 79.4825 86.9376 80.0002C86.9376 80.518 86.5179 80.9377 86.0001 80.9377Z"
		  fill="white"/>
	<g filter="url(#filter24_f_1298_18432)">
		<path
			d="M86.0001 76.2498C86.4143 76.2498 86.7501 76.5855 86.7501 76.9998C86.7501 77.414 86.4143 77.7498 86.0001 77.7498C85.5859 77.7498 85.2501 77.414 85.2501 76.9998C85.2501 76.5855 85.5859 76.2498 86.0001 76.2498Z"
			fill="#2BD990" fill-opacity="0.4"/>
	</g>
	<path
		d="M86.0001 76.2498C86.4143 76.2498 86.7501 76.5855 86.7501 76.9998C86.7501 77.414 86.4143 77.7498 86.0001 77.7498C85.5859 77.7498 85.2501 77.414 85.2501 76.9998C85.2501 76.5855 85.5859 76.2498 86.0001 76.2498Z"
		fill="#2BD990"/>
	<path fill-rule="evenodd" clip-rule="evenodd"
		  d="M85.4376 77C85.4376 77.3107 85.6895 77.5625 86.0001 77.5625C86.3108 77.5625 86.5626 77.3107 86.5626 77C86.5626 76.6893 86.3108 76.4375 86.0001 76.4375C85.6895 76.4375 85.4376 76.6893 85.4376 77ZM86.0001 77.9375C85.4824 77.9375 85.0626 77.5178 85.0626 77C85.0626 76.4822 85.4824 76.0625 86.0001 76.0625C86.5179 76.0625 86.9376 76.4822 86.9376 77C86.9376 77.5178 86.5179 77.9375 86.0001 77.9375Z"
		  fill="white"/>
	<g filter="url(#filter25_f_1298_18432)">
		<path
			d="M86.0001 73.25C86.4143 73.25 86.7501 73.5858 86.7501 74C86.7501 74.4142 86.4143 74.75 86.0001 74.75C85.5859 74.75 85.2501 74.4142 85.2501 74C85.2501 73.5858 85.5859 73.25 86.0001 73.25Z"
			fill="#2BD990" fill-opacity="0.4"/>
	</g>
	<path
		d="M86.0001 73.25C86.4143 73.25 86.7501 73.5858 86.7501 74C86.7501 74.4142 86.4143 74.75 86.0001 74.75C85.5859 74.75 85.2501 74.4142 85.2501 74C85.2501 73.5858 85.5859 73.25 86.0001 73.25Z"
		fill="#2BD990"/>
	<path fill-rule="evenodd" clip-rule="evenodd"
		  d="M85.4376 74C85.4376 74.3107 85.6895 74.5625 86.0001 74.5625C86.3108 74.5625 86.5626 74.3107 86.5626 74C86.5626 73.6893 86.3108 73.4375 86.0001 73.4375C85.6895 73.4375 85.4376 73.6893 85.4376 74ZM86.0001 74.9375C85.4824 74.9375 85.0626 74.5178 85.0626 74C85.0626 73.4822 85.4824 73.0625 86.0001 73.0625C86.5179 73.0625 86.9376 73.4822 86.9376 74C86.9376 74.5178 86.5179 74.9375 86.0001 74.9375Z"
		  fill="white"/>
	<path
		d="M119.375 80.0002C119.168 80.0002 119 79.8324 119 79.6252V74.3752C119 74.1681 119.168 74.0002 119.375 74.0002C119.582 74.0002 119.75 74.1681 119.75 74.3752V79.6252C119.75 79.8324 119.582 80.0002 119.375 80.0002Z"
		fill="#E6EBF2"/>
	<path
		d="M117.125 80.0002C116.918 80.0002 116.75 79.8324 116.75 79.6252V74.3752C116.75 74.1681 116.918 74.0002 117.125 74.0002C117.332 74.0002 117.5 74.1681 117.5 74.3752V79.6252C117.5 79.8324 117.332 80.0002 117.125 80.0002Z"
		fill="#E6EBF2"/>
	<path
		d="M114.875 80.0002C114.668 80.0002 114.5 79.8324 114.5 79.6252V74.3752C114.5 74.1681 114.668 74.0002 114.875 74.0002C115.082 74.0002 115.25 74.1681 115.25 74.3752V79.6252C115.25 79.8324 115.082 80.0002 114.875 80.0002Z"
		fill="#E6EBF2"/>
	<path
		d="M83.75 69.5C81.6789 69.5 80 67.8211 80 65.75V58.25C80 56.1789 81.6789 54.5 83.75 54.5H121.25C123.321 54.5 125 56.1789 125 58.25V65.75C125 67.8211 123.321 69.5 121.25 69.5H83.75Z"
		fill="#899099"/>
	<path
		d="M84.4998 68C82.8429 68 81.4998 66.6569 81.4998 65V59C81.4998 57.3431 82.8429 56 84.4998 56H120.5C122.157 56 123.5 57.3431 123.5 59V65C123.5 66.6569 122.157 68 120.5 68H84.4998Z"
		fill="white"/>
	<g filter="url(#filter26_f_1298_18432)">
		<path
			d="M86.0001 64.25C86.4143 64.25 86.7501 64.5858 86.7501 65C86.7501 65.4142 86.4143 65.75 86.0001 65.75C85.5859 65.75 85.2501 65.4142 85.2501 65C85.2501 64.5858 85.5859 64.25 86.0001 64.25Z"
			fill="#2BD990" fill-opacity="0.4"/>
	</g>
	<path
		d="M86.0001 64.25C86.4143 64.25 86.7501 64.5858 86.7501 65C86.7501 65.4142 86.4143 65.75 86.0001 65.75C85.5859 65.75 85.2501 65.4142 85.2501 65C85.2501 64.5858 85.5859 64.25 86.0001 64.25Z"
		fill="#2BD990"/>
	<path fill-rule="evenodd" clip-rule="evenodd"
		  d="M85.4376 65.0002C85.4376 65.3109 85.6895 65.5627 86.0001 65.5627C86.3108 65.5627 86.5626 65.3109 86.5626 65.0002C86.5626 64.6896 86.3108 64.4377 86.0001 64.4377C85.6895 64.4377 85.4376 64.6896 85.4376 65.0002ZM86.0001 65.9377C85.4824 65.9377 85.0626 65.518 85.0626 65.0002C85.0626 64.4825 85.4824 64.0627 86.0001 64.0627C86.5179 64.0627 86.9376 64.4825 86.9376 65.0002C86.9376 65.518 86.5179 65.9377 86.0001 65.9377Z"
		  fill="white"/>
	<g filter="url(#filter27_f_1298_18432)">
		<path
			d="M86.0001 61.2498C86.4143 61.2498 86.7501 61.5855 86.7501 61.9998C86.7501 62.414 86.4143 62.7498 86.0001 62.7498C85.5859 62.7498 85.2501 62.414 85.2501 61.9998C85.2501 61.5855 85.5859 61.2498 86.0001 61.2498Z"
			fill="#2BD990" fill-opacity="0.4"/>
	</g>
	<path
		d="M86.0001 61.2498C86.4143 61.2498 86.7501 61.5855 86.7501 61.9998C86.7501 62.414 86.4143 62.7498 86.0001 62.7498C85.5859 62.7498 85.2501 62.414 85.2501 61.9998C85.2501 61.5855 85.5859 61.2498 86.0001 61.2498Z"
		fill="#2BD990"/>
	<path fill-rule="evenodd" clip-rule="evenodd"
		  d="M85.4376 62C85.4376 62.3107 85.6895 62.5625 86.0001 62.5625C86.3108 62.5625 86.5626 62.3107 86.5626 62C86.5626 61.6893 86.3108 61.4375 86.0001 61.4375C85.6895 61.4375 85.4376 61.6893 85.4376 62ZM86.0001 62.9375C85.4824 62.9375 85.0626 62.5178 85.0626 62C85.0626 61.4822 85.4824 61.0625 86.0001 61.0625C86.5179 61.0625 86.9376 61.4822 86.9376 62C86.9376 62.5178 86.5179 62.9375 86.0001 62.9375Z"
		  fill="white"/>
	<g filter="url(#filter28_f_1298_18432)">
		<path
			d="M86.0001 58.25C86.4143 58.25 86.7501 58.5858 86.7501 59C86.7501 59.4142 86.4143 59.75 86.0001 59.75C85.5859 59.75 85.2501 59.4142 85.2501 59C85.2501 58.5858 85.5859 58.25 86.0001 58.25Z"
			fill="#2BD990" fill-opacity="0.4"/>
	</g>
	<path
		d="M86.0001 58.25C86.4143 58.25 86.7501 58.5858 86.7501 59C86.7501 59.4142 86.4143 59.75 86.0001 59.75C85.5859 59.75 85.2501 59.4142 85.2501 59C85.2501 58.5858 85.5859 58.25 86.0001 58.25Z"
		fill="#2BD990"/>
	<path fill-rule="evenodd" clip-rule="evenodd"
		  d="M85.4376 59C85.4376 59.3107 85.6895 59.5625 86.0001 59.5625C86.3108 59.5625 86.5626 59.3107 86.5626 59C86.5626 58.6893 86.3108 58.4375 86.0001 58.4375C85.6895 58.4375 85.4376 58.6893 85.4376 59ZM86.0001 59.9375C85.4824 59.9375 85.0626 59.5178 85.0626 59C85.0626 58.4822 85.4824 58.0625 86.0001 58.0625C86.5179 58.0625 86.9376 58.4822 86.9376 59C86.9376 59.5178 86.5179 59.9375 86.0001 59.9375Z"
		  fill="white"/>
	<path
		d="M119.375 65.0002C119.168 65.0002 119 64.8324 119 64.6252V59.3752C119 59.1681 119.168 59.0002 119.375 59.0002C119.582 59.0002 119.75 59.1681 119.75 59.3752V64.6252C119.75 64.8324 119.582 65.0002 119.375 65.0002Z"
		fill="#E6EBF2"/>
	<path
		d="M117.125 65.0002C116.918 65.0002 116.75 64.8324 116.75 64.6252V59.3752C116.75 59.1681 116.918 59.0002 117.125 59.0002C117.332 59.0002 117.5 59.1681 117.5 59.3752V64.6252C117.5 64.8324 117.332 65.0002 117.125 65.0002Z"
		fill="#E6EBF2"/>
	<path
		d="M114.875 65.0002C114.668 65.0002 114.5 64.8324 114.5 64.6252V59.3752C114.5 59.1681 114.668 59.0002 114.875 59.0002C115.082 59.0002 115.25 59.1681 115.25 59.3752V64.6252C115.25 64.8324 115.082 65.0002 114.875 65.0002Z"
		fill="#E6EBF2"/>
	<g filter="url(#filter29_i_1298_18432)">
		<path
			d="M86.8523 30.5342C87.5615 29.2774 88.8927 28.5 90.3359 28.5H114.664C116.108 28.5 117.439 29.2774 118.148 30.5342L124.9 42.5H80.1001L86.8523 30.5342Z"
			fill="url(#paint3_linear_1298_18432)"/>
	</g>
	<path
		d="M83.75 54.5C81.6789 54.5 80 52.8211 80 50.75V43.25C80 41.1789 81.6789 39.5 83.75 39.5H121.25C123.321 39.5 125 41.1789 125 43.25V50.75C125 52.8211 123.321 54.5 121.25 54.5H83.75Z"
		fill="url(#paint4_linear_1298_18432)"/>
	<path
		d="M84.4998 53C82.8429 53 81.4998 51.6569 81.4998 50V44C81.4998 42.3431 82.8429 41 84.4998 41H120.5C122.157 41 123.5 42.3431 123.5 44V50C123.5 51.6569 122.157 53 120.5 53H84.4998Z"
		fill="white"/>
	<g filter="url(#filter30_f_1298_18432)">
		<path
			d="M86.0001 49.2498C86.4143 49.2498 86.7501 49.5855 86.7501 49.9998C86.7501 50.414 86.4143 50.7498 86.0001 50.7498C85.5859 50.7498 85.2501 50.414 85.2501 49.9998C85.2501 49.5855 85.5859 49.2498 86.0001 49.2498Z"
			fill="#2BD990" fill-opacity="0.4"/>
	</g>
	<path
		d="M86.0001 49.2498C86.4143 49.2498 86.7501 49.5855 86.7501 49.9998C86.7501 50.414 86.4143 50.7498 86.0001 50.7498C85.5859 50.7498 85.2501 50.414 85.2501 49.9998C85.2501 49.5855 85.5859 49.2498 86.0001 49.2498Z"
		fill="#2BD990"/>
	<path fill-rule="evenodd" clip-rule="evenodd"
		  d="M85.4377 50C85.4377 50.3107 85.6896 50.5625 86.0002 50.5625C86.3109 50.5625 86.5627 50.3107 86.5627 50C86.5627 49.6893 86.3109 49.4375 86.0002 49.4375C85.6896 49.4375 85.4377 49.6893 85.4377 50ZM86.0002 50.9375C85.4825 50.9375 85.0627 50.5178 85.0627 50C85.0627 49.4822 85.4825 49.0625 86.0002 49.0625C86.518 49.0625 86.9377 49.4822 86.9377 50C86.9377 50.5178 86.518 50.9375 86.0002 50.9375Z"
		  fill="white"/>
	<g filter="url(#filter31_f_1298_18432)">
		<path
			d="M86.0001 46.2498C86.4143 46.2498 86.7501 46.5855 86.7501 46.9998C86.7501 47.414 86.4143 47.7498 86.0001 47.7498C85.5859 47.7498 85.2501 47.414 85.2501 46.9998C85.2501 46.5855 85.5859 46.2498 86.0001 46.2498Z"
			fill="#2BD990" fill-opacity="0.4"/>
	</g>
	<path
		d="M86.0001 46.2498C86.4143 46.2498 86.7501 46.5855 86.7501 46.9998C86.7501 47.414 86.4143 47.7498 86.0001 47.7498C85.5859 47.7498 85.2501 47.414 85.2501 46.9998C85.2501 46.5855 85.5859 46.2498 86.0001 46.2498Z"
		fill="#2BD990"/>
	<path fill-rule="evenodd" clip-rule="evenodd"
		  d="M85.4377 47C85.4377 47.3107 85.6896 47.5625 86.0002 47.5625C86.3109 47.5625 86.5627 47.3107 86.5627 47C86.5627 46.6893 86.3109 46.4375 86.0002 46.4375C85.6896 46.4375 85.4377 46.6893 85.4377 47ZM86.0002 47.9375C85.4825 47.9375 85.0627 47.5178 85.0627 47C85.0627 46.4822 85.4825 46.0625 86.0002 46.0625C86.518 46.0625 86.9377 46.4822 86.9377 47C86.9377 47.5178 86.518 47.9375 86.0002 47.9375Z"
		  fill="white"/>
	<g filter="url(#filter32_f_1298_18432)">
		<path
			d="M86.0001 43.25C86.4143 43.25 86.7501 43.5858 86.7501 44C86.7501 44.4142 86.4143 44.75 86.0001 44.75C85.5859 44.75 85.2501 44.4142 85.2501 44C85.2501 43.5858 85.5859 43.25 86.0001 43.25Z"
			fill="#2BD990" fill-opacity="0.4"/>
	</g>
	<path
		d="M86.0001 43.25C86.4143 43.25 86.7501 43.5858 86.7501 44C86.7501 44.4142 86.4143 44.75 86.0001 44.75C85.5859 44.75 85.2501 44.4142 85.2501 44C85.2501 43.5858 85.5859 43.25 86.0001 43.25Z"
		fill="#2BD990"/>
	<path fill-rule="evenodd" clip-rule="evenodd"
		  d="M85.4377 44C85.4377 44.3107 85.6896 44.5625 86.0002 44.5625C86.3109 44.5625 86.5627 44.3107 86.5627 44C86.5627 43.6893 86.3109 43.4375 86.0002 43.4375C85.6896 43.4375 85.4377 43.6893 85.4377 44ZM86.0002 44.9375C85.4825 44.9375 85.0627 44.5178 85.0627 44C85.0627 43.4822 85.4825 43.0625 86.0002 43.0625C86.518 43.0625 86.9377 43.4822 86.9377 44C86.9377 44.5178 86.518 44.9375 86.0002 44.9375Z"
		  fill="white"/>
	<path
		d="M119.375 50C119.168 50 119 49.8321 119 49.625V44.375C119 44.1679 119.168 44 119.375 44C119.582 44 119.75 44.1679 119.75 44.375V49.625C119.75 49.8321 119.582 50 119.375 50Z"
		fill="#E6EBF2"/>
	<path
		d="M117.125 50C116.918 50 116.75 49.8321 116.75 49.625V44.375C116.75 44.1679 116.918 44 117.125 44C117.332 44 117.5 44.1679 117.5 44.375V49.625C117.5 49.8321 117.332 50 117.125 50Z"
		fill="#E6EBF2"/>
	<path
		d="M114.875 50C114.668 50 114.5 49.8321 114.5 49.625V44.375C114.5 44.1679 114.668 44 114.875 44C115.082 44 115.25 44.1679 115.25 44.375V49.625C115.25 49.8321 115.082 50 114.875 50Z"
		fill="#E6EBF2"/>
	<defs>
		<filter id="filter0_f_1298_18432" x="155.5" y="39" width="146" height="68" filterUnits="userSpaceOnUse"
				color-interpolation-filters="sRGB">
			<feFlood flood-opacity="0" result="BackgroundImageFix"/>
			<feBlend mode="normal" in="SourceGraphic" in2="BackgroundImageFix" result="shape"/>
			<feGaussianBlur stdDeviation="11" result="effect1_foregroundBlur_1298_18432"/>
		</filter>
		<filter id="filter1_f_1298_18432" x="180.547" y="56" width="95.7966" height="36" filterUnits="userSpaceOnUse"
				color-interpolation-filters="sRGB">
			<feFlood flood-opacity="0" result="BackgroundImageFix"/>
			<feBlend mode="normal" in="SourceGraphic" in2="BackgroundImageFix" result="shape"/>
			<feGaussianBlur stdDeviation="3" result="effect1_foregroundBlur_1298_18432"/>
		</filter>
		<filter id="filter2_iiii_1298_18432" x="185.5" y="23.0942" width="86.1389" height="63.406"
				filterUnits="userSpaceOnUse" color-interpolation-filters="sRGB">
			<feFlood flood-opacity="0" result="BackgroundImageFix"/>
			<feBlend mode="normal" in="SourceGraphic" in2="BackgroundImageFix" result="shape"/>
			<feColorMatrix in="SourceAlpha" type="matrix" values="0 0 0 0 0 0 0 0 0 0 0 0 0 0 0 0 0 0 127 0"
						   result="hardAlpha"/>
			<feOffset dy="2"/>
			<feGaussianBlur stdDeviation="2"/>
			<feComposite in2="hardAlpha" operator="arithmetic" k2="-1" k3="1"/>
			<feColorMatrix type="matrix" values="0 0 0 0 1 0 0 0 0 1 0 0 0 0 1 0 0 0 0.12 0"/>
			<feBlend mode="normal" in2="shape" result="effect1_innerShadow_1298_18432"/>
			<feColorMatrix in="SourceAlpha" type="matrix" values="0 0 0 0 0 0 0 0 0 0 0 0 0 0 0 0 0 0 127 0"
						   result="hardAlpha"/>
			<feOffset dy="1"/>
			<feGaussianBlur stdDeviation="1"/>
			<feComposite in2="hardAlpha" operator="arithmetic" k2="-1" k3="1"/>
			<feColorMatrix type="matrix" values="0 0 0 0 1 0 0 0 0 1 0 0 0 0 1 0 0 0 0.12 0"/>
			<feBlend mode="normal" in2="effect1_innerShadow_1298_18432" result="effect2_innerShadow_1298_18432"/>
			<feColorMatrix in="SourceAlpha" type="matrix" values="0 0 0 0 0 0 0 0 0 0 0 0 0 0 0 0 0 0 127 0"
						   result="hardAlpha"/>
			<feOffset dy="-2"/>
			<feGaussianBlur stdDeviation="2"/>
			<feComposite in2="hardAlpha" operator="arithmetic" k2="-1" k3="1"/>
			<feColorMatrix type="matrix" values="0 0 0 0 0.358333 0 0 0 0 0.375694 0 0 0 0 0.4 0 0 0 0.24 0"/>
			<feBlend mode="normal" in2="effect2_innerShadow_1298_18432" result="effect3_innerShadow_1298_18432"/>
			<feColorMatrix in="SourceAlpha" type="matrix" values="0 0 0 0 0 0 0 0 0 0 0 0 0 0 0 0 0 0 127 0"
						   result="hardAlpha"/>
			<feOffset dy="-1"/>
			<feGaussianBlur stdDeviation="0.5"/>
			<feComposite in2="hardAlpha" operator="arithmetic" k2="-1" k3="1"/>
			<feColorMatrix type="matrix" values="0 0 0 0 1 0 0 0 0 1 0 0 0 0 1 0 0 0 0.05 0"/>
			<feBlend mode="normal" in2="effect3_innerShadow_1298_18432" result="effect4_innerShadow_1298_18432"/>
		</filter>
		<filter id="filter3_ii_1298_18432" x="185.5" y="8.5" width="84.4097" height="26" filterUnits="userSpaceOnUse"
				color-interpolation-filters="sRGB">
			<feFlood flood-opacity="0" result="BackgroundImageFix"/>
			<feBlend mode="normal" in="SourceGraphic" in2="BackgroundImageFix" result="shape"/>
			<feColorMatrix in="SourceAlpha" type="matrix" values="0 0 0 0 0 0 0 0 0 0 0 0 0 0 0 0 0 0 127 0"
						   result="hardAlpha"/>
			<feOffset dy="1"/>
			<feGaussianBlur stdDeviation="2"/>
			<feComposite in2="hardAlpha" operator="arithmetic" k2="-1" k3="1"/>
			<feColorMatrix type="matrix" values="0 0 0 0 1 0 0 0 0 1 0 0 0 0 1 0 0 0 0.3 0"/>
			<feBlend mode="normal" in2="shape" result="effect1_innerShadow_1298_18432"/>
			<feColorMatrix in="SourceAlpha" type="matrix" values="0 0 0 0 0 0 0 0 0 0 0 0 0 0 0 0 0 0 127 0"
						   result="hardAlpha"/>
			<feOffset dy="-1"/>
			<feGaussianBlur stdDeviation="1"/>
			<feComposite in2="hardAlpha" operator="arithmetic" k2="-1" k3="1"/>
			<feColorMatrix type="matrix" values="0 0 0 0 1 0 0 0 0 1 0 0 0 0 1 0 0 0 0.06 0"/>
			<feBlend mode="normal" in2="effect1_innerShadow_1298_18432" result="effect2_innerShadow_1298_18432"/>
		</filter>
		<filter id="filter4_i_1298_18432" x="197.381" y="29.5498" width="69.8022" height="51.4951"
				filterUnits="userSpaceOnUse" color-interpolation-filters="sRGB">
			<feFlood flood-opacity="0" result="BackgroundImageFix"/>
			<feBlend mode="normal" in="SourceGraphic" in2="BackgroundImageFix" result="shape"/>
			<feColorMatrix in="SourceAlpha" type="matrix" values="0 0 0 0 0 0 0 0 0 0 0 0 0 0 0 0 0 0 127 0"
						   result="hardAlpha"/>
			<feOffset dy="1"/>
			<feGaussianBlur stdDeviation="1"/>
			<feComposite in2="hardAlpha" operator="arithmetic" k2="-1" k3="1"/>
			<feColorMatrix type="matrix" values="0 0 0 0 0.537255 0 0 0 0 0.564706 0 0 0 0 0.6 0 0 0 0.3 0"/>
			<feBlend mode="normal" in2="shape" result="effect1_innerShadow_1298_18432"/>
		</filter>
		<filter id="filter5_f_1298_18432" x="185.956" y="30.0049" width="10.2277" height="10.2278"
				filterUnits="userSpaceOnUse" color-interpolation-filters="sRGB">
			<feFlood flood-opacity="0" result="BackgroundImageFix"/>
			<feBlend mode="normal" in="SourceGraphic" in2="BackgroundImageFix" result="shape"/>
			<feGaussianBlur stdDeviation="2" result="effect1_foregroundBlur_1298_18432"/>
		</filter>
		<filter id="filter6_f_1298_18432" x="185.956" y="34.4607" width="10.2277" height="10.2278"
				filterUnits="userSpaceOnUse" color-interpolation-filters="sRGB">
			<feFlood flood-opacity="0" result="BackgroundImageFix"/>
			<feBlend mode="normal" in="SourceGraphic" in2="BackgroundImageFix" result="shape"/>
			<feGaussianBlur stdDeviation="2" result="effect1_foregroundBlur_1298_18432"/>
		</filter>
		<filter id="filter7_f_1298_18432" x="185.956" y="38.916" width="10.2277" height="10.2278"
				filterUnits="userSpaceOnUse" color-interpolation-filters="sRGB">
			<feFlood flood-opacity="0" result="BackgroundImageFix"/>
			<feBlend mode="normal" in="SourceGraphic" in2="BackgroundImageFix" result="shape"/>
			<feGaussianBlur stdDeviation="2" result="effect1_foregroundBlur_1298_18432"/>
		</filter>
		<filter id="filter8_f_1298_18432" x="185.956" y="43.3716" width="10.2277" height="10.2278"
				filterUnits="userSpaceOnUse" color-interpolation-filters="sRGB">
			<feFlood flood-opacity="0" result="BackgroundImageFix"/>
			<feBlend mode="normal" in="SourceGraphic" in2="BackgroundImageFix" result="shape"/>
			<feGaussianBlur stdDeviation="2" result="effect1_foregroundBlur_1298_18432"/>
		</filter>
		<filter id="filter9_f_1298_18432" x="201.064" y="34.7188" width="7.48517" height="7.48511"
				filterUnits="userSpaceOnUse" color-interpolation-filters="sRGB">
			<feFlood flood-opacity="0" result="BackgroundImageFix"/>
			<feBlend mode="normal" in="SourceGraphic" in2="BackgroundImageFix" result="shape"/>
			<feGaussianBlur stdDeviation="1.5" result="effect1_foregroundBlur_1298_18432"/>
		</filter>
		<filter id="filter10_f_1298_18432" x="204.035" y="34.7188" width="7.48517" height="7.48511"
				filterUnits="userSpaceOnUse" color-interpolation-filters="sRGB">
			<feFlood flood-opacity="0" result="BackgroundImageFix"/>
			<feBlend mode="normal" in="SourceGraphic" in2="BackgroundImageFix" result="shape"/>
			<feGaussianBlur stdDeviation="1.5" result="effect1_foregroundBlur_1298_18432"/>
		</filter>
		<filter id="filter11_f_1298_18432" x="207.005" y="34.7188" width="7.48517" height="7.48511"
				filterUnits="userSpaceOnUse" color-interpolation-filters="sRGB">
			<feFlood flood-opacity="0" result="BackgroundImageFix"/>
			<feBlend mode="normal" in="SourceGraphic" in2="BackgroundImageFix" result="shape"/>
			<feGaussianBlur stdDeviation="1.5" result="effect1_foregroundBlur_1298_18432"/>
		</filter>
		<filter id="filter12_f_1298_18432" x="217.401" y="34.718" width="7.48517" height="7.48511"
				filterUnits="userSpaceOnUse" color-interpolation-filters="sRGB">
			<feFlood flood-opacity="0" result="BackgroundImageFix"/>
			<feBlend mode="normal" in="SourceGraphic" in2="BackgroundImageFix" result="shape"/>
			<feGaussianBlur stdDeviation="1.5" result="effect1_foregroundBlur_1298_18432"/>
		</filter>
		<filter id="filter13_f_1298_18432" x="220.372" y="34.718" width="7.48517" height="7.48511"
				filterUnits="userSpaceOnUse" color-interpolation-filters="sRGB">
			<feFlood flood-opacity="0" result="BackgroundImageFix"/>
			<feBlend mode="normal" in="SourceGraphic" in2="BackgroundImageFix" result="shape"/>
			<feGaussianBlur stdDeviation="1.5" result="effect1_foregroundBlur_1298_18432"/>
		</filter>
		<filter id="filter14_f_1298_18432" x="223.342" y="34.718" width="7.48517" height="7.48511"
				filterUnits="userSpaceOnUse" color-interpolation-filters="sRGB">
			<feFlood flood-opacity="0" result="BackgroundImageFix"/>
			<feBlend mode="normal" in="SourceGraphic" in2="BackgroundImageFix" result="shape"/>
			<feGaussianBlur stdDeviation="1.5" result="effect1_foregroundBlur_1298_18432"/>
		</filter>
		<filter id="filter15_f_1298_18432" x="233.738" y="34.718" width="7.48517" height="7.48511"
				filterUnits="userSpaceOnUse" color-interpolation-filters="sRGB">
			<feFlood flood-opacity="0" result="BackgroundImageFix"/>
			<feBlend mode="normal" in="SourceGraphic" in2="BackgroundImageFix" result="shape"/>
			<feGaussianBlur stdDeviation="1.5" result="effect1_foregroundBlur_1298_18432"/>
		</filter>
		<filter id="filter16_f_1298_18432" x="236.708" y="34.718" width="7.48517" height="7.48511"
				filterUnits="userSpaceOnUse" color-interpolation-filters="sRGB">
			<feFlood flood-opacity="0" result="BackgroundImageFix"/>
			<feBlend mode="normal" in="SourceGraphic" in2="BackgroundImageFix" result="shape"/>
			<feGaussianBlur stdDeviation="1.5" result="effect1_foregroundBlur_1298_18432"/>
		</filter>
		<filter id="filter17_f_1298_18432" x="239.679" y="34.718" width="7.48517" height="7.48511"
				filterUnits="userSpaceOnUse" color-interpolation-filters="sRGB">
			<feFlood flood-opacity="0" result="BackgroundImageFix"/>
			<feBlend mode="normal" in="SourceGraphic" in2="BackgroundImageFix" result="shape"/>
			<feGaussianBlur stdDeviation="1.5" result="effect1_foregroundBlur_1298_18432"/>
		</filter>
		<filter id="filter18_f_1298_18432" x="250.075" y="34.718" width="7.48517" height="7.48511"
				filterUnits="userSpaceOnUse" color-interpolation-filters="sRGB">
			<feFlood flood-opacity="0" result="BackgroundImageFix"/>
			<feBlend mode="normal" in="SourceGraphic" in2="BackgroundImageFix" result="shape"/>
			<feGaussianBlur stdDeviation="1.5" result="effect1_foregroundBlur_1298_18432"/>
		</filter>
		<filter id="filter19_f_1298_18432" x="253.045" y="34.718" width="7.48517" height="7.48511"
				filterUnits="userSpaceOnUse" color-interpolation-filters="sRGB">
			<feFlood flood-opacity="0" result="BackgroundImageFix"/>
			<feBlend mode="normal" in="SourceGraphic" in2="BackgroundImageFix" result="shape"/>
			<feGaussianBlur stdDeviation="1.5" result="effect1_foregroundBlur_1298_18432"/>
		</filter>
		<filter id="filter20_f_1298_18432" x="256.015" y="34.718" width="7.48517" height="7.48511"
				filterUnits="userSpaceOnUse" color-interpolation-filters="sRGB">
			<feFlood flood-opacity="0" result="BackgroundImageFix"/>
			<feBlend mode="normal" in="SourceGraphic" in2="BackgroundImageFix" result="shape"/>
			<feGaussianBlur stdDeviation="1.5" result="effect1_foregroundBlur_1298_18432"/>
		</filter>
		<filter id="filter21_f_1298_18432" x="47.5" y="44" width="111" height="65" filterUnits="userSpaceOnUse"
				color-interpolation-filters="sRGB">
			<feFlood flood-opacity="0" result="BackgroundImageFix"/>
			<feBlend mode="normal" in="SourceGraphic" in2="BackgroundImageFix" result="shape"/>
			<feGaussianBlur stdDeviation="12" result="effect1_foregroundBlur_1298_18432"/>
		</filter>
		<filter id="filter22_f_1298_18432" x="76.5" y="69.5" width="52" height="20" filterUnits="userSpaceOnUse"
				color-interpolation-filters="sRGB">
			<feFlood flood-opacity="0" result="BackgroundImageFix"/>
			<feBlend mode="normal" in="SourceGraphic" in2="BackgroundImageFix" result="shape"/>
			<feGaussianBlur stdDeviation="2" result="effect1_foregroundBlur_1298_18432"/>
		</filter>
		<filter id="filter23_f_1298_18432" x="82.2501" y="76.25" width="7.5" height="7.5" filterUnits="userSpaceOnUse"
				color-interpolation-filters="sRGB">
			<feFlood flood-opacity="0" result="BackgroundImageFix"/>
			<feBlend mode="normal" in="SourceGraphic" in2="BackgroundImageFix" result="shape"/>
			<feGaussianBlur stdDeviation="1.5" result="effect1_foregroundBlur_1298_18432"/>
		</filter>
		<filter id="filter24_f_1298_18432" x="82.2501" y="73.2498" width="7.5" height="7.5" filterUnits="userSpaceOnUse"
				color-interpolation-filters="sRGB">
			<feFlood flood-opacity="0" result="BackgroundImageFix"/>
			<feBlend mode="normal" in="SourceGraphic" in2="BackgroundImageFix" result="shape"/>
			<feGaussianBlur stdDeviation="1.5" result="effect1_foregroundBlur_1298_18432"/>
		</filter>
		<filter id="filter25_f_1298_18432" x="82.2501" y="70.25" width="7.5" height="7.5" filterUnits="userSpaceOnUse"
				color-interpolation-filters="sRGB">
			<feFlood flood-opacity="0" result="BackgroundImageFix"/>
			<feBlend mode="normal" in="SourceGraphic" in2="BackgroundImageFix" result="shape"/>
			<feGaussianBlur stdDeviation="1.5" result="effect1_foregroundBlur_1298_18432"/>
		</filter>
		<filter id="filter26_f_1298_18432" x="82.2501" y="61.25" width="7.5" height="7.5" filterUnits="userSpaceOnUse"
				color-interpolation-filters="sRGB">
			<feFlood flood-opacity="0" result="BackgroundImageFix"/>
			<feBlend mode="normal" in="SourceGraphic" in2="BackgroundImageFix" result="shape"/>
			<feGaussianBlur stdDeviation="1.5" result="effect1_foregroundBlur_1298_18432"/>
		</filter>
		<filter id="filter27_f_1298_18432" x="82.2501" y="58.2498" width="7.5" height="7.5" filterUnits="userSpaceOnUse"
				color-interpolation-filters="sRGB">
			<feFlood flood-opacity="0" result="BackgroundImageFix"/>
			<feBlend mode="normal" in="SourceGraphic" in2="BackgroundImageFix" result="shape"/>
			<feGaussianBlur stdDeviation="1.5" result="effect1_foregroundBlur_1298_18432"/>
		</filter>
		<filter id="filter28_f_1298_18432" x="82.2501" y="55.25" width="7.5" height="7.5" filterUnits="userSpaceOnUse"
				color-interpolation-filters="sRGB">
			<feFlood flood-opacity="0" result="BackgroundImageFix"/>
			<feBlend mode="normal" in="SourceGraphic" in2="BackgroundImageFix" result="shape"/>
			<feGaussianBlur stdDeviation="1.5" result="effect1_foregroundBlur_1298_18432"/>
		</filter>
		<filter id="filter29_i_1298_18432" x="80.1001" y="28.5" width="44.8" height="15" filterUnits="userSpaceOnUse"
				color-interpolation-filters="sRGB">
			<feFlood flood-opacity="0" result="BackgroundImageFix"/>
			<feBlend mode="normal" in="SourceGraphic" in2="BackgroundImageFix" result="shape"/>
			<feColorMatrix in="SourceAlpha" type="matrix" values="0 0 0 0 0 0 0 0 0 0 0 0 0 0 0 0 0 0 127 0"
						   result="hardAlpha"/>
			<feOffset dy="1"/>
			<feGaussianBlur stdDeviation="1"/>
			<feComposite in2="hardAlpha" operator="arithmetic" k2="-1" k3="1"/>
			<feColorMatrix type="matrix" values="0 0 0 0 1 0 0 0 0 1 0 0 0 0 1 0 0 0 0.5 0"/>
			<feBlend mode="normal" in2="shape" result="effect1_innerShadow_1298_18432"/>
		</filter>
		<filter id="filter30_f_1298_18432" x="82.2501" y="46.2498" width="7.5" height="7.5" filterUnits="userSpaceOnUse"
				color-interpolation-filters="sRGB">
			<feFlood flood-opacity="0" result="BackgroundImageFix"/>
			<feBlend mode="normal" in="SourceGraphic" in2="BackgroundImageFix" result="shape"/>
			<feGaussianBlur stdDeviation="1.5" result="effect1_foregroundBlur_1298_18432"/>
		</filter>
		<filter id="filter31_f_1298_18432" x="82.2501" y="43.2498" width="7.5" height="7.5" filterUnits="userSpaceOnUse"
				color-interpolation-filters="sRGB">
			<feFlood flood-opacity="0" result="BackgroundImageFix"/>
			<feBlend mode="normal" in="SourceGraphic" in2="BackgroundImageFix" result="shape"/>
			<feGaussianBlur stdDeviation="1.5" result="effect1_foregroundBlur_1298_18432"/>
		</filter>
		<filter id="filter32_f_1298_18432" x="82.2501" y="40.25" width="7.5" height="7.5" filterUnits="userSpaceOnUse"
				color-interpolation-filters="sRGB">
			<feFlood flood-opacity="0" result="BackgroundImageFix"/>
			<feBlend mode="normal" in="SourceGraphic" in2="BackgroundImageFix" result="shape"/>
			<feGaussianBlur stdDeviation="1.5" result="effect1_foregroundBlur_1298_18432"/>
		</filter>
		<linearGradient id="paint0_linear_1298_18432" x1="217.75" y1="23.75" x2="233.5" y2="84.5"
						gradientUnits="userSpaceOnUse">
			<stop stop-color="#ACB4BF"/>
			<stop offset="1" stop-color="#899099"/>
		</linearGradient>
		<linearGradient id="paint1_linear_1298_18432" x1="267.25" y1="19" x2="193.5" y2="13.25"
						gradientUnits="userSpaceOnUse">
			<stop stop-color="#A1A8B3"/>
			<stop offset="0.315342" stop-color="#96A0AD"/>
			<stop offset="1" stop-color="#A7AEB8"/>
		</linearGradient>
		<linearGradient id="paint2_linear_1298_18432" x1="103" y1="68" x2="103" y2="85" gradientUnits="userSpaceOnUse">
			<stop stop-color="#6C7480" stop-opacity="0"/>
			<stop offset="1" stop-color="#6C7480"/>
		</linearGradient>
		<linearGradient id="paint3_linear_1298_18432" x1="122.384" y1="34.4792" x2="82.6163" y2="34.4792"
						gradientUnits="userSpaceOnUse">
			<stop stop-color="#A1A8B3"/>
			<stop offset="0.51024" stop-color="#8B939E"/>
			<stop offset="1" stop-color="#A1A8B3"/>
		</linearGradient>
		<linearGradient id="paint4_linear_1298_18432" x1="80" y1="47" x2="125" y2="47" gradientUnits="userSpaceOnUse">
			<stop stop-color="#899099"/>
			<stop offset="1" stop-color="#899099"/>
		</linearGradient>
	</defs>
</svg>
