<svg width="36" height="36" viewBox="0 0 36 36" fill="none" xmlns="http://www.w3.org/2000/svg">
	<path fill-rule="evenodd" clip-rule="evenodd"
		  d="M18 6C11.3726 6 6 11.3726 6 18C6 24.6274 11.3726 30 18 30C18.8284 30 19.5 30.6716 19.5 31.5C19.5 32.3284 18.8284 33 18 33C9.71573 33 3 26.2843 3 18C3 9.71573 9.71573 3 18 3C26.2843 3 33 9.71573 33 18C33 18.8284 32.3284 19.5 31.5 19.5C30.6716 19.5 30 18.8284 30 18C30 11.3726 24.6274 6 18 6Z"
		  fill="#5A6C7C"/>
	<path fill-rule="evenodd" clip-rule="evenodd"
		  d="M16.5 24C16.5 24.8284 17.1716 25.5 18 25.5C18.8284 25.5 19.5 24.8284 19.5 24V19.5L24 19.5C24.8284 19.5 25.5 18.8284 25.5 18C25.5 17.1716 24.8284 16.5 24 16.5L19.5 16.5V12C19.5 11.1716 18.8284 10.5 18 10.5C17.1716 10.5 16.5 11.1716 16.5 12V16.5H12C11.1716 16.5 10.5 17.1716 10.5 18C10.5 18.8284 11.1716 19.5 12 19.5H16.5V24Z"
		  fill="#5A6C7C"/>
	<path fill-rule="evenodd" clip-rule="evenodd"
		  d="M33 27C33 30.3137 30.3137 33 27 33C23.6863 33 21 30.3137 21 27C21 23.6863 23.6863 21 27 21C30.3137 21 33 23.6863 33 27ZM26.25 25.5C26.25 25.0858 26.5858 24.75 27 24.75C27.4142 24.75 27.75 25.0858 27.75 25.5C27.75 25.7035 27.67 25.8867 27.538 26.0225C27.4951 26.0667 27.445 26.1167 27.3903 26.1712C27.2032 26.358 26.9625 26.5982 26.773 26.8416C26.5166 27.171 26.25 27.6277 26.25 28.2C26.25 28.6142 26.5858 28.95 27 28.95C27.4142 28.95 27.75 28.6142 27.75 28.2C27.75 28.1096 27.7905 27.9765 27.9567 27.7629C28.0833 27.6002 28.2254 27.4583 28.395 27.2888C28.4633 27.2206 28.536 27.148 28.614 27.0677C29.0069 26.6632 29.25 26.1092 29.25 25.5C29.25 24.2574 28.2426 23.25 27 23.25C25.7574 23.25 24.75 24.2574 24.75 25.5C24.75 25.9142 25.0858 26.25 25.5 26.25C25.9142 26.25 26.25 25.9142 26.25 25.5ZM27.975 30.45C27.975 30.9885 27.5384 31.425 27 31.425C26.4615 31.425 26.025 30.9885 26.025 30.45C26.025 29.9116 26.4615 29.475 27 29.475C27.5384 29.475 27.975 29.9116 27.975 30.45Z"
		  fill="#5A6C7C"/>
</svg>
