<svg width="48" height="48" viewBox="0 0 48 48" fill="none" xmlns="http://www.w3.org/2000/svg">
	<path d="M15 9C15 8.44772 15.4477 8 16 8H32C32.5523 8 33 8.44772 33 9V39C33 39.5523 32.5523 40 32 40H16C15.4477 40 15 39.5523 15 39V9Z"
		  fill="#DAE4F2"/>
	<path d="M21.5 26.8271C22.8807 26.8271 24 25.7079 24 24.3271C24 22.9464 22.8807 21.8271 21.5 21.8271C20.1193 21.8271 19 22.9464 19 24.3271C19 25.7079 20.1193 26.8271 21.5 26.8271Z"
		  fill="white"/>
	<path d="M23.9999 26.8377C25.8881 26.8377 27.4187 25.307 27.4187 23.4188C27.4187 21.5307 25.8881 20 23.9999 20C22.1117 20 20.5811 21.5307 20.5811 23.4188C20.5811 25.307 22.1117 26.8377 23.9999 26.8377Z"
		  fill="#ACB8C3"/>
	<path d="M26.5 26.8271C27.8807 26.8271 29 25.7079 29 24.3271C29 22.9464 27.8807 21.8271 26.5 21.8271C25.1193 21.8271 24 22.9464 24 24.3271C24 25.7079 25.1193 26.8271 26.5 26.8271Z"
		  fill="white"/>
	<path fill-rule="evenodd" clip-rule="evenodd"
		  d="M31.5 8H16.5C15.6716 8 15 8.67157 15 9.5V38.5C15 39.3284 15.6716 40 16.5 40H31.5C32.3284 40 33 39.3284 33 38.5V9.5C33 8.67157 32.3284 8 31.5 8ZM16.5 7C15.1193 7 14 8.11929 14 9.5V38.5C14 39.8807 15.1193 41 16.5 41H31.5C32.8807 41 34 39.8807 34 38.5V9.5C34 8.11929 32.8807 7 31.5 7H16.5Z"
		  fill="#181F25"/>
	<path d="M19.5 8H28.5C28.2093 8.05815 28 8.31342 28 8.6099V8.73069C28 9.15557 27.6556 9.5 27.2307 9.5H20.7693C20.3444 9.5 20 9.15557 20 8.73069V8.6099C20 8.31342 19.7907 8.05815 19.5 8Z"
		  fill="#181F25"/>
	<path d="M25 38C25 38.5523 24.5523 39 24 39C23.4477 39 23 38.5523 23 38C23 37.4477 23.4477 37 24 37C24.5523 37 25 37.4477 25 38Z"
		  fill="#181F25"/>
</svg>
