<svg width="48" height="48" viewBox="0 0 48 48" fill="none" xmlns="http://www.w3.org/2000/svg">
	<path d="M5 9H43V33H5V9Z" fill="#DAE4F2"/>
	<path d="M20.5 25.5576C22.433 25.5576 24 23.9906 24 22.0576C24 20.1246 22.433 18.5576 20.5 18.5576C18.567 18.5576 17 20.1246 17 22.0576C17 23.9906 18.567 25.5576 20.5 25.5576Z"
		  fill="white"/>
	<path d="M24 25.5727C26.6434 25.5727 28.7864 23.4298 28.7864 20.7864C28.7864 18.1429 26.6434 16 24 16C21.3566 16 19.2136 18.1429 19.2136 20.7864C19.2136 23.4298 21.3566 25.5727 24 25.5727Z"
		  fill="#ACB8C3"/>
	<path d="M27.5 25.5576C29.433 25.5576 31 23.9906 31 22.0576C31 20.1246 29.433 18.5576 27.5 18.5576C25.567 18.5576 24 20.1246 24 22.0576C24 23.9906 25.567 25.5576 27.5 25.5576Z"
		  fill="white"/>
	<path fill-rule="evenodd" clip-rule="evenodd"
		  d="M42 9.5H6C5.72386 9.5 5.5 9.72386 5.5 10V32.5H42.5V10C42.5 9.72386 42.2761 9.5 42 9.5ZM6 8C4.89543 8 4 8.89543 4 10V34H44V10C44 8.89543 43.1046 8 42 8H6Z"
		  fill="#181F25"/>
	<path d="M4 34L1 38H47L44 34H4Z" fill="#DEE6ED"/>
	<path d="M5 34.7002L3.5 37.0002H44.5L43 34.7002H5Z" fill="#F2F5F7"/>
	<path d="M1 38H47V38.5C47 39.3284 46.3284 40 45.5 40H2.5C1.67157 40 1 39.3284 1 38.5V38Z" fill="#C2CDD6"/>
</svg>
