<svg width="48" height="48" viewBox="0 0 48 48" fill="none" xmlns="http://www.w3.org/2000/svg">
	<path d="M10 5H38V43H10V5Z" fill="#DAE4F2"/>
	<path opacity="0.95"
		  d="M20.5 27.5576C22.433 27.5576 24 25.9906 24 24.0576C24 22.1246 22.433 20.5576 20.5 20.5576C18.567 20.5576 17 22.1246 17 24.0576C17 25.9906 18.567 27.5576 20.5 27.5576Z"
		  fill="#4CE7FF"/>
	<path opacity="0.95"
		  d="M24 27.5727C26.6434 27.5727 28.7864 25.4298 28.7864 22.7864C28.7864 20.1429 26.6434 18 24 18C21.3566 18 19.2136 20.1429 19.2136 22.7864C19.2136 25.4298 21.3566 27.5727 24 27.5727Z"
		  fill="#0067C2"/>
	<path opacity="0.95"
		  d="M27.5 27.5576C29.433 27.5576 31 25.9906 31 24.0576C31 22.1246 29.433 20.5576 27.5 20.5576C25.567 20.5576 24 22.1246 24 24.0576C24 25.9906 25.567 27.5576 27.5 27.5576Z"
		  fill="#4CE7FF"/>
	<path fill-rule="evenodd" clip-rule="evenodd"
		  d="M36.5 5.5H11.5C10.9477 5.5 10.5 5.94772 10.5 6.5V41.5C10.5 42.0523 10.9477 42.5 11.5 42.5H36.5C37.0523 42.5 37.5 42.0523 37.5 41.5V6.5C37.5 5.94771 37.0523 5.5 36.5 5.5ZM11.5 4C10.1193 4 9 5.11929 9 6.5V41.5C9 42.8807 10.1193 44 11.5 44H36.5C37.8807 44 39 42.8807 39 41.5V6.5C39 5.11929 37.8807 4 36.5 4H11.5Z"
		  fill="#181F25"/>
	<path d="M25 41C25 41.5523 24.5523 42 24 42C23.4477 42 23 41.5523 23 41C23 40.4477 23.4477 40 24 40C24.5523 40 25 40.4477 25 41Z"
		  fill="#181F25"/>
	<path d="M20.5 5.5H27.5C27.5 6.05228 27.0523 6.5 26.5 6.5H21.5C20.9477 6.5 20.5 6.05228 20.5 5.5Z" fill="#181F25"/>
</svg>
