<!--
  - * @LastEditors: zhanghengxin ezreal.zhang@icewhale.org
  - * @LastEditTime: 2022/12/2 上午11:09
  - * @FilePath: /CasaOS-UI/src/assets/img/logo/casa-dark.svg
  - * @Description:
  - *
  - * Copyright (c) 2022 by IceWhale, All Rights Reserved.
  -->

<svg width="128" height="128" viewBox="0 0 128 128" fill="none" xmlns="http://www.w3.org/2000/svg">
	<path d="M42.1529 104.271C41.1287 103.084 39.5933 102.332 38.0746 102.18C36.6041 102.004 35.152 102.017 33.6574 102.302C32.1165 102.624 30.7182 103.567 29.8422 104.873C29.3995 105.523 29.0828 106.256 28.9143 107.023C28.8698 107.218 28.8365 107.414 28.8124 107.61H30.157C30.1737 107.508 30.1718 107.405 30.1941 107.306C30.3274 106.703 30.5774 106.125 30.9256 105.612C31.6164 104.58 32.7184 103.837 33.9334 103.586C35.1983 103.343 36.593 103.319 37.9116 103.484C39.1914 103.617 40.3397 104.199 41.1676 105.138C41.9973 106.079 42.4177 107.293 42.3844 108.584V110.898H33.6778C33.2833 110.901 32.9277 110.886 32.4573 110.92C32.0146 110.97 31.5738 111.064 31.1608 111.235C30.3311 111.568 29.6069 112.146 29.0939 112.876C28.5828 113.605 28.2827 114.489 28.2586 115.38C28.2457 115.811 28.2531 116.161 28.2531 116.569C28.2605 117.015 28.3272 117.458 28.4531 117.887C28.9606 119.612 30.5459 120.945 32.335 121.136C32.7999 121.184 33.1889 121.169 33.5704 121.171H34.7335H37.0615C38.7654 121.184 40.4786 120.491 41.6899 119.284C41.9436 119.034 42.1714 118.76 42.3807 118.471V121.23H43.6919V112.798V108.581C43.7419 107.066 43.2011 105.436 42.1529 104.271ZM42.3825 112.798V114.67C42.3677 114.67 42.3714 114.67 42.3825 114.672V115.287L42.3177 115.707C42.2418 116.048 42.1399 116.38 42.0084 116.704C41.738 117.345 41.3398 117.934 40.8416 118.423C39.847 119.408 38.4691 119.969 37.0634 119.96H34.7353H33.5722C33.1777 119.96 32.787 119.967 32.4814 119.932C31.1627 119.793 29.9866 118.802 29.6125 117.532C29.5218 117.215 29.4717 116.887 29.4643 116.558C29.4643 116.189 29.4569 115.763 29.4699 115.418C29.4884 114.757 29.7088 114.111 30.0866 113.57C30.4663 113.029 31.0034 112.601 31.6146 112.355C32.2387 112.09 32.8555 112.092 33.6778 112.105H42.3844V112.798H42.3825Z"
		  fill="#0E3157"/>
	<path d="M80.3125 114.681V112.8V108.583C80.3607 107.066 79.818 105.436 78.7698 104.271C77.7456 103.084 76.2102 102.332 74.6915 102.18C73.2228 102.004 71.7689 102.017 70.2743 102.302C68.7334 102.624 67.3351 103.567 66.4591 104.873C66.0164 105.523 65.6997 106.256 65.5312 107.023C65.4867 107.218 65.4534 107.414 65.4293 107.61H66.7739C66.7906 107.508 66.7887 107.405 66.811 107.306C66.9443 106.703 67.1943 106.125 67.5425 105.612C68.2333 104.58 69.3353 103.837 70.5503 103.586C71.8152 103.343 73.2099 103.319 74.5285 103.484C75.8083 103.617 76.9566 104.199 77.7845 105.138C78.6142 106.079 79.0346 107.293 79.0013 108.584V110.846H70.2947C69.8984 110.849 69.5483 110.835 69.0705 110.868C68.6241 110.92 68.1778 111.014 67.7592 111.187C66.9221 111.524 66.1887 112.107 65.6701 112.846C65.1534 113.583 64.8515 114.476 64.8255 115.378C64.8126 115.811 64.82 116.161 64.82 116.569C64.8274 117.019 64.8959 117.469 65.0237 117.902C65.5367 119.645 67.1406 120.993 68.9482 121.186C69.4205 121.236 69.8076 121.221 70.1891 121.223H71.3522H73.6803C75.3971 121.236 77.1233 120.539 78.3438 119.321C78.5846 119.086 78.7994 118.826 78.9994 118.556V121.232H80.3107V114.685C80.3607 114.683 80.3903 114.683 80.3125 114.681ZM79.0013 112.798V114.67C78.9031 114.67 78.9476 114.672 79.0013 114.674V114.676C78.9976 114.676 78.9994 114.676 78.9957 114.676V114.683L78.9939 114.7L78.992 114.731L78.9883 114.796L78.9809 114.926L78.9661 115.185L78.8864 115.696C78.8124 116.033 78.7105 116.363 78.579 116.683C78.3105 117.319 77.916 117.902 77.4233 118.387C76.438 119.363 75.073 119.919 73.6803 119.91H71.3522H70.1891C69.7946 119.91 69.4039 119.917 69.1038 119.882C67.8055 119.747 66.6461 118.769 66.2776 117.517C66.1868 117.206 66.1387 116.882 66.1312 116.556C66.1312 116.189 66.1238 115.761 66.1368 115.418C66.1535 114.767 66.372 114.129 66.7443 113.596C67.1184 113.063 67.6481 112.642 68.25 112.4C68.8667 112.138 69.4668 112.14 70.2947 112.153H79.0013V112.798Z"
		  fill="#0E3157"/>
	<path d="M59.6509 112.655C59.3731 112.49 59.0138 112.361 58.7489 112.283L57.947 112.037L54.7373 111.048L51.5277 110.059C51.0202 109.892 50.3831 109.733 50.0349 109.562C49.6405 109.366 49.296 109.07 49.0459 108.69C48.5385 107.934 48.3922 106.906 48.657 106.019C48.9237 105.114 49.5645 104.388 50.4554 103.964C52.2426 103.117 54.5781 103.15 56.6116 103.523C57.6062 103.741 58.5545 104.184 59.1564 104.882C59.4564 105.228 59.6657 105.636 59.7657 106.082C59.8102 106.308 59.8379 106.54 59.8416 106.777L59.8435 107.61H61.1548L61.1529 106.764C61.1492 106.442 61.1103 106.116 61.0436 105.792C60.901 105.145 60.5825 104.525 60.1509 104.026C59.2731 103.021 58.0674 102.502 56.8932 102.239C55.7004 101.998 54.5688 101.932 53.3816 101.976C52.2093 102.037 50.9999 102.224 49.8701 102.787C48.7329 103.313 47.7495 104.391 47.3976 105.651C47.0309 106.912 47.2179 108.305 47.9551 109.42C48.3199 109.975 48.8478 110.44 49.4552 110.74C50.122 111.042 50.5887 111.125 51.1406 111.314L54.3503 112.303L57.5599 113.292L58.3618 113.539C58.6341 113.62 58.8045 113.683 59.0101 113.802C59.4027 114.017 59.7324 114.341 59.9657 114.722C60.1954 115.106 60.3343 115.546 60.3436 115.995C60.3454 116.222 60.3102 116.472 60.301 116.711C60.2343 116.935 60.2139 117.178 60.1176 117.387C59.9676 117.826 59.6842 118.195 59.362 118.532C59.0027 118.836 58.6137 119.128 58.1415 119.315C56.2968 120.101 53.9669 120.152 51.9667 119.728C50.9702 119.484 50.0164 119.045 49.3849 118.345C48.7385 117.634 48.4922 116.771 48.5403 115.685H47.2291C47.2161 116.211 47.2476 116.935 47.4476 117.539C47.6384 118.165 47.9773 118.754 48.4181 119.232C49.3071 120.201 50.4943 120.714 51.6555 121.003C52.839 121.284 54.0095 121.338 55.1818 121.28C56.3523 121.204 57.5451 121.027 58.6767 120.512C59.249 120.28 59.7787 119.906 60.2639 119.482C60.7195 119.019 61.1233 118.473 61.3418 117.848C61.4733 117.547 61.5141 117.221 61.5956 116.908C61.6159 116.587 61.6567 116.282 61.653 115.95C61.6363 115.278 61.4307 114.613 61.0844 114.039C60.7362 113.465 60.2417 112.979 59.6509 112.655Z"
		  fill="#0E3157"/>
	<path d="M23.8136 115.682C23.4561 116.893 22.7246 117.993 21.7022 118.745C20.9762 119.299 20.1168 119.671 19.2167 119.83C18.2907 120.006 17.3313 120.017 16.3979 119.884C14.5588 119.619 12.8549 118.586 11.7733 117.074C11.2325 116.32 10.8528 115.457 10.6454 114.555C10.4546 113.67 10.3972 112.633 10.3879 111.672C10.3916 110.709 10.4527 109.677 10.6324 108.784C10.8343 107.881 11.2139 107.018 11.7436 106.256C12.816 104.739 14.5106 103.689 16.3497 103.417C17.2813 103.275 18.2388 103.284 19.1686 103.452C20.0687 103.61 20.9336 103.967 21.6633 104.517C22.706 105.269 23.4524 106.382 23.8136 107.61H25.1767C24.7841 105.966 23.8191 104.456 22.443 103.463C21.5503 102.791 20.491 102.35 19.3927 102.16C18.3259 101.967 17.2276 101.956 16.1534 102.119C13.9661 102.441 11.9474 103.691 10.6731 105.497C10.0416 106.401 9.58968 107.429 9.35077 108.505C9.13222 109.603 9.08592 110.609 9.07666 111.672C9.09333 112.737 9.13407 113.739 9.36558 114.841C9.61191 115.915 10.0657 116.943 10.7083 117.839C11.9918 119.638 14.0235 120.869 16.2108 121.182C17.285 121.336 18.3833 121.323 19.4501 121.121C20.5484 120.927 21.6004 120.471 22.4893 119.795C23.8414 118.8 24.7915 117.308 25.1804 115.682H23.8136Z"
		  fill="#0E3157"/>
	<path d="M116.517 111.546C116.189 111.374 115.848 111.224 115.493 111.131L114.72 110.933L111.772 110.188L108.823 109.444L108.103 109.26C107.966 109.223 107.836 109.172 107.712 109.11C107.47 108.981 107.26 108.799 107.108 108.586C106.801 108.164 106.749 107.644 106.934 107.034C107.123 106.466 107.558 105.962 108.131 105.675C108.377 105.547 108.822 105.408 109.233 105.308C109.648 105.208 110.07 105.141 110.496 105.108C111.348 105.04 112.211 105.112 113.039 105.314C113.957 105.536 114.439 105.769 114.874 106.26C115.074 106.495 115.23 106.766 115.322 107.049C115.365 107.192 115.402 107.338 115.415 107.486C115.422 107.527 115.422 107.568 115.422 107.61H118.45C118.445 107.462 118.445 107.312 118.425 107.166C118.391 106.808 118.308 106.458 118.202 106.117C117.982 105.438 117.621 104.812 117.163 104.278C116.7 103.75 116.141 103.31 115.524 102.993C114.865 102.663 114.32 102.519 113.754 102.373C112.613 102.095 111.431 101.998 110.262 102.091C109.677 102.137 109.098 102.228 108.527 102.365C107.957 102.511 107.42 102.652 106.758 102.978C105.519 103.6 104.51 104.725 104.06 106.086C103.843 106.779 103.743 107.46 103.828 108.234C103.914 108.994 104.202 109.725 104.638 110.338C105.071 110.953 105.653 111.448 106.305 111.792C106.632 111.961 106.975 112.096 107.329 112.189L108.081 112.379L111.029 113.124L113.978 113.868L114.678 114.048C114.815 114.079 114.939 114.142 115.059 114.202C115.298 114.333 115.498 114.517 115.643 114.73C115.785 114.944 115.867 115.181 115.889 115.426C115.9 115.676 115.871 116.011 115.761 116.28C115.559 116.845 115.106 117.339 114.526 117.61C114.281 117.73 113.8 117.871 113.392 117.967C112.97 118.065 112.54 118.134 112.107 118.169C111.242 118.239 110.366 118.186 109.516 118.011C109.116 117.932 108.62 117.787 108.321 117.671C108.021 117.552 107.755 117.371 107.527 117.159C107.107 116.761 106.869 116.23 106.831 115.683H106.816H103.797C103.834 117.072 104.451 118.419 105.436 119.349C105.945 119.83 106.538 120.219 107.181 120.477C107.829 120.725 108.312 120.849 108.903 120.977C110.038 121.21 111.205 121.28 112.359 121.186C112.937 121.14 113.509 121.047 114.074 120.917C114.648 120.773 115.154 120.654 115.828 120.345C117.082 119.758 118.123 118.663 118.608 117.317C118.858 116.637 118.954 115.945 118.908 115.185C118.847 114.418 118.58 113.674 118.158 113.044C117.739 112.414 117.167 111.901 116.517 111.546Z"
		  fill="#0E3157"/>
	<path d="M92.2158 121.306C88.2523 121.306 84.9205 118.465 84.2926 114.548C83.9796 112.594 83.9796 110.622 84.2907 108.677C84.9186 104.762 88.2505 101.921 92.2139 101.921C96.1773 101.921 99.5092 104.762 100.137 108.679C100.45 110.625 100.45 112.6 100.137 114.548C99.5092 118.465 96.1773 121.306 92.2158 121.306ZM92.1898 104.951C89.7229 104.951 87.6467 106.721 87.2559 109.159C86.9948 110.783 86.9948 112.433 87.2559 114.059C87.6485 116.506 89.7229 118.276 92.1917 118.276C94.6586 118.276 96.7348 116.506 97.1256 114.068C97.3867 112.44 97.3867 110.787 97.1256 109.159C96.733 106.721 94.6568 104.951 92.1898 104.951Z"
		  fill="#0E3157"/>
	<path opacity="0.95"
		  d="M32.5 91.0194C49.897 91.0194 64 76.9164 64 59.5194C64 42.1224 49.897 28.0194 32.5 28.0194C15.103 28.0194 1 42.1224 1 59.5194C1 76.9164 15.103 91.0194 32.5 91.0194Z"
		  fill="#4CE7FF"/>
	<path opacity="0.95"
		  d="M64.0001 91.1546C87.7911 91.1546 107.077 71.8682 107.077 48.0773C107.077 24.2864 87.7911 5 64.0001 5C40.2092 5 20.9229 24.2864 20.9229 48.0773C20.9229 71.8682 40.2092 91.1546 64.0001 91.1546Z"
		  fill="#0067C2"/>
	<path opacity="0.95"
		  d="M95.5 91.0194C112.897 91.0194 127 76.9164 127 59.5194C127 42.1224 112.897 28.0194 95.5 28.0194C78.103 28.0194 64 42.1224 64 59.5194C64 76.9164 78.103 91.0194 95.5 91.0194Z"
		  fill="#4CE7FF"/>
</svg>
