<!--
  - * @LastEditors: zhanghengxin ezreal.zhang@icewhale.org
  - * @LastEditTime: 2023/1/9 下午2:28
  - * @FilePath: /CasaOS-UI/src/assets/img/logo/logo.svg
  - * @Description:
  - *
  - * Copyright (c) 2022 by IceWhale, All Rights Reserved.
  -->

<svg width="136" height="26" viewBox="0 0 136 26" fill="none" xmlns="http://www.w3.org/2000/svg">
	<path opacity="0.95"
		  d="M9.92764 25.7447C15.1344 25.7447 19.3553 21.5238 19.3553 16.317C19.3553 11.1103 15.1344 6.8894 9.92764 6.8894C4.7209 6.8894 0.5 11.1103 0.5 16.317C0.5 21.5238 4.7209 25.7447 9.92764 25.7447Z"
		  fill="#4CE7FF"/>
	<path opacity="0.95"
		  d="M19.3553 25.785C26.4757 25.785 32.2478 20.0128 32.2478 12.8925C32.2478 5.77217 26.4757 0 19.3553 0C12.235 0 6.46283 5.77217 6.46283 12.8925C6.46283 20.0128 12.235 25.785 19.3553 25.785Z"
		  fill="#0067C2"/>
	<path opacity="0.95"
		  d="M28.783 25.7447C33.9897 25.7447 38.2106 21.5238 38.2106 16.317C38.2106 11.1103 33.9897 6.8894 28.783 6.8894C23.5762 6.8894 19.3553 11.1103 19.3553 16.317C19.3553 21.5238 23.5762 25.7447 28.783 25.7447Z"
		  fill="#4CE7FF"/>
	<path d="M70.2326 10.703C69.3124 9.6378 67.9345 8.96256 66.5711 8.82557C65.2512 8.66764 63.9475 8.67892 62.605 8.93516C61.2223 9.22524 59.9669 10.0713 59.1805 11.2429C58.784 11.8263 58.4988 12.4854 58.3473 13.1736C58.307 13.3476 58.278 13.5233 58.2571 13.7005H59.4641C59.4786 13.6103 59.477 13.5168 59.498 13.4266C59.6172 12.8835 59.8428 12.3646 60.1555 11.9053C60.7759 10.9786 61.7654 10.313 62.8565 10.0858C63.9926 9.86664 65.2448 9.84569 66.4277 9.99396C67.5767 10.1132 68.6081 10.6354 69.351 11.4798C70.0956 12.3259 70.4743 13.4153 70.4437 14.574V16.6497H62.6276C62.2731 16.6529 61.9556 16.64 61.5317 16.669C61.1353 16.7142 60.7389 16.798 60.3682 16.9527C59.6237 17.2524 58.9726 17.7714 58.5133 18.4273C58.054 19.0832 57.7865 19.8744 57.7639 20.6754C57.751 21.0622 57.7591 21.378 57.7591 21.7422C57.7655 22.1419 57.8268 22.5416 57.9396 22.9267C58.3956 24.4738 59.8187 25.6728 61.4254 25.8437C61.8428 25.8872 62.1909 25.8743 62.5341 25.8759H65.6702C67.2012 25.8872 68.7387 25.2667 69.8265 24.1821C70.0553 23.9581 70.2584 23.7116 70.4469 23.4521V25.9307H71.625V14.574C71.6588 13.2122 71.1737 11.7489 70.2326 10.703ZM70.4389 18.3596V20.0404C70.426 20.0404 70.4292 20.0404 70.4389 20.042V20.5932L70.3808 20.9703C70.3131 21.2765 70.2213 21.5746 70.1036 21.8647C69.8603 22.44 69.5041 22.9703 69.0561 23.4086C68.1633 24.2933 66.9256 24.7978 65.6638 24.7897H62.5277C62.1731 24.7897 61.8234 24.7962 61.5479 24.7655C60.365 24.6414 59.3078 23.7519 58.9726 22.6109C58.8904 22.3272 58.8453 22.0323 58.8388 21.7358C58.8388 21.4038 58.8324 21.0235 58.8437 20.7141C58.8598 20.121 59.058 19.5392 59.3964 19.0542C59.7365 18.5691 60.2199 18.1855 60.7679 17.9631C61.3287 17.7262 61.8815 17.7278 62.6212 17.7391H70.4372V18.3596H70.4389Z"
		  fill="white"/>
	<path d="M102.562 20.0501V14.574C102.604 13.2122 102.119 11.7489 101.178 10.703C100.258 9.6378 98.8797 8.96256 97.5163 8.82557C96.1964 8.66764 94.8927 8.67892 93.5502 8.93516C92.1675 9.22524 90.9121 10.0713 90.1257 11.2429C89.7292 11.8263 89.444 12.4854 89.2925 13.1736C89.2522 13.3476 89.2232 13.5233 89.2022 13.7005H90.4093C90.4238 13.6103 90.4222 13.5168 90.4431 13.4266C90.5624 12.8835 90.788 12.3646 91.1006 11.9053C91.7211 10.9786 92.7106 10.313 93.8016 10.0858C94.9378 9.86664 96.19 9.84569 97.3728 9.99396C98.5219 10.1132 99.5533 10.6354 100.296 11.4798C101.041 12.3259 101.419 13.4153 101.389 14.574V16.6046H93.5728C93.2166 16.6078 92.9024 16.5949 92.4737 16.6239C92.0724 16.6707 91.6711 16.7545 91.2973 16.9108C90.5447 17.2138 89.8871 17.7375 89.4214 18.4015C88.9573 19.0638 88.6865 19.8648 88.664 20.6738C88.6511 21.0638 88.6591 21.3764 88.6591 21.7439C88.6656 22.1484 88.7268 22.5512 88.8412 22.9412C89.3021 24.5061 90.7413 25.7164 92.3657 25.8904C92.7896 25.9355 93.1377 25.921 93.4793 25.9226H96.6154C98.1577 25.9339 99.7064 25.3086 100.802 24.216C101.018 24.0049 101.21 23.7712 101.39 23.5295V25.9323H102.569V20.0533C102.604 20.0533 102.63 20.0517 102.562 20.0501ZM101.384 18.3596V20.0404C101.295 20.0404 101.337 20.042 101.384 20.0437V20.0453C101.381 20.0453 101.382 20.0453 101.379 20.0453V20.0517L101.378 20.0662L101.353 20.5013L101.283 20.9606C101.215 21.2636 101.125 21.5585 101.007 21.847C100.765 22.4175 100.412 22.9412 99.9691 23.3764C99.0843 24.2531 97.8595 24.751 96.609 24.7446H93.4713C93.1167 24.7446 92.7654 24.751 92.4979 24.7204C91.3327 24.5979 90.29 23.7212 89.9597 22.5964C89.8791 22.316 89.834 22.0259 89.8291 21.7342C89.8291 21.4038 89.8227 21.0203 89.834 20.7141C89.8501 20.1291 90.0451 19.557 90.3787 19.0783C90.7139 18.5997 91.1893 18.2226 91.7308 18.0034C92.2835 17.7697 92.8234 17.7714 93.5663 17.7826H101.382V18.3596H101.384Z"
		  fill="white"/>
	<path d="M84.9767 18.2306C84.7269 18.0824 84.4046 17.9664 84.1661 17.8971L77.6828 15.8987C77.2267 15.7488 76.6546 15.607 76.3419 15.4523C75.989 15.2767 75.678 15.0107 75.454 14.6691C74.9979 13.9906 74.8674 13.0688 75.1059 12.2711C75.346 11.4589 75.9213 10.8062 76.7206 10.4242C78.3258 9.66359 80.4224 9.69421 82.2483 10.0294C83.1411 10.2244 83.992 10.6225 84.5335 11.251C84.8026 11.562 84.9912 11.9278 85.0814 12.3291C85.1217 12.5322 85.1459 12.7384 85.1507 12.9528L85.1523 13.7005H86.3304L86.3288 12.9399C86.3239 12.6498 86.2917 12.3581 86.2305 12.068C86.1016 11.4879 85.8179 10.9303 85.4279 10.4839C84.6399 9.57979 83.5569 9.11566 82.5029 8.88037C81.4312 8.66442 80.416 8.60479 79.3491 8.64347C78.2968 8.69987 77.2106 8.86586 76.1953 9.37189C75.1752 9.84408 74.2904 10.8126 73.9762 11.9423C73.6458 13.0753 73.815 14.3258 74.4757 15.325C74.8029 15.8246 75.2767 16.242 75.823 16.5111C76.4209 16.7835 76.8399 16.8576 77.3363 17.0252L83.8196 19.0235C84.0629 19.0977 84.216 19.1541 84.4014 19.2588C84.7527 19.4522 85.0492 19.7423 85.2603 20.0856C85.4666 20.4304 85.5923 20.8253 85.6004 21.2265C85.6036 21.4312 85.5713 21.6568 85.5617 21.8712C85.502 22.0726 85.4843 22.2902 85.3973 22.4787C85.2619 22.8736 85.0073 23.2039 84.7188 23.5069C84.3965 23.7793 84.0468 24.0419 83.623 24.2095C81.9663 24.9138 79.8745 24.9621 78.0792 24.5802C77.1848 24.361 76.329 23.9662 75.7618 23.3377C75.1816 22.6995 74.9608 21.9244 75.0043 20.9494H73.8263C73.8134 21.4215 73.8424 22.071 74.0229 22.6141C74.1937 23.1765 74.4983 23.7051 74.8948 24.1338C75.6925 25.004 76.7593 25.465 77.802 25.7244C78.8656 25.9774 79.9148 26.0258 80.9687 25.9742C82.0195 25.9065 83.0912 25.7454 84.1064 25.2845C84.6189 25.0766 85.0959 24.7414 85.5311 24.3594C85.9404 23.9436 86.303 23.4537 86.4996 22.8929C86.6173 22.6205 86.6543 22.3305 86.7268 22.0484C86.7462 21.7616 86.7816 21.486 86.7784 21.1879C86.7639 20.5851 86.5786 19.9873 86.2675 19.4716C85.9517 18.9575 85.5069 18.5223 84.9767 18.2306Z"
		  fill="white"/>
	<path d="M54.7325 20.9494C54.4118 22.0372 53.7543 23.025 52.8357 23.7003C52.183 24.1983 51.4127 24.5319 50.6037 24.6737C49.7721 24.8316 48.9116 24.8413 48.0736 24.722C46.4217 24.4851 44.8923 23.5569 43.9206 22.1983C43.4355 21.5215 43.0938 20.7463 42.9069 19.9373C42.7345 19.1428 42.6845 18.2113 42.6764 17.3475C42.6813 16.4837 42.7345 15.5555 42.8972 14.7545C43.0777 13.9423 43.4194 13.1687 43.8948 12.4854C44.8585 11.1237 46.3798 10.1809 48.0317 9.93594C48.8681 9.80863 49.7286 9.81507 50.5634 9.96817C51.3708 10.1084 52.1476 10.4307 52.8019 10.9254C53.7382 11.6007 54.407 12.5999 54.7325 13.7022H55.9573C55.6044 12.226 54.7374 10.8706 53.5029 9.97945C52.702 9.37673 51.7511 8.98028 50.7649 8.80946C49.8076 8.63541 48.8197 8.62574 47.856 8.774C45.8915 9.06409 44.0785 10.1873 42.9343 11.807C42.367 12.6192 41.9609 13.541 41.7466 14.5079C41.5516 15.4942 41.5097 16.3967 41.5 17.3523C41.5145 18.308 41.5516 19.2089 41.7595 20.1968C41.9802 21.1605 42.388 22.0839 42.9649 22.8881C44.1172 24.5028 45.9415 25.6084 47.906 25.8888C48.8697 26.0258 49.8559 26.0161 50.8148 25.834C51.8011 25.6599 52.7455 25.2506 53.5432 24.6431C54.7567 23.7502 55.6108 22.411 55.9589 20.951H54.7325V20.9494Z"
		  fill="white"/>
	<path d="M133.456 17.2347C133.162 17.08 132.855 16.9462 132.537 16.8624L131.844 16.6836L126.552 15.3492L125.906 15.1848C125.783 15.151 125.665 15.1042 125.554 15.0494C125.337 14.9318 125.148 14.7706 125.013 14.5789C124.737 14.1985 124.69 13.7312 124.856 13.1865C125.027 12.6756 125.417 12.2227 125.931 11.9649C126.152 11.8489 126.552 11.7264 126.921 11.6361C127.293 11.5459 127.673 11.4863 128.055 11.4573C128.821 11.396 129.594 11.4605 130.339 11.641C131.164 11.8408 131.596 12.0503 131.988 12.4919C132.168 12.703 132.307 12.9447 132.389 13.201C132.426 13.3299 132.461 13.4604 132.471 13.5926C132.477 13.6296 132.477 13.6667 132.477 13.7038H135.196C135.191 13.57 135.191 13.4363 135.172 13.3041C135.141 12.9834 135.067 12.6692 134.972 12.363C134.774 11.7538 134.45 11.1913 134.039 10.7127C133.623 10.2389 133.122 9.84247 132.568 9.55884C131.976 9.26392 131.486 9.13338 130.979 9.00124C129.955 8.75144 128.893 8.66442 127.844 8.74822C127.319 8.78851 126.798 8.87231 126.286 8.99479C125.775 9.12533 125.292 9.25264 124.698 9.54433C123.585 10.1035 122.679 11.1124 122.276 12.3339C122.083 12.956 121.993 13.5668 122.068 14.263C122.146 14.9463 122.405 15.6022 122.795 16.1517C123.185 16.7029 123.706 17.1477 124.292 17.4571C124.587 17.6086 124.895 17.7295 125.213 17.8133L125.888 17.9857L131.18 19.3201L131.809 19.4812C131.931 19.5102 132.042 19.565 132.152 19.6198C132.366 19.7375 132.547 19.9018 132.676 20.0936C132.803 20.287 132.877 20.4997 132.896 20.7189C132.908 20.9429 132.88 21.2443 132.782 21.486C132.6 21.992 132.194 22.4384 131.672 22.6802C131.453 22.7882 131.019 22.9155 130.653 23.0009C130.274 23.0879 129.888 23.1508 129.499 23.183C128.723 23.2458 127.936 23.1975 127.172 23.0412C126.813 22.9686 126.366 22.8397 126.099 22.735C125.83 22.6286 125.591 22.4658 125.385 22.2757C125.008 21.9179 124.795 21.4409 124.76 20.9494H122.035C122.067 22.1951 122.621 23.407 123.506 24.2402C123.962 24.6721 124.495 25.0218 125.072 25.2522C125.654 25.4746 126.089 25.5874 126.619 25.7019C127.64 25.9114 128.687 25.9742 129.723 25.8904C130.242 25.8485 130.756 25.7663 131.264 25.6487C131.78 25.5197 132.233 25.4118 132.838 25.1346C133.965 24.6076 134.9 23.6246 135.335 22.4159C135.559 21.8067 135.646 21.1846 135.604 20.5013C135.549 19.8132 135.309 19.1444 134.932 18.5804C134.553 18.0147 134.041 17.5538 133.456 17.2347Z"
		  fill="white"/>
	<path d="M112.604 26C109.045 26 106.053 23.4489 105.49 19.9325C105.208 18.1775 105.208 16.408 105.489 14.661C106.053 11.1462 109.045 8.59512 112.602 8.59512C116.16 8.59512 119.153 11.1462 119.717 14.6627C119.998 16.4112 119.998 18.1839 119.717 19.9325C119.153 23.4473 116.162 26 112.604 26ZM112.581 11.3138C110.365 11.3138 108.502 12.9028 108.151 15.0929C107.917 16.5514 107.917 18.0324 108.151 19.4941C108.504 21.6907 110.367 23.2813 112.583 23.2813C114.799 23.2813 116.662 21.6923 117.013 19.5022C117.247 18.0389 117.247 16.5562 117.013 15.0929C116.66 12.9028 114.797 11.3138 112.581 11.3138Z"
		  fill="white"/>
</svg>
