<!--
  - * @LastEditors: zhanghengxin ezreal.zhang@icewhale.org
  - * @LastEditTime: 2022/12/1 下午6:19
  - * @FilePath: /CasaOS-UI/src/assets/img/logo/logo.svg
  - * @Description:
  - *
  - * Copyright (c) 2022 by IceWhale, All Rights Reserved.
  -->

<svg width="125" height="24" viewBox="0 0 125 24" fill="none" xmlns="http://www.w3.org/2000/svg">
	<path opacity="0.95"
		  d="M8.70246 23.7644C13.5087 23.7644 17.4049 19.8682 17.4049 15.0619C17.4049 10.2557 13.5087 6.35947 8.70246 6.35947C3.89623 6.35947 0 10.2557 0 15.0619C0 19.8682 3.89623 23.7644 8.70246 23.7644Z"
		  fill="#4CE7FF"/>
	<path opacity="0.95"
		  d="M17.405 23.8016C23.9776 23.8016 29.3058 18.4734 29.3058 11.9008C29.3058 5.32817 23.9776 0 17.405 0C10.8323 0 5.50415 5.32817 5.50415 11.9008C5.50415 18.4734 10.8323 23.8016 17.405 23.8016Z"
		  fill="#0067C2"/>
	<path opacity="0.95"
		  d="M26.1075 23.7644C30.9137 23.7644 34.81 19.8682 34.81 15.0619C34.81 10.2557 30.9137 6.35947 26.1075 6.35947C21.3013 6.35947 17.405 10.2557 17.405 15.0619C17.405 19.8682 21.3013 23.7644 26.1075 23.7644Z"
		  fill="#4CE7FF"/>
	<path d="M64.5784 9.87977C63.7289 8.89646 62.4571 8.27316 61.1985 8.14671C59.9802 8.00093 58.7767 8.01134 57.5376 8.24787C56.2612 8.51564 55.1024 9.29663 54.3764 10.3781C54.0105 10.9166 53.7471 11.5251 53.6073 12.1603C53.5701 12.3209 53.5433 12.4831 53.524 12.6467H54.6382C54.6516 12.5634 54.6501 12.4771 54.6695 12.3938C54.7795 11.8925 54.9878 11.4135 55.2764 10.9895C55.8491 10.1341 56.7625 9.51977 57.7696 9.31002C58.8184 9.1077 59.9742 9.08837 61.0661 9.22522C62.1268 9.33531 63.0789 9.81729 63.7647 10.5968C64.4519 11.3778 64.8015 12.3834 64.7732 13.453V15.369H57.5584C57.2311 15.372 56.9381 15.3601 56.5468 15.3869C56.1809 15.4285 55.8149 15.5059 55.4728 15.6487C54.7855 15.9254 54.1845 16.4044 53.7605 17.0098C53.3366 17.6153 53.0896 18.3457 53.0688 19.085C53.0569 19.4421 53.0643 19.7336 53.0643 20.0698C53.0703 20.4388 53.1268 20.8077 53.231 21.1632C53.6519 22.5913 54.9655 23.6981 56.4486 23.8558C56.8339 23.8959 57.1552 23.884 57.4721 23.8855H60.367C61.7802 23.8959 63.1994 23.3232 64.2035 22.3221C64.4147 22.1153 64.6022 21.8877 64.7762 21.6482V23.9361H65.8637V13.453C65.8949 12.196 65.4471 10.8452 64.5784 9.87977ZM64.7688 16.9474V18.4989C64.7569 18.4989 64.7599 18.4989 64.7688 18.5004V19.0092L64.7152 19.3573C64.6527 19.6399 64.568 19.9151 64.4594 20.1829C64.2347 20.714 63.906 21.2034 63.4924 21.608C62.6683 22.4247 61.5258 22.8903 60.361 22.8829H57.4661C57.1389 22.8829 56.8161 22.8888 56.5617 22.8606C55.4698 22.746 54.4939 21.9249 54.1845 20.8716C54.1086 20.6098 54.067 20.3376 54.061 20.0639C54.061 19.7574 54.0551 19.4064 54.0655 19.1207C54.0804 18.5733 54.2633 18.0363 54.5757 17.5885C54.8896 17.1407 55.3359 16.7867 55.8417 16.5814C56.3594 16.3627 56.8696 16.3642 57.5524 16.3746H64.7673V16.9474H64.7688Z"
		  fill="white"/>
	<path d="M94.4211 18.5079V13.453C94.4598 12.196 94.012 10.8452 93.1432 9.87977C92.2938 8.89646 91.0219 8.27316 89.7634 8.14671C88.5451 8.00093 87.3416 8.01134 86.1024 8.24787C84.8261 8.51564 83.6672 9.29663 82.9413 10.3781C82.5753 10.9166 82.312 11.5251 82.1722 12.1603C82.135 12.3209 82.1082 12.4831 82.0889 12.6467H83.2031C83.2165 12.5634 83.215 12.4771 83.2343 12.3938C83.3444 11.8925 83.5527 11.4135 83.8413 10.9895C84.414 10.1341 85.3274 9.51977 86.3345 9.31002C87.3832 9.1077 88.5391 9.08837 89.631 9.22522C90.6917 9.33531 91.6437 9.81729 92.3295 10.5968C93.0168 11.3778 93.3664 12.3834 93.3381 13.453V15.3274H86.1233C85.7945 15.3303 85.5044 15.3184 85.1087 15.3452C84.7383 15.3884 84.3679 15.4657 84.0228 15.61C83.3281 15.8897 82.7211 16.3731 82.2912 16.986C81.8628 17.5974 81.6128 18.3368 81.592 19.0836C81.5801 19.4436 81.5876 19.7321 81.5876 20.0713C81.5935 20.4447 81.65 20.8166 81.7557 21.1766C82.1811 22.6211 83.5095 23.7383 85.009 23.8989C85.4003 23.9406 85.7216 23.9272 86.037 23.9287H88.9318C90.3555 23.9391 91.7851 23.3619 92.7966 22.3533C92.996 22.1584 93.173 21.9427 93.3396 21.7196V23.9376H94.427V18.5108C94.4598 18.5108 94.4836 18.5093 94.4211 18.5079ZM93.3336 16.9474V18.4989C93.2518 18.4989 93.2905 18.5004 93.3336 18.5019V18.5034C93.3307 18.5034 93.3322 18.5034 93.3292 18.5034V18.5093L93.3277 18.5227L93.3054 18.9244L93.2399 19.3483C93.1775 19.628 93.0942 19.9002 92.9856 20.1665C92.7624 20.6931 92.4366 21.1766 92.0275 21.5783C91.2108 22.3875 90.0803 22.8472 88.9259 22.8412H86.0295C85.7023 22.8412 85.378 22.8472 85.131 22.8189C84.0555 22.7059 83.093 21.8966 82.7881 20.8583C82.7137 20.5994 82.672 20.3317 82.6676 20.0624C82.6676 19.7574 82.6616 19.4034 82.672 19.1207C82.6869 18.5807 82.8669 18.0526 83.1748 17.6108C83.4842 17.169 83.9231 16.8209 84.4229 16.6186C84.9332 16.4029 85.4315 16.4044 86.1173 16.4148H93.3322V16.9474H93.3336Z"
		  fill="white"/>
	<path d="M78.1884 16.8284C77.9578 16.6915 77.6603 16.5844 77.4401 16.5204L71.4555 14.6758C71.0345 14.5374 70.5064 14.4065 70.2178 14.2637C69.892 14.1016 69.6049 13.8561 69.3981 13.5408C68.9771 12.9145 68.8566 12.0636 69.0768 11.3272C69.2985 10.5775 69.8295 9.97498 70.5674 9.62241C72.049 8.92027 73.9844 8.94853 75.6699 9.25795C76.494 9.43795 77.2794 9.80539 77.7793 10.3856C78.0277 10.6727 78.2018 11.0103 78.2851 11.3808C78.3222 11.5682 78.3446 11.7586 78.349 11.9565L78.3505 12.6467H79.438L79.4365 11.9446C79.432 11.6768 79.4022 11.4075 79.3457 11.1398C79.2267 10.6042 78.9649 10.0895 78.6049 9.67746C77.8775 8.84291 76.8778 8.41448 75.9049 8.19729C74.9156 7.99795 73.9785 7.94291 72.9937 7.97862C72.0223 8.03068 71.0196 8.1839 70.0824 8.65101C69.1408 9.08688 68.3241 9.98093 68.034 11.0237C67.729 12.0695 67.8852 13.2239 68.4952 14.1462C68.7971 14.6074 69.2345 14.9927 69.7388 15.2411C70.2907 15.4925 70.6775 15.5609 71.1356 15.7156L77.1203 17.5603C77.3449 17.6287 77.4862 17.6807 77.6573 17.7774C77.9816 17.956 78.2553 18.2237 78.4502 18.5406C78.6406 18.8589 78.7566 19.2234 78.7641 19.5938C78.767 19.7827 78.7373 19.991 78.7284 20.1888C78.6733 20.3748 78.657 20.5756 78.5766 20.7497C78.4517 21.1141 78.2166 21.4191 77.9504 21.6988C77.6528 21.9502 77.33 22.1926 76.9388 22.3474C75.4095 22.9974 73.4786 23.0421 71.8214 22.6895C70.9958 22.4872 70.2059 22.1227 69.6823 21.5426C69.1467 20.9535 68.9429 20.2379 68.9831 19.3379H67.8957C67.8838 19.7738 67.9105 20.3733 68.0771 20.8746C68.2348 21.3938 68.516 21.8817 68.8819 22.2774C69.6183 23.0807 70.6031 23.5062 71.5656 23.7457C72.5474 23.9792 73.5158 24.0239 74.4887 23.9763C75.4586 23.9138 76.4479 23.765 77.3851 23.3396C77.8581 23.1477 78.2984 22.8383 78.7001 22.4857C79.0779 22.1019 79.4127 21.6497 79.5941 21.132C79.7027 20.8806 79.737 20.6128 79.8039 20.3525C79.8218 20.0877 79.8545 19.8333 79.8515 19.5581C79.8381 19.0017 79.667 18.4498 79.3799 17.9738C79.0884 17.4993 78.6778 17.0976 78.1884 16.8284Z"
		  fill="white"/>
	<path d="M50.2706 19.3379C49.9746 20.3421 49.3676 21.254 48.5197 21.8773C47.9172 22.3369 47.2061 22.6449 46.4594 22.7758C45.6918 22.9216 44.8974 22.9305 44.1238 22.8204C42.599 22.6017 41.1873 21.7449 40.2903 20.4908C39.8425 19.866 39.5271 19.1505 39.3546 18.4037C39.1954 17.6703 39.1493 16.8105 39.1419 16.0131C39.1463 15.2158 39.1954 14.3589 39.3457 13.6196C39.5123 12.8698 39.8276 12.1558 40.2665 11.5251C41.1561 10.268 42.5604 9.39779 44.0852 9.17167C44.8572 9.05415 45.6516 9.0601 46.4222 9.20142C47.1675 9.33085 47.8845 9.62836 48.4885 10.0851C49.3527 10.7084 49.9701 11.6307 50.2706 12.6482H51.4012C51.0754 11.2856 50.2751 10.0345 49.1356 9.21184C48.3962 8.65547 47.5185 8.28952 46.6081 8.13184C45.7245 7.97118 44.8126 7.96225 43.923 8.09911C42.1096 8.36688 40.4361 9.40374 39.3799 10.8988C38.8562 11.6485 38.4814 12.4994 38.2835 13.392C38.1035 14.3024 38.0648 15.1355 38.0559 16.0176C38.0693 16.8998 38.1035 17.7313 38.2954 18.6432C38.4992 19.5328 38.8756 20.3852 39.4081 21.1275C40.4718 22.6181 42.1557 23.6386 43.9691 23.8974C44.8587 24.0239 45.7691 24.0149 46.6542 23.8469C47.5647 23.6862 48.4364 23.3083 49.1727 22.7475C50.2929 21.9234 51.0813 20.6872 51.4027 19.3394H50.2706V19.3379Z"
		  fill="white"/>
	<path d="M122.938 15.909C122.668 15.7662 122.383 15.6427 122.09 15.5654L121.451 15.4003L116.565 14.1685L115.969 14.0168C115.856 13.9856 115.747 13.9424 115.645 13.8918C115.444 13.7832 115.27 13.6345 115.145 13.4575C114.89 13.1064 114.847 12.675 115.001 12.1722C115.158 11.7006 115.518 11.2826 115.993 11.0446C116.197 10.9375 116.565 10.8244 116.906 10.7411C117.25 10.6578 117.601 10.6027 117.953 10.576C118.66 10.5194 119.374 10.5789 120.061 10.7456C120.823 10.93 121.222 11.1234 121.583 11.531C121.75 11.7259 121.878 11.949 121.954 12.1856C121.988 12.3046 122.021 12.4251 122.029 12.547C122.035 12.5813 122.035 12.6155 122.035 12.6497H124.545C124.541 12.5262 124.541 12.4027 124.523 12.2808C124.494 11.9847 124.426 11.6946 124.338 11.412C124.155 10.8497 123.856 10.3305 123.477 9.8887C123.093 9.45134 122.63 9.08539 122.119 8.82358C121.573 8.55134 121.121 8.43085 120.652 8.30887C119.707 8.07829 118.727 7.99796 117.759 8.07531C117.274 8.1125 116.793 8.18986 116.32 8.30292C115.848 8.42341 115.402 8.54093 114.855 8.81019C113.827 9.32638 112.991 10.2576 112.619 11.3852C112.44 11.9594 112.357 12.5232 112.427 13.1659C112.498 13.7966 112.738 14.4021 113.098 14.9094C113.458 15.4181 113.938 15.8287 114.48 16.1143C114.752 16.2541 115.036 16.3657 115.329 16.4431L115.953 16.6022L120.838 17.834L121.418 17.9827C121.531 18.0095 121.634 18.0601 121.735 18.1107C121.933 18.2193 122.099 18.371 122.218 18.548C122.336 18.7265 122.404 18.9229 122.422 19.1252C122.433 19.332 122.407 19.6102 122.317 19.8333C122.148 20.3004 121.774 20.7125 121.292 20.9356C121.089 21.0353 120.689 21.1528 120.351 21.2317C120.002 21.312 119.645 21.37 119.286 21.3998C118.569 21.4578 117.843 21.4131 117.138 21.2688C116.806 21.2019 116.394 21.0829 116.147 20.9862C115.899 20.888 115.679 20.7378 115.488 20.5622C115.14 20.232 114.944 19.7917 114.911 19.3379H112.396C112.425 20.4879 112.937 21.6065 113.754 22.3756C114.175 22.7743 114.667 23.0971 115.2 23.3098C115.737 23.5151 116.139 23.6193 116.628 23.7249C117.57 23.9183 118.537 23.9763 119.493 23.8989C119.972 23.8602 120.447 23.7844 120.915 23.6758C121.391 23.5568 121.809 23.4571 122.369 23.2012C123.408 22.7148 124.271 21.8074 124.673 20.6917C124.88 20.1293 124.96 19.5551 124.921 18.9244C124.871 18.2892 124.649 17.6718 124.301 17.1512C123.951 16.629 123.478 16.2036 122.938 15.909Z"
		  fill="white"/>
	<path d="M103.69 24.0001C100.406 24.0001 97.6432 21.6452 97.1241 18.3993C96.8637 16.7793 96.8637 15.1459 97.1226 13.5333C97.6432 10.2889 100.406 7.93399 103.689 7.93399C106.973 7.93399 109.736 10.2889 110.257 13.5348C110.515 15.1489 110.515 16.7852 110.257 18.3993C109.736 21.6437 106.975 24.0001 103.69 24.0001ZM103.669 10.4436C101.624 10.4436 99.9044 11.9103 99.5801 13.932C99.3644 15.2783 99.3644 16.6454 99.5801 17.9946C99.9059 20.0222 101.626 21.4905 103.671 21.4905C105.716 21.4905 107.436 20.0237 107.76 18.0021C107.976 16.6513 107.976 15.2827 107.76 13.932C107.435 11.9103 105.715 10.4436 103.669 10.4436Z"
		  fill="white"/>
</svg>
